<svg width="44" height="44" viewBox="0 0 44 44" fill="none" xmlns="http://www.w3.org/2000/svg">
<g clip-path="url(#clip0_41_199)">
<path d="M13.24 25.39L12.9 25.02C12.65 24.73 12.43 24.37 12.22 23.93L12 23.47L1 33.7L4.55 37.52L15.29 27.55L13.24 25.39Z" fill="#BF0000"/>
<path d="M34.7499 13.76C36.5199 11.99 36.5199 9.10995 34.7499 7.33995C32.9799 5.56995 30.0999 5.56995 28.3299 7.33995C26.5599 9.10995 26.5599 11.99 28.3299 13.76C30.0999 15.53 32.9799 15.53 34.7499 13.76Z" fill="#BF0000"/>
<path d="M39.7101 16.0401L38.1901 17.5601C36.1701 19.5801 32.8701 19.5901 30.8501 17.5601L29.3601 16.0701L24.4801 11.1801L23.0901 9.79008C19.3601 6.07008 13.1101 6.28008 9.13011 10.2501L7.61011 11.7701L11.1501 15.3101L12.6701 13.7901C14.6901 11.7701 17.7801 11.5601 19.5501 13.3201L20.5201 14.2901L14.9601 19.8501C14.3401 20.3501 13.9801 21.0901 13.9801 21.8701C13.9801 22.5801 14.2601 23.2401 14.7701 23.7401L21.0801 30.0601H14.2601V35.2701H27.3801C28.4401 35.2701 29.3801 34.6401 29.7901 33.6601C30.2001 32.6801 29.9701 31.5701 29.2201 30.8201L22.6401 24.2401L26.5501 20.3301L27.3201 21.1001C31.2901 25.0701 37.7601 25.0701 41.7301 21.1001L43.2501 19.5801L39.7101 16.0401Z" fill="#BF0000"/>
</g>
<defs>
<clipPath id="clip0_41_199">
<rect width="42.25" height="31.51" fill="white" transform="translate(1 6)"/>
</clipPath>
</defs>
</svg>
