<svg width="44" height="44" viewBox="0 0 44 44" fill="none" xmlns="http://www.w3.org/2000/svg">
<g clip-path="url(#clip0_132_243)">
<path d="M13.24 25.39L12.9 25.02C12.65 24.73 12.43 24.37 12.22 23.93L12 23.47L1 33.7L4.55 37.52L15.29 27.55L13.24 25.39Z" fill="#231815"/>
<path d="M34.75 13.76C36.52 11.99 36.52 9.11001 34.75 7.34001C32.98 5.57001 30.1 5.57001 28.33 7.34001C26.56 9.11001 26.56 11.99 28.33 13.76C30.1 15.53 32.98 15.53 34.75 13.76Z" fill="#231815"/>
<path d="M39.71 16.04L38.19 17.56C36.17 19.58 32.87 19.59 30.85 17.56L29.36 16.07L24.48 11.18L23.09 9.79002C19.36 6.07002 13.11 6.28002 9.12999 10.25L7.60999 11.77L11.15 15.31L12.67 13.79C14.69 11.77 17.78 11.56 19.55 13.32L20.52 14.29L14.96 19.85C14.34 20.35 13.98 21.09 13.98 21.87C13.98 22.58 14.26 23.24 14.77 23.74L21.08 30.06H14.26V35.27H27.38C28.44 35.27 29.38 34.64 29.79 33.66C30.2 32.68 29.97 31.57 29.22 30.82L22.64 24.24L26.55 20.33L27.32 21.1C31.29 25.07 37.76 25.07 41.73 21.1L43.25 19.58L39.71 16.04Z" fill="#231815"/>
</g>
<defs>
<clipPath id="clip0_132_243">
<rect width="42.25" height="31.51" fill="white" transform="translate(1 6)"/>
</clipPath>
</defs>
</svg>
