<?xml version="1.0" encoding="UTF-8"?><svg id="_レイヤー_2" xmlns="http://www.w3.org/2000/svg" viewBox="0 0 291.05 41.3"><defs><style>.cls-1{fill:none;}.cls-1,.cls-2{stroke-width:0px;}.cls-2{fill:#002896;}</style></defs><g id="_レイヤー_1-2"><rect class="cls-1" x="0" y="2.04" width="291.05" height="32.6"/><path class="cls-2" d="M149.43,30.77c-.76,0-1.4-.26-1.92-.78-.52-.52-.78-1.16-.78-1.92V6.12c0-.73.26-1.36.78-1.88.52-.52,1.16-.78,1.92-.78h6.16c3.18,0,5.73.79,7.64,2.36,1.91,1.58,2.87,3.77,2.87,6.58,0,1.75-.39,3.26-1.16,4.56-.77,1.29-1.88,2.31-3.31,3.04l5.32,6.58c.2.25.35.51.46.78.11.27.17.57.17.91,0,.7-.25,1.29-.74,1.77-.49.48-1.08.72-1.75.72-.51,0-.93-.11-1.27-.34-.34-.22-.69-.58-1.06-1.06l-6.04-8.1c-.48.03-.96.04-1.43.04h-3.21v6.75c0,.76-.27,1.4-.8,1.92-.53.52-1.15.78-1.86.78ZM155.38,8.1h-3.29v8.57h3.29c1.63,0,2.91-.34,3.82-1.03.91-.69,1.37-1.77,1.37-3.23s-.46-2.51-1.37-3.23c-.91-.72-2.19-1.08-3.82-1.08Z"/><path class="cls-2" d="M177.4,30.85c-1.8,0-3.42-.47-4.85-1.41-1.43-.94-2.57-2.26-3.42-3.97-.84-1.7-1.27-3.68-1.27-5.93s.42-4.18,1.27-5.89c.84-1.7,1.98-3.04,3.42-4.01,1.43-.97,3.05-1.46,4.85-1.46,1.52,0,2.87.37,4.05,1.1,1.18.73,2.05,1.7,2.62,2.91l.21-1.65c.06-.59.3-1.1.74-1.52.44-.42.99-.63,1.67-.63s1.2.23,1.67.7.7,1.03.7,1.71v17.52c0,.68-.23,1.25-.7,1.71-.46.46-1.03.7-1.71.7-.59,0-1.11-.19-1.56-.57-.45-.38-.72-.91-.8-1.58l-.21-1.69c-.56,1.21-1.44,2.17-2.62,2.89-1.18.72-2.53,1.08-4.05,1.08ZM178.5,26c1.6,0,2.9-.59,3.88-1.77.98-1.18,1.48-2.74,1.48-4.69s-.49-3.5-1.48-4.68c-.99-1.18-2.28-1.77-3.88-1.77s-2.81.6-3.8,1.79c-.99,1.2-1.48,2.75-1.48,4.66s.49,3.5,1.48,4.69c.98,1.18,2.25,1.77,3.8,1.77Z"/><path class="cls-2" d="M195.07,30.81c-.73,0-1.35-.26-1.86-.78-.51-.52-.76-1.15-.76-1.88V2.62c0-.7.25-1.31.76-1.84.51-.52,1.13-.78,1.86-.78s1.36.26,1.88.78c.52.52.78,1.13.78,1.84v14.69l8.1-8.02c.68-.65,1.34-.97,1.98-.97.59,0,1.1.22,1.54.65.44.44.65.95.65,1.54,0,.37-.08.69-.23.97-.16.28-.42.61-.78.97l-6.42,6.2,7.85,8.02c.45.51.67,1.07.67,1.69,0,.68-.23,1.25-.7,1.73s-1.03.72-1.71.72c-.42,0-.8-.09-1.12-.27-.32-.18-.72-.53-1.2-1.03l-8.65-8.82v7.47c0,.73-.26,1.36-.78,1.88-.52.52-1.15.78-1.88.78Z"/><path class="cls-2" d="M220.21,30.85c-2.39,0-4.27-.84-5.63-2.53-1.37-1.69-2.05-4.14-2.05-7.34v-10.09c0-.7.25-1.31.76-1.84.51-.52,1.12-.78,1.86-.78s1.36.26,1.88.78c.52.52.78,1.13.78,1.84v9.67c0,1.74.35,3.08,1.06,4.01.7.93,1.69,1.39,2.95,1.39,1.35,0,2.47-.57,3.36-1.71.89-1.14,1.33-2.55,1.33-4.24v-9.12c0-.7.25-1.31.76-1.84.51-.52,1.13-.78,1.86-.78s1.36.26,1.88.78c.52.52.78,1.13.78,1.84v17.47c0,.68-.24,1.24-.72,1.71-.48.46-1.04.7-1.69.7-.59,0-1.11-.2-1.56-.59-.45-.39-.72-.91-.8-1.56l-.21-1.73c-.68,1.24-1.61,2.21-2.81,2.91-1.2.7-2.46,1.06-3.78,1.06Z"/><path class="cls-2" d="M237.79,30.81c-.73,0-1.35-.26-1.86-.78-.51-.52-.76-1.15-.76-1.88V10.76c0-.65.23-1.2.7-1.67.46-.46,1.02-.7,1.67-.7s1.22.21,1.65.63c.42.42.68.94.76,1.56l.17,1.56c.68-1.24,1.6-2.21,2.76-2.91,1.17-.7,2.44-1.06,3.82-1.06,1.52,0,2.83.41,3.93,1.22,1.1.82,1.93,1.98,2.49,3.5.73-1.52,1.72-2.69,2.98-3.5,1.25-.82,2.62-1.22,4.12-1.22,2.28,0,4.08.85,5.4,2.55,1.32,1.7,1.98,4.16,1.98,7.37v10.05c0,.73-.26,1.36-.78,1.88-.52.52-1.13.78-1.84.78s-1.36-.26-1.88-.78-.78-1.15-.78-1.88v-9.71c0-1.69-.33-3-.99-3.93-.66-.93-1.6-1.39-2.81-1.39-1.35,0-2.44.58-3.27,1.73-.83,1.15-1.25,2.55-1.25,4.18v9.12c0,.73-.26,1.36-.78,1.88-.52.52-1.15.78-1.88.78s-1.35-.26-1.86-.78c-.51-.52-.76-1.15-.76-1.88v-9.71c0-1.72-.33-3.03-.99-3.95-.66-.91-1.58-1.37-2.76-1.37-1.35,0-2.44.58-3.27,1.73-.83,1.15-1.25,2.56-1.25,4.22v9.07c0,.73-.26,1.36-.78,1.88-.52.52-1.15.78-1.88.78Z"/><path class="cls-2" d="M279.4,30.85c-1.8,0-3.42-.47-4.85-1.41-1.43-.94-2.57-2.26-3.42-3.97-.84-1.7-1.27-3.68-1.27-5.93s.42-4.18,1.27-5.89c.84-1.7,1.98-3.04,3.42-4.01,1.43-.97,3.05-1.46,4.85-1.46,1.52,0,2.87.37,4.05,1.1,1.18.73,2.05,1.7,2.62,2.91l.21-1.65c.06-.59.3-1.1.74-1.52.44-.42.99-.63,1.67-.63s1.2.23,1.67.7c.46.46.7,1.03.7,1.71v17.52c0,.68-.23,1.25-.7,1.71s-1.03.7-1.71.7c-.59,0-1.11-.19-1.56-.57-.45-.38-.72-.91-.8-1.58l-.21-1.69c-.56,1.21-1.43,2.17-2.62,2.89-1.18.72-2.53,1.08-4.05,1.08ZM280.5,26c1.6,0,2.9-.59,3.88-1.77.98-1.18,1.48-2.74,1.48-4.69s-.49-3.5-1.48-4.68c-.99-1.18-2.28-1.77-3.88-1.77s-2.81.6-3.8,1.79c-.99,1.2-1.48,2.75-1.48,4.66s.49,3.5,1.48,4.69c.98,1.18,2.25,1.77,3.8,1.77Z"/><polygon class="cls-2" points="111.27 34.64 27.64 34.64 34.31 41.3 111.27 34.64"/><path class="cls-2" d="M35.39,7.7v1.01c-1.55-.99-2.95-1.56-4.85-1.56-5.86,0-10.31,5.34-10.31,11.9s4.45,11.9,10.31,11.9c1.91,0,3.3-.57,4.85-1.56v1.01h5.15V7.7h-5.15ZM30.54,25.48c-2.89,0-5-2.84-5-6.44s2.12-6.44,5-6.44,4.93,2.85,4.93,6.44-2.04,6.44-4.93,6.44Z"/><path class="cls-2" d="M76.65,7.7v13.33c0,2.5-1.72,4.61-4.22,4.61s-4.22-2.11-4.22-4.61V7.7h-5.15v13.33c0,5.47,3.74,9.92,9.21,9.92,2.53,0,4.38-1.4,4.38-1.4v.84h5.15V7.7h-5.15Z"/><path class="cls-2" d="M124.63,30.39v-13.33c0-2.5,1.72-4.61,4.22-4.61s4.22,2.11,4.22,4.61v13.33h5.15v-13.33c0-5.47-3.74-9.92-9.21-9.92-2.53,0-4.38,1.4-4.38,1.4v-.84h-5.15v22.69h5.15Z"/><path class="cls-2" d="M5.39,30.39v-8.79h3.81l6.6,8.79h6.74l-7.97-10.61c2.48-1.78,4.11-4.68,4.11-7.97,0-5.39-4.39-9.77-9.78-9.77H0v28.35h5.39ZM5.39,7.43h3.51c2.42,0,4.4,1.97,4.4,4.39s-1.98,4.4-4.4,4.4h-3.51V7.43Z"/><path class="cls-2" d="M95.68,25.02c-.46.31-1.05.56-1.72.56-.84,0-2.43-.64-2.43-2.78v-9.71h4.4v-5.39h-4.4V2.04h-5.15v5.65s-2.72,0-2.72,0v5.39h2.72v9.79c0,5.07,3.82,8.09,7.66,8.09,1.43,0,3.42-.47,5.04-1.43l-3.39-4.52Z"/><polygon class="cls-2" points="53.35 18.33 62.18 7.7 54.96 7.7 48.78 15.6 48.78 .17 43.48 .17 43.48 30.39 48.78 30.39 48.78 21.07 56.38 30.39 63.59 30.39 53.35 18.33"/><path class="cls-2" d="M107.57,7.12c-5.96,0-10.24,5.24-10.24,11.92,0,7.03,5.37,11.92,10.75,11.92,2.72,0,6.2-.93,9.12-5.08l-4.55-2.63c-3.52,5.19-9.38,2.55-10.06-2.63h14.83c1.27-8.15-4-13.51-9.86-13.51ZM112.07,16.12h-9.28c1.08-5.31,8.27-5.62,9.28,0Z"/></g></svg>