<?xml version="1.0" encoding="utf-8"?>
<!-- Generator: Adobe Illustrator 22.1.0, SVG Export Plug-In . SVG Version: 6.00 Build 0)  -->
<svg version="1.1" id="logo" xmlns="http://www.w3.org/2000/svg" xmlns:xlink="http://www.w3.org/1999/xlink" x="0px" y="0px"
	 viewBox="0 0 234.9 41.1" style="enable-background:new 0 0 234.9 41.1;" xml:space="preserve">
<style type="text/css">
	.st0{fill:#655CAC;}
</style>
<polygon class="st0" points="111.3,34.5 27.6,34.5 34.3,41.1 "/>
<path class="st0" d="M35.4,7.5v1c-1.6-1-2.9-1.6-4.9-1.6c-5.9,0-10.3,5.3-10.3,11.9c0,6.6,4.5,11.9,10.3,11.9c1.9,0,3.3-0.6,4.9-1.6
	v1h5.1V7.5H35.4z M30.5,25.3c-2.9,0-5-2.8-5-6.4c0-3.6,2.1-6.4,5-6.4c2.9,0,4.9,2.8,4.9,6.4C35.5,22.5,33.4,25.3,30.5,25.3z"/>
<path class="st0" d="M76.6,7.5v13.3c0,2.5-1.7,4.6-4.2,4.6c-2.5,0-4.2-2.1-4.2-4.6V7.5h-5.1v13.3c0,5.5,3.7,9.9,9.2,9.9
	c2.5,0,4.4-1.4,4.4-1.4v0.8h5.2V7.5H76.6z"/>
<path class="st0" d="M124.6,30.2V16.9c0-2.5,1.7-4.6,4.2-4.6c2.5,0,4.2,2.1,4.2,4.6v13.3h5.1V16.9c0-5.5-3.7-9.9-9.2-9.9
	c-2.5,0-4.4,1.4-4.4,1.4V7.5h-5.2v22.7H124.6z"/>
<path class="st0" d="M5.4,30.2v-8.8h3.8l6.6,8.8h6.7l-8-10.6c2.5-1.8,4.1-4.7,4.1-8c0-5.4-4.4-9.8-9.8-9.8H0v28.3H5.4z M5.4,7.3h3.5
	c2.4,0,4.4,2,4.4,4.4c0,2.4-2,4.4-4.4,4.4H5.4V7.3z"/>
<path class="st0" d="M95.7,24.9c-0.5,0.3-1,0.6-1.7,0.6c-0.8,0-2.4-0.6-2.4-2.8v-9.7h4.4V7.5h-4.4l0-5.7h-5.1v5.7h-2.7v5.4h2.7v9.8
	c0,5.1,3.8,8.1,7.7,8.1c1.4,0,3.4-0.5,5-1.4L95.7,24.9z"/>
<polygon class="st0" points="53.3,18.2 62.2,7.5 55,7.5 48.8,15.4 48.8,0 43.5,0 43.5,30.2 48.8,30.2 48.8,20.9 56.4,30.2 
	63.6,30.2 "/>
<path class="st0" d="M107.6,7c-6,0-10.2,5.2-10.2,11.9c0,7,5.4,11.9,10.7,11.9c2.7,0,6.2-0.9,9.1-5.1l-4.5-2.6
	c-3.5,5.2-9.4,2.6-10.1-2.6l14.8,0C118.7,12.3,113.4,7,107.6,7z M112.1,15.9h-9.3C103.9,10.6,111.1,10.3,112.1,15.9z"/>
<path class="st0" d="M154.8,28.3l-8.3-20.7c-0.1-0.3-0.2-0.5-0.3-0.8c-0.1-0.3-0.1-0.6-0.1-0.9c0-0.9,0.3-1.6,0.9-2.2
	c0.6-0.6,1.4-0.9,2.3-0.9c0.7,0,1.2,0.2,1.7,0.6c0.4,0.4,0.8,1.1,1.2,2.1l5.6,15.2l5.4-15c0.4-1.1,0.8-1.8,1.2-2.2
	c0.5-0.4,1.1-0.6,1.8-0.6c0.9,0,1.7,0.3,2.2,0.8c0.5,0.5,0.8,1.2,0.8,2.1c0,0.3,0,0.7-0.1,1.1c-0.1,0.4-0.2,0.7-0.3,1.1l-8,20.3
	c-0.4,0.9-0.8,1.6-1.3,2c-0.5,0.4-1.1,0.6-1.9,0.6c-0.7,0-1.3-0.2-1.7-0.5C155.6,29.7,155.2,29.1,154.8,28.3z"/>
<path class="st0" d="M176.7,26.5c0,1.4-0.2,2.4-0.7,3.1c-0.5,0.7-1.2,1-2.1,1c-1,0-1.7-0.3-2.2-1c-0.5-0.7-0.7-1.7-0.7-3.1V15.1
	c0-1.4,0.2-2.4,0.7-3.1c0.5-0.7,1.2-1,2.2-1c1,0,1.7,0.3,2.1,1c0.5,0.7,0.7,1.7,0.7,3.1V26.5z"/>
<path class="st0" d="M185.3,11.1c0.7-0.6,1.4-1,2.2-1.3c0.8-0.3,1.6-0.4,2.6-0.4c2.6,0,4.8,1,6.6,3.1c1.8,2.1,2.7,4.6,2.7,7.7
	c0,2.9-0.9,5.4-2.7,7.5c-1.8,2.1-4,3.1-6.5,3.1c-1,0-1.9-0.2-2.7-0.5c-0.8-0.3-1.6-0.9-2.1-1.5c-0.4,0.6-0.8,1.1-1.3,1.5
	c-0.5,0.3-1,0.5-1.6,0.5c-1,0-1.8-0.4-2.3-1.1c-0.5-0.7-0.7-1.8-0.7-3.3V7.2c0-1.5,0.2-2.6,0.7-3.3c0.5-0.7,1.2-1.1,2.3-1.1
	s1.8,0.4,2.3,1.1c0.5,0.7,0.7,1.8,0.7,3.3V11.1z M184.8,20.1c0,1.7,0.4,3,1.2,4c0.8,1,1.8,1.5,3.1,1.5c1.3,0,2.3-0.5,3.1-1.5
	c0.8-1,1.2-2.3,1.2-4c0-1.7-0.4-3-1.2-4c-0.8-1-1.8-1.5-3.1-1.5c-1.3,0-2.3,0.5-3.1,1.5C185.2,17.1,184.8,18.4,184.8,20.1z"/>
<path class="st0" d="M206,21.8c0.1,1.1,0.9,2,1.7,2.6c0.8,0.6,1.8,0.9,3.2,0.9c1.1,0,2.4-0.3,3.8-1c1.4-0.7,2.2-1,2.6-1
	c0.7,0,1.3,0.2,1.7,0.7c0.4,0.4,0.7,1,0.7,1.7c0,1.3-0.9,2.5-2.7,3.5c-1.8,1-3.9,1.6-6.4,1.6c-3,0-5.5-1-7.5-3c-2-2-3-4.6-3-7.6
	c0-3.1,1-5.6,2.9-7.7c1.9-2,4.4-3.1,7.2-3.1c2.8,0,5.1,1,7,2.9c1.9,1.9,2.8,4.3,2.8,7.1c0,0.9-0.2,1.5-0.6,1.9
	c-0.4,0.4-1.2,0.5-2.4,0.5H206z M205.8,18.2h8.9c-0.1-1.1-0.5-2.3-1.4-3c-0.8-0.8-1.8-1.1-2.9-1.1c-1.1,0-2.2,0.4-3,1.1
	C206.6,15.8,206,17,205.8,18.2z"/>
<path class="st0" d="M221.8,26.2V14.1c0-1.5,0.2-2.6,0.7-3.3c0.5-0.7,1.2-1.1,2.3-1.1c0.6,0,1.2,0.2,1.6,0.5
	c0.5,0.3,0.9,0.8,1.3,1.4c0.6-0.7,1.3-1.2,2-1.5c0.7-0.3,1.4-0.5,2.1-0.5c0.8,0,1.6,0.3,2.2,0.9c0.6,0.6,0.9,1.3,0.9,2.1
	c0,1.2-1.1,2.2-3.3,3c-0.8,0.3-1.4,0.5-1.8,0.7c-0.8,0.4-1.3,0.8-1.5,1.2c-0.2,0.4-0.4,1.2-0.4,2.4v6.3c0,1.5-0.2,2.6-0.7,3.3
	c-0.5,0.7-1.3,1.1-2.3,1.1c-1,0-1.8-0.4-2.3-1.1C222.1,28.8,221.8,27.7,221.8,26.2z"/>
<path class="st0" d="M170.8,5.9c0-0.9,0.3-1.6,0.9-2.2c0.6-0.6,1.4-0.9,2.2-0.9c0.9,0,1.6,0.3,2.2,0.9c0.6,0.6,0.9,1.4,0.9,2.2
	c0,0.9-0.3,1.6-0.9,2.2C175.6,8.7,174.9,9,174,9c-0.9,0-1.6-0.3-2.3-0.9C171.1,7.5,170.8,6.8,170.8,5.9z"/>
</svg>
