<?xml version="1.0" encoding="UTF-8"?><svg id="_レイヤー_2" xmlns="http://www.w3.org/2000/svg" viewBox="0 0 216.25 42.78"><defs><style>.cls-1{fill:none;}.cls-1,.cls-2{stroke-width:0px;}.cls-2{fill:#0c9bff;}</style></defs><g id="_レイヤー_1-2"><rect class="cls-1" y="3.52" width="215.7" height="32.6"/><polygon class="cls-2" points="111.27 36.12 27.65 36.12 34.31 42.78 111.27 36.12"/><path class="cls-2" d="M35.39,9.18v1.01c-1.55-.99-2.95-1.56-4.85-1.56-5.86,0-10.31,5.34-10.31,11.9s4.45,11.9,10.31,11.9c1.91,0,3.3-.57,4.85-1.56v1.01h5.15V9.18h-5.15ZM30.54,26.96c-2.89,0-5-2.84-5-6.44s2.12-6.44,5-6.44,4.93,2.85,4.93,6.44-2.04,6.44-4.93,6.44Z"/><path class="cls-2" d="M76.65,9.18v13.33c0,2.5-1.72,4.61-4.22,4.61s-4.22-2.11-4.22-4.61v-13.33h-5.15v13.33c0,5.47,3.74,9.92,9.21,9.92,2.53,0,4.38-1.4,4.38-1.4v.84h5.15V9.18h-5.15Z"/><path class="cls-2" d="M124.64,31.87v-13.33c0-2.5,1.72-4.61,4.22-4.61s4.22,2.11,4.22,4.61v13.33h5.15v-13.33c0-5.47-3.74-9.92-9.21-9.92-2.53,0-4.38,1.4-4.38,1.4v-.84h-5.15v22.69h5.15Z"/><path class="cls-2" d="M5.39,31.87v-8.79h3.81l6.6,8.79h6.74l-7.97-10.61c2.48-1.78,4.11-4.68,4.11-7.97,0-5.39-4.39-9.77-9.78-9.77H0v28.35h5.39ZM5.39,8.9h3.51c2.42,0,4.4,1.97,4.4,4.39s-1.98,4.4-4.4,4.4h-3.51v-8.79Z"/><path class="cls-2" d="M95.68,26.5c-.46.31-1.05.56-1.72.56-.84,0-2.43-.64-2.43-2.78v-9.71h4.4v-5.39h-4.4V3.52h-5.15v5.65s-2.72,0-2.72,0v5.39h2.72v9.79c0,5.07,3.82,8.09,7.66,8.09,1.43,0,3.42-.47,5.04-1.43l-3.39-4.52Z"/><polygon class="cls-2" points="53.35 19.81 62.18 9.18 54.96 9.18 48.78 17.08 48.78 1.65 43.48 1.65 43.48 31.87 48.78 31.87 48.78 22.55 56.38 31.87 63.59 31.87 53.35 19.81"/><path class="cls-2" d="M107.57,8.6c-5.96,0-10.24,5.24-10.24,11.92,0,7.03,5.37,11.92,10.75,11.92,2.72,0,6.2-.93,9.12-5.08l-4.55-2.63c-3.52,5.19-9.38,2.55-10.06-2.63h14.83c1.27-8.15-4-13.51-9.86-13.51ZM112.07,17.59h-9.28c1.08-5.31,8.27-5.62,9.28,0Z"/><path class="cls-2" d="M171.52,5.53l-8.11,25.74c-.11.35-.44.59-.81.59h-7.49c-.37,0-.7-.24-.81-.59l-8.11-25.74c-.09-.29.13-.59.43-.59h6.46c.36,0,.67.24.77.59l5.04,18.48c.05.17.28.17.33,0l5.04-18.48c.09-.35.41-.59.77-.59h6.08c.31,0,.52.3.43.59Z"/><path class="cls-2" d="M177.66,8.02c-1.18,0-2.17-.39-2.95-1.16-.79-.77-1.18-1.72-1.18-2.85s.39-2.08,1.18-2.85c.79-.77,1.77-1.16,2.95-1.16s2.17.39,2.95,1.16c.79.77,1.18,1.72,1.18,2.85s-.39,2.08-1.18,2.85c-.79.77-1.77,1.16-2.95,1.16ZM174.07,31.24V10.63c0-.34.28-.62.62-.62h5.93c.34,0,.62.28.62.62v20.62c0,.34-.28.62-.62.62h-5.93c-.34,0-.62-.28-.62-.62Z"/><path class="cls-2" d="M184.63,31.24V2.52c0-.34.28-.62.62-.62h5.93c.34,0,.62.28.62.62v15.06c0,.2.25.27.36.11l4.82-7.18c.22-.32.58-.51.96-.51h7.06c.26,0,.4.3.25.5l-7.01,9.1c-.22.28-.22.68,0,.97l8.24,10.79c.16.21.01.5-.25.5h-7.58c-.39,0-.75-.19-.97-.5l-5.53-7.77c-.11-.16-.36-.08-.36.12v7.53c0,.34-.28.62-.62.62h-5.93c-.34,0-.62-.28-.62-.62Z"/><path class="cls-2" d="M212.11,8.02c-1.18,0-2.17-.39-2.95-1.16-.79-.77-1.18-1.72-1.18-2.85s.39-2.08,1.18-2.85c.79-.77,1.77-1.16,2.95-1.16s2.17.39,2.95,1.16c.79.77,1.18,1.72,1.18,2.85s-.39,2.08-1.18,2.85c-.79.77-1.77,1.16-2.95,1.16ZM208.52,31.24V10.63c0-.34.28-.62.62-.62h5.93c.34,0,.62.28.62.62v20.62c0,.34-.28.62-.62.62h-5.93c-.34,0-.62-.28-.62-.62Z"/></g></svg>