<?xml version="1.0" encoding="UTF-8"?><svg id="_レイヤー_2" xmlns="http://www.w3.org/2000/svg" viewBox="0 0 274.48 83.45"><defs><style>.cls-1{fill:#000;}.cls-1,.cls-2{stroke-width:0px;}.cls-2{fill:none;}</style></defs><g id="Logos"><rect class="cls-2" y="3.2" width="274.48" height="76.25"/><rect class="cls-1" x="66.38" y="45.44" width="141.73" height=".57"/><polygon class="cls-1" points="162.54 79.45 112.36 79.45 116.36 83.45 162.54 79.45"/><path class="cls-1" d="M117.01,63.29v.6c-.93-.59-1.77-.94-2.91-.94-3.51,0-6.18,3.21-6.18,7.14s2.67,7.14,6.18,7.14c1.14,0,1.98-.34,2.91-.94v.6h3.09v-13.61h-3.09ZM114.1,73.96c-1.73,0-3-1.71-3-3.86s1.27-3.86,3-3.86,2.96,1.71,2.96,3.86-1.22,3.86-2.96,3.86Z"/><path class="cls-1" d="M141.76,63.29v8c0,1.5-1.03,2.77-2.53,2.77s-2.53-1.27-2.53-2.77v-8h-3.09v8c0,3.28,2.25,5.95,5.53,5.95,1.52,0,2.63-.84,2.63-.84v.51h3.09v-13.61h-3.09Z"/><path class="cls-1" d="M170.55,76.9v-8c0-1.5,1.03-2.77,2.53-2.77s2.53,1.27,2.53,2.77v8h3.09v-8c0-3.28-2.25-5.95-5.53-5.95-1.52,0-2.63.84-2.63.84v-.51h-3.09v13.61h3.09Z"/><path class="cls-1" d="M99.01,76.9v-5.27h2.29l3.96,5.27h4.05l-4.78-6.36c1.49-1.07,2.47-2.81,2.47-4.78,0-3.24-2.63-5.86-5.87-5.86h-5.34v17.01h3.23ZM99.01,63.12h2.11c1.45,0,2.64,1.18,2.64,2.63s-1.19,2.64-2.64,2.64h-2.11v-5.27Z"/><path class="cls-1" d="M153.18,73.68c-.28.19-.63.33-1.03.33-.5,0-1.46-.39-1.46-1.67v-5.83h2.64v-3.23h-2.64v-3.39h-3.09v3.39h-1.63v3.23h1.63v5.87c0,3.04,2.29,4.86,4.59,4.86.86,0,2.05-.28,3.02-.86l-2.04-2.71Z"/><polygon class="cls-1" points="127.78 69.67 133.08 63.29 128.75 63.29 125.04 68.03 125.04 58.77 121.86 58.77 121.86 76.9 125.04 76.9 125.04 71.31 129.6 76.9 133.93 76.9 127.78 69.67"/><path class="cls-1" d="M160.32,62.94c-3.58,0-6.14,3.14-6.14,7.15,0,4.22,3.22,7.15,6.45,7.15,1.63,0,3.72-.56,5.47-3.05l-2.73-1.58c-2.11,3.11-5.63,1.53-6.03-1.58h8.9c.76-4.89-2.4-8.1-5.92-8.1ZM163.02,68.34h-5.56c.65-3.19,4.96-3.37,5.56,0Z"/><path class="cls-1" d="M128.33,8.62c-1.81,0-3.41.47-4.8,1.4-1.39.93-2.43,2.18-3.11,3.75l-.27-4.71h-2.09v22.48h2.44v-12.09c0-1.51.3-2.92.91-4.22.61-1.3,1.47-2.34,2.58-3.11,1.11-.77,2.36-1.16,3.75-1.16,1.87,0,3.33.63,4.38,1.89,1.05,1.26,1.58,3.09,1.58,5.49v13.2h2.44v-13.2c0-3.02-.7-5.4-2.09-7.13-1.39-1.73-3.3-2.6-5.73-2.6M106,10.89c1.96,0,3.55.67,4.8,2.02,1.24,1.35,2.01,3.21,2.31,5.58h-14.26c.3-2.37,1.07-4.23,2.33-5.58,1.26-1.35,2.87-2.02,4.82-2.02M115.69,20.48c0-2.34-.41-4.42-1.22-6.24-.81-1.82-1.96-3.23-3.44-4.22-1.48-.99-3.16-1.49-5.02-1.49s-3.54.5-5.02,1.49c-1.48.99-2.64,2.4-3.47,4.22-.83,1.82-1.24,3.9-1.24,6.24s.42,4.38,1.27,6.13c.85,1.75,2.02,3.09,3.53,4.04,1.51.95,3.24,1.42,5.2,1.42s3.85-.5,5.42-1.49c1.57-.99,2.78-2.29,3.64-3.89l-1.73-1.73c-.77,1.51-1.77,2.68-3,3.51-1.23.83-2.64,1.24-4.24,1.24-2.25,0-4.07-.8-5.46-2.4-1.39-1.6-2.1-3.82-2.13-6.67h16.93v-.18ZM95.8,27.86c-.65.62-1.3,1.07-1.95,1.36-.65.28-1.38.42-2.18.42-1.24,0-2.18-.41-2.82-1.24-.64-.83-.96-2.03-.96-3.6v-13.51h8.31v-2.22h-8.31V3.02h-2.44v6.04h-4.09v2.22h4.09v13.64c0,2.34.51,4.1,1.53,5.29,1.02,1.18,2.54,1.78,4.55,1.78s3.66-.59,5.11-1.78l-.85-2.36ZM77.71,9.06v12.09c0,1.54-.29,2.95-.87,4.24-.58,1.29-1.41,2.32-2.49,3.09-1.08.77-2.32,1.16-3.71,1.16-1.9,0-3.36-.61-4.4-1.84-1.04-1.23-1.56-3.04-1.56-5.44v-13.29h-2.44v13.29c0,2.99.7,5.35,2.09,7.06,1.39,1.72,3.3,2.58,5.73,2.58,1.81,0,3.38-.47,4.71-1.4,1.33-.93,2.34-2.18,3.02-3.75l.27,4.71h2.09V9.06h-2.44ZM61.74,31.55l-12.97-12.17,11.91-10.31h-3.29l-11.02,9.73V0h-2.44v31.55h2.44v-11.2l11.91,11.2h3.46ZM29.93,29.64c-1.51,0-2.85-.39-4.02-1.18-1.17-.78-2.07-1.88-2.71-3.29-.64-1.41-.96-3.03-.96-4.86s.32-3.46.96-4.87c.64-1.41,1.54-2.5,2.71-3.29,1.17-.78,2.51-1.18,4.02-1.18s2.76.39,3.93,1.18c1.17.79,2.08,1.88,2.73,3.29.65,1.41.98,3.01.98,4.82s-.33,3.43-1,4.87c-.67,1.44-1.58,2.55-2.73,3.33-1.15.79-2.46,1.18-3.91,1.18M37.93,9.06l-.27,4.89c-.68-1.63-1.74-2.92-3.18-3.89-1.44-.96-3.07-1.45-4.91-1.45s-3.55.5-5.04,1.49c-1.5.99-2.67,2.38-3.51,4.15-.84,1.78-1.27,3.79-1.27,6.04s.42,4.26,1.27,6.04c.84,1.78,2.01,3.16,3.51,4.15,1.5.99,3.18,1.49,5.04,1.49s3.47-.48,4.91-1.44c1.44-.96,2.49-2.26,3.18-3.89l.27,4.89h2.09V9.06h-2.09ZM7.15,18.44H2.53V5.42h4.62c2.34,0,4.21.55,5.62,1.64,1.41,1.1,2.11,2.71,2.11,4.84s-.69,3.87-2.06,4.93c-1.38,1.07-3.27,1.6-5.67,1.6M21.24,31.55l-9.06-11.78c1.66-.68,2.96-1.68,3.89-3,.93-1.32,1.4-2.94,1.4-4.86,0-2.81-.94-4.97-2.82-6.46-1.88-1.5-4.38-2.24-7.49-2.24H0v28.35h2.53v-10.89h4.67c.95,0,1.78-.06,2.49-.18l8.49,11.06h3.07Z"/><path class="cls-1" d="M266.66,8.62c-1.81,0-3.41.47-4.8,1.4-1.39.93-2.43,2.18-3.11,3.75l-.27-4.71h-2.09v22.48h2.44v-12.09c0-1.51.3-2.92.91-4.22.61-1.3,1.47-2.34,2.58-3.11,1.11-.77,2.36-1.16,3.75-1.16,1.87,0,3.33.63,4.38,1.89,1.05,1.26,1.58,3.09,1.58,5.49v13.2h2.44v-13.2c0-3.02-.7-5.4-2.09-7.13-1.39-1.73-3.3-2.6-5.73-2.6M242.86,29.73c-1.51,0-2.87-.39-4.07-1.18-1.2-.78-2.15-1.89-2.84-3.31-.7-1.42-1.04-3.07-1.04-4.93s.35-3.51,1.04-4.93c.7-1.42,1.64-2.52,2.84-3.31,1.2-.78,2.55-1.18,4.07-1.18s2.87.39,4.09,1.18c1.21.79,2.17,1.89,2.87,3.31.7,1.42,1.04,3.07,1.04,4.93s-.35,3.51-1.04,4.93c-.7,1.42-1.65,2.53-2.87,3.31-1.22.79-2.58,1.18-4.09,1.18M242.86,32.08c2.01,0,3.81-.5,5.4-1.51,1.58-1.01,2.83-2.41,3.73-4.2.9-1.79,1.35-3.81,1.35-6.06s-.45-4.27-1.35-6.07c-.9-1.79-2.15-3.19-3.73-4.2-1.58-1.01-3.38-1.51-5.4-1.51s-3.81.5-5.4,1.51c-1.58,1.01-2.82,2.4-3.71,4.18-.89,1.78-1.33,3.81-1.33,6.09s.44,4.31,1.33,6.09c.89,1.78,2.13,3.17,3.71,4.18,1.58,1.01,3.38,1.51,5.4,1.51M226.98,31.55h2.44V9.06h-2.44v22.48ZM228.18,4.98c.62,0,1.13-.2,1.53-.6.4-.4.6-.89.6-1.49s-.2-1.09-.6-1.49c-.4-.4-.91-.6-1.53-.6s-1.13.2-1.53.6c-.4.4-.6.9-.6,1.49s.2,1.09.6,1.49c.4.4.91.6,1.53.6M215.23,8.62c-1.78,0-3.35.46-4.73,1.38-1.38.92-2.41,2.13-3.09,3.64V0h-2.44v31.55h2.44v-12.09c0-1.51.3-2.92.91-4.22.61-1.3,1.47-2.34,2.58-3.11,1.11-.77,2.36-1.16,3.75-1.16,1.87,0,3.32.63,4.38,1.89,1.05,1.26,1.58,3.09,1.58,5.49v13.2h2.44v-13.2c0-3.02-.7-5.4-2.09-7.13-1.39-1.73-3.3-2.6-5.73-2.6M194.28,32.08c2.31,0,4.17-.56,5.58-1.69,1.41-1.12,2.11-2.64,2.11-4.53,0-1.57-.47-2.91-1.42-4.02-.95-1.11-2.36-1.93-4.22-2.47l-2.75-.75c-1.54-.41-2.67-.95-3.38-1.6-.71-.65-1.07-1.47-1.07-2.44,0-1.1.46-1.98,1.38-2.67.92-.68,2.13-1.02,3.64-1.02,1.18,0,2.24.27,3.15.82.92.55,1.73,1.41,2.44,2.6l1.69-1.78c-.68-1.27-1.65-2.26-2.91-2.96-1.26-.7-2.72-1.04-4.38-1.04-2.22,0-4.02.56-5.4,1.69-1.38,1.13-2.07,2.58-2.07,4.35,0,3.08,1.91,5.15,5.73,6.22l2.75.76c1.48.38,2.57.93,3.27,1.64s1.04,1.6,1.04,2.67c0,1.27-.46,2.24-1.38,2.89-.92.65-2.19.98-3.82.98s-3.1-.41-4.24-1.22c-1.14-.81-2.11-1.99-2.91-3.53l-1.73,1.73c.86,1.63,2.04,2.93,3.53,3.91,1.5.98,3.28,1.46,5.35,1.46M172.88,29.64c-1.51,0-2.85-.39-4.02-1.18-1.17-.79-2.07-1.88-2.71-3.29-.64-1.41-.96-3.03-.96-4.86s.32-3.46.96-4.87c.64-1.41,1.54-2.5,2.71-3.29,1.17-.78,2.51-1.18,4.02-1.18s2.76.39,3.93,1.18c1.17.79,2.08,1.88,2.73,3.29.65,1.41.98,3.01.98,4.82s-.33,3.43-1,4.87c-.67,1.44-1.58,2.55-2.73,3.33-1.15.78-2.46,1.18-3.91,1.18M180.87,9.06l-.27,4.89c-.68-1.63-1.74-2.92-3.18-3.89-1.44-.96-3.07-1.45-4.91-1.45s-3.55.5-5.04,1.49c-1.5.99-2.67,2.38-3.51,4.15-.85,1.78-1.27,3.79-1.27,6.04s.42,4.26,1.27,6.04c.84,1.78,2.01,3.16,3.51,4.15,1.5.99,3.18,1.49,5.04,1.49s3.47-.48,4.91-1.44c1.44-.96,2.49-2.26,3.18-3.89l.27,4.89h2.09V9.06h-2.09ZM161.54,5.46v-2.27h-16.44v28.35h2.53v-13.15h12.62v-2.26h-12.62V5.46h13.91Z"/></g></svg>