<svg  xmlns="http://www.w3.org/2000/svg" xmlns:xlink="http://www.w3.org/1999/xlink" width="207px" height="112px">
<path fill-rule="evenodd"  fill="rgb(255, 65, 190)"
 d="M199.035,45.740 L199.035,25.888 C199.035,22.165 196.477,19.021 192.754,19.021 C189.028,19.021 186.469,22.165 186.469,25.888 L186.469,45.740 L178.801,45.740 L178.801,11.948 L186.469,11.948 L186.469,13.204 C186.469,13.204 189.216,11.117 192.988,11.117 C201.135,11.117 206.706,17.744 206.706,25.888 L206.706,45.740 L199.035,45.740 ZM163.839,110.535 L159.254,110.535 L159.254,94.077 L146.771,70.433 L151.763,70.433 L161.547,89.440 L171.329,70.433 L176.324,70.433 L163.839,94.077 L163.839,110.535 ZM153.654,31.204 C154.663,38.927 163.393,42.846 168.634,35.124 L175.408,39.036 C171.054,45.212 165.868,46.600 161.825,46.600 C153.812,46.600 145.820,39.310 145.820,28.844 C145.820,18.890 152.186,11.090 161.063,11.090 C169.789,11.090 177.637,19.072 175.745,31.209 L153.654,31.204 ZM153.946,24.482 L167.759,24.482 C166.262,16.113 155.560,16.567 153.946,24.482 ZM137.167,34.428 C137.167,37.617 139.532,38.575 140.784,38.575 C141.790,38.575 142.660,38.211 143.348,37.743 L148.403,44.472 C145.990,45.901 143.032,46.598 140.902,46.598 C135.180,46.598 129.497,42.092 129.499,34.546 L129.499,19.967 L125.441,19.967 L125.441,11.947 L129.499,11.947 L129.499,3.526 L137.167,3.526 L137.167,11.947 L143.726,11.947 L143.726,19.967 L137.167,19.967 L137.167,34.428 ZM115.009,44.483 C115.009,44.483 112.263,46.569 108.491,46.569 C100.344,46.569 94.773,39.942 94.773,31.798 L94.773,11.948 L102.442,11.948 L102.442,31.798 C102.442,35.523 105.002,38.666 108.725,38.666 C112.451,38.666 115.009,35.523 115.009,31.798 L115.009,11.948 L122.678,11.948 L122.678,45.740 L115.009,45.740 L115.009,44.483 ZM95.570,45.740 L84.824,45.740 L73.512,31.857 L73.512,45.740 L65.615,45.740 L65.615,0.736 L73.512,0.736 L73.512,23.719 L82.714,11.947 L93.464,11.947 L80.309,27.788 L95.570,45.740 ZM53.573,44.241 C51.261,45.717 49.188,46.569 46.348,46.569 C37.624,46.569 30.996,38.618 30.996,28.845 C30.996,19.073 37.624,11.118 46.348,11.118 C49.188,11.118 51.261,11.974 53.573,13.447 L53.573,11.947 L61.242,11.947 L61.242,45.740 L53.573,45.740 L53.573,44.241 ZM46.348,19.261 C42.045,19.261 38.896,23.498 38.896,28.845 C38.896,34.196 42.045,38.432 46.348,38.432 C50.656,38.432 53.691,34.196 53.691,28.845 C53.691,23.498 50.656,19.261 46.348,19.261 ZM34.426,45.740 L24.386,45.740 L14.565,32.647 L8.891,32.647 L8.891,45.740 L0.871,45.740 L0.871,3.527 L14.126,3.527 C22.157,3.527 28.686,10.049 28.686,18.081 C28.686,22.970 26.258,27.288 22.559,29.941 L34.426,45.740 ZM14.126,11.542 L8.891,11.542 L8.891,24.627 L14.126,24.627 C17.728,24.627 20.673,21.700 20.673,18.081 C20.673,14.472 17.728,11.542 14.126,11.542 ZM25.225,80.420 C25.225,85.617 22.270,88.879 16.869,89.642 C23.493,91.071 26.601,94.179 26.601,99.428 C26.601,106.562 21.557,110.535 12.537,110.535 L0.868,110.535 L0.868,70.433 L10.957,70.433 C19.977,70.433 25.225,74.102 25.225,80.420 ZM5.455,106.254 L11.824,106.254 C18.397,106.254 21.709,103.860 21.709,99.068 C21.709,94.534 17.583,91.834 10.601,91.834 L5.455,91.834 L5.455,106.254 ZM5.455,74.712 L5.455,87.554 L10.347,87.554 C16.716,87.554 20.333,85.211 20.333,81.032 C20.333,76.496 17.583,74.712 10.652,74.712 L5.455,74.712 ZM51.560,74.713 L34.235,74.713 L34.235,87.555 L49.982,87.555 L49.982,91.835 L34.235,91.835 L34.235,106.254 L52.019,106.254 L52.019,110.535 L29.648,110.535 L29.648,70.433 L51.560,70.433 L51.560,74.713 ZM72.089,70.434 L85.184,110.535 L80.088,110.535 L77.031,101.006 L62.458,101.006 L59.399,110.535 L54.305,110.535 L67.401,70.434 L72.089,70.434 ZM75.809,96.725 L69.745,76.904 L63.679,96.725 L75.809,96.725 ZM91.676,95.350 C91.676,102.789 94.988,107.070 100.696,107.070 C106.402,107.070 109.714,102.789 109.714,95.350 L109.714,70.433 L114.300,70.433 L114.300,95.604 C114.300,105.796 109.510,111.350 100.696,111.350 C91.878,111.350 87.089,105.847 87.089,95.604 L87.089,70.433 L91.676,70.433 L91.676,95.350 ZM42.038,52.072 L166.571,52.072 L51.957,61.991 L42.038,52.072 ZM144.483,74.510 L133.018,74.510 L133.018,110.535 L128.431,110.535 L128.431,74.510 L116.966,74.510 L116.966,70.434 L144.483,70.434 L144.483,74.510 Z"/>
</svg>