<?xml version="1.0" encoding="UTF-8"?><svg id="_レイヤー_2" xmlns="http://www.w3.org/2000/svg" viewBox="0 0 138.22 79.41"><defs><style>.cls-1{fill:none;}.cls-1,.cls-2{stroke-width:0px;}.cls-2{fill:#002896;}</style></defs><g id="Logos"><rect class="cls-1" y="1.87" width="138.22" height="71.75"/><path class="cls-2" d="M3.08,73.62H0v-26.93h3.08v26.93Z"/><path class="cls-2" d="M9.55,53.78c1.3-1.33,3.66-2.22,5.92-2.22,4.62,0,7.77,3.52,7.77,8.66v13.41h-3.08v-13.45c0-3.52-1.98-5.75-5.13-5.75-2.91,0-5.54,2.67-5.54,5.65v13.55h-3.08v-21.56h2.74l.41,1.71Z"/><path class="cls-2" d="M37.24,56.55c-1.06-1.3-2.7-2.12-4.35-2.12-2.12,0-3.56,1.2-3.56,3.01,0,1.13.38,1.92,1.2,2.46q.41.31,4,1.85c4.17,1.85,5.82,3.7,5.82,6.54,0,3.59-2.87,5.89-7.43,5.89-3.28,0-5.78-1.16-7.63-3.52l2.16-1.95c1.68,1.85,3.28,2.6,5.51,2.6,2.53,0,4.11-1.13,4.11-2.98,0-1.03-.62-2.09-1.78-2.98-.79-.58-1.74-1.06-4.48-2.19-3.35-1.4-4.76-3.11-4.76-5.85,0-3.46,2.74-5.75,6.84-5.75,2.7,0,4.69.82,6.57,2.7l-2.22,2.29Z"/><path class="cls-2" d="M42.42,49.4v-3.56h3.56v3.56h-3.56ZM42.66,73.62v-21.56h3.08v21.56h-3.08Z"/><path class="cls-2" d="M65.64,69.21c0,6.57-3.15,10.2-8.83,10.2-3.11,0-5.71-1.2-7.7-3.56l2.05-1.95c1.37,1.68,3.52,2.77,5.41,2.77,3.97,0,5.68-2.63,5.82-8.93-1.23,1.88-3.32,2.91-6.06,2.91-4.79,0-8.18-3.83-8.18-9.24,0-5.75,3.52-9.85,8.42-9.85,2.39,0,4.28.75,5.75,2.26l.62-1.74h2.7v17.14ZM51.37,61.27c0,3.9,2.26,6.64,5.51,6.64s5.58-2.7,5.58-6.64-2.43-6.98-5.61-6.98-5.47,2.87-5.47,6.98Z"/><path class="cls-2" d="M72.05,54.22c1.61-1.71,3.73-2.67,6.02-2.67,4.58,0,7.73,3.52,7.73,8.66v13.41h-3.08v-13.45c0-3.52-1.98-5.75-5.13-5.75-2.91,0-5.54,2.67-5.54,5.65v13.55h-3.08v-28.71h3.08v9.31Z"/><path class="cls-2" d="M93.35,47.34v4.72h5.41v2.87h-5.41v14.3c0,1.33.75,2.05,2.19,2.05,1.2,0,1.88-.41,2.6-1.64l2.33,1.61c-1.54,2.19-2.87,2.91-5.24,2.91s-3.87-.92-4.58-2.87c-.27-.72-.38-1.47-.38-2.74v-13.62h-3.7v-2.87h3.7v-4.72h3.08Z"/><polygon class="cls-2" points="111.27 34.47 27.65 34.47 34.31 41.13 111.27 34.47"/><path class="cls-2" d="M35.39,7.53v1.01c-1.55-.99-2.95-1.56-4.85-1.56-5.86,0-10.31,5.34-10.31,11.9s4.45,11.9,10.31,11.9c1.91,0,3.3-.57,4.85-1.56v1.01h5.15V7.53h-5.15ZM30.54,25.31c-2.89,0-5-2.84-5-6.44s2.12-6.44,5-6.44,4.93,2.85,4.93,6.44-2.04,6.44-4.93,6.44Z"/><path class="cls-2" d="M76.65,7.53v13.33c0,2.5-1.72,4.61-4.22,4.61s-4.22-2.11-4.22-4.61V7.53h-5.15v13.33c0,5.47,3.74,9.92,9.21,9.92,2.53,0,4.38-1.4,4.38-1.4v.84h5.15V7.53h-5.15Z"/><path class="cls-2" d="M124.63,30.22v-13.33c0-2.5,1.72-4.61,4.22-4.61s4.22,2.11,4.22,4.61v13.33h5.15v-13.33c0-5.47-3.74-9.92-9.21-9.92-2.53,0-4.38,1.4-4.38,1.4v-.84h-5.15v22.69h5.15Z"/><path class="cls-2" d="M5.39,30.22v-8.79h3.81l6.6,8.79h6.74l-7.97-10.61c2.48-1.78,4.11-4.68,4.11-7.97,0-5.39-4.39-9.77-9.78-9.77H0v28.35h5.39ZM5.39,7.26h3.51c2.42,0,4.4,1.97,4.4,4.39s-1.98,4.4-4.4,4.4h-3.51V7.26Z"/><path class="cls-2" d="M95.68,24.85c-.46.31-1.05.56-1.72.56-.84,0-2.43-.64-2.43-2.78v-9.71h4.4v-5.39h-4.4V1.87h-5.15v5.65s-2.72,0-2.72,0v5.39h2.72v9.79c0,5.07,3.82,8.09,7.66,8.09,1.43,0,3.42-.47,5.04-1.43l-3.39-4.52Z"/><polygon class="cls-2" points="53.35 18.17 62.18 7.53 54.96 7.53 48.78 15.43 48.78 0 43.48 0 43.48 30.22 48.78 30.22 48.78 20.9 56.38 30.22 63.59 30.22 53.35 18.17"/><path class="cls-2" d="M107.57,6.95c-5.96,0-10.24,5.24-10.24,11.92,0,7.03,5.37,11.92,10.75,11.92,2.72,0,6.2-.93,9.12-5.08l-4.55-2.63c-3.52,5.19-9.38,2.55-10.06-2.63h14.83c1.27-8.15-4-13.51-9.86-13.51ZM112.07,15.95h-9.28c1.08-5.31,8.27-5.62,9.28,0Z"/></g></svg>