<?xml version="1.0" encoding="utf-8"?>
<!-- Generator: Adobe Illustrator 22.1.0, SVG Export Plug-In . SVG Version: 6.00 Build 0)  -->
<svg version="1.1" xmlns="http://www.w3.org/2000/svg" xmlns:xlink="http://www.w3.org/1999/xlink" x="0px" y="0px"
	 viewBox="0 0 840.1741333 176.1620026" style="enable-background:new 0 0 840.1741333 176.1620026;" xml:space="preserve">
<style type="text/css">
	.st0{fill:#BF0000;}
</style>
<g id="レイヤー_1">
	<path class="st0" d="M569.8939819,129.4220123V72.3349991c0-10.7099991-7.3640137-19.7519989-18.0709839-19.7519989
		c-10.7130127,0-18.0700073,9.0419998-18.0700073,19.7519989v57.0870132h-22.0579834V32.243h22.0579834v3.6119995
		c0,0,7.8980103-5.9990005,18.7470093-5.9990005c23.4229736,0,39.447998,19.0530014,39.447998,42.4790001v57.0870132H569.8939819z
		 M439.3849792,87.6210022c2.8959961,22.2089996,28.007019,33.4779968,43.0700073,11.2709961l19.4819946,11.2509995
		c-12.5220032,17.7660065-27.4249878,21.7530136-39.0579834,21.7530136c-23.0480042,0-46.0320129-20.9670105-46.0320129-51.0630112
		c0-28.6220016,18.3110046-51.0550003,43.8399963-51.0550003c25.0960083,0,47.6629944,22.9539986,42.2260132,57.8560028
		L439.3849792,87.6210022z M440.2149963,68.288002h39.7269897C475.6419983,44.2200012,444.8609924,45.5309982,440.2149963,68.288002
		z M391.9700012,96.8969955c0,9.1670074,6.7919922,11.9190063,10.3959961,11.9190063
		c2.8929749,0,5.394989-1.0460052,7.3739929-2.3880005l14.5369873,19.3460007
		c-6.9389954,4.1119995-15.4459839,6.1170044-21.572998,6.1170044c-16.4499817,0-32.7949829-12.9620056-32.7879944-34.6600037
		V55.3079987H358.243988V32.2399979h11.6719971l-0.0039978-24.2149963h22.0580139v24.2149963h18.8609924v23.0680008h-18.8609924
		V96.8969955z M328.2399902,125.810997c0,0-7.8970032,5.9980087-18.7470093,5.9980087
		c-23.4239807,0-39.447998-19.053009-39.447998-42.4790039V32.243h22.0559998v57.0870018
		c0,10.7099991,7.3619995,19.7529984,18.0690002,19.7529984c10.7130127,0,18.0700073-9.0429993,18.0700073-19.7529984V32.243
		h22.0579834v97.1790161h-22.0579834V125.810997z M272.3379822,129.4220123h-30.9009857l-32.5309906-39.9210129v39.9210129
		h-22.7109985V0h22.7109985v66.0979996L235.3659973,32.243h30.9199829l-37.8329773,45.5529976L272.3379822,129.4220123z
		 M151.5670013,125.1139984c-6.6529999,4.2430115-12.6170044,6.6950073-20.7819977,6.6950073
		c-25.090004,0-44.151001-22.8660049-44.151001-50.9740067c0-28.1009979,19.060997-50.980999,44.151001-50.980999
		c8.1649933,0,14.1289978,2.4679985,20.7819977,6.7039986V32.243h22.0500031v97.1790161h-22.0500031V125.1139984z
		 M130.7850037,53.2749977c-12.3690033,0-21.4309998,12.182003-21.4309998,27.5600014
		c0,15.3889999,9.0619965,27.572998,21.4309998,27.572998c12.3880005,0,21.1159973-12.1839981,21.1159973-27.572998
		C151.901001,65.4570007,143.1730042,53.2749977,130.7850037,53.2749977z M96.5040054,129.4220123H67.625L39.3810005,91.7730026
		h-16.316v37.6490097H0V8.0290003h38.118c23.093998,0,41.8770027,18.7560005,41.8770027,41.8510017
		c0,14.0610008-6.9869995,26.4760017-17.6220055,34.1150017L96.5040054,129.4220123z M38.118,31.0760002H23.0650005v37.6290016
		H38.118c10.3610001,0,18.829998-8.4190025,18.829998-18.8250008C56.947998,39.5009995,48.4790001,31.0760002,38.118,31.0760002z
		 M146.9190063,176.1620026l-28.529007-28.5309906h358.1329956L146.9190063,176.1620026z"/>
</g>
<g id="Logos">
	<g>
		<polygon class="st0" points="718.4338989,158.9491425 698.1860352,141.9589691 840.1741333,141.9589691 		"/>
		<path class="st0" d="M741.4939575,129.2163544V91.5789948h16.3100586l28.2366333,37.6373596h28.8665771l-34.1204834-45.4151917
			c10.6334229-7.6322784,17.6169434-20.0435333,17.6169434-34.1019211c0-23.0880547-18.7737427-41.840374-41.8618164-41.840374
			h-38.1079712v121.3574829H741.4939575z M741.4939575,30.9006844h15.0479126
			c10.3551636,0,18.8236694,8.4234428,18.8236694,18.7985573c0,10.4025078-8.4685059,18.8202438-18.8236694,18.8202438h-15.0479126
			V30.9006844z"/>
	</g>
</g>
</svg>
