<?xml version="1.0" encoding="UTF-8"?><svg id="_レイヤー_2" xmlns="http://www.w3.org/2000/svg" viewBox="0 0 138.22 73.62"><defs><style>.cls-1{fill:none;}.cls-1,.cls-2{stroke-width:0px;}.cls-2{fill:#f59600;}</style></defs><g id="Logos"><rect class="cls-1" y="1.87" width="138.22" height="71.75"/><path class="cls-2" d="M0,49.65C0,49.05,0,47.44,2.31,47.44s2.37,1.52,2.37,2.21v17.69c0,.32,0,.88.76.88.03,0,6.47-1.14,11.12-5.84,1.42-1.45,1.61-1.8,3.32-4.77.16-.28.35-.63.95-.63.7,0,1.14.57,1.14,1.01,0,.25-1.42,4.93-5.37,8.84-5.18,5.12-12.54,6.76-13.93,6.76C.98,73.59,0,72.39,0,71.03v-21.38Z"/><path class="cls-2" d="M31.85,59.74c-1.48-1.04-3.13-2.05-4.74-2.72-.85-.35-1.33-.54-1.33-1.29,0-.25.13-1.01,1.23-1.01.03,0,2.81.32,5.4,1.14,2.59.85,3.85,1.23,3.85,2.81,0,1.3-1.14,2.31-2.18,2.31-.54,0-.69-.13-2.24-1.23ZM30.24,68.63c7.36-.88,13.99-4.55,18.98-12.29,1.11-1.67,1.23-1.86,1.77-1.86.63,0,1.07.51,1.07.98,0,.35-2.72,7.07-8.21,11.75-6.13,5.21-13.8,6.41-14.02,6.41-2.08,0-2.27-2.31-2.27-2.49,0-2.12,1.17-2.31,2.68-2.49ZM34.94,52.56c-2.08-2.05-3.09-2.65-4.11-3.22-.79-.44-.82-.82-.82-1.07,0-.54.41-1.07,1.07-1.07.73,0,4.71,1.61,5.31,1.9,2.75,1.23,3.09,1.86,3.09,2.75,0,1.26-1.07,2.37-2.21,2.37-.69,0-.85-.16-2.34-1.64Z"/><path class="cls-2" d="M76.53,70.56c-.35,0-1.96.35-2.31.38-2.43.35-3.72.38-6.43.38-5.91,0-7.18,0-7.18-3.03v-7.88c1.85-.18,6.48-.84,10.8-2.04,4.33-1.23,5.12-1.42,5.12-2.72,0-1.04-.95-2.18-2.24-2.18-.6,0-.92.16-2.24.85-3.69,1.97-7.23,3.1-11.43,3.8v-8.35c0-.73,0-2.21-2.34-2.21s-2.34,1.58-2.34,2.21v18.07c0,5.46,2.18,5.46,13.9,5.46,4.17,0,5.24-.16,6-.22.79-.09,1.86-.19,1.86-1.3,0-.76-.6-1.23-1.17-1.23Z"/><path class="cls-2" d="M76.37,46.05c-1.77,0-3.22,1.42-3.22,3.22s1.42,3.19,3.22,3.19,3.22-1.48,3.22-3.19c0-1.8-1.45-3.22-3.22-3.22ZM76.37,50.82c-.92,0-1.58-.73-1.58-1.55,0-.88.73-1.58,1.58-1.58s1.55.69,1.55,1.58c0,.79-.63,1.55-1.55,1.55Z"/><polygon class="cls-2" points="111.27 34.47 27.65 34.47 34.31 41.13 111.27 34.47"/><path class="cls-2" d="M35.39,7.53v1.01c-1.55-.99-2.95-1.56-4.85-1.56-5.86,0-10.31,5.34-10.31,11.9s4.45,11.9,10.31,11.9c1.91,0,3.3-.57,4.85-1.56v1.01h5.15V7.53h-5.15ZM30.54,25.31c-2.89,0-5-2.84-5-6.44s2.12-6.44,5-6.44,4.93,2.85,4.93,6.44-2.04,6.44-4.93,6.44Z"/><path class="cls-2" d="M76.65,7.53v13.33c0,2.5-1.72,4.61-4.22,4.61s-4.22-2.11-4.22-4.61V7.53h-5.15v13.33c0,5.47,3.74,9.92,9.21,9.92,2.53,0,4.38-1.4,4.38-1.4v.84h5.15V7.53h-5.15Z"/><path class="cls-2" d="M124.63,30.22v-13.33c0-2.5,1.72-4.61,4.22-4.61s4.22,2.11,4.22,4.61v13.33h5.15v-13.33c0-5.47-3.74-9.92-9.21-9.92-2.53,0-4.38,1.4-4.38,1.4v-.84h-5.15v22.69h5.15Z"/><path class="cls-2" d="M5.39,30.22v-8.79h3.81l6.6,8.79h6.74l-7.97-10.61c2.48-1.78,4.11-4.68,4.11-7.97,0-5.39-4.39-9.77-9.78-9.77H0v28.35h5.39ZM5.39,7.26h3.51c2.42,0,4.4,1.97,4.4,4.39s-1.98,4.4-4.4,4.4h-3.51V7.26Z"/><path class="cls-2" d="M95.68,24.85c-.46.31-1.05.56-1.72.56-.84,0-2.43-.64-2.43-2.78v-9.71h4.4v-5.39h-4.4V1.87h-5.15v5.65s-2.72,0-2.72,0v5.39h2.72v9.79c0,5.07,3.82,8.09,7.66,8.09,1.43,0,3.42-.47,5.04-1.43l-3.39-4.52Z"/><polygon class="cls-2" points="53.35 18.17 62.18 7.53 54.96 7.53 48.78 15.43 48.78 0 43.48 0 43.48 30.22 48.78 30.22 48.78 20.9 56.38 30.22 63.59 30.22 53.35 18.17"/><path class="cls-2" d="M107.57,6.95c-5.96,0-10.24,5.24-10.24,11.92,0,7.03,5.37,11.92,10.75,11.92,2.72,0,6.2-.93,9.12-5.08l-4.55-2.63c-3.52,5.19-9.38,2.55-10.06-2.63h14.83c1.27-8.15-4-13.51-9.86-13.51ZM112.07,15.95h-9.28c1.08-5.31,8.27-5.62,9.28,0Z"/></g></svg>