<?xml version="1.0" encoding="utf-8"?>
<!-- Generator: Adobe Illustrator 22.0.1, SVG Export Plug-In . SVG Version: 6.00 Build 0)  -->
<svg version="1.1" id="レイヤー_1" xmlns="http://www.w3.org/2000/svg" xmlns:xlink="http://www.w3.org/1999/xlink" x="0px"
	 y="0px" viewBox="0 0 796 144" style="enable-background:new 0 0 796 144;" xml:space="preserve">
<style type="text/css">
	.st0{fill:#F5AA0F;}
	.st1{fill:#FFFFFF;}
</style>
<title>egl_logo</title>
<g id="レイヤー_2_1_">
	<g id="Logos">
		<path class="st0" d="M577.2,67.9l-5.9,0.2c2.6,1.8,5.2,3.5,8,5l2.5,1.4c6.8,3.7,12.9,8.8,17.7,14.9c26.7-2.6,45.7-6.9,62.9-14.1
			c1.8-0.8,3.3-2,4.5-3.6l3.2-1.3c3.7-1.5,6.2-4.9,6.5-8.9v-3l-3,0.6c-23.5,4.6-54.2,7.4-96.3,8.9"/>
		<path class="st0" d="M617.1,91.1L605,90.9h-4.3v0.2c4.4,6.3,6.3,13.9,5.5,21.5c11.6-1,23.1-3.2,34.2-6.7c1.9-0.6,3.7-1.8,5-3.3
			l1.9-0.6c3.8-1.1,6.7-4.2,7.6-8.1l0.2-2.8h-2.8c-13.4,0.2-24.1,0-35.5,0"/>
		<path class="st0" d="M234.9,110.5L234.9,110.5l-0.3-3l-0.9-7.5c-0.2-1.8-0.4-3.5-0.6-4.8l0,0l-0.2-2.1l-0.3-2.2h-2.2h-10.1
			c-13.1,0.2-26.6,0.4-40.9,0h-2.8l0.3,2.8c0.9,3.9,3.8,6.9,7.6,8.1l1.9,0.6c1.4,1.5,3.1,2.6,5,3.3c13.1,4.2,28.2,6.1,44,7.7l0,0
			c0-0.8-0.2-1.9-0.4-3.1"/>
		<path class="st0" d="M231.8,85.3L231.8,85.3l-0.3-2.8l-1.6-13.8l-0.2-2h-2c-23.3-1.1-46.5-3.7-69.4-7.7l-2.9-0.6v3
			c0.3,4,2.8,7.4,6.5,8.9l3.2,1.2c1.2,1.6,2.7,2.8,4.5,3.5c20.1,7.8,41.2,12.6,62.8,14.1L231.8,85.3z"/>
		<path class="st0" d="M419.4,74.5c-2.9-2.6-6.7-4-10.6-3.8h-22l0.4,23.5h12.9v9.2c-1.3,0.3-2.7,0.6-4.1,0.6
			c-5.9-0.1-9-3.2-10.7-8.9c-0.5-3.2-0.8-6.4-0.9-9.7c-0.2-7.3-0.1-16,3.2-19.5c1.2-1.2,2.9-1.8,4.5-1.7c1.9-0.1,3.8,0.5,5.3,1.7
			c0.4,0.4,0.7,1,0.7,1.6v2.3h24v-5v-2.4c0-9.5-8.3-20.8-32-21c-10.1,0-17.9,3.1-23.3,8.8c-6.4,6.9-9.3,17.7-8.6,32.2
			c0,1.6,0.3,3.1,0.5,4.5l-11.3-29.9c-0.2-0.5-0.4-1.1-0.7-1.6l-1.4-3.8c-1.8-5.5-6.8-9.3-12.5-9.5c-4,0-15.8-0.6-15.9-0.6h-2
			l-0.5,1.9c-1.9,7.8-3.7,15.1-5.5,22.2l-0.4-1.4c-0.8-3.2-2.4-6.2-4.5-8.7c-4.4-9.8-16.2-16.3-31.9-17.5
			C223.9,34.5,180.9,22.4,144.6,2L141,0v4.1c-0.1,4.8,2,9.3,5.6,12.4c2.6,2.2,5.4,4.4,8.3,6.5c18.2,16,47.8,29.7,78.4,36.6l2.6,23.4
			c1.4,12.9,2.8,24,3.1,27.5c1.8,12.1,5.7,20.1,12.1,24.4c1.2,0.8,2.4,1.4,3.7,2l1.3,0.9c6.9,4.6,16.5,5,31.3,1.3l13.5-3.3
			c7-1.7,13.5-3.2,20.7-5.1l1.4-0.4l0.3-1.4c3.6-17.7,6.3-32.3,8.9-46.8l4,14.9l6.6,24.8l0.6,2h1.3l0.4,1.4l0.5,2l2.1-0.2
			c6.2-0.9,13.8-1.7,22-2.4l3-0.7l-1.1-2.8l-3.4-9.1c7.9,10.6,19.7,12.8,27.8,12.9c9.4,0,18.4-3.1,25.9-8.7l1.7-1.2v-30
			C423.6,81,422.2,77.2,419.4,74.5 M273.8,114.3c-0.5,0-1,0-1.5,0c-0.1-0.6-0.3-1.2-0.3-1.9l-0.2-1.7c-0.3-2.8-1.1-9.2-1.9-17.7
			c9.7,0.7,19.5,1.2,29.2,1.5h2.4c-1.3,5-2.8,10.2-4.2,15.5c-6.5,1.3-15.8,2.9-23.6,4 M308.7,67c-2.3,9.1-4.6,17.9-7,27
			c0-0.8-0.2-2.1-0.2-2.1l-1-11.1l-0.5-5.3l-0.2-2.1h-2.1h-1l-0.2-2.8l-0.2-1.8H294c-9.8-0.2-18.4-0.3-26.4-0.6V68l-0.2-2.8
			c15.4,1.2,29.5,1.9,39.1,2L308.7,67z"/>
		<path class="st0" d="M687.3,2C653,20.8,615.2,32.5,576.2,36.5c-23,2.6-33,10.5-37.2,18.7c-0.7,0.7-1.3,1.5-1.9,2.3l1.5-14.4
			l0.3-2.8l-2.8,0.2c-10.8,0.6-23.9,1.3-36.1,1.8c-11.6,0.5-19.3,6.1-20.8,15c-1.3,2.4-2.1,5.1-2.2,7.9c0,0-1.1,20.4-1.9,37h-0.7
			c-10.8-0.5-19.6-0.8-26.4-0.9c0.2-10.4,1.2-49.5,1.2-55v-2.3H447c0,0-7.3-0.3-12.4-0.3c-6.8,0-10.7,4-10.7,10.8v2.8
			c-0.1,0.9-0.2,1.7-0.2,2.6c0,7.2-0.5,59.9-0.5,60.5v2.3h2.3c15.4,0.1,30.9,1,46.2,2.8l2.6,0.4l0,0l1.9,0.2
			c8.3,1,24.3,3.1,39.3,6.3c5,1.1,10.8,2.5,16.8,4c8.6,2.1,17.5,4.3,24.8,5.5c9.4,2,19.3,0.1,27.3-5.3c8.6-3.7,15-11.1,17.6-20.1
			c3.7-14.3-4.2-28.1-21.8-38.2l-2.5-1.4c-7.5-4.2-12-7-11.7-10.6c1.6-0.5,3.3-0.9,4.9-1.1c46.2-6.4,79-19.3,106.5-41.7
			c0.4-0.3,0.8-0.7,1.2-1.1c2.3-1.7,4.6-3.5,6.9-5.3c3.8-3,5.9-7.6,5.7-12.4V0L687.3,2z M533.1,68v0.8h-2.6l-27,0.1
			c0-0.3,0-0.5,0-0.7c7.8,0,16.5-0.4,27.5-1h2.1C533.2,67.5,533.2,67.8,533.1,68 M563.8,114.4c-10.5-0.9-21-2.6-31.3-4.9
			c-11-2.2-22-4-31.7-5c0.2-3.5,0.5-7.4,0.8-11h26.2l0.2-2.1c0-0.7,0.1-1.4,0.2-2.1h3.1l0.2-2.1c0.3-2.8,0.5-5.3,0.7-7.9
			c0.2-2.6,0.4-5,0.7-7.6v-0.5c-0.4,14.6,9.7,22.4,19.8,28.2c13.8,7.9,14.8,10.6,13.8,14.4c-0.1,0.2-0.1,0.4-0.2,0.6
			c-0.8,0.2-1.6,0.3-2.4,0.2"/>
		<path class="st1" d="M298.5,28.4c0,0.4,0,0.8,1.4,0.9v0.6h-10.1v-0.6c1.2,0,1.4-0.4,1.4-0.9V5.5c0-0.4-0.2-0.8-1.4-0.9V4.2h17.9
			c7.2,0,10.3,2.6,10.3,8.3c0,4.5-2.9,6.9-7,8l5.8,8.3c0.3,0.5,0.8,0.9,1.4,0.9v0.6h-10.2v-0.6c0.7,0,1.1-0.3,1.1-0.9
			s-5.2-7.2-5.8-8.3h-4.8V28.4z M298.5,15h8.3c2.8,0,3.8-1.3,3.8-2.8s-0.9-2.8-3.8-2.8h-8.3V15z"/>
		<path class="st1" d="M335.5,24.3c-1.3,3.6-1.6,4.2-1.6,4.5s0.2,0.5,0.9,0.5v0.6h-8.7v-0.6c0.6,0,1.2-0.5,1.3-1.1
			c0.4-1.1,8.7-22.7,8.7-23s-0.5-0.4-1-0.5V4.2h12.8v0.6c-0.5,0-0.9,0.2-0.9,0.6s6,15,9.1,22.5c0.5,1.2,0.8,1.5,1.4,1.5v0.6h-9.7
			v-0.6c0.7,0,0.9-0.3,0.9-0.6c0-0.3-1.5-3.8-1.7-4.4L335.5,24.3z M336.7,20.4h9.1l-4.8-11.7L336.7,20.4z"/>
		<path class="st1" d="M385.9,29.9v-0.6c0.6,0,0.9,0,0.9-0.6s-6-9.2-6.8-10.4l-4.9,4.3v5.9c0,0.4,0.2,0.8,1.4,0.9v0.6h-10.1v-0.6
			c1.2,0,1.4-0.4,1.4-0.9V5.5c0-0.4-0.2-0.8-1.4-0.9V4.2h10.1v0.6c-1.2,0-1.4,0.4-1.4,0.9v8.8h0.4c3.9-3.8,9.6-8.5,9.6-9.1
			s-0.3-0.6-0.9-0.6V4.2h12.4v0.6c-1.3,0-1.5,0.5-2.8,1.6l-8.4,7.5l10,14.9c0.3,0.6,0.9,0.9,1.6,0.8v0.6L385.9,29.9z"/>
		<path class="st1" d="M426,5.5c0-0.4,0-0.8-1.4-0.9V4.2h10.1v0.6c-1.2,0-1.4,0.4-1.4,0.9v13.1c0,8.6-6,11.4-13.5,11.4
			s-13.5-2.8-13.5-11.4V5.5c0-0.4,0-0.8-1.4-0.9V4.2H415v0.6c-1.2,0-1.4,0.4-1.4,0.9v13.1c0,3.8,2.3,5.3,6.2,5.3s6.2-1.5,6.2-5.3
			V5.5z"/>
		<path class="st1" d="M451.7,29.9v-0.6c1.2,0,1.3-0.4,1.3-0.9V10.1h-8.4c-0.5,0-0.7,0.2-0.9,1.4h-0.6V2.8h0.5
			c0,1.1,0.4,1.4,0.9,1.4h24.2c0.5,0,0.7-0.2,0.9-1.4h0.6v8.7h-0.6c-0.2-1.1-0.4-1.4-0.9-1.4h-8.4v18.3c0,0.4,0.2,0.8,1.4,0.9v0.6
			H451.7z"/>
		<path class="st1" d="M498.7,20.5h-0.6c-0.1-0.7-0.7-1.2-1.4-1.1c0,0,0,0,0,0h-9.1v4.5h15.7c0.6,0,0.7-0.2,0.9-1.5h0.6V31h-0.6
			c0-0.9-0.3-1.1-0.9-1.1h-24.5v-0.6c1.2,0,1.4-0.4,1.4-0.9V5.5c0-0.4,0-0.8-1.4-0.9V4.2h24.5c0.6,0,0.7-0.2,0.9-1.4h0.6v8.5h-0.6
			c0-1.1-0.3-1.4-0.9-1.4h-15.7V14h9.1c0.7,0.1,1.4-0.4,1.5-1.1c0,0,0,0,0,0h0.6V20.5z"/>
		<path class="st1" d="M515.6,5.5c0-0.4-0.2-0.8-1.4-0.9V4.2h11.9v0.6c-1.1,0-1.4,0.4-1.4,0.6s8.5,9.6,11.9,13.3V5.5
			c0-0.6-0.4-0.8-1-0.9V4.2h8.9v0.6c-1.2,0-1.3,0.4-1.3,0.9v22.8c0,0.4,0.1,0.8,1.3,0.9v0.6h-9.3v-0.6c0.9,0,1.1-0.2,1.1-0.5
			s-1.2-1.3-14.2-15.7v15.4c0,0.4,0.2,0.8,1.4,0.9v0.6h-9.3v-0.6c1.2,0,1.4-0.4,1.4-0.9L515.6,5.5z"/>
		<path class="st1" d="M420.7,84.9c0,8.6-0.2,25.9-0.2,25.9c-7.3,5.4-16.1,8.4-25.2,8.4c-15-0.2-32.6-7.4-34.6-36.6
			C359.3,53.1,373.2,44,390.3,44c22,0.2,29.6,10,29.6,18.5h-19.7c0-3.5-3.9-5.8-8.6-5.8c-9.6,0-11,10.6-10.4,24.3
			c0.6,13.7,2.6,25.1,15,25.4c2.2,0,4.5-0.5,6.5-1.5c0-6,0-11.4-0.2-17.4h-12.9c-0.1-4.9,0-9.6-0.3-14.4h19.5
			C415.5,73.1,420.7,76.3,420.7,84.9 M446.8,46.1c0,0-7.2-0.3-12.3-0.3s-8.3,2.8-8.3,8.4c0,7.6-0.6,62.3-0.6,62.3
			c16,0.1,32,1,48,2.8l0.6-15c-9.3-0.4-20.3-0.9-28.7-0.9C445.5,103.5,446.8,52.2,446.8,46.1 M148.3,14.7
			c19.8,17.5,53,32.4,86.8,38.8c2.3,19.5,5.5,50.7,6.4,56.7c3.7,25.9,17.2,29.8,41.3,23.7c12.2-3.1,23.1-5.5,35.2-8.7
			c4.6-22.9,7.9-40.7,11.6-62.1c5.5,20.7,10.3,38.5,15.5,57.8c7.8-1.1,16.1-1.9,22.8-2.6c0,0-15.2-40.5-24.8-65.8
			c-1.4-4.5-5.6-7.7-10.3-7.9c-4.1,0-16-0.6-16-0.6c-5.8,23.6-10.8,43.1-17.6,68.2c-6.5,1.3-16.5,3.1-25.2,4.4
			c-6.2,0.9-8.4-2.4-9-7.5c-0.2-1.6-1.3-10-2.4-22.9c11.1,0.9,22,1.5,32.8,1.7c-0.5-5.7-1-11.2-1.6-16.9
			c-11.5-0.1-22.3-0.4-32.7-0.7c-0.4-4.9-0.9-9.1-1.2-12.8c14.9,1.2,31.4,2.2,43,2.2c-2.8-11.8-16.2-18.1-30.9-19.3
			c-46.2-3.2-89.9-14.6-128.4-36.2C143.4,8.2,145.1,12.1,148.3,14.7 M227.5,69c-23.4-1.1-46.6-3.6-69.7-7.6c0.2,3,2.2,5.6,5,6.7
			c17.5,7.3,39.7,12.4,66.2,14.4L227.5,69z M230.4,93.4c-16.5,0.2-33,0.6-51.1,0.3c0.8,2.9,3,5.2,5.9,6c14.3,4.5,31.2,6.5,47,8.1
			L230.4,93.4z M575.1,57.2c47.7-6.6,81.2-20.1,108.5-42.5c3.2-2.5,5-6.5,4.8-10.5c-34.6,19-72.7,30.8-112,34.7
			c-23.2,2.6-35.8,11-37.4,24.4c-1.7,14,5.7,22.2,19,29.7s17.1,11.4,15.2,17.7c-1.4,4.1-5.4,6.6-9.6,6.2c-10.7-1-21.3-2.6-31.7-4.9
			c-10.7-2.1-22.8-4.1-33.8-5.3c0.3-6,1-13.9,1.4-19.9h29.4c0.6-5.3,0.8-10.3,1.3-15.5c-9.8,0-19.8,0-29.6,0c0.4-5,0.7-5.5,1-10.5
			c10.4,0,21.3-0.5,32.7-1l1.8-17c-10.8,0.6-23.8,1.3-36.1,1.8s-18.4,6.7-18.9,15.5c-0.5,8.7-3.1,59.7-3.1,59.7
			c12,1.4,27.3,3.6,40.7,6.5c12.7,2.8,30.3,7.6,42.8,9.9c19.3,3.4,34.2-7.1,37.8-20.8c3.8-14.5-5.9-27.1-20.6-35.5
			c-8.4-4.8-16.5-8.6-15.3-14.9C564.2,60.8,567.3,58.2,575.1,57.2 M580.7,70.8l2.5,1.4c5.1,2.8,9.8,6.3,13.9,10.4l0.6,0.5
			c31.7-2.6,52.7-7.1,71.5-15c2.8-1.1,4.7-3.7,5-6.7c-25.9,5-58.2,7.5-94.8,8.8L580.7,70.8 M605.1,93.3c2.2,4.1,3.5,8.7,3.9,13.4
			c12.8-1,25.6-3.3,37.9-7c2.9-0.9,5.1-3.2,5.9-6.1C635,93.8,621.4,93.5,605.1,93.3"/>
	</g>
</g>
</svg>
