<?xml version="1.0" encoding="UTF-8"?><svg id="_レイヤー_2" xmlns="http://www.w3.org/2000/svg" viewBox="0 0 158.71 20.8"><defs><style>.cls-1{fill:#fff;stroke-width:0px;}</style></defs><g id="Copyright"><path class="cls-1" d="M28.31,2.34c1.36,0,2.42.33,3.19,1,.77.67,1.15,1.58,1.15,2.74,0,.87-.2,1.63-.59,2.28-.39.65-1.02,1.1-1.89,1.34v.04c.41.08.75.21,1.01.4.26.19.47.41.62.67.15.26.27.55.34.87.07.32.13.65.17,1,.03.35.05.7.06,1.06.01.36.05.71.1,1.06.05.35.13.68.23.99.1.31.25.59.45.83h-2.12c-.13-.15-.22-.35-.27-.6-.05-.25-.08-.54-.09-.85-.01-.31-.03-.65-.04-1.01-.01-.36-.05-.71-.12-1.06-.05-.35-.12-.68-.2-.99-.08-.31-.21-.59-.38-.82-.17-.23-.4-.42-.68-.56-.28-.14-.65-.21-1.12-.21h-4.64v6.1h-1.9V2.34h6.72ZM28.71,8.83c.4-.07.75-.2,1.05-.39.3-.19.54-.45.72-.78.18-.33.27-.75.27-1.27,0-.72-.2-1.31-.6-1.76-.4-.46-1.05-.68-1.94-.68h-4.72v4.98h3.96c.44,0,.86-.03,1.26-.1Z"/><path class="cls-1" d="M42.95,16.84c-.44,0-.79-.12-1.05-.37-.26-.25-.39-.65-.39-1.21-.47.56-1.01.96-1.63,1.21-.62.25-1.29.37-2.01.37-.47,0-.91-.05-1.32-.15-.41-.1-.78-.27-1.09-.5-.31-.23-.56-.53-.74-.9-.18-.37-.27-.81-.27-1.33,0-.59.1-1.07.3-1.44.2-.37.46-.68.79-.91.33-.23.7-.41,1.12-.53.42-.12.85-.22,1.29-.3.47-.09.91-.16,1.33-.21.42-.05.79-.11,1.11-.2.32-.09.57-.21.76-.38.19-.17.28-.41.28-.73,0-.37-.07-.67-.21-.9-.14-.23-.32-.4-.54-.52-.22-.12-.47-.2-.74-.24-.27-.04-.54-.06-.81-.06-.72,0-1.32.14-1.8.41-.48.27-.74.79-.78,1.55h-1.7c.03-.64.16-1.18.4-1.62s.56-.8.96-1.07c.4-.27.86-.47,1.38-.59.52-.12,1.07-.18,1.64-.18.47,0,.93.03,1.39.1.46.07.88.2,1.25.41.37.21.67.5.9.87.23.37.34.86.34,1.46v5.32c0,.4.02.69.07.88.05.19.2.28.47.28.15,0,.32-.03.52-.1v1.32c-.29.17-.7.26-1.22.26ZM40.57,11.63c-.35.07-.71.13-1.09.18-.38.05-.76.1-1.15.16-.39.06-.73.16-1.04.29-.31.13-.56.32-.75.57-.19.25-.29.58-.29,1.01,0,.28.06.52.17.71s.26.35.44.47c.18.12.39.21.64.26.25.05.5.08.75.08.56,0,1.04-.08,1.44-.23.4-.15.73-.35.98-.58.25-.23.44-.49.56-.76.12-.27.18-.53.18-.77v-1.74c-.21.16-.49.28-.84.35Z"/><path class="cls-1" d="M47.55,2.34v8.46l4.72-4.52h2.28l-4.1,3.76,4.4,6.58h-2.16l-3.54-5.4-1.6,1.48v3.92h-1.7V2.34h1.7Z"/><path class="cls-1" d="M63.09,16.62v-1.64h-.04c-.36.64-.82,1.11-1.38,1.41-.56.3-1.22.45-1.98.45-.68,0-1.25-.09-1.7-.27-.45-.18-.82-.44-1.1-.77-.28-.33-.48-.73-.59-1.19-.11-.46-.17-.97-.17-1.53v-6.8h1.7v7c0,.64.19,1.15.56,1.52.37.37.89.56,1.54.56.52,0,.97-.08,1.35-.24.38-.16.7-.39.95-.68.25-.29.44-.64.57-1.03.13-.39.19-.82.19-1.29v-5.84h1.7v10.34h-1.6Z"/><path class="cls-1" d="M71.67,6.29v1.5h-2.06v6.42c0,.2.02.36.05.48.03.12.1.21.19.28.09.07.22.11.39.13.17.02.38.03.65.03h.78v1.5h-1.3c-.44,0-.82-.03-1.13-.09-.31-.06-.57-.17-.76-.33-.19-.16-.34-.39-.43-.68-.09-.29-.14-.68-.14-1.16v-6.58h-1.76v-1.5h1.76v-3.1h1.7v3.1h2.06Z"/><path class="cls-1" d="M80.87,15.97c-.77.59-1.75.88-2.92.88-.83,0-1.54-.13-2.15-.4-.61-.27-1.12-.64-1.53-1.12-.41-.48-.72-1.05-.93-1.72-.21-.67-.32-1.39-.35-2.18,0-.79.12-1.51.36-2.16.24-.65.58-1.22,1.01-1.7.43-.48.95-.85,1.54-1.12.59-.27,1.24-.4,1.95-.4.92,0,1.68.19,2.29.57.61.38,1.09.86,1.46,1.45.37.59.62,1.23.76,1.92.14.69.2,1.35.17,1.98h-7.74c-.01.46.04.88.16,1.29.12.41.31.77.58,1.08.27.31.61.56,1.02.75.41.19.9.28,1.46.28.72,0,1.31-.17,1.77-.5.46-.33.76-.84.91-1.52h1.68c-.23,1.16-.73,2.03-1.5,2.62ZM80.46,9.33c-.15-.36-.36-.67-.62-.93-.26-.26-.57-.47-.92-.62-.35-.15-.74-.23-1.17-.23s-.84.08-1.19.23c-.35.15-.66.36-.91.63-.25.27-.45.58-.6.93-.15.35-.23.73-.26,1.13h5.94c-.03-.4-.12-.78-.27-1.14Z"/><path class="cls-1" d="M85.89,6.29v1.64h.04c.71-1.25,1.83-1.88,3.36-1.88.68,0,1.25.09,1.7.28.45.19.82.45,1.1.78.28.33.48.73.59,1.19.11.46.17.97.17,1.53v6.8h-1.7v-7c0-.64-.19-1.15-.56-1.52-.37-.37-.89-.56-1.54-.56-.52,0-.97.08-1.35.24-.38.16-.7.39-.95.68-.25.29-.44.64-.57,1.03-.13.39-.19.82-.19,1.29v5.84h-1.7V6.29h1.6Z"/><path class="cls-1" d="M111.11,2.34v1.6h-7.96v4.54h7.42v1.6h-7.42v4.94h8.02v1.6h-9.92V2.34h9.86Z"/><path class="cls-1" d="M121.13,16.84c-.44,0-.79-.12-1.05-.37-.26-.25-.39-.65-.39-1.21-.47.56-1.01.96-1.63,1.21-.62.25-1.29.37-2.01.37-.47,0-.91-.05-1.32-.15-.41-.1-.78-.27-1.09-.5-.31-.23-.56-.53-.74-.9-.18-.37-.27-.81-.27-1.33,0-.59.1-1.07.3-1.44.2-.37.46-.68.79-.91.33-.23.7-.41,1.12-.53.42-.12.85-.22,1.29-.3.47-.09.91-.16,1.33-.21.42-.05.79-.11,1.11-.2.32-.09.57-.21.76-.38.19-.17.28-.41.28-.73,0-.37-.07-.67-.21-.9-.14-.23-.32-.4-.54-.52-.22-.12-.47-.2-.74-.24-.27-.04-.54-.06-.81-.06-.72,0-1.32.14-1.8.41s-.74.79-.78,1.55h-1.7c.03-.64.16-1.18.4-1.62.24-.44.56-.8.96-1.07.4-.27.86-.47,1.38-.59.52-.12,1.07-.18,1.64-.18.47,0,.93.03,1.39.1.46.07.87.2,1.25.41.37.21.67.5.9.87.23.37.34.86.34,1.46v5.32c0,.4.02.69.07.88.05.19.2.28.47.28.15,0,.32-.03.52-.1v1.32c-.29.17-.7.26-1.22.26ZM118.75,11.63c-.35.07-.71.13-1.09.18-.38.05-.76.1-1.15.16-.39.06-.73.16-1.04.29-.31.13-.56.32-.75.57-.2.25-.29.58-.29,1.01,0,.28.06.52.17.71.11.19.26.35.44.47.18.12.39.21.64.26.25.05.5.08.75.08.56,0,1.04-.08,1.44-.23.4-.15.73-.35.98-.58.25-.23.44-.49.56-.76.12-.27.18-.53.18-.77v-1.74c-.21.16-.49.28-.84.35Z"/><path class="cls-1" d="M131.69,19.55c-.77.84-1.99,1.26-3.64,1.26-.48,0-.97-.05-1.47-.16-.5-.11-.95-.28-1.36-.52-.41-.24-.74-.55-1.01-.94-.27-.39-.41-.86-.44-1.42h1.7c.01.31.11.57.29.78.18.21.4.39.66.52.26.13.54.23.85.29.31.06.6.09.88.09.56,0,1.04-.1,1.42-.29.38-.19.7-.46.96-.8.25-.34.44-.75.55-1.23.11-.48.17-1.01.17-1.58v-.68h-.04c-.29.64-.74,1.11-1.33,1.41-.59.3-1.22.45-1.89.45-.77,0-1.45-.14-2.02-.42-.57-.28-1.05-.66-1.44-1.13-.39-.47-.68-1.03-.87-1.66-.19-.63-.29-1.3-.29-2.01,0-.61.08-1.24.24-1.89.16-.65.43-1.23.8-1.76.37-.53.87-.96,1.48-1.3.61-.34,1.37-.51,2.26-.51.65,0,1.25.14,1.8.43.55.29.97.72,1.28,1.29h.02v-1.48h1.6v9.46c0,1.69-.39,2.96-1.16,3.8ZM129.52,14.9c.39-.23.71-.54.95-.92.24-.38.42-.81.53-1.29.11-.48.17-.96.17-1.44,0-.45-.05-.9-.16-1.34-.11-.44-.28-.84-.51-1.19-.23-.35-.54-.64-.91-.85-.37-.21-.83-.32-1.36-.32s-1.01.1-1.4.31c-.39.21-.7.48-.95.83-.25.35-.43.75-.54,1.2-.11.46-.17.93-.17,1.42,0,.47.05.93.14,1.4.09.47.25.89.48,1.27.23.38.53.69.9.92.37.23.84.35,1.4.35s1.04-.12,1.43-.35Z"/><path class="cls-1" d="M137.21,2.34v14.28h-1.7V2.34h1.7Z"/><path class="cls-1" d="M147.17,15.97c-.77.59-1.75.88-2.92.88-.83,0-1.54-.13-2.15-.4-.61-.27-1.12-.64-1.53-1.12-.41-.48-.72-1.05-.93-1.72-.21-.67-.32-1.39-.35-2.18,0-.79.12-1.51.36-2.16.24-.65.58-1.22,1.01-1.7.43-.48.95-.85,1.54-1.12.59-.27,1.24-.4,1.95-.4.92,0,1.68.19,2.29.57.61.38,1.09.86,1.46,1.45.37.59.62,1.23.76,1.92.14.69.2,1.35.17,1.98h-7.74c-.01.46.04.88.16,1.29.12.41.31.77.58,1.08.27.31.61.56,1.02.75.41.19.9.28,1.46.28.72,0,1.31-.17,1.77-.5.46-.33.76-.84.91-1.52h1.68c-.23,1.16-.73,2.03-1.5,2.62ZM146.76,9.33c-.15-.36-.36-.67-.62-.93-.26-.26-.57-.47-.92-.62-.35-.15-.74-.23-1.17-.23s-.84.08-1.19.23c-.35.15-.66.36-.91.63-.25.27-.45.58-.6.93-.15.35-.23.73-.26,1.13h5.94c-.03-.4-.12-.78-.27-1.14Z"/><path class="cls-1" d="M151.89,14.32c.16.26.37.47.63.62.26.15.55.26.88.33.33.07.66.1,1.01.1.27,0,.55-.02.84-.06.29-.04.56-.11.81-.22.25-.11.45-.26.61-.47.16-.21.24-.47.24-.79,0-.44-.17-.77-.5-1-.33-.23-.75-.41-1.25-.55-.5-.14-1.04-.27-1.63-.38-.59-.11-1.13-.27-1.63-.48-.5-.21-.92-.5-1.25-.87-.33-.37-.5-.89-.5-1.56,0-.52.12-.97.35-1.34.23-.37.53-.68.9-.91.37-.23.78-.41,1.24-.52.46-.11.92-.17,1.37-.17.59,0,1.13.05,1.62.15.49.1.93.27,1.31.52.38.25.68.58.91,1,.23.42.36.94.4,1.57h-1.7c-.03-.33-.11-.61-.26-.83-.15-.22-.33-.4-.56-.53-.23-.13-.48-.23-.75-.29-.27-.06-.55-.09-.83-.09-.25,0-.51.02-.77.06-.26.04-.5.11-.71.21-.21.1-.39.23-.52.4-.13.17-.2.38-.2.65,0,.29.1.54.31.73.21.19.47.35.79.48.32.13.68.23,1.08.32.4.09.8.18,1.2.27.43.09.84.21,1.25.34.41.13.77.31,1.08.53.31.22.57.5.76.83.19.33.29.75.29,1.24,0,.63-.13,1.15-.39,1.56-.26.41-.6.75-1.02,1-.42.25-.89.43-1.42.53-.53.1-1.05.15-1.57.15-.57,0-1.12-.06-1.64-.18-.52-.12-.98-.32-1.38-.59-.4-.27-.72-.63-.96-1.08-.24-.45-.37-.99-.4-1.63h1.7c.01.37.1.69.26.95Z"/><path class="cls-1" d="M10.72,6.03c-.36-.31-.85-.46-1.47-.46-.52,0-.96.1-1.32.29-.35.19-.64.45-.85.77-.21.32-.36.69-.45,1.1-.09.42-.14.85-.14,1.29,0,.41.05.81.15,1.2.1.39.25.73.45,1.03.21.3.47.54.8.73.33.18.72.27,1.18.27.72,0,1.28-.19,1.68-.56.41-.38.65-.91.74-1.59h1.49c-.16,1.1-.57,1.94-1.22,2.53-.66.59-1.55.89-2.68.89-.67,0-1.27-.11-1.79-.33-.52-.22-.95-.52-1.3-.92-.35-.4-.61-.87-.79-1.43-.18-.55-.26-1.16-.26-1.82s.09-1.28.26-1.86c.17-.57.43-1.08.78-1.5.35-.43.78-.76,1.31-1.01.52-.25,1.13-.37,1.83-.37.5,0,.97.06,1.41.18.44.12.83.31,1.16.56.34.25.61.57.83.95.22.38.35.83.41,1.36h-1.51c-.11-.56-.35-.99-.72-1.3Z"/><path class="cls-1" d="M8.96,0C4.01,0,0,4,0,8.95s4.01,8.95,8.96,8.95,8.94-3.96,8.94-8.95S13.9,0,8.96,0ZM8.96,16.97C4.52,16.97.93,13.39.93,8.95S4.48.92,8.96.92s8.02,3.59,8.02,8.03-3.59,8.03-8.02,8.03Z"/></g></svg>