<?xml version="1.0" encoding="utf-8"?>
<!-- Generator: Adobe Illustrator 22.1.0, SVG Export Plug-In . SVG Version: 6.00 Build 0)  -->
<svg version="1.1" id="logo" xmlns="http://www.w3.org/2000/svg" xmlns:xlink="http://www.w3.org/1999/xlink" x="0px" y="0px"
	 viewBox="0 0 796 315.3" style="enable-background:new 0 0 796 315.3;" xml:space="preserve">
<title>girls_logo</title>
<g id="Rakuten_GirlsAward">
	<g id="Rakuten_1_">
		<path d="M215.4,86.7V8.3H237c15,0,26.1,10.6,26.1,25c0,10.6-4.7,17.7-14.3,21.9l19.2,31.5h-11.3l-15.9-28.3h-16.3v28.3H215.4z
			 M224.3,50H237c9.5,0,16.5-7.2,16.5-16.7c0-9.5-7.1-16.6-16.5-16.6h-12.6V50z"/>
		<path d="M315.1,79.8c-4.9,5.8-10.5,8.5-17.7,8.5c-16.4,0-27.7-13.4-27.7-32.9s11.3-32.8,27.9-32.8c7.5,0,12.6,2.2,17.6,7.4
			l1.3-5.9h8v62.7h-8L315.1,79.8z M279.3,55.3c0,14.2,7.8,24.6,18.3,24.6c10.6,0,18.2-10.3,18.2-24.5c0-14.3-7.7-24.6-18.3-24.6
			C287.1,30.8,279.3,41.3,279.3,55.3z"/>
		<path d="M372.6,86.7l-27.4-32.9v32.9h-9V3.1h9v47.6L370,24h11.3l-26.6,28.7l30.3,34H372.6z"/>
		<path d="M429.9,80.4c-4.3,5-10.6,7.8-17.2,7.8c-13.3,0-22.5-10.3-22.5-25.2V24h9v39.1c0,10.3,5.8,16.7,14.9,16.7
			c8.5,0,16.1-7.9,16.1-16.4V24h9v62.7h-8L429.9,80.4z"/>
		<path d="M466.4,10.2V24h15.7v8.4h-15.7v41.6c0,3.9,2.2,6,6.4,6c3.5,0,5.5-1.2,7.6-4.8l6.8,4.7c-4.5,6.4-8.4,8.5-15.2,8.5
			s-11.2-2.7-13.3-8.4c-0.8-2.1-1.1-4.3-1.1-8V32.3h-10.8V24h10.8V10.2H466.4z"/>
		<path d="M541.5,75.2c-5.4,8.5-14.1,13-25.2,13c-17,0-29-13.6-29-33c0-19.3,11.3-32.7,27.8-32.7c15.2,0,27.2,13.3,27.2,30.4
			c0,1.7-0.1,3-0.4,4.9h-45c0.5,7.3,2.4,12.1,6.4,16.4c3.6,3.9,8.3,6.1,13,6.1c8,0,14.5-3.9,17.8-10.5L541.5,75.2z M532,49.6
			c-0.8-11.5-7.6-19.1-16.8-19.1c-6.2,0-11.7,3.3-15,8.8c-1.8,3.1-2.7,5.8-3.2,10.4H532z"/>
		<path d="M561.8,28.9c3.8-3.9,10.6-6.5,17.2-6.5c13.4,0,22.6,10.3,22.6,25.2v39h-9V47.5c0-10.3-5.8-16.7-14.9-16.7
			c-8.5,0-16.1,7.8-16.1,16.4v39.4h-9V24h8L561.8,28.9z"/>
	</g>
	<g id="GirlsAward">
		<path d="M217.8,179.2c-5.9,9.8-15.2,14.8-27.1,14.8c-19.8,0-33.4-16.5-33.4-40.5s13.8-41,33.4-41c10.9,0,17.7,3.8,25.5,14.3
			l-7.1,5.8c-5-8-10.9-11.7-18.6-11.7c-14.4,0-23.7,12.8-23.7,32.9c0,19.7,9.1,31.8,23.8,31.8c8.1,0,14.2-3,18.2-8.8v-16.4h-17.5
			v-8.4h26.5V179.2z"/>
		<path d="M229.2,121.9v-10.4h10.4v10.4H229.2z M229.9,192.4v-62.7h9v62.7H229.9z"/>
		<path d="M262.4,135.8c3.2-3.9,10.6-7,17.8-7.6v8.4c-9.9,1.2-17.4,7.2-17.4,13.8v42h-9v-62.7h7.7L262.4,135.8z"/>
		<path d="M288.5,192.4v-83.5h9v83.5H288.5z"/>
		<path d="M341.9,142.7c-3.1-3.8-7.9-6.2-12.6-6.2c-6.2,0-10.4,3.5-10.4,8.8c0,3.3,1.1,5.6,3.5,7.2c1.2,0.9,1.2,0.9,11.6,5.4
			c12.1,5.4,16.9,10.8,16.9,19c0,10.5-8.4,17.1-21.6,17.1c-9.6,0-16.8-3.4-22.2-10.3l6.3-5.7c4.9,5.4,9.6,7.6,16,7.6
			c7.4,0,11.9-3.3,11.9-8.7c0-3-1.8-6.1-5.2-8.7c-2.3-1.7-5.1-3.1-13-6.4c-9.8-4.1-13.8-9.1-13.8-17c0-10.1,8-16.7,19.9-16.7
			c7.9,0,13.6,2.4,19.1,7.9L341.9,142.7z"/>
		<path d="M398.2,173.8h-28.5l-6,18.6h-10l25.6-78.3h9.2l25.6,78.3h-10L398.2,173.8z M395.8,165.4L384,126.7l-11.8,38.7H395.8z"/>
		<path d="M421.3,129.7l11.9,52.9l13.7-52.9h8l13.7,52.9l11.9-52.9h9.2l-14.9,62.7h-11.9L451,147.9L439,192.4h-11.9l-14.9-62.7
			H421.3z"/>
		<path d="M537.7,185.5c-4.9,5.8-10.5,8.5-17.7,8.5c-16.4,0-27.7-13.4-27.7-32.9s11.3-32.8,27.9-32.8c7.5,0,12.6,2.2,17.6,7.4
			l1.3-5.9h8v62.7h-8L537.7,185.5z M501.9,161.1c0,14.2,7.8,24.6,18.3,24.6c10.6,0,18.2-10.3,18.2-24.5c0-14.3-7.7-24.6-18.3-24.6
			C509.6,136.6,501.9,147,501.9,161.1z"/>
		<path d="M567.6,135.8c3.2-3.9,10.6-7,17.8-7.6v8.4c-9.9,1.2-17.4,7.2-17.4,13.8v42h-9v-62.7h7.7L567.6,135.8z"/>
		<path d="M632,185.5c-4.9,5.8-10.5,8.5-17.7,8.5c-16.4,0-27.7-13.4-27.7-32.9s11.3-32.8,27.8-32.8c7.7,0,13.3,2.9,18,9.2v-28.5h9
			v83.5h-8L632,185.5z M596.1,161.1c0,14.2,7.8,24.6,18.3,24.6c10.6,0,18.2-10.3,18.2-24.5c0-14.3-7.7-24.6-18.3-24.6
			C603.9,136.6,596.1,147,596.1,161.1z"/>
	</g>
</g>
<g id="Rakuten">
	<polygon points="474.7,301.3 336.1,301.3 347.1,312.3 	"/>
	<path d="M348.9,256.6v1.7c-2.6-1.6-4.9-2.6-8-2.6c-9.7,0-17.1,8.9-17.1,19.7c0,10.9,7.4,19.7,17.1,19.7c3.2,0,5.5-0.9,8-2.6v1.7
		h8.5v-37.6H348.9z M340.9,286.1c-4.8,0-8.3-4.7-8.3-10.7c0-6,3.5-10.7,8.3-10.7c4.8,0,8.2,4.7,8.2,10.7
		C349.1,281.4,345.7,286.1,340.9,286.1z"/>
	<path d="M417.3,256.6v22.1c0,4.1-2.8,7.6-7,7.6c-4.1,0-7-3.5-7-7.6v-22.1h-8.5v22.1c0,9.1,6.2,16.4,15.3,16.4
		c4.2,0,7.3-2.3,7.3-2.3v1.4h8.5v-37.6H417.3z"/>
	<path d="M496.9,294.2v-22.1c0-4.1,2.8-7.6,7-7.6c4.1,0,7,3.5,7,7.6v22.1h8.5v-22.1c0-9.1-6.2-16.4-15.3-16.4
		c-4.2,0-7.3,2.3-7.3,2.3v-1.4h-8.5v37.6H496.9z"/>
	<path d="M299.2,294.2v-14.6h6.3l10.9,14.6h11.2l-13.2-17.6c4.1-3,6.8-7.8,6.8-13.2c0-8.9-7.3-16.2-16.2-16.2h-14.8v47H299.2z
		 M299.2,256.2h5.8c4,0,7.3,3.3,7.3,7.3c0,4-3.3,7.3-7.3,7.3h-5.8V256.2z"/>
	<path d="M448.9,285.3c-0.8,0.5-1.7,0.9-2.9,0.9c-1.4,0-4-1.1-4-4.6v-16.1h7.3v-8.9H442l0-9.4h-8.5l0,9.4h-4.5v8.9h4.5v16.2
		c0,8.4,6.3,13.4,12.7,13.4c2.4,0,5.7-0.8,8.4-2.4L448.9,285.3z"/>
	<polygon points="378.7,274.3 393.3,256.6 381.4,256.6 371.1,269.7 371.1,244.1 362.3,244.1 362.3,294.2 371.1,294.2 371.1,278.8 
		383.7,294.2 395.7,294.2 	"/>
	<path d="M468.6,255.7c-9.9,0-17,8.7-17,19.8c0,11.7,8.9,19.8,17.8,19.8c4.5,0,10.3-1.5,15.1-8.4l-7.5-4.4
		c-5.8,8.6-15.6,4.2-16.7-4.4l24.6,0C487.1,264.5,478.3,255.7,468.6,255.7z M476.1,270.6h-15.4C462.5,261.8,474.4,261.3,476.1,270.6
		z"/>
</g>
</svg>
