<?xml version="1.0" encoding="UTF-8"?><svg id="_レイヤー_1" xmlns="http://www.w3.org/2000/svg" viewBox="0 0 1024.32 1024.51"><defs><style>.cls-1{fill:#fff;}.cls-2{fill:red;}</style></defs><g id="color"><circle class="cls-2" cx="512" cy="512" r="512"/><path class="cls-1" d="m442.57,612.94v-201.88l177.43,100.94-177.43,100.94h0Zm394.68-265.4c-7.81-29.4-30.81-52.55-60.02-60.41-52.94-14.28-265.23-14.28-265.23-14.28,0,0-212.29,0-265.23,14.28-29.21,7.86-52.21,31.01-60.02,60.41-14.19,53.29-14.19,164.46-14.19,164.46,0,0,0,111.17,14.19,164.46,7.81,29.4,30.81,52.55,60.02,60.41,52.94,14.28,265.23,14.28,265.23,14.28,0,0,212.29,0,265.23-14.28,29.21-7.86,52.21-31.01,60.02-60.41,14.19-53.29,14.19-164.46,14.19-164.46,0,0,0-111.18-14.19-164.46h0Z"/></g></svg>