<?xml version="1.0" encoding="UTF-8"?><svg id="_レイヤー_1" xmlns="http://www.w3.org/2000/svg" viewBox="0 0 1024 1024"><defs><style>.cls-1{fill:#fff;}</style></defs><g id="white"><path class="cls-1" d="m511.99,426.91c-47.13.09-85.26,38.37-85.17,85.5,0,0,0,.01,0,.02.1,47.12,38.38,85.24,85.5,85.15,47.13-.09,85.26-38.37,85.17-85.5-.09-47.13-38.37-85.26-85.5-85.17Z"/><path class="cls-1" d="m720.31,408.46c-1.18-24.97-5.37-38.5-8.89-47.49-4.67-11.97-10.21-20.46-19.21-29.41-9-8.95-17.51-14.48-29.48-19.09-9.02-3.49-22.59-7.62-47.53-8.7-27.01-1.19-35.12-1.44-103.46-1.3-68.34.15-76.43.4-103.42,1.68-24.95,1.19-38.49,5.38-47.51,8.9-11.95,4.67-20.47,10.21-29.4,19.21-8.93,9-14.48,17.5-19.09,29.48-3.47,9.03-7.64,22.59-8.7,47.53-1.18,26.99-1.44,35.08-1.3,103.42s.41,76.45,1.68,103.42c1.17,24.96,5.39,38.5,8.9,47.53,4.67,11.93,10.2,20.49,19.2,29.4s17.52,14.48,29.48,19.09c9.03,3.47,22.58,7.62,47.54,8.7h0c27,1.17,35.06,1.44,103.42,1.3,68.36-.15,76.45-.41,103.45-1.68,24.93-1.19,38.48-5.39,47.49-8.9,11.95-4.67,20.46-10.21,29.4-19.2,8.94-8.99,14.49-17.52,19.1-29.47,3.48-9.04,7.61-22.6,8.7-47.56,1.18-26.98,1.42-35.09,1.3-103.42s-.41-76.43-1.7-103.42Zm-207.9,235.23c-72.59.14-131.55-58.58-131.69-131.19-.14-72.59,58.59-131.56,131.19-131.71,72.6-.14,131.57,58.59,131.71,131.2.14,72.6-58.62,131.56-131.21,131.7Zm136.19-237.59c-16.97.03-30.74-13.7-30.77-30.67-.03-16.96,13.7-30.74,30.66-30.77h.01c16.97-.03,30.74,13.7,30.77,30.67.03,16.97-13.7,30.74-30.67,30.77Z"/><path class="cls-1" d="m512,0C229.23,0,0,229.23,0,512s229.23,512,512,512,512-229.23,512-512S794.77,0,512,0Zm254.79,617.32c-1.18,27.23-5.47,45.85-11.78,62.13-6.51,16.87-15.24,31.15-29.43,45.4-14.19,14.25-28.46,23.03-45.29,29.61-16.27,6.36-34.77,10.72-62.08,12.02-27.31,1.3-36.06,1.6-105.55,1.74-69.5.13-78.27-.14-105.52-1.34-27.25-1.19-45.87-5.48-62.15-11.78-16.9-6.52-31.16-15.24-45.41-29.44-14.25-14.2-23.04-28.46-29.61-45.29-6.39-16.27-10.72-34.86-12.02-62.1-1.32-27.31-1.63-36.02-1.76-105.54s.13-78.28,1.34-105.53,5.47-45.87,11.78-62.17c6.51-16.86,15.25-31.13,29.45-45.37s28.46-23.05,45.29-29.6c16.26-6.39,34.86-10.74,62.1-12.02,27.31-1.33,36.01-1.63,105.53-1.76,69.52-.13,78.3.17,105.54,1.35,27.25,1.18,45.86,5.47,62.15,11.78,16.86,6.49,31.16,15.22,45.4,29.43,14.24,14.21,23.02,28.46,29.6,45.29,6.38,16.28,10.72,34.82,12.02,62.12,1.3,27.3,1.61,36.01,1.74,105.52.13,69.51-.15,78.23-1.34,105.56Z"/></g></svg>