<svg xmlns="http://www.w3.org/2000/svg" viewBox="0 0 365.66 60.57"><defs><style>.cls-1{fill:none;}.cls-2{fill:#871e8c;}</style></defs><g id="レイヤー_2" data-name="レイヤー 2"><g id="logo"><g id="logo_advertising_03.svg"><rect class="cls-1" width="365.66" height="60.57" rx="2.82"/><rect class="cls-1" x="14.09" y="14.08" width="337.49" height="32.4"/><polygon class="cls-2" points="124.66 46.48 41.56 46.48 48.18 53.1 124.66 46.48"/><path class="cls-2" d="M49.26,19.7v1a8.38,8.38,0,0,0-4.83-1.56c-5.82,0-10.24,5.31-10.24,11.83s4.42,11.83,10.24,11.83a8.44,8.44,0,0,0,4.83-1.55v1h5.11V19.7ZM44.43,37.38c-2.87,0-5-2.83-5-6.4s2.1-6.4,5-6.4,4.9,2.83,4.9,6.4S47.31,37.38,44.43,37.38Z"/><path class="cls-2" d="M90.25,19.7V33a4.21,4.21,0,1,1-8.38,0V19.7H76.75V33c0,5.44,3.72,9.86,9.15,9.86a7.85,7.85,0,0,0,4.35-1.39v.84h5.12V19.7Z"/><path class="cls-2" d="M137.94,42.26V29a4.21,4.21,0,1,1,8.39,0V42.26h5.12V29c0-5.44-3.72-9.86-9.16-9.86a7.89,7.89,0,0,0-4.35,1.39V19.7h-5.11V42.26Z"/><path class="cls-2" d="M19.44,42.26V33.52h3.78l6.56,8.74h6.7L28.56,31.71a9.71,9.71,0,0,0-5.63-17.63H14.08V42.26Zm0-22.83h3.49a4.37,4.37,0,1,1,0,8.74H19.44Z"/><path class="cls-2" d="M109.17,36.92a3.05,3.05,0,0,1-1.71.55A2.52,2.52,0,0,1,105,34.71V25.06h4.38V19.7H105V14.08H99.92V19.7h-2.7v5.36h2.7v9.73a7.71,7.71,0,0,0,7.61,8,10.57,10.57,0,0,0,5-1.42Z"/><polygon class="cls-2" points="67.1 30.27 75.88 19.7 68.7 19.7 62.56 27.56 62.56 12.22 57.29 12.22 57.29 42.26 62.56 42.26 62.56 32.99 70.11 42.26 77.28 42.26 67.1 30.27"/><path class="cls-2" d="M121,19.13c-5.92,0-10.17,5.21-10.17,11.85,0,7,5.33,11.85,10.68,11.85,2.7,0,6.16-.93,9.06-5L126,35.17c-3.5,5.15-9.32,2.54-10-2.61h14.74C132.05,24.46,126.81,19.13,121,19.13Zm4.47,8.94h-9.22C117.32,22.79,124.46,22.48,125.46,28.07Z"/><path class="cls-2" d="M159.34,42.25l9.94-26.76h4l9.95,26.76H179.6l-2.39-6.66h-12l-2.35,6.66Zm7-9.85h9.77l-4.9-13.72Z"/><path class="cls-2" d="M192.47,42.67a8.44,8.44,0,0,1-4.78-1.42,10,10,0,0,1-3.38-3.94,13,13,0,0,1-1.23-5.75,12.92,12.92,0,0,1,1.23-5.77,10,10,0,0,1,3.38-3.92,8.45,8.45,0,0,1,4.78-1.43,7.84,7.84,0,0,1,4.32,1.2,7.72,7.72,0,0,1,2.86,3.21V12.47H203V42.25h-2.89l-.38-4a7.7,7.7,0,0,1-2.89,3.23A8,8,0,0,1,192.47,42.67Zm.63-3.27a6,6,0,0,0,3.38-1,6.75,6.75,0,0,0,2.35-2.77,9.35,9.35,0,0,0,.86-4.09,9.28,9.28,0,0,0-.86-4.11,6.76,6.76,0,0,0-2.35-2.75,6.3,6.3,0,0,0-6.75,0,6.68,6.68,0,0,0-2.35,2.75,9.15,9.15,0,0,0-.86,4.11,9.21,9.21,0,0,0,.86,4.09,6.68,6.68,0,0,0,2.35,2.77A6,6,0,0,0,193.1,39.4Z"/><path class="cls-2" d="M213.4,42.25l-8.22-21.39H209l6.54,17.7,6.5-17.7h3.53L217.3,42.25Z"/><path class="cls-2" d="M235.26,42.76a9.89,9.89,0,0,1-5.33-1.41,9.26,9.26,0,0,1-3.5-3.92,13,13,0,0,1-1.24-5.83,13,13,0,0,1,1.24-5.83,9.76,9.76,0,0,1,3.4-4,9.21,9.21,0,0,1,9.92,0,9.81,9.81,0,0,1,3.35,4,13.26,13.26,0,0,1,1.22,5.83v.84H228.63a7.91,7.91,0,0,0,2.06,5.35,6.57,6.57,0,0,0,4.82,1.82q3.81,0,6.38-3.81l2.18,2.43a10.18,10.18,0,0,1-3.8,3.33A10.76,10.76,0,0,1,235.26,42.76Zm-.46-19.25a5.45,5.45,0,0,0-4.07,1.61,7.78,7.78,0,0,0-2,4.51h12.13a7.9,7.9,0,0,0-2-4.51A5.36,5.36,0,0,0,234.8,23.51Z"/><path class="cls-2" d="M247,42.25V20.86h2.89l.38,4.07a7.74,7.74,0,0,1,2.39-3.27,5.44,5.44,0,0,1,3.44-1.22,5.71,5.71,0,0,1,3.77,1.39l-1.17,3.35a4.53,4.53,0,0,0-3-1.21A4.28,4.28,0,0,0,253,25,6.71,6.71,0,0,0,251,27.62a9.42,9.42,0,0,0-.72,3.77V42.25Z"/><path class="cls-2" d="M271.62,42.67q-6.21,0-6.21-7.21V24h-3.73V20.86h3.73V15.33h3.36v5.53h7.46V24h-7.46V35.29q0,4.11,3.14,4.11a4.88,4.88,0,0,0,1.83-.35,9.19,9.19,0,0,0,1.91-1.16l1,3.27A8.17,8.17,0,0,1,271.62,42.67Z"/><path class="cls-2" d="M281.31,17.63a2.28,2.28,0,0,1-1.74-.73,2.44,2.44,0,0,1,0-3.4,2.44,2.44,0,0,1,3.48,0,2.44,2.44,0,0,1,0,3.4A2.28,2.28,0,0,1,281.31,17.63Zm-1.68,24.62V20.86H283V42.25Z"/><path class="cls-2" d="M293.94,42.76a10.61,10.61,0,0,1-4.87-1.13,10.18,10.18,0,0,1-3.73-3.28l2.18-2.47a7.26,7.26,0,0,0,6.37,3.73,5.65,5.65,0,0,0,3.19-.77,2.51,2.51,0,0,0,1.13-2.21q0-2.51-3.69-3.44l-2.47-.62A8.21,8.21,0,0,1,288,30.32a5.31,5.31,0,0,1-1.47-3.75,5.64,5.64,0,0,1,.95-3.21,6.26,6.26,0,0,1,2.58-2.2,8.33,8.33,0,0,1,3.69-.8,9.51,9.51,0,0,1,4.21.94A7.2,7.2,0,0,1,301,24l-2.09,2.51a7.89,7.89,0,0,0-2.33-2.28,5.57,5.57,0,0,0-2.83-.69,4.56,4.56,0,0,0-2.77.79,2.47,2.47,0,0,0-1.09,2.1,2.37,2.37,0,0,0,.84,1.89,7.75,7.75,0,0,0,2.85,1.26l2.35.62a8.82,8.82,0,0,1,4.21,2.37,5.54,5.54,0,0,1,1.49,3.88,5.7,5.7,0,0,1-2.1,4.58A8.37,8.37,0,0,1,293.94,42.76Z"/><path class="cls-2" d="M306,17.63a2.3,2.3,0,0,1-1.74-.73,2.44,2.44,0,0,1,0-3.4,2.45,2.45,0,0,1,3.49,0,2.44,2.44,0,0,1,0,3.4A2.32,2.32,0,0,1,306,17.63ZM304.3,42.25V20.86h3.35V42.25Z"/><path class="cls-2" d="M311.34,42.25V20.86h2.9l.38,4a8.12,8.12,0,0,1,2.87-3.23,7.41,7.41,0,0,1,4.13-1.18,6.86,6.86,0,0,1,5.54,2.44q2.05,2.43,2,7V42.25h-3.35V30.09a7.22,7.22,0,0,0-1.37-4.74,4.51,4.51,0,0,0-3.67-1.63,5.31,5.31,0,0,0-3.18,1,6.54,6.54,0,0,0-2.16,2.62,8.18,8.18,0,0,0-.78,3.57V42.25Z"/><path class="cls-2" d="M341.5,50.73a14.45,14.45,0,0,1-5.07-.88,11.39,11.39,0,0,1-4.07-2.52l1.3-3.06a11.33,11.33,0,0,0,3.59,2.37,11,11,0,0,0,4.17.82q6.84,0,6.84-8.14V37.77a8.64,8.64,0,0,1-2.88,3.14,7.35,7.35,0,0,1-4.21,1.26,8.44,8.44,0,0,1-4.74-1.38A9.74,9.74,0,0,1,333.11,37a12.38,12.38,0,0,1-1.21-5.56,12.85,12.85,0,0,1,1.19-5.62,9.72,9.72,0,0,1,3.3-3.9,8.29,8.29,0,0,1,4.78-1.43,7.81,7.81,0,0,1,4.26,1.22,8.3,8.3,0,0,1,2.91,3.1l.34-3.9h2.89V39.32c0,3.75-.88,6.58-2.64,8.51A9.55,9.55,0,0,1,341.5,50.73Zm.25-11.79a6,6,0,0,0,3.4-1,6.75,6.75,0,0,0,2.31-2.71,8.88,8.88,0,0,0,.84-3.94,9,9,0,0,0-.84-4,6.59,6.59,0,0,0-2.31-2.68,6,6,0,0,0-3.4-1,5.84,5.84,0,0,0-3.33,1,6.6,6.6,0,0,0-2.28,2.68,9,9,0,0,0-.84,4,8.93,8.93,0,0,0,.84,4A6.63,6.63,0,0,0,338.42,38,5.91,5.91,0,0,0,341.75,38.94Z"/></g></g></g></svg>