<?xml version="1.0" encoding="utf-8"?>
<!-- Generator: Adobe Illustrator 22.1.0, SVG Export Plug-In . SVG Version: 6.00 Build 0)  -->
<svg version="1.1" id="logo" xmlns="http://www.w3.org/2000/svg" xmlns:xlink="http://www.w3.org/1999/xlink" x="0px" y="0px"
	 viewBox="0 0 269.7 41.1" style="enable-background:new 0 0 269.7 41.1;" xml:space="preserve">
<style type="text/css">
	.st0{fill:#BF0000;}
</style>
<polygon class="st0" points="111.3,34.5 27.6,34.5 34.3,41.1 "/>
<path class="st0" d="M35.4,7.5v1c-1.6-1-2.9-1.6-4.9-1.6c-5.9,0-10.3,5.3-10.3,11.9c0,6.6,4.5,11.9,10.3,11.9c1.9,0,3.3-0.6,4.9-1.6
	v1h5.1V7.5H35.4z M30.5,25.3c-2.9,0-5-2.8-5-6.4c0-3.6,2.1-6.4,5-6.4c2.9,0,4.9,2.8,4.9,6.4C35.5,22.5,33.4,25.3,30.5,25.3z"/>
<path class="st0" d="M76.6,7.5v13.3c0,2.5-1.7,4.6-4.2,4.6c-2.5,0-4.2-2.1-4.2-4.6V7.5h-5.2v13.3c0,5.5,3.7,9.9,9.2,9.9
	c2.5,0,4.4-1.4,4.4-1.4v0.8h5.2V7.5H76.6z"/>
<path class="st0" d="M124.6,30.2V16.9c0-2.5,1.7-4.6,4.2-4.6c2.5,0,4.2,2.1,4.2,4.6v13.3h5.2V16.9c0-5.5-3.7-9.9-9.2-9.9
	c-2.5,0-4.4,1.4-4.4,1.4V7.5h-5.2v22.7H124.6z"/>
<path class="st0" d="M5.4,30.2v-8.8h3.8l6.6,8.8h6.7l-8-10.6c2.5-1.8,4.1-4.7,4.1-8c0-5.4-4.4-9.8-9.8-9.8H0v28.3H5.4z M5.4,7.3h3.5
	c2.4,0,4.4,2,4.4,4.4c0,2.4-2,4.4-4.4,4.4H5.4V7.3z"/>
<path class="st0" d="M95.7,24.9c-0.5,0.3-1,0.6-1.7,0.6c-0.8,0-2.4-0.6-2.4-2.8v-9.7h4.4V7.5h-4.4l0-5.7h-5.2l0,5.7h-2.7v5.4h2.7
	v9.8c0,5.1,3.8,8.1,7.7,8.1c1.4,0,3.4-0.5,5-1.4L95.7,24.9z"/>
<polygon class="st0" points="53.3,18.2 62.2,7.5 55,7.5 48.8,15.4 48.8,0 43.5,0 43.5,30.2 48.8,30.2 48.8,20.9 56.4,30.2 
	63.6,30.2 "/>
<path class="st0" d="M107.6,7c-6,0-10.2,5.2-10.2,11.9c0,7,5.4,11.9,10.7,11.9c2.7,0,6.2-0.9,9.1-5.1l-4.5-2.6
	c-3.5,5.2-9.4,2.6-10.1-2.6l14.8,0C118.7,12.3,113.4,7,107.6,7z M112.1,15.9h-9.3C103.9,10.6,111.1,10.3,112.1,15.9z"/>
<path class="st0" d="M154.6,14.3c-2.7,2-6.1,3.3-7.1,3.7l-1-3.9c4-1.3,6.2-2.7,7.1-3.4L154.6,14.3z M159.3,17.2h-4.4v-13h3.7
	c0.2-0.5,0.3-0.6,0.7-1.9h4.1c-0.2,0.7-0.5,1.3-0.7,1.9h5v13h-4.6v1.5h12.4v3.5h-9.4c2,1.4,5.3,3.2,9.8,4.6l-2.1,3.7
	c-1.6-0.7-6.6-2.9-10.7-6.9v7.4h-3.7v-7.1c-3.9,3.6-8.2,5.5-10.8,6.6l-2-3.7c5.6-1.6,8.9-3.7,10.1-4.6h-9.7v-3.5h12.4V17.2z
	 M149,3.4c1.9,0.9,3.9,2.2,5.5,3.6l-2.2,3.1c-1.6-1.6-3.3-2.7-5.3-3.7L149,3.4z M158.4,7.1v2.2h5.8V7.1H158.4z M158.4,11.8v2.3h5.8
	v-2.3H158.4z M169.7,10.4c1.5,0.7,4.3,2.3,6.5,4.2l-2.4,3.4c-1.2-1.3-2.9-2.7-6.1-4.5L169.7,10.4z M175.5,5.7
	c-1.3,1.6-3.4,3.5-4.9,4.7l-2.4-2.8c3-2.4,4.1-3.7,4.7-4.4L175.5,5.7z"/>
<path class="st0" d="M190.4,13.2c0.1-0.9,0.1-1.3,0.1-2.4V6.8h-12.2V3.2h28.6v3.6h-12.5v3.9c0,1.1,0,1.4-0.1,2.5H206v3.6h-10.8
	c1.6,5.1,6.6,8.3,12.1,10.3L205,31c-6.2-2.7-10.6-6.8-12.4-11.4c-2.7,6.3-8.3,9.5-12.6,11.4l-2.3-3.9c5.5-1.6,10.1-4.6,11.9-10.3
	h-10.5v-3.6H190.4z"/>
<path class="st0" d="M221.5,7.6v3.1h-12V7.6H221.5z M220.5,3.2v3h-10.2v-3H220.5z M220.5,12v3h-10.2v-3H220.5z M220.5,16.6v3h-10.2
	v-3H220.5z M220.5,21.1v9.4h-10.2v-9.4H220.5z M217.1,24h-3.3v3.4h3.3V24z M226.5,10.6v16h2.8V6.8H222V3.2h15.9v3.6h-4.8V14h4.2v3.5
	h-4.2v9h5.2v3.6h-16.9v-3.6h1.4v-16H226.5z"/>
<path class="st0" d="M269.3,12.4v3.4h-5.5c1.9,1.7,3.4,2.8,6,3.8l-2,3.6c-1.3-0.7-2.2-1.2-3.7-2.3c-0.5,9.1-1.8,10.1-4.7,10.1H255
	l-0.8-3.7h3.8c1.1,0,1.4-0.4,1.6-0.8c0.2-0.8,0.5-3.1,0.6-4.7h-5.7c-1.2,6.6-5.6,8.7-11.9,9.4l-1.5-3.4c7-0.4,9-3.1,9.5-6h-3.9v-1.2
	c-1.3,0.9-2.3,1.6-4.4,2.7l-2.1-3.4c1.1-0.4,3.9-1.6,6.5-4.1h-6.2v-3.4h8.9c0.5-0.8,0.8-1.3,1.4-2.7h-9.1V6.4h4.5
	c-0.2-0.4-1-1.9-1.8-3l3.5-1.3c1,1.3,1.6,2.3,2.6,4.3h1.4c0.5-1.9,0.6-2.8,0.8-4.3l4,0.2c-0.4,2.2-0.6,3-0.9,4.1h3.5
	c0.9-1.3,1.1-1.8,2.4-4.3l3.7,1.3c-0.5,1-1.1,2.1-1.7,3h4.4v3.3h-8.6c0.3,0.8,0.5,1.4,1.3,2.7H269.3z M261.2,18.5
	c-1.4-1.4-1.9-2.1-2.3-2.7h-7.4c-0.8,1-1.3,1.6-2.3,2.7H261.2z M256.8,12.4c-0.6-1.2-0.8-1.8-1.2-2.7h-1c-0.5,1.2-0.7,1.8-1.2,2.7
	H256.8z"/>
</svg>
