<?xml version="1.0" encoding="utf-8"?>
<!-- Generator: Adobe Illustrator 22.1.0, SVG Export Plug-In . SVG Version: 6.00 Build 0)  -->
<svg version="1.1" id="logo" xmlns="http://www.w3.org/2000/svg" xmlns:xlink="http://www.w3.org/1999/xlink" x="0px" y="0px"
	 viewBox="0 0 226.5 42.2" style="enable-background:new 0 0 226.5 42.2;" xml:space="preserve">
<style type="text/css">
	.st0{fill:#BF0000;}
</style>
<polygon class="st0" points="146.7,0 151.8,0 151.8,17.9 158.7,9.7 164.8,9.7 156.8,19 165.5,31.2 159.5,31.2 151.9,20.4 
	151.8,20.4 151.8,31.2 146.7,31.2 "/>
<path class="st0" d="M174.5,28.2c3.6,0,4.2-3.7,4.2-7.7c0-4-0.5-7.7-4.2-7.7c-3.6,0-4.2,3.7-4.2,7.7
	C170.4,24.5,170.9,28.2,174.5,28.2 M165,20.5c0-7.1,3.3-11.3,9.5-11.3c6.2,0,9.5,4.2,9.5,11.3c0,7.1-3.3,11.3-9.5,11.3
	C168.3,31.7,165,27.5,165,20.5"/>
<path class="st0" d="M195.8,28.2c3.2,0,3.8-4.2,3.8-7.7c0-3.9-0.4-8.1-3.8-8.1c-3,0-4,4.4-4,8.1C191.8,25.9,192.6,28.2,195.8,28.2
	 M191.8,12.3L191.8,12.3c0.8-1.1,2.4-3.1,5.7-3.1c5.2,0,7.4,4.4,7.4,11.3c0,6-2.1,11.3-9.1,11.3c-5.7,0-9-3.2-9-9.7V0h5V12.3z"/>
<path class="st0" d="M217,28.2c3.6,0,4.2-3.7,4.2-7.7c0-4-0.5-7.7-4.2-7.7c-3.6,0-4.2,3.7-4.2,7.7C212.8,24.5,213.3,28.2,217,28.2
	 M207.4,20.5c0-7.1,3.3-11.3,9.5-11.3c6.2,0,9.5,4.2,9.5,11.3c0,7.1-3.3,11.3-9.5,11.3C210.7,31.7,207.4,27.5,207.4,20.5"/>
<polygon class="st0" points="111.3,35.5 27.6,35.5 34.3,42.2 "/>
<path class="st0" d="M35.4,8.6v1c-1.6-1-2.9-1.6-4.9-1.6c-5.9,0-10.3,5.3-10.3,11.9c0,6.6,4.5,11.9,10.3,11.9c1.9,0,3.3-0.6,4.9-1.6
	v1h5.1V8.6H35.4z M30.5,26.3c-2.9,0-5-2.8-5-6.4c0-3.6,2.1-6.4,5-6.4c2.9,0,4.9,2.8,4.9,6.4C35.5,23.5,33.4,26.3,30.5,26.3z"/>
<path class="st0" d="M76.6,8.6v13.3c0,2.5-1.7,4.6-4.2,4.6c-2.5,0-4.2-2.1-4.2-4.6V8.6h-5.1v13.3c0,5.5,3.7,9.9,9.2,9.9
	c2.5,0,4.4-1.4,4.4-1.4v0.8h5.2V8.6H76.6z"/>
<path class="st0" d="M124.6,31.2V17.9c0-2.5,1.7-4.6,4.2-4.6c2.5,0,4.2,2.1,4.2,4.6v13.3h5.1V17.9c0-5.5-3.7-9.9-9.2-9.9
	c-2.5,0-4.4,1.4-4.4,1.4V8.6h-5.1v22.7H124.6z"/>
<path class="st0" d="M5.4,31.2v-8.8h3.8l6.6,8.8h6.7l-8-10.6c2.5-1.8,4.1-4.7,4.1-8c0-5.4-4.4-9.8-9.8-9.8H0v28.3H5.4z M5.4,8.3h3.5
	c2.4,0,4.4,2,4.4,4.4c0,2.4-2,4.4-4.4,4.4H5.4V8.3z"/>
<path class="st0" d="M95.7,25.9c-0.5,0.3-1,0.6-1.7,0.6c-0.8,0-2.4-0.6-2.4-2.8v-9.7h4.4V8.6h-4.4V2.9h-5.2v5.7h-2.7v5.4h2.7v9.8
	c0,5.1,3.8,8.1,7.7,8.1c1.4,0,3.4-0.5,5-1.4L95.7,25.9z"/>
<polygon class="st0" points="53.3,19.2 62.2,8.6 55,8.6 48.8,16.5 48.8,1 43.5,1 43.5,31.2 48.8,31.2 48.8,21.9 56.4,31.2 
	63.6,31.2 "/>
<path class="st0" d="M107.6,8c-6,0-10.2,5.2-10.2,11.9c0,7,5.4,11.9,10.7,11.9c2.7,0,6.2-0.9,9.1-5.1l-4.5-2.6
	c-3.5,5.2-9.4,2.6-10.1-2.6l14.8,0C118.7,13.3,113.4,8,107.6,8z M112.1,17h-9.3C103.9,11.7,111.1,11.4,112.1,17z"/>
</svg>
