<?xml version="1.0" encoding="utf-8"?>
<!-- Generator: Adobe Illustrator 22.1.0, SVG Export Plug-In . SVG Version: 6.00 Build 0)  -->
<svg version="1.1" id="logo" xmlns="http://www.w3.org/2000/svg" xmlns:xlink="http://www.w3.org/1999/xlink" x="0px" y="0px"
	 viewBox="0 0 246.9 41.1" style="enable-background:new 0 0 246.9 41.1;" xml:space="preserve">
<style type="text/css">
	.st0{fill:#00B900;}
</style>
<path class="st0" d="M159.2,8.1v20.3c0,1.4-1.1,2.5-2.6,2.5c-1.4,0-2.6-1.1-2.6-2.5V8.1h-5.4c-1.4,0-2.5-1.1-2.5-2.4
	c0-1.3,1.1-2.4,2.5-2.4h16c1.4,0,2.5,1.1,2.5,2.4c0,1.3-1.1,2.4-2.5,2.4H159.2z"/>
<path class="st0" d="M172.3,10.6c1.1-1.3,2.7-2,3.9-2.3c1.6-0.3,3,0.7,3,2.3v0c0,1.1-0.8,2.1-1.8,2.3c-1.3,0.3-2.7,0.7-3.7,2.3
	c-0.6,0.9-0.9,2-0.9,3.1v9.8c0,1.4-1.2,2.6-2.6,2.6s-2.6-1.2-2.6-2.6V10.7c0-1.3,1-2.3,2.3-2.3C172.1,8.4,172.3,10.6,172.3,10.6z"/>
<path class="st0" d="M196.7,8.4c1.4,0,2.6,1.1,2.6,2.4v17.2c0,1.3-1.1,2.4-2.6,2.4c-2.2,0-2.6-2.2-2.6-2.2c-1.4,1.6-3.1,2.5-5.3,2.5
	c-5.4,0-9.8-5.1-9.8-11.3c0-6.2,4.5-11.3,10.1-11.3c2.1,0,3.7,0.8,5,2.5c0,0,0.4-2.3,2.4-2.3H196.7z M194.1,19.5
	c0-3.8-2.1-6.5-5-6.5c-2.8,0-5,2.9-5,6.5c0,3.6,2.2,6.5,5,6.5C192,26,194.1,23.3,194.1,19.5z"/>
<path class="st0" d="M214,10.1c0.4-1.5,2-2.3,3.4-1.9c1.5,0.4,2.3,2,1.8,3.5L214,28.1c-0.5,1.6-2.1,2.7-3.7,2.7
	c-1.7,0-3.2-1.1-3.8-2.7l-5.3-16.4c-0.5-1.5,0.3-3,1.8-3.5c1.4-0.4,3,0.4,3.4,1.9l3.8,13L214,10.1z"/>
<path class="st0" d="M237.1,23.9c1.5,0.9,1.6,2.7,0.4,3.9c-1.9,1.9-4,3-7.2,3c-6.2,0-10.6-4.7-10.6-11.3c0-6.4,4.3-11.4,10-11.4
	c5.5,0,10,5,10,11.3c0,0.9-0.8,1.6-1.6,1.6h-12.6c0.3,3,2.3,4.9,5.1,4.9c1.3,0,2.6-0.6,3.5-1.7C234.7,23.3,236.1,23.3,237.1,23.9z
	 M233.8,16.6c-0.5-2.6-2-3.9-4.1-3.9c-2.1,0-3.7,1.4-4.2,3.9H233.8z"/>
<path class="st0" d="M241.7,3.5c0-1.4,1.2-2.6,2.6-2.6c1.4,0,2.6,1.2,2.6,2.6v24.7c0,1.4-1.2,2.6-2.6,2.6c-1.4,0-2.6-1.2-2.6-2.6
	V3.5z"/>
<polygon class="st0" points="111.3,34.5 27.6,34.5 34.3,41.1 "/>
<path class="st0" d="M35.4,7.5v1c-1.6-1-2.9-1.6-4.9-1.6c-5.9,0-10.3,5.3-10.3,11.9c0,6.6,4.5,11.9,10.3,11.9c1.9,0,3.3-0.6,4.9-1.6
	v1h5.1V7.5H35.4z M30.5,25.3c-2.9,0-5-2.8-5-6.4c0-3.6,2.1-6.4,5-6.4c2.9,0,4.9,2.8,4.9,6.4C35.5,22.5,33.4,25.3,30.5,25.3z"/>
<path class="st0" d="M76.6,7.5v13.3c0,2.5-1.7,4.6-4.2,4.6c-2.5,0-4.2-2.1-4.2-4.6V7.5h-5.2v13.3c0,5.5,3.7,9.9,9.2,9.9
	c2.5,0,4.4-1.4,4.4-1.4v0.8h5.2V7.5H76.6z"/>
<path class="st0" d="M124.6,30.2V16.9c0-2.5,1.7-4.6,4.2-4.6c2.5,0,4.2,2.1,4.2,4.6v13.3h5.2V16.9c0-5.5-3.7-9.9-9.2-9.9
	c-2.5,0-4.4,1.4-4.4,1.4V7.5h-5.2v22.7H124.6z"/>
<path class="st0" d="M5.4,30.2v-8.8h3.8l6.6,8.8h6.7l-8-10.6c2.5-1.8,4.1-4.7,4.1-8c0-5.4-4.4-9.8-9.8-9.8H0v28.3H5.4z M5.4,7.3h3.5
	c2.4,0,4.4,2,4.4,4.4c0,2.4-2,4.4-4.4,4.4H5.4V7.3z"/>
<path class="st0" d="M95.7,24.9c-0.5,0.3-1,0.6-1.7,0.6c-0.8,0-2.4-0.6-2.4-2.8v-9.7h4.4V7.5h-4.4l0-5.7h-5.2l0,5.7h-2.7v5.4h2.7
	v9.8c0,5.1,3.8,8.1,7.7,8.1c1.4,0,3.4-0.5,5-1.4L95.7,24.9z"/>
<polygon class="st0" points="53.3,18.2 62.2,7.5 55,7.5 48.8,15.4 48.8,0 43.5,0 43.5,30.2 48.8,30.2 48.8,20.9 56.4,30.2 
	63.6,30.2 "/>
<path class="st0" d="M107.6,7c-6,0-10.2,5.2-10.2,11.9c0,7,5.4,11.9,10.7,11.9c2.7,0,6.2-0.9,9.1-5.1l-4.5-2.6
	c-3.5,5.2-9.4,2.6-10.1-2.6l14.8,0C118.7,12.3,113.4,7,107.6,7z M112.1,15.9h-9.3C103.9,10.6,111.1,10.3,112.1,15.9z"/>
</svg>
