<svg xmlns="http://www.w3.org/2000/svg" width="325" height="98" viewBox="0 0 325 98">
  <defs>
    <style>
      .a {
        fill: #fff;
      }

      .b {
        fill: #bf0000;
      }

      .c {
        fill: none;
      }
    </style>
  </defs>
  <title>logo_card_tw_02</title>
  <rect class="a" width="325" height="98"/>
  <g>
    <g>
      <g>
        <path class="b" d="M112.307,56.368c-.8,1.4-1.549,2.591-2.227,3.559a9.66,9.66,0,0,0,.7.7c.436-.8.848-1.6,1.235-2.372l2.082.919V57.24h1.768q.289-.909.508-1.816l2.542.581c-.121.436-.266.847-.411,1.235H121v2.106l.557-.7a2.086,2.086,0,0,0,.412.29,30.91,30.91,0,0,0,1.864-3.51l2.275.944c-.822,1.549-1.6,2.857-2.324,3.946a4.01,4.01,0,0,0,.63.485c.629-.945,1.186-1.889,1.694-2.809l2.373,1.042c-.944,1.5-1.864,2.856-2.736,4.067l1.405-.678a34.01,34.01,0,0,1,1.694,4.745l-1.985.847c-.1-.436-.218-.847-.315-1.234-1.718.338-3.559.605-5.544.822v.218h-6.9v-.775l-1.621.679c-.049-.243-.1-.46-.122-.679a49.519,49.519,0,0,1-5.35,1.26l-.485-2.567c.388-.048.775-.1,1.139-.145q.943-1.308,1.743-2.615c-.92-.92-1.84-1.839-2.784-2.808l1.622-1.985a1.077,1.077,0,0,0,.169.169,25.293,25.293,0,0,0,1.622-2.929Zm3.583,12.88V68.207h2.832v1.041H127.8V71.5h-6.657a17.2,17.2,0,0,0,2.226,1.064,25.784,25.784,0,0,0,5.109,1.5L126.954,76.9a25.758,25.758,0,0,1-5.568-2.518,17.906,17.906,0,0,1-2.664-1.961v4.867H115.89V72.855a20.229,20.229,0,0,1-2.106,1.452,34.255,34.255,0,0,1-5.835,2.494l-1.331-2.275a28.445,28.445,0,0,0,4.987-1.793A15.221,15.221,0,0,0,113.88,71.5H107.3V69.248ZM111.556,63.8c-.314.484-.6.944-.895,1.331.435-.073.823-.145,1.21-.218C111.774,64.527,111.653,64.139,111.556,63.8Zm2.542-4.019c-.775,1.258-1.476,2.421-2.155,3.462l1.211-.533a32.3,32.3,0,0,1,.944,3.365Zm4.43,1.694V59.588h-1.984v1.888Zm0,3.971v-1.7h-1.984v1.7Zm2.809-.436c.557-.678,1.065-1.331,1.55-2.009L121,61.476v3.56A1.444,1.444,0,0,0,121.337,65.011Zm4.116-1.5c-.315.436-.629.872-.921,1.259.485-.024.921-.073,1.356-.121C125.743,64.261,125.6,63.873,125.453,63.51Z"/>
        <path class="b" d="M149.521,56.271v2.761h-7.772c0,2.324-.023,3.8-.047,4.43h8.763v2.759H141.9a14.111,14.111,0,0,0,2.349,3.729,16.284,16.284,0,0,0,6.972,4.769l-1.7,2.662a20.764,20.764,0,0,1-6.028-4.018,13.761,13.761,0,0,1-2.857-3.946,10.7,10.7,0,0,1-1.718,2.809,17.71,17.71,0,0,1-7.65,4.768l-1.235-2.638a14.982,14.982,0,0,0,6.681-4.261,9.083,9.083,0,0,0,1.792-3.874h-7.917V63.462h8.232c0-.17.023-.363.023-.557.049-.1.074-1.4.074-3.873h-7.287V56.271Z"/>
        <path class="b" d="M158.966,56.2a41.164,41.164,0,0,1-1.622,4.576V77.188h-2.736V66.2a19.814,19.814,0,0,1-1.234,1.815l-1.405-2.736a33.949,33.949,0,0,0,4.334-9.853ZM174.1,59.225v2.542H158.676V59.225Zm-1.138,18.061H170.2v-.775h-7.747v.775h-2.736V69.151h13.243Zm-.387-14.672v2.469H159.91V62.614Zm0,3.22V68.3H159.91v-2.47Zm-.193-9.926v2.543H160.758V55.908Zm-2.18,18.06V71.693h-7.747v2.275Z"/>
        <path class="b" d="M195.364,56.271V73.218c0,2.445-1.089,3.68-3.22,3.68-.605,0-1.308-.048-2.083-.1l-.677-3.122a7.167,7.167,0,0,0,2.276.387c.556,0,.847-.629.847-1.889V70h-4.915v6.609H184.76V70h-5.254c-.121.823-.266,1.646-.435,2.421a20.952,20.952,0,0,1-1.792,4.769l-2.542-1.525a26.466,26.466,0,0,0,1.767-5.229,29.158,29.158,0,0,0,.509-5.447V56.271h18.351Zm-10.6,10.992V64.406h-5.011v1.985c0,.315-.025.6-.025.872Zm0-5.593V59.032h-5.011V61.67Zm2.832,0h4.915V59.032h-4.915Zm0,5.593h4.915V64.406h-4.915Z"/>
        <path class="b" d="M207.706,55.424v2.663h9.078v2.639h-9.078v2.566H218.48v2.639H207.8v.944a73.147,73.147,0,0,1,7.747,5.5l-1.791,2.446A65.172,65.172,0,0,0,207.8,70v7.19h-2.76V65.931H197.1V63.292h7.844V55.424Z"/>
      </g>
      <g>
        <polygon class="b" points="191.497 46.878 127.795 46.878 132.869 51.953 191.497 46.878"/>
        <path class="b" d="M133.7,26.354v.767a6.44,6.44,0,0,0-3.7-1.192c-4.463,0-7.854,4.07-7.854,9.068s3.391,9.067,7.854,9.067a6.431,6.431,0,0,0,3.7-1.191v.766h3.923V26.354ZM130,39.9c-2.2,0-3.812-2.167-3.812-4.9S127.8,30.1,130,30.1s3.756,2.167,3.756,4.9S132.2,39.9,130,39.9Z"/>
        <path class="b" d="M165.122,26.354V36.508a3.227,3.227,0,1,1-6.429,0V26.354H154.77V36.508c0,4.166,2.851,7.556,7.018,7.556A6.02,6.02,0,0,0,165.122,43v.642h3.923V26.354Z"/>
        <path class="b" d="M201.677,43.639V33.485a3.227,3.227,0,1,1,6.428,0V43.639h3.923V33.485c0-4.166-2.85-7.556-7.017-7.556A6.02,6.02,0,0,0,201.677,27v-.642h-3.923V43.639Z"/>
        <path class="b" d="M110.839,43.639v-6.7h2.9l5.024,6.7H123.9l-6.072-8.08a7.443,7.443,0,0,0-4.313-13.513h-6.781V43.639Zm0-17.493h2.678a3.347,3.347,0,1,1,0,6.694h-2.678Z"/>
        <path class="b" d="M179.619,39.549a2.334,2.334,0,0,1-1.312.425,1.934,1.934,0,0,1-1.85-2.121v-7.4h3.355v-4.1h-3.355V22.046h-3.923v4.308h-2.075v4.1h2.075v7.457a5.9,5.9,0,0,0,5.833,6.166,8.078,8.078,0,0,0,3.837-1.088Z"/>
        <polygon class="b" points="147.372 34.456 154.101 26.354 148.602 26.354 143.895 32.376 143.895 20.619 139.856 20.619 139.856 43.639 143.895 43.639 143.895 36.539 149.682 43.639 155.178 43.639 147.372 34.456"/>
        <path class="b" d="M188.68,25.915c-4.54,0-7.8,3.99-7.8,9.082,0,5.353,4.088,9.082,8.187,9.082a8.186,8.186,0,0,0,6.948-3.869l-3.465-2c-2.68,3.95-7.146,1.945-7.662-2.005l11.3,0C197.159,30,193.144,25.915,188.68,25.915Zm3.425,6.85h-7.066C185.865,28.717,191.341,28.485,192.105,32.765Z"/>
      </g>
    </g>
    <rect class="c" x="106.736" y="22.046" width="111.744" height="55.239"/>
  </g>
</svg>
