<?xml version="1.0" encoding="utf-8"?>
<!-- Generator: Adobe Illustrator 28.0.0, SVG Export Plug-In . SVG Version: 6.00 Build 0)  -->
<svg version="1.1" id="_イヤー_1" xmlns="http://www.w3.org/2000/svg" xmlns:xlink="http://www.w3.org/1999/xlink" x="0px"
	 y="0px" viewBox="0 0 325 98" style="enable-background:new 0 0 325 98;" xml:space="preserve">
<style type="text/css">
	.st0{fill:#231F20;}
</style>
<path class="st0" d="M110.2,59c-2.9,0-4.7-2.6-4.7-6.6v-0.1h7.9l3.6-2.1c-0.7-4.2-4.1-6.6-8-6.6c-4.2,0-8.3,3.2-8.3,8.6
	c0,5.8,4.2,8.7,8.8,8.7c4,0,6.9-2.1,7.7-5.5h-2.4C114.2,57.6,112.6,59,110.2,59L110.2,59z M109,45.3c2.3,0,3.4,2,3.4,5.2h-6.9
	C105.6,47.2,106.8,45.3,109,45.3L109,45.3z M183.9,59c-2.9,0-4.7-2.6-4.7-6.6v-0.1h8l3.6-2.1c-0.7-4.2-4.1-6.6-8-6.6
	c-4.2,0-8.3,3.2-8.3,8.6c0,5.8,4.2,8.7,8.8,8.7c4,0,6.9-2.1,7.7-5.5h-2.4C187.9,57.6,186.3,59,183.9,59L183.9,59z M182.7,45.3
	c2.3,0,3.4,2,3.4,5.2h-6.9C179.3,47.2,180.5,45.3,182.7,45.3L182.7,45.3z M272.1,59c-2.9,0-4.7-2.6-4.7-6.6v-0.1h8l3.6-2.1
	c-0.7-4.2-4.1-6.6-8-6.6c-4.2,0-8.3,3.2-8.3,8.6c0,5.8,4.2,8.7,8.8,8.7c4,0,6.9-2.1,7.7-5.5h-2.4C276.1,57.6,274.5,59,272.1,59
	L272.1,59z M271,45.3c2.3,0,3.4,2,3.4,5.2h-6.9C267.6,47.2,268.7,45.3,271,45.3L271,45.3z M45.9,52.2c0-5.3,4.1-8.6,8.6-8.6
	c4.2,0,7.3,2.3,7.6,5.8h-4.3c-0.1-2.5-1.2-4.2-3.4-4.2c-2.6,0-3.8,2.6-3.8,6.9s1.6,6.7,4.5,6.7c2.2,0,4-1.5,4.5-3.7h2.5
	c-0.6,3.5-3.3,5.8-7.5,5.8C49.9,61,45.9,57.9,45.9,52.2z M64.3,52.2c0-5.2,4.1-8.6,8.9-8.6s8.9,3.3,8.9,8.6S78,61,73.2,61
	C68.4,61,64.3,57.7,64.3,52.2z M77.3,52.2c0-4.1-1.2-6.9-4.1-6.9c-2.9,0-4.1,2.8-4.1,6.9s1.1,7.1,4.1,7.1
	C76.2,59.3,77.3,56.5,77.3,52.2z M119.4,52.2c0-5.3,4.1-8.6,8.6-8.6c4.2,0,7.3,2.3,7.6,5.8h-4.3c-0.1-2.5-1.2-4.2-3.4-4.2
	c-2.6,0-3.8,2.6-3.8,6.9s1.6,6.7,4.5,6.7c2.2,0,3.9-1.5,4.5-3.7h2.5c-0.7,3.5-3.4,5.8-7.5,5.8C123.5,61,119.4,57.9,119.4,52.2
	L119.4,52.2z M164.1,60.6L157.8,44h4.6l4.6,12.6l4.4-12.6h2.3l-6,16.6L164.1,60.6L164.1,60.6z M206.2,60.6L199.8,44h4.6l4.6,12.6
	l4.4-12.6h2.3l-6,16.6L206.2,60.6L206.2,60.6z M216.4,52.2c0-5.2,4.1-8.6,8.9-8.6c4.8,0,8.9,3.3,8.9,8.6S230,61,225.2,61
	C220.4,61,216.4,57.7,216.4,52.2L216.4,52.2z M229.3,52.2c0-4.1-1.2-6.9-4.1-6.9c-2.9,0-4.1,2.8-4.1,6.9s1.1,7.1,4.1,7.1
	C228.2,59.3,229.3,56.5,229.3,52.2L229.3,52.2z M244.5,52.2c0-5.3,4.1-8.6,8.6-8.6c4.2,0,7.3,2.3,7.6,5.8h-4.3
	c-0.1-2.5-1.2-4.2-3.4-4.2c-2.6,0-3.8,2.6-3.8,6.9s1.6,6.7,4.5,6.7c2.2,0,4-1.5,4.5-3.7h2.5c-0.7,3.5-3.4,5.8-7.5,5.8
	C248.5,61,244.5,57.9,244.5,52.2L244.5,52.2L244.5,52.2z M150.8,44h4.3v16.6h-4.3V44z M237.1,44h4.3v16.6h-4.3V44z M143.9,44h4v1.8
	h-4l-0.1,11c0,1.7,0.6,2.1,1.9,2.1h2.1v1.8c-0.8,0-1.8,0.1-3.6,0.1c-3.2,0-4.7-0.8-4.7-3.9V45.8h-2.8V44h2.8v-2.5l4.2-2.4h0.1
	L143.9,44L143.9,44z M89.4,41.7L89.4,41.7l0.1,18.9h-4.3V44.2L89.4,41.7z M97.6,37h0.1v23.6h-4.4V39.4C93.3,39.4,97.6,37,97.6,37z
	 M150.8,41.3v-1.2l4.2-2.4h0.1v3.6H150.8z M237.1,41.3v-1.2l4.2-2.4h0.1v3.6H237.1z"/>
</svg>
