<?xml version="1.0" encoding="UTF-8"?><svg id="Layer_2" xmlns="http://www.w3.org/2000/svg" viewBox="0 0 325 98"><defs><style>.cls-1{fill:#bf0000;}.cls-1,.cls-2{stroke-width:0px;}.cls-2{fill:none;}</style></defs><rect class="cls-2" x="81.74" y="11.91" width="161.52" height="74.17" rx="2.16" ry="2.16"/><rect class="cls-2" x="92.51" y="22.69" width="139.97" height="52.62"/><path class="cls-1" d="M99.82,75.66c-1.69,0-3.21-.36-4.57-1.09-1.36-.73-2.41-1.74-3.16-3.05l1.64-1.99c1.5,2.42,3.52,3.63,6.07,3.63,1.3,0,2.32-.28,3.03-.85.72-.57,1.08-1.34,1.08-2.33,0-.88-.29-1.61-.88-2.2-.59-.59-1.51-1.09-2.78-1.49l-2.25-.71c-1.75-.56-3.03-1.27-3.83-2.15-.8-.88-1.2-1.97-1.2-3.27,0-1.11.28-2.1.85-2.95.57-.86,1.35-1.53,2.36-2.02,1.01-.49,2.15-.74,3.43-.74,1.45,0,2.75.28,3.88.85,1.13.57,2.03,1.39,2.7,2.45l-1.64,1.99c-1.09-1.86-2.73-2.79-4.91-2.79-1.22,0-2.19.27-2.9.8-.72.53-1.08,1.27-1.08,2.21,0,.79.26,1.43.79,1.93.52.49,1.42.94,2.68,1.35l2.25.71c3.49,1.11,5.23,3.07,5.23,5.87,0,1.75-.62,3.17-1.86,4.24-1.24,1.07-2.88,1.6-4.91,1.6Z"/><path class="cls-1" d="M109.83,81.41l4.4-8.86-6.58-13.57h2.92l5.07,10.98,5.04-10.98h2.73l-10.88,22.43h-2.7Z"/><path class="cls-1" d="M125.13,75.31v-16.37h2.21l.29,3.02c.53-1.03,1.25-1.84,2.15-2.44.9-.6,1.89-.9,2.98-.9,1.24,0,2.31.33,3.19.99.89.66,1.53,1.63,1.94,2.89.51-1.18,1.27-2.12,2.26-2.82.99-.71,2.1-1.06,3.32-1.06,1.71,0,3.07.62,4.09,1.86,1.02,1.24,1.52,3.04,1.52,5.39v9.43h-2.57v-9.31c0-1.58-.33-2.79-.99-3.63-.66-.83-1.56-1.25-2.7-1.25-.88,0-1.65.25-2.33.75-.67.5-1.2,1.17-1.57,2.01-.37.83-.56,1.74-.56,2.73v8.7h-2.57v-9.31c0-1.58-.33-2.79-.99-3.63-.66-.83-1.55-1.25-2.66-1.25-.9,0-1.68.26-2.34.77-.66.51-1.18,1.18-1.56,2.01-.37.82-.56,1.73-.56,2.71v8.7h-2.57Z"/><path class="cls-1" d="M151.8,81.41v-22.46h2.21l.29,3.08c.49-1.03,1.23-1.85,2.21-2.47.98-.62,2.1-.93,3.34-.93,1.37,0,2.59.36,3.67,1.09,1.08.73,1.94,1.73,2.57,3,.63,1.27.95,2.74.95,4.41s-.32,3.11-.95,4.4c-.63,1.28-1.49,2.29-2.57,3.02-1.08.73-2.31,1.09-3.67,1.09-1.24,0-2.34-.3-3.31-.91-.96-.61-1.69-1.43-2.18-2.45v9.15h-2.57ZM159.37,73.13c.96,0,1.82-.25,2.58-.75.76-.5,1.36-1.21,1.8-2.12.44-.91.66-1.95.66-3.13s-.22-2.25-.66-3.14c-.44-.9-1.04-1.6-1.8-2.1-.76-.5-1.62-.75-2.58-.75s-1.82.25-2.58.75c-.76.5-1.36,1.2-1.8,2.1-.44.9-.66,1.95-.66,3.14s.22,2.22.66,3.13c.44.91,1.04,1.62,1.8,2.12.76.5,1.62.75,2.58.75Z"/><path class="cls-1" d="M169.09,75.31v-22.79h2.57v9.4c.53-1.03,1.26-1.83,2.18-2.42.92-.59,1.96-.88,3.11-.88,1.78,0,3.19.62,4.24,1.86,1.05,1.24,1.57,3.04,1.57,5.39v9.43h-2.57v-9.31c0-1.58-.35-2.79-1.04-3.63-.7-.83-1.63-1.25-2.81-1.25-.92,0-1.73.25-2.44.75-.71.5-1.26,1.17-1.65,2.01-.4.83-.59,1.74-.59,2.73v8.7h-2.57Z"/><path class="cls-1" d="M192.53,75.69c-1.5,0-2.84-.36-4.01-1.09-1.18-.73-2.11-1.74-2.79-3.03-.68-1.29-1.03-2.78-1.03-4.44s.34-3.18,1.03-4.46c.68-1.28,1.62-2.29,2.79-3.02,1.18-.73,2.51-1.09,4.01-1.09s2.83.36,4.01,1.09c1.18.73,2.11,1.73,2.79,3.02.68,1.28,1.03,2.77,1.03,4.46s-.34,3.15-1.03,4.44c-.68,1.29-1.62,2.31-2.79,3.03-1.18.73-2.51,1.09-4.01,1.09ZM192.53,73.19c1.52,0,2.76-.55,3.74-1.65.97-1.1,1.46-2.57,1.46-4.41s-.49-3.31-1.46-4.41c-.97-1.1-2.22-1.65-3.74-1.65s-2.74.55-3.72,1.65c-.98,1.1-1.48,2.57-1.48,4.41s.49,3.31,1.48,4.41c.98,1.1,2.22,1.65,3.72,1.65Z"/><path class="cls-1" d="M202.41,75.31v-16.37h2.21l.29,3.05c.53-1.05,1.27-1.87,2.2-2.47.93-.6,1.98-.9,3.16-.9,1.78,0,3.19.62,4.24,1.86,1.05,1.24,1.57,3.04,1.57,5.39v9.43h-2.57v-9.31c0-1.58-.35-2.79-1.04-3.63-.7-.83-1.63-1.25-2.81-1.25-.92,0-1.73.25-2.44.75-.71.5-1.26,1.17-1.65,2.01-.4.83-.59,1.74-.59,2.73v8.7h-2.57Z"/><path class="cls-1" d="M218.91,81.41l4.4-8.86-6.58-13.57h2.92l5.07,10.98,5.04-10.98h2.73l-10.88,22.43h-2.7Z"/><polygon class="cls-1" points="177.12 47.48 113.53 47.48 118.6 52.54 177.12 47.48"/><path class="cls-1" d="M119.42,26.99v.77c-1.18-.75-2.24-1.19-3.69-1.19-4.45,0-7.84,4.06-7.84,9.05s3.38,9.05,7.84,9.05c1.45,0,2.51-.44,3.69-1.19v.77h3.92v-17.25h-3.92ZM115.73,40.51c-2.2,0-3.8-2.16-3.8-4.89s1.61-4.89,3.8-4.89,3.75,2.16,3.75,4.89-1.55,4.89-3.75,4.89Z"/><path class="cls-1" d="M150.79,26.99v10.14c0,1.9-1.31,3.51-3.21,3.51s-3.21-1.61-3.21-3.51v-10.14h-3.92v10.14c0,4.16,2.84,7.54,7,7.54,1.93,0,3.33-1.07,3.33-1.07v.64h3.92v-17.25h-3.92Z"/><path class="cls-1" d="M187.28,44.24v-10.14c0-1.9,1.31-3.51,3.21-3.51s3.21,1.61,3.21,3.51v10.14h3.92v-10.14c0-4.16-2.84-7.54-7-7.54-1.93,0-3.33,1.07-3.33,1.07v-.64h-3.92v17.25h3.92Z"/><path class="cls-1" d="M96.61,44.24v-6.68h2.9l5.01,6.68h5.13l-6.06-8.07c1.89-1.36,3.13-3.56,3.13-6.06,0-4.1-3.33-7.43-7.43-7.43h-6.77v21.55h4.1ZM96.61,26.78h2.67c1.84,0,3.34,1.5,3.34,3.34s-1.5,3.34-3.34,3.34h-2.67v-6.68Z"/><path class="cls-1" d="M165.26,40.16c-.35.24-.8.42-1.31.42-.64,0-1.85-.49-1.85-2.12v-7.38h3.35v-4.1h-3.35v-4.3h-3.92v4.3s-2.07,0-2.07,0v4.1h2.07v7.44c0,3.85,2.9,6.15,5.82,6.15,1.09,0,2.6-.36,3.83-1.09l-2.58-3.44Z"/><polygon class="cls-1" points="133.07 35.08 139.79 26.99 134.3 26.99 129.6 33 129.6 21.27 125.57 21.27 125.57 44.24 129.6 44.24 129.6 37.16 135.38 44.24 140.86 44.24 133.07 35.08"/><path class="cls-1" d="M174.3,26.55c-4.53,0-7.78,3.98-7.78,9.06,0,5.34,4.08,9.07,8.17,9.07,2.07,0,4.71-.71,6.93-3.86l-3.46-2c-2.67,3.94-7.13,1.94-7.65-2h11.28c.97-6.19-3.04-10.27-7.5-10.27ZM177.72,33.39h-7.05c.82-4.04,6.29-4.27,7.05,0Z"/></svg>