<svg xmlns="http://www.w3.org/2000/svg" width="325" height="98" viewBox="0 0 325 98">
  <defs>
    <style>
      .a {
        fill: #fff;
      }

      .b {
        fill: none;
      }

      .c {
        fill: #7d00be;
      }
    </style>
  </defs>
  <title>logo_ticket_01</title>
  <rect class="a" width="325" height="98"/>
  <g>
    <g>
      <rect class="b" x="68.452" y="34.761" width="188.096" height="24.832"/>
      <g>
        <g>
          <path class="c" d="M192.759,43.7h6.109c.4,0,1.762,0,1.762,1.833a1.564,1.564,0,0,1-1.762,1.786h-6.2a10.765,10.765,0,0,1-2.631,6.579c-.846.963-2.984,2.96-4.418,2.96a2.1,2.1,0,0,1-2.02-2.02c0-.8.423-1.105,1.363-1.716a7.88,7.88,0,0,0,3.947-5.8h-7.354a1.569,1.569,0,0,1-1.762-1.786c0-1.833,1.386-1.833,1.762-1.833h7.471V41.419a42.426,42.426,0,0,1-5.286.705,1.811,1.811,0,0,1-1.856-1.951c0-1.386,1.033-1.5,2.114-1.621a46.657,46.657,0,0,0,8.905-1.644,10.543,10.543,0,0,1,2.655-.729,1.917,1.917,0,0,1,1.762,1.973c0,.87-.658,1.246-1.762,1.622-.728.258-1.88.587-2.8.822Z"/>
          <path class="c" d="M208.078,44.144c-1.457,2.4-2.655,4.37-3.971,4.37a1.985,1.985,0,0,1-2-1.856c0-.564.188-.822.987-1.88a28.638,28.638,0,0,0,4.135-7.424c.235-.564.517-1.316,1.621-1.316.306,0,2.092.141,2.092,1.6a10.567,10.567,0,0,1-.987,2.891h10.807a1.809,1.809,0,1,1,0,3.618h-4.252c-.094,4.864-1.41,7.542-2.937,9.469-.963,1.245-3.219,3.453-4.628,3.453a2.087,2.087,0,0,1-2.021-2.043c0-.635.258-.94,1.245-1.692,2.984-2.256,4.37-4.84,4.464-9.187Z"/>
          <path class="c" d="M226,41.842c.8,0,1.058.446,1.668,1.48,1.222,2.044,1.434,2.608,1.434,3.054a1.731,1.731,0,0,1-1.809,1.528c-.752,0-.894-.236-1.715-1.81-.165-.329-.894-1.5-1.176-2.02a1.861,1.861,0,0,1-.211-.729C224.192,42.264,225.484,41.842,226,41.842Zm10.667,10.15c-2.913,3.665-7,5.028-7.823,5.028a1.8,1.8,0,0,1-1.6-1.834c0-.845.329-1.01,1.832-1.69,2.232-.987,6.414-3.149,7.636-9.986.282-1.574.517-2.256,1.715-2.256.917,0,1.833.493,1.833,1.5A19.3,19.3,0,0,1,236.668,51.992Zm-5.944-11.279c.775,0,1.1.423,1.833,1.763a9.157,9.157,0,0,1,1.174,2.843,1.688,1.688,0,0,1-1.762,1.551c-.823,0-1.01-.353-1.715-1.857-.282-.587-.634-1.269-1.034-1.95a2.006,2.006,0,0,1-.282-.869A1.686,1.686,0,0,1,230.724,40.713Z"/>
          <path class="c" d="M246.868,55.3c0,.541-.024,1.9-1.927,1.9-1.856,0-1.95-1.174-1.95-1.9V37.777c0-.564,0-1.9,1.95-1.9,1.9,0,1.927,1.315,1.927,1.9v4.582a54.733,54.733,0,0,1,8.317,4.322c.846.564,1.363,1.058,1.363,1.81a2.088,2.088,0,0,1-1.88,2.138c-.611,0-1.033-.259-2.3-1.1a44.26,44.26,0,0,0-5.5-2.984Z"/>
        </g>
        <g>
          <polygon class="c" points="153.213 59.593 89.51 59.593 94.585 64.667 153.213 59.593"/>
          <path class="c" d="M95.412,39.068v.767a6.44,6.44,0,0,0-3.7-1.191c-4.462,0-7.853,4.069-7.853,9.067s3.391,9.067,7.853,9.067a6.425,6.425,0,0,0,3.7-1.191v.767h3.922V39.068Zm-3.7,13.548c-2.2,0-3.811-2.167-3.811-4.905s1.611-4.9,3.811-4.9,3.757,2.167,3.757,4.9S93.919,52.616,91.715,52.616Z"/>
          <path class="c" d="M126.838,39.068V49.222a3.227,3.227,0,1,1-6.429,0V39.068h-3.923V49.222c0,4.167,2.85,7.556,7.017,7.556a6.022,6.022,0,0,0,3.335-1.067v.643h3.923V39.068Z"/>
          <path class="c" d="M163.392,56.354V46.2a3.227,3.227,0,1,1,6.429,0V56.354h3.923V46.2c0-4.166-2.85-7.555-7.017-7.555a6.022,6.022,0,0,0-3.335,1.067v-.643h-3.923V56.354Z"/>
          <path class="c" d="M72.555,56.354v-6.7h2.9l5.024,6.7h5.136l-6.071-8.081a7.443,7.443,0,0,0-4.314-13.512h-6.78V56.354Zm0-17.494h2.677a3.347,3.347,0,1,1,0,6.694H72.555Z"/>
          <path class="c" d="M141.334,52.264a2.332,2.332,0,0,1-1.312.425,1.934,1.934,0,0,1-1.849-2.121v-7.4h3.355v-4.1h-3.355V34.76H134.25v4.308h-2.076v4.1h2.076v7.457a5.9,5.9,0,0,0,5.832,6.165,8.079,8.079,0,0,0,3.838-1.088Z"/>
          <polygon class="c" points="109.088 47.171 115.817 39.068 110.318 39.068 105.611 45.09 105.611 33.333 101.571 33.333 101.571 56.354 105.611 56.354 105.611 49.253 111.397 56.354 116.894 56.354 109.088 47.171"/>
          <path class="c" d="M150.4,38.63c-4.541,0-7.8,3.99-7.8,9.081,0,5.353,4.089,9.083,8.188,9.083a8.188,8.188,0,0,0,6.948-3.87l-3.466-2c-2.679,3.951-7.146,1.946-7.661-2l11.3,0C158.874,42.713,154.86,38.63,150.4,38.63Zm3.425,6.85h-7.066C147.581,41.431,153.056,41.2,153.821,45.48Z"/>
        </g>
      </g>
    </g>
    <path class="b" d="M134.585,76.735v-6.7h2.9l5.024,6.7h5.136l-6.071-8.081a7.443,7.443,0,0,0-4.313-13.512h-6.781V76.735Zm0-17.494h2.678a3.347,3.347,0,1,1,0,6.694h-2.678Z"/>
  </g>
</svg>
