<?xml version="1.0" encoding="UTF-8"?><svg id="_イヤー_1" xmlns="http://www.w3.org/2000/svg" viewBox="0 0 325 98"><defs><style>.cls-1{fill:#bf0000;}.cls-1,.cls-2{stroke-width:0px;}.cls-2{fill:none;}</style></defs><polygon class="cls-1" points="198.1 49.23 127.6 49.23 133.22 54.84 198.1 49.23"/><path class="cls-1" d="m134.13,26.51v.85c-1.31-.83-2.48-1.32-4.09-1.32-4.94,0-8.69,4.5-8.69,10.04,0,5.53,3.75,10.03,8.69,10.03,1.61,0,2.78-.48,4.09-1.32v.85s4.34,0,4.34,0v-19.13s-4.34,0-4.34,0Zm-4.09,14.99c-2.44,0-4.22-2.4-4.22-5.43,0-3.03,1.78-5.43,4.22-5.43s4.16,2.4,4.16,5.43c0,3.03-1.72,5.43-4.16,5.43Z"/><path class="cls-1" d="m168.91,26.51v11.24c0,2.11-1.45,3.89-3.56,3.89s-3.56-1.78-3.56-3.89v-11.24s-4.34,0-4.34,0v11.24c0,4.61,3.15,8.36,7.77,8.36,2.14,0,3.69-1.18,3.69-1.18v.71s4.34,0,4.34,0v-19.13s-4.34,0-4.34,0Z"/><path class="cls-1" d="m209.37,45.64v-11.24c0-2.11,1.45-3.89,3.56-3.89s3.56,1.78,3.56,3.89v11.24s4.34,0,4.34,0v-11.24c0-4.61-3.15-8.36-7.77-8.36-2.14,0-3.69,1.18-3.69,1.18v-.71s-4.34,0-4.34,0v19.13s4.34,0,4.34,0Z"/><path class="cls-1" d="m108.84,45.64v-7.41h3.21s5.56,7.41,5.56,7.41h5.68s-6.72-8.94-6.72-8.94c2.09-1.5,3.47-3.95,3.47-6.72,0-4.55-3.7-8.24-8.24-8.24h-7.5s0,23.9,0,23.9h4.54Zm0-19.36h2.96c2.04,0,3.71,1.66,3.71,3.7s-1.67,3.71-3.71,3.71h-2.96v-7.41Z"/><path class="cls-1" d="m184.95,41.11c-.39.26-.88.47-1.45.47-.71,0-2.05-.54-2.05-2.35v-8.19h3.71s0-4.54,0-4.54h-3.71s0-4.77,0-4.77h-4.34s0,4.77,0,4.77h-2.3s0,4.54,0,4.54h2.3v8.25c0,4.27,3.22,6.82,6.45,6.82,1.21,0,2.88-.4,4.25-1.2l-2.86-3.81Z"/><polygon class="cls-1" points="149.27 35.48 156.72 26.51 150.63 26.51 145.42 33.18 145.42 20.17 140.95 20.16 140.95 45.64 145.42 45.64 145.42 37.78 151.82 45.64 157.91 45.64 149.27 35.48"/><path class="cls-1" d="m194.98,26.03c-5.02,0-8.63,4.42-8.63,10.05,0,5.92,4.52,10.05,9.06,10.05,2.29,0,5.22-.79,7.69-4.28l-3.83-2.21c-2.97,4.37-7.91,2.15-8.48-2.22h12.51c1.07-6.87-3.37-11.39-8.31-11.39Zm3.79,7.58h-7.82c.91-4.48,6.97-4.74,7.82,0Z"/><path class="cls-1" d="m146.74,59.62l-.56,2.88h-4.08l-.42,2.16h3.61l-3.53,18.14h-11.61l3.53-18.14h3.61l.42-2.16h-4.18l.56-2.88h12.65Zm-6.52,18.19h-6.5l-.43,2.21h6.5l.43-2.21Zm-.58-10.63h-1.17l-.47,2.39c-.53,2.73-1.56,3.74-2.24,4.44l-.95-1.82-.59,3.04h6.5l.3-1.56h-1.41c-1.17,0-1.11-.7-.98-1.35l1-5.15Zm-2.73,0h-1.12l-.96,4.91c1-.7,1.48-1.84,1.68-2.88l.39-2.03Zm3.64-4.68h-1.17l-.42,2.16h1.17l.42-2.16Zm1.74,4.68h-1.25l-.67,3.43c-.1.52-.06.6.38.6h.76l.78-4.03Zm13.48,4.16h-7.28l-1.5,7.69c-.08.42-.05.65.58.65h3.28c.78,0,1.01,0,1.74-3.74l2.96.78c-.23,1.07-.86,3.64-1.44,4.6-.58.96-1.53,1.46-2.52,1.46h-6.26c-.62,0-2.15,0-1.79-1.9l2.44-12.55h7.25l1.09-5.61h-7.38l.6-3.09h10.5l-2.28,11.72Z"/><path class="cls-1" d="m180.39,61.68c1.45,0,3.12,0,2.76,1.85-.24,1.24-1.88,2.9-4.2,5.27-.9.91-3.28,3.31-7.32,6.94.47.62,1.21,1.53,1.42,1.83.91,1.26.92,1.64.83,2.07-.19.97-1.39,1.88-2.33,1.88-.78,0-1.06-.38-1.62-1.21-1.32-1.91-2.92-3.93-5.19-6.24-1.41-1.45-1.62-1.61-1.49-2.31.18-.91,1.2-1.75,2.25-1.75.59,0,.94.27,1.76,1.05.71.64,1.62,1.61,2.31,2.34,4.22-3.71,7.95-7.58,8.04-8.01.04-.22-.15-.22-.58-.22h-15.27c-1.13,0-1.66-.59-1.43-1.77.27-1.4,1.27-1.72,2.11-1.72h17.93Z"/><path class="cls-1" d="m201.73,69.1c.51,0,1.67,0,1.32,1.77-.32,1.64-1.53,1.64-1.99,1.64h-17.27c-.48,0-1.67,0-1.34-1.69.33-1.72,1.47-1.72,2-1.72h17.27Z"/><path class="cls-1" d="m208.93,81.11c-.1.54-.35,1.8-2.18,1.8s-1.62-1.21-1.5-1.8l4.02-20.67c.1-.54.35-1.8,2.18-1.8s1.63,1.18,1.51,1.8l-1.14,5.86c2.95,1.4,5.83,2.93,8.44,4.84,1.34.97,1.77,1.43,1.61,2.2-.18.94-1.12,2.04-2.2,2.04-.59,0-.75-.14-2.16-1.21-2.71-2.1-5.68-3.58-6.47-3.93l-2.11,10.86Z"/><path class="cls-1" d="m113.86,73.78l-2.9.99c.11.49.18.7.69,2.73-1.39.34-2.77.62-3.85.83l1.14-5.85h7.85l2.46-12.66h-10.88l-3.71,19.07-1.55.23v3.04c3.77-.68,5.25-1.07,9.1-2.05.11.88.16,1.56.24,2.39l3.33-1.12c-.51-3.27-.93-5.12-1.92-7.62Zm-3.02-11.1h4.76l-.42,2.16h-4.76l.42-2.16Zm-.91,4.68h4.76l-.43,2.21h-4.76l.43-2.21Z"/><path class="cls-1" d="m119.46,82.8l3.87-19.91h3.67l-2.47,12.68c-.19.96-.28,1.17-1.14,1.17h-2.26l.18,3.35h2.24c2.13,0,3.29-.36,3.8-2.96l3.36-17.31h-9.92l-4.47,22.97h3.14Z"/><rect class="cls-2" x="104.3" y="21.75" width="116.52" height="61.05"/></svg>