<svg xmlns="http://www.w3.org/2000/svg" width="325" height="98" viewBox="0 0 325 98">
  <defs>
    <style>
      .a {
        fill: #fff;
      }

      .b {
        fill: #bf0000;
      }

      .c {
        fill: none;
      }
    </style>
  </defs>
  <title>logo_marketingplatform_02</title>
  <rect class="a" width="325" height="98"/>
  <g>
    <g>
      <g>
        <polygon class="b" points="138.151 45.066 74.448 45.066 79.522 50.141 138.151 45.066"/>
        <path class="b" d="M80.349,24.542v.767a6.44,6.44,0,0,0-3.7-1.192c-4.463,0-7.853,4.07-7.853,9.068s3.39,9.067,7.853,9.067a6.431,6.431,0,0,0,3.7-1.191v.766h3.923V24.542Zm-3.7,13.547c-2.2,0-3.812-2.167-3.812-4.9s1.611-4.9,3.812-4.9,3.756,2.168,3.756,4.9S78.856,38.089,76.653,38.089Z"/>
        <path class="b" d="M111.775,24.542V34.7a3.227,3.227,0,1,1-6.428,0V24.542h-3.923V34.7c0,4.166,2.85,7.556,7.017,7.556a6.02,6.02,0,0,0,3.334-1.067v.642H115.7V24.542Z"/>
        <path class="b" d="M148.33,41.827V31.673a3.227,3.227,0,1,1,6.429,0V41.827h3.923V31.673c0-4.166-2.85-7.556-7.017-7.556a6.022,6.022,0,0,0-3.335,1.067v-.642h-3.923V41.827Z"/>
        <path class="b" d="M57.493,41.827v-6.7h2.9l5.024,6.7h5.136l-6.071-8.08A7.444,7.444,0,0,0,60.17,20.234H53.389V41.827Zm0-17.493H60.17a3.347,3.347,0,1,1,0,6.694H57.493Z"/>
        <path class="b" d="M126.272,37.737a2.332,2.332,0,0,1-1.312.425,1.933,1.933,0,0,1-1.849-2.121v-7.4h3.355v-4.1h-3.355V20.234h-3.923v4.308h-2.076v4.1h2.076V36.1a5.9,5.9,0,0,0,5.832,6.166,8.085,8.085,0,0,0,3.838-1.088Z"/>
        <polygon class="b" points="94.025 32.644 100.755 24.542 95.255 24.542 90.549 30.563 90.549 18.807 86.509 18.807 86.509 41.827 90.549 41.827 90.549 34.727 96.335 41.827 101.831 41.827 94.025 32.644"/>
        <path class="b" d="M135.334,24.1c-4.541,0-7.8,3.99-7.8,9.082,0,5.353,4.088,9.082,8.187,9.082a8.185,8.185,0,0,0,6.948-3.869l-3.465-2c-2.68,3.95-7.146,1.945-7.662-2l11.3,0C143.812,28.186,139.8,24.1,135.334,24.1Zm3.424,6.85h-7.065C132.518,26.905,137.994,26.673,138.758,30.953Z"/>
      </g>
      <g>
        <path class="b" d="M70.332,54.274V74.788H67.986V57.22L61.861,67.2,55.735,57.22V74.788H53.389V54.274h3.154l5.318,8.785,5.317-8.785Z"/>
        <path class="b" d="M84.178,72.99a5.7,5.7,0,0,1-4.64,2.215c-4.3,0-7.246-3.519-7.246-8.628s2.972-8.6,7.3-8.6A5.829,5.829,0,0,1,84.2,59.905l.339-1.538h2.085V74.788H84.543ZM74.8,66.577c0,3.728,2.033,6.439,4.8,6.439s4.77-2.685,4.77-6.412c0-3.754-2.007-6.439-4.8-6.439C76.828,60.165,74.8,62.9,74.8,66.577Z"/>
        <path class="b" d="M91.408,59.957a7.243,7.243,0,0,1,4.666-1.981v2.189c-2.581.313-4.562,1.877-4.562,3.623v11H89.166V58.367h2.008Z"/>
        <path class="b" d="M106.973,74.788,99.805,66.16v8.628H97.458V52.919h2.347V65.378l6.49-7.011h2.971l-6.959,7.507,7.924,8.914Z"/>
        <path class="b" d="M123.56,71.791a7.428,7.428,0,0,1-6.595,3.414c-4.457,0-7.585-3.571-7.585-8.654,0-5.056,2.971-8.575,7.272-8.575,3.988,0,7.116,3.492,7.116,7.95a7.448,7.448,0,0,1-.1,1.277H111.882a6.449,6.449,0,0,0,1.669,4.3,4.682,4.682,0,0,0,3.414,1.59,5.007,5.007,0,0,0,4.666-2.763Zm-2.477-6.7c-.208-3.024-1.981-5-4.405-5a4.575,4.575,0,0,0-3.936,2.294,6.173,6.173,0,0,0-.834,2.711Z"/>
        <path class="b" d="M128.838,54.77v3.6h4.118v2.189h-4.118v10.9c0,1.016.573,1.564,1.668,1.564a2.03,2.03,0,0,0,1.981-1.252l1.772,1.226a4.26,4.26,0,0,1-3.988,2.215,3.3,3.3,0,0,1-3.492-2.189,5.547,5.547,0,0,1-.287-2.086V60.556h-2.815V58.367h2.815v-3.6Z"/>
        <path class="b" d="M134.789,56.333v-2.71H137.5v2.71Zm.183,18.455V58.367h2.346V74.788Z"/>
        <path class="b" d="M142.433,59.67a6.611,6.611,0,0,1,4.509-1.694c3.52,0,5.918,2.685,5.918,6.594V74.788h-2.347V64.544c0-2.684-1.511-4.379-3.909-4.379a4.414,4.414,0,0,0-4.223,4.3V74.788h-2.346V58.367h2.085Z"/>
        <path class="b" d="M167.241,71.426c0,5-2.4,7.767-6.725,7.767a7.353,7.353,0,0,1-5.865-2.711L156.215,75a5.671,5.671,0,0,0,4.119,2.111c3.023,0,4.327-2.007,4.431-6.8a5.2,5.2,0,0,1-4.614,2.215c-3.649,0-6.229-2.919-6.229-7.037,0-4.379,2.684-7.507,6.412-7.507a5.811,5.811,0,0,1,4.379,1.72l.469-1.329h2.059Zm-10.87-6.048c0,2.972,1.721,5.057,4.2,5.057,2.529,0,4.249-2.059,4.249-5.057,0-3.023-1.851-5.317-4.275-5.317C158.092,60.061,156.371,62.251,156.371,65.378Z"/>
        <path class="b" d="M180.522,54.274a6.166,6.166,0,1,1,0,12.33h-4.457v8.184h-2.346V54.274Zm-.156,10.14a3.975,3.975,0,0,0,0-7.95h-4.3v7.95Z"/>
        <path class="b" d="M189.05,74.788V52.919H191.4V74.788Z"/>
        <path class="b" d="M205.242,72.99a5.7,5.7,0,0,1-4.64,2.215c-4.3,0-7.246-3.519-7.246-8.628s2.971-8.6,7.3-8.6a5.829,5.829,0,0,1,4.613,1.929l.339-1.538h2.085V74.788h-2.085Zm-9.383-6.413c0,3.728,2.033,6.439,4.8,6.439s4.77-2.685,4.77-6.412c0-3.754-2.007-6.439-4.8-6.439C197.892,60.165,195.859,62.9,195.859,66.577Z"/>
        <path class="b" d="M213.953,54.77v3.6h4.118v2.189h-4.118v10.9c0,1.016.573,1.564,1.668,1.564a2.031,2.031,0,0,0,1.981-1.252l1.772,1.226a4.26,4.26,0,0,1-3.988,2.215,3.3,3.3,0,0,1-3.492-2.189,5.547,5.547,0,0,1-.287-2.086V60.556h-2.815V58.367h2.815v-3.6Z"/>
        <path class="b" d="M221.54,56.933c0-2.893,1.433-4.327,4.326-4.327h1.3V54.8h-1.381a1.674,1.674,0,0,0-1.9,1.9v1.669H227.4v2.189h-3.518V74.788H221.54V60.556h-2.372V58.367h2.372Z"/>
        <path class="b" d="M241.808,66.577c0,5.135-2.945,8.628-7.3,8.628s-7.3-3.493-7.3-8.628,2.971-8.6,7.324-8.6C238.837,57.976,241.808,61.5,241.808,66.577Zm-12.094,0c0,3.728,2.033,6.439,4.8,6.439s4.8-2.711,4.8-6.412c0-3.754-2.007-6.439-4.822-6.439C231.747,60.165,229.714,62.876,229.714,66.577Z"/>
        <path class="b" d="M246.192,59.957a7.24,7.24,0,0,1,4.665-1.981v2.189c-2.58.313-4.561,1.877-4.561,3.623v11H243.95V58.367h2.007Z"/>
        <path class="b" d="M254.25,59.826a4.807,4.807,0,0,1,3.859-1.85,4.087,4.087,0,0,1,3.831,2.815,5.273,5.273,0,0,1,4.692-2.815c3.023,0,4.979,2.528,4.979,6.386V74.788h-2.347V64.362c0-2.555-1.146-4.2-2.971-4.2-1.876,0-3.337,1.851-3.337,4.2V74.788h-2.345V64.362c0-2.528-1.173-4.2-2.946-4.2-1.746,0-3.362,2.007-3.362,4.2V74.788h-2.346V58.367h1.954Z"/>
      </g>
    </g>
    <rect class="c" x="53.389" y="20.234" width="218.221" height="54.554"/>
  </g>
</svg>
