<svg xmlns="http://www.w3.org/2000/svg" width="325" height="98" viewBox="0 0 325 98">
  <defs>
    <style>
      .a {
        fill: #fff;
      }

      .b {
        fill: #f59600;
      }

      .c {
        fill: none;
      }
    </style>
  </defs>
  <title>logo_magazine_02</title>
  <rect class="a" width="325" height="98"/>
  <g>
    <g>
      <g>
        <path class="b" d="M121.877,76.183a1.174,1.174,0,0,1-2.346,0V59.5l-5.343,8.732a.926.926,0,0,1-1.564,0L107.281,59.5V76.183a1.174,1.174,0,0,1-2.346,0V57.469a1.141,1.141,0,0,1,1.172-1.121h1.2A1.368,1.368,0,0,1,108.48,57l4.926,8.132L118.332,57a1.365,1.365,0,0,1,1.173-.652h1.2a1.141,1.141,0,0,1,1.173,1.121Z"/>
        <path class="b" d="M138.56,75.74a1.167,1.167,0,0,1-.808,1.486,1.268,1.268,0,0,1-1.564-.782l-1.329-4.457H127.2l-1.33,4.457a1.278,1.278,0,0,1-1.563.782,1.166,1.166,0,0,1-.808-1.486l5.969-18.688a1.629,1.629,0,0,1,3.1-.052Zm-7.533-16.525L127.847,69.8h6.334Z"/>
        <path class="b" d="M154.467,72.664A2.361,2.361,0,0,1,154,74.1a7.776,7.776,0,0,1-6.621,3.18c-5.186,0-8.757-4.326-8.757-10.608s3.623-10.739,8.757-10.739c3,0,4.484,1.1,6.23,3.18a1.1,1.1,0,0,1-.13,1.59,1.231,1.231,0,0,1-1.72-.182,5.356,5.356,0,0,0-4.431-2.4c-3.78,0-6.2,3.363-6.2,8.628,0,5.161,2.372,8.34,6.23,8.34A5.446,5.446,0,0,0,152.12,72.8v-4.3h-3.883A1.113,1.113,0,0,1,147.09,67.4a1.13,1.13,0,0,1,1.147-1.094h5.082a1.135,1.135,0,0,1,1.148,1.121Z"/>
        <path class="b" d="M170.4,75.74a1.168,1.168,0,0,1-.808,1.486,1.267,1.267,0,0,1-1.564-.782l-1.33-4.457h-7.662l-1.33,4.457a1.279,1.279,0,0,1-1.564.782,1.168,1.168,0,0,1-.808-1.486L161.3,57.052A1.63,1.63,0,0,1,164.4,57Zm-7.533-16.525L159.683,69.8h6.334Z"/>
        <path class="b" d="M171.721,75.245a2.036,2.036,0,0,1,.313-1.069l9.54-15.638H173.1a1.1,1.1,0,1,1,0-2.19H183.4a1.131,1.131,0,0,1,1.148,1.095v.234a1.971,1.971,0,0,1-.313,1.069l-9.905,15.926h9.879a1.1,1.1,0,1,1,0,2.189H172.9a1.137,1.137,0,0,1-1.174-1.095Z"/>
        <path class="b" d="M188.306,77.278a1.157,1.157,0,0,1-1.172-1.121V57a1.136,1.136,0,0,1,1.172-1.095A1.153,1.153,0,0,1,189.479,57V76.157A1.175,1.175,0,0,1,188.306,77.278Z"/>
        <path class="b" d="M203.5,72.769V57.052a1.174,1.174,0,0,1,2.346,0V75.793a1.548,1.548,0,0,1-1.59,1.511,1.567,1.567,0,0,1-1.381-.808l-8.706-16.369V76.183a1.157,1.157,0,0,1-1.172,1.121,1.142,1.142,0,0,1-1.174-1.121V57.521a1.615,1.615,0,0,1,1.668-1.59,1.679,1.679,0,0,1,1.487.834Z"/>
        <path class="b" d="M210.526,58.538v6.568h7.351a1.1,1.1,0,1,1,0,2.189h-7.351v7.377h8.393a1.1,1.1,0,1,1,0,2.189h-9.566a1.136,1.136,0,0,1-1.173-1.095v-18.3a1.141,1.141,0,0,1,1.173-1.121h9.332a1.1,1.1,0,1,1,0,2.19Z"/>
      </g>
      <g>
        <polygon class="b" points="189.696 46.955 125.993 46.955 131.067 52.03 189.696 46.955"/>
        <path class="b" d="M131.894,26.431V27.2a6.432,6.432,0,0,0-3.7-1.192c-4.463,0-7.853,4.07-7.853,9.068s3.39,9.067,7.853,9.067a6.431,6.431,0,0,0,3.7-1.191v.766h3.923V26.431Zm-3.7,13.547c-2.2,0-3.812-2.167-3.812-4.9s1.611-4.9,3.812-4.9,3.756,2.168,3.756,4.9S130.4,39.978,128.2,39.978Z"/>
        <path class="b" d="M163.32,26.431V36.585a3.227,3.227,0,1,1-6.428,0V26.431h-3.923V36.585c0,4.166,2.85,7.556,7.017,7.556a6.02,6.02,0,0,0,3.334-1.067v.642h3.923V26.431Z"/>
        <path class="b" d="M199.875,43.716V33.562a3.227,3.227,0,1,1,6.428,0V43.716h3.923V33.562c0-4.166-2.85-7.556-7.017-7.556a6.02,6.02,0,0,0-3.334,1.067v-.642h-3.923V43.716Z"/>
        <path class="b" d="M109.038,43.716v-6.7h2.9l5.024,6.7H122.1l-6.071-8.081a7.443,7.443,0,0,0-4.314-13.512h-6.78V43.716Zm0-17.493h2.677a3.347,3.347,0,1,1,0,6.693h-2.677Z"/>
        <path class="b" d="M177.817,39.626a2.334,2.334,0,0,1-1.312.425,1.934,1.934,0,0,1-1.849-2.121v-7.4h3.355v-4.1h-3.355V22.123h-3.923V26.43h-2.075v4.1h2.075V37.99a5.9,5.9,0,0,0,5.833,6.166,8.078,8.078,0,0,0,3.837-1.088Z"/>
        <polygon class="b" points="145.57 34.533 152.3 26.431 146.8 26.431 142.094 32.452 142.094 20.696 138.054 20.696 138.054 43.716 142.094 43.716 142.094 36.616 147.88 43.716 153.376 43.716 145.57 34.533"/>
        <path class="b" d="M186.878,25.992c-4.54,0-7.8,3.99-7.8,9.081,0,5.354,4.088,9.083,8.187,9.083a8.186,8.186,0,0,0,6.948-3.869l-3.465-2c-2.68,3.95-7.146,1.945-7.662-2.005l11.3,0C195.357,30.075,191.342,25.992,186.878,25.992Zm3.425,6.85h-7.066C184.063,28.794,189.539,28.561,190.3,32.842Z"/>
      </g>
    </g>
    <rect class="c" x="104.934" y="22.123" width="115.131" height="54.738"/>
  </g>
</svg>
