<svg xmlns="http://www.w3.org/2000/svg" width="325" height="98" viewBox="0 0 325 98">
  <defs>
    <style>
      .a {
        fill: #fff;
      }

      .b {
        fill: #bf0000;
      }

      .c {
        fill: none;
      }
    </style>
  </defs>
  <title>logo_rakuten_01</title>
  <rect class="a" width="325" height="98"/>
  <g>
    <g>
      <polygon class="b" points="194.615 59.593 130.912 59.593 135.987 64.667 194.615 59.593"/>
      <path class="b" d="M136.814,39.068v.767a6.44,6.44,0,0,0-3.7-1.191c-4.463,0-7.853,4.069-7.853,9.067s3.39,9.067,7.853,9.067a6.425,6.425,0,0,0,3.7-1.191v.767h3.922V39.068Zm-3.7,13.548c-2.2,0-3.811-2.167-3.811-4.905s1.611-4.9,3.811-4.9,3.757,2.167,3.757,4.9S135.321,52.616,133.117,52.616Z"/>
      <path class="b" d="M168.24,39.068V49.222a3.227,3.227,0,1,1-6.429,0V39.068h-3.923V49.222c0,4.167,2.85,7.556,7.017,7.556a6.022,6.022,0,0,0,3.335-1.067v.643h3.923V39.068Z"/>
      <path class="b" d="M204.8,56.354V46.2a3.227,3.227,0,1,1,6.428,0V56.354h3.923V46.2c0-4.166-2.85-7.555-7.017-7.555a6.016,6.016,0,0,0-3.334,1.067v-.643h-3.924V56.354Z"/>
      <path class="b" d="M113.957,56.354v-6.7h2.9l5.024,6.7h5.136l-6.071-8.081a7.443,7.443,0,0,0-4.314-13.512h-6.78V56.354Zm0-17.494h2.677a3.347,3.347,0,1,1,0,6.694h-2.677Z"/>
      <path class="b" d="M182.736,52.264a2.332,2.332,0,0,1-1.312.425,1.934,1.934,0,0,1-1.849-2.121v-7.4h3.355v-4.1h-3.355V34.76h-3.923v4.308h-2.075v4.1h2.075v7.457a5.9,5.9,0,0,0,5.832,6.165,8.079,8.079,0,0,0,3.838-1.088Z"/>
      <polygon class="b" points="150.49 47.171 157.219 39.068 151.72 39.068 147.013 45.09 147.013 33.333 142.973 33.333 142.973 56.354 147.013 56.354 147.013 49.253 152.799 56.354 158.296 56.354 150.49 47.171"/>
      <path class="b" d="M191.8,38.63c-4.54,0-7.8,3.99-7.8,9.081,0,5.353,4.089,9.083,8.188,9.083a8.188,8.188,0,0,0,6.948-3.87l-3.465-2c-2.68,3.951-7.146,1.946-7.662-2l11.3,0C200.276,42.713,196.262,38.63,191.8,38.63Zm3.425,6.85h-7.066C188.983,41.431,194.458,41.2,195.223,45.48Z"/>
    </g>
    <rect class="c" x="109.854" y="34.761" width="105.292" height="24.832"/>
  </g>
</svg>
