<svg xmlns="http://www.w3.org/2000/svg" width="325" height="98" viewBox="0 0 325 98">
  <defs>
    <style>
      .a {
        fill: #fff;
      }

      .b {
        fill: #bf0000;
      }

      .c {
        fill: none;
      }
    </style>
  </defs>
  <title>logo_kobo_02</title>
  <rect class="a" width="325" height="98"/>
  <g>
    <g>
      <g>
        <polygon class="b" points="109.855 54.229 113.688 54.229 113.688 67.888 119 61.612 123.591 61.612 117.515 68.714 124.139 78.033 119.55 78.033 113.76 69.752 113.688 69.752 113.688 78.033 109.855 78.033 109.855 54.229"/>
        <path class="b" d="M131.045,75.717c2.752,0,3.166-2.824,3.166-5.895s-.414-5.9-3.166-5.9c-2.768,0-3.181,2.824-3.181,5.9s.413,5.895,3.181,5.895m-7.252-5.895c0-5.382,2.523-8.592,7.252-8.592s7.239,3.21,7.239,8.592-2.517,8.591-7.239,8.591-7.252-3.208-7.252-8.591"/>
        <path class="b" d="M147.237,75.717c2.457,0,2.865-3.207,2.865-5.895,0-2.967-.307-6.142-2.865-6.142-2.31,0-3.033,3.384-3.033,6.142,0,4.1.619,5.895,3.033,5.895M144.2,63.578h.067a4.782,4.782,0,0,1,4.245-2.348c3.937,0,5.658,3.347,5.658,8.592,0,4.585-1.589,8.591-6.937,8.591-4.314,0-6.859-2.454-6.859-7.353V54.229H144.2Z"/>
        <path class="b" d="M163.35,75.717c2.758,0,3.174-2.824,3.174-5.895s-.416-5.9-3.174-5.9-3.172,2.824-3.172,5.9.412,5.895,3.172,5.895m-7.243-5.895c0-5.382,2.516-8.592,7.243-8.592s7.245,3.21,7.245,8.592-2.519,8.591-7.245,8.591-7.243-3.208-7.243-8.591"/>
      </g>
      <g>
        <polygon class="b" points="194.615 45.847 130.913 45.847 135.986 50.921 194.615 45.847"/>
        <path class="b" d="M136.814,25.323v.767a6.433,6.433,0,0,0-3.7-1.192c-4.462,0-7.853,4.07-7.853,9.068s3.391,9.067,7.853,9.067a6.426,6.426,0,0,0,3.7-1.192v.767h3.922V25.323Zm-3.7,13.547c-2.2,0-3.811-2.167-3.811-4.9s1.611-4.9,3.811-4.9,3.756,2.167,3.756,4.9S135.321,38.87,133.117,38.87Z"/>
        <path class="b" d="M168.239,25.323V35.477a3.227,3.227,0,1,1-6.428,0V25.323h-3.923V35.477c0,4.166,2.85,7.556,7.017,7.556a6.013,6.013,0,0,0,3.334-1.068v.643h3.924V25.323Z"/>
        <path class="b" d="M204.794,42.608V32.454a3.227,3.227,0,1,1,6.429,0V42.608h3.922V32.454c0-4.167-2.849-7.556-7.016-7.556a6.022,6.022,0,0,0-3.335,1.067v-.642h-3.923V42.608Z"/>
        <path class="b" d="M113.957,42.608v-6.7h2.9l5.024,6.7h5.136l-6.071-8.081a7.443,7.443,0,0,0-4.314-13.512h-6.779V42.608Zm0-17.493h2.677a3.347,3.347,0,1,1,0,6.693h-2.677Z"/>
        <path class="b" d="M182.736,38.518a2.332,2.332,0,0,1-1.312.425,1.934,1.934,0,0,1-1.849-2.121v-7.4h3.355v-4.1h-3.355V21.015h-3.923v4.307h-2.076v4.1h2.076v7.457a5.9,5.9,0,0,0,5.832,6.166,8.076,8.076,0,0,0,3.838-1.089Z"/>
        <polygon class="b" points="150.49 33.425 157.219 25.323 151.72 25.323 147.013 31.344 147.013 19.587 142.973 19.587 142.973 42.608 147.013 42.608 147.013 35.507 152.799 42.608 158.296 42.608 150.49 33.425"/>
        <path class="b" d="M191.8,24.884c-4.541,0-7.8,3.99-7.8,9.081,0,5.353,4.088,9.083,8.188,9.083a8.184,8.184,0,0,0,6.947-3.869l-3.465-2c-2.68,3.951-7.146,1.946-7.661-2l11.3,0C200.276,28.967,196.262,24.884,191.8,24.884Zm3.424,6.85h-7.065C188.982,27.686,194.458,27.453,195.222,31.734Z"/>
      </g>
    </g>
    <rect class="c" x="109.855" y="21.015" width="105.291" height="57.018"/>
  </g>
</svg>
