<svg xmlns="http://www.w3.org/2000/svg" width="325" height="98" viewBox="0 0 325 98">
  <defs>
    <style>
      .a {
        fill: #fff;
      }

      .b {
        fill: none;
      }

      .c {
        fill: #bf0000;
      }
    </style>
  </defs>
  <title>logo_gora_01</title>
  <rect class="a" width="325" height="98"/>
  <g>
    <rect class="b" x="69.813" y="34.761" width="185.375" height="24.832"/>
    <g>
      <g>
        <polygon class="c" points="154.574 59.593 90.871 59.593 95.946 64.667 154.574 59.593"/>
        <path class="c" d="M96.772,39.068v.767a6.436,6.436,0,0,0-3.7-1.191c-4.463,0-7.853,4.069-7.853,9.067s3.39,9.067,7.853,9.067a6.422,6.422,0,0,0,3.7-1.191v.767H100.7V39.068Zm-3.7,13.548c-2.2,0-3.812-2.167-3.812-4.905s1.612-4.9,3.812-4.9,3.756,2.167,3.756,4.9S95.279,52.616,93.076,52.616Z"/>
        <path class="c" d="M128.2,39.068V49.222a3.227,3.227,0,1,1-6.428,0V39.068h-3.923V49.222c0,4.167,2.85,7.556,7.017,7.556a6.016,6.016,0,0,0,3.334-1.067v.643h3.924V39.068Z"/>
        <path class="c" d="M164.753,56.354V46.2a3.227,3.227,0,1,1,6.429,0V56.354h3.923V46.2c0-4.166-2.85-7.555-7.017-7.555a6.022,6.022,0,0,0-3.335,1.067v-.643H160.83V56.354Z"/>
        <path class="c" d="M73.916,56.354v-6.7h2.9l5.024,6.7h5.136l-6.071-8.081a7.443,7.443,0,0,0-4.314-13.512h-6.78V56.354Zm0-17.494h2.677a3.347,3.347,0,1,1,0,6.694H73.916Z"/>
        <path class="c" d="M142.7,52.263a2.325,2.325,0,0,1-1.312.426,1.934,1.934,0,0,1-1.849-2.121v-7.4h3.355v-4.1h-3.355V34.76H135.61v4.308h-2.076v4.1h2.076v7.457a5.9,5.9,0,0,0,5.832,6.165,8.085,8.085,0,0,0,3.838-1.088Z"/>
        <polygon class="c" points="110.449 47.171 117.178 39.068 111.679 39.068 106.972 45.09 106.972 33.333 102.932 33.333 102.932 56.354 106.972 56.354 106.972 49.253 112.758 56.354 118.255 56.354 110.449 47.171"/>
        <path class="c" d="M151.757,38.63c-4.541,0-7.8,3.99-7.8,9.081,0,5.353,4.088,9.083,8.188,9.083a8.186,8.186,0,0,0,6.947-3.87l-3.465-2c-2.679,3.95-7.146,1.945-7.661-2.005l11.3,0C160.235,42.713,156.221,38.63,151.757,38.63Zm3.425,6.85h-7.066C148.942,41.431,154.417,41.2,155.182,45.48Z"/>
      </g>
      <g>
        <path class="c" d="M198.432,53.591a10.17,10.17,0,0,1-7.611,3.179c-5.656,0-9.67-4.431-9.67-10.634,0-6,4.066-10.713,9.253-10.713a8.688,8.688,0,0,1,7.793,5l-3.336,1.955c-.964-2.112-2.554-3.31-4.483-3.31-2.867,0-5.057,3.023-5.057,7.037,0,4.04,2.32,7.011,5.526,7.011a5.08,5.08,0,0,0,3.806-1.511V48.951h-3.988V45.3h7.767Z"/>
        <path class="c" d="M218.209,46.1c0,6.386-3.571,10.661-8.914,10.661s-8.914-4.275-8.914-10.661c0-6.411,3.571-10.686,8.966-10.686C214.638,35.411,218.209,39.737,218.209,46.1Zm-13.658,0c0,4.327,1.825,7.012,4.744,7.012s4.744-2.711,4.744-7.038c0-4.457-1.746-7.011-4.77-7.011C206.3,39.06,204.551,41.64,204.551,46.1Z"/>
        <path class="c" d="M220.158,56.341V35.828H226.6a7.068,7.068,0,0,1,7.351,6.959c0,2.737-1.043,4.64-3.128,5.656l5.135,7.9h-4.927l-3.909-6.621h-3.05v6.621Zm3.91-10.27H226.6a3.3,3.3,0,0,0,0-6.594h-2.528Z"/>
        <path class="c" d="M249.714,52.2h-7.507l-1.251,4.145h-4.223l6.647-20.513h5.161l6.646,20.513h-4.222Zm-1.173-3.649-2.581-8.94-2.58,8.94Z"/>
      </g>
    </g>
  </g>
</svg>
