<svg xmlns="http://www.w3.org/2000/svg" viewBox="0 0 325 98"><defs><style>.cls-1{fill:#fff;}.cls-2{fill:none;}.cls-3{fill:#a5192d;}</style></defs><title>アートボード 69</title><g id="レイヤー_2" data-name="レイヤー 2"><rect class="cls-1" width="325" height="98"/></g><g id="レイヤー_1" data-name="レイヤー 1"><path class="cls-2" d="M101.45,84a2.28,2.28,0,0,1-2.31-2.24V16.19a2.29,2.29,0,0,1,2.31-2.25H232.69A2.29,2.29,0,0,1,235,16.19V81.76A2.28,2.28,0,0,1,232.69,84Z"/><rect class="cls-2" x="110.7" y="25.16" width="112.74" height="47.61"/><polygon class="cls-3" points="201.46 50.98 133.25 50.98 138.68 56.25 201.46 50.98"/><path class="cls-3" d="M139.56,29.64v.8a7,7,0,0,0-3.95-1.24c-4.78,0-8.41,4.23-8.41,9.43s3.63,9.42,8.41,9.42a7,7,0,0,0,3.95-1.24v.8h4.2v-18Zm-3.95,14.08c-2.36,0-4.08-2.25-4.08-5.09s1.72-5.1,4.08-5.1,4,2.25,4,5.1S138,43.72,135.61,43.72Z"/><path class="cls-3" d="M173.21,29.64V40.2a3.45,3.45,0,1,1-6.88,0V29.64h-4.2V40.2c0,4.33,3.05,7.85,7.51,7.85a6.55,6.55,0,0,0,3.57-1.11v.67h4.2v-18Z"/><path class="cls-3" d="M212.36,47.61V37.05a3.45,3.45,0,1,1,6.88,0V47.61h4.2V37.05c0-4.33-3.05-7.85-7.51-7.85a6.55,6.55,0,0,0-3.57,1.11v-.67h-4.21v18Z"/><path class="cls-3" d="M115.09,47.61v-7h3.11l5.38,7h5.5l-6.5-8.4a7.7,7.7,0,0,0,3.35-6.31,7.86,7.86,0,0,0-8-7.74H110.7V47.61Zm0-18.18H118a3.48,3.48,0,1,1,0,7h-2.87Z"/><path class="cls-3" d="M188.74,43.36a2.56,2.56,0,0,1-1.41.44,2,2,0,0,1-2-2.2V33.91h3.59V29.64h-3.59V25.16h-4.2v4.48h-2.22v4.27h2.22v7.75a6.23,6.23,0,0,0,6.25,6.41,8.9,8.9,0,0,0,4.11-1.13Z"/><polygon class="cls-3" points="154.21 38.06 161.41 29.64 155.53 29.64 150.49 35.9 150.49 23.68 146.16 23.68 146.16 47.61 150.49 47.61 150.49 40.23 156.68 47.61 162.57 47.61 154.21 38.06"/><path class="cls-3" d="M198.44,29.19c-4.86,0-8.35,4.14-8.35,9.44a9.2,9.2,0,0,0,8.77,9.44,8.86,8.86,0,0,0,7.44-4L202.59,42c-2.87,4.1-7.66,2-8.21-2.09h12.1C207.52,33.43,203.22,29.19,198.44,29.19Zm3.67,7.12h-7.57A3.83,3.83,0,0,1,202.11,36.31Z"/><path class="cls-3" d="M134.49,60.74l1.78,7.76L138,60.74h5.11V63h-1.07v7.45h1.07v2.3h-4.5v-2.3h1.13V64.37l-2.54,8.41h-1.89l-2.57-8.41v6.11h1.13v2.3h-4.44v-2.3h1.1V63h-1.1V60.74Z"/><path class="cls-3" d="M148.45,73.08c-3,0-4.78-2.34-4.78-6.39,0-3.69,1.67-6.25,4.78-6.25s4.82,2.54,4.82,6.25C153.27,70.16,151.83,73.08,148.45,73.08Zm2-6.37c0-2.58-.75-3.9-1.93-3.9s-1.94,1.22-1.94,3.9.76,4,1.94,4S150.41,69.39,150.41,66.71Z"/><path class="cls-3" d="M158.19,60.74l3.49,8.71V63h-1.33V60.74h4.71V63H164v9.75h-3.2l-3.63-8.9v6.6h1.39v2.3h-4.71v-2.3h1.06V63h-1.06V60.74Z"/><path class="cls-3" d="M170.72,60.74v2.18H170v3l2.53-3h-.8V60.74H176V63h-.74l-2.78,3.26,3.11,4.19h.71v2.3h-4.52V70.62h.91L170,66.81v3.81h.76v2.16h-4.48v-2.3h1.06V63h-1.06V60.74Z"/><path class="cls-3" d="M185.31,60.74v3.61h-2.38V63h-2v2.25h2.43v2.39H181v2.81h2V68.92h2.38v3.86h-8.08v-2.3h1.06V63h-1.06V60.74Z"/><path class="cls-3" d="M190.85,60.74v2.11h-.71l.6,1.35a12.78,12.78,0,0,1,.63,1.87,15.13,15.13,0,0,1,.61-1.79l.6-1.43h-.74V60.74h4.3V63h-.95l-2.47,4.91v2.54h1.06v2.3h-4.84v-2.3H190V67.94L187.53,63h-1V60.74Z"/><path class="cls-3" d="M204.21,60.69V64h-2.29c-.07-.84-.48-1.29-1.25-1.29a1.1,1.1,0,0,0-1.14,1.12c0,.88.89,1.16,2,1.53A4.68,4.68,0,0,1,204,66.87a3.77,3.77,0,0,1,.7,2.42,3.45,3.45,0,0,1-3.56,3.54,2.48,2.48,0,0,1-2.34-1.24v.93h-1.91V68.94h2.3c.12,1.07.65,1.57,1.42,1.57a1.17,1.17,0,0,0,1.28-1.29c0-.76-.63-1.11-1.73-1.48a5,5,0,0,1-2.74-1.59,3.65,3.65,0,0,1,2.93-5.76,2.25,2.25,0,0,1,2,1.06v-.76Z"/></g></svg>