<svg xmlns="http://www.w3.org/2000/svg" width="325" height="98" viewBox="0 0 325 98">
  <defs>
    <style>
      .a {
        fill: #fff;
      }

      .b {
        fill: none;
      }

      .c {
        fill: #f59600;
      }
    </style>
  </defs>
  <title>logo_chominibaito_02</title>
  <rect class="a" width="325" height="98"/>
  <g>
    <path class="b" d="M37.842,43.593V36.6h2.987l5.187,6.916H51.2l-6.061-8.031a7.426,7.426,0,0,0,3.1-5.842A7.663,7.663,0,0,0,40.518,22H34V43.517h3.842Zm0-17.751h2.7a3.458,3.458,0,1,1,.049,6.916H37.842Z"/>
    <g>
      <rect class="b" x="109.854" y="22.315" width="105.292" height="54.421"/>
      <g>
        <g>
          <polygon class="c" points="194.615 47.147 130.913 47.147 135.987 52.221 194.615 47.147"/>
          <path class="c" d="M136.814,26.623v.767a6.432,6.432,0,0,0-3.7-1.192c-4.463,0-7.854,4.07-7.854,9.068s3.391,9.067,7.854,9.067a6.431,6.431,0,0,0,3.7-1.191v.766h3.923V26.623Zm-3.7,13.547c-2.2,0-3.812-2.167-3.812-4.9s1.611-4.9,3.812-4.9,3.756,2.168,3.756,4.9S135.321,40.17,133.118,40.17Z"/>
          <path class="c" d="M168.24,26.623V36.777a3.227,3.227,0,1,1-6.429,0V26.623h-3.923V36.777c0,4.166,2.85,7.556,7.017,7.556a6.018,6.018,0,0,0,3.335-1.068v.643h3.923V26.623Z"/>
          <path class="c" d="M204.8,43.908V33.754a3.227,3.227,0,1,1,6.428,0V43.908h3.923V33.754c0-4.167-2.85-7.556-7.017-7.556a6.016,6.016,0,0,0-3.334,1.067v-.642h-3.924V43.908Z"/>
          <path class="c" d="M113.957,43.908v-6.7h2.9l5.024,6.7h5.137l-6.071-8.081a7.443,7.443,0,0,0-4.314-13.512h-6.781V43.908Zm0-17.493h2.678a3.347,3.347,0,1,1,0,6.693h-2.678Z"/>
          <path class="c" d="M182.736,39.818a2.331,2.331,0,0,1-1.311.425,1.935,1.935,0,0,1-1.85-2.121v-7.4h3.355v-4.1h-3.355V22.315h-3.923v4.307h-2.075v4.1h2.075v7.457a5.9,5.9,0,0,0,5.833,6.166,8.078,8.078,0,0,0,3.837-1.088Z"/>
          <polygon class="c" points="150.49 34.725 157.219 26.623 151.72 26.623 147.013 32.644 147.013 20.887 142.974 20.887 142.974 43.908 147.013 43.908 147.013 36.808 152.799 43.908 158.296 43.908 150.49 34.725"/>
          <path class="c" d="M191.8,26.184c-4.54,0-7.8,3.99-7.8,9.081,0,5.354,4.088,9.083,8.187,9.083a8.187,8.187,0,0,0,6.948-3.869l-3.465-2c-2.68,3.95-7.146,1.945-7.662-2.005l11.3,0C200.276,30.267,196.262,26.184,191.8,26.184Zm3.425,6.85h-7.066C188.983,28.986,194.458,28.753,195.223,33.034Z"/>
        </g>
        <g>
          <polygon class="c" points="181.081 65.265 188.66 63.099 188.66 75.765 192.397 75.765 192.397 62.031 198.451 60.301 198.451 56.315 181.081 61.28 181.081 65.265"/>
          <polygon class="c" points="204.479 61.817 204.479 56.428 200.743 56.428 200.743 75.765 204.479 75.765 204.479 65.693 215.578 68.436 215.578 64.56 204.479 61.817"/>
          <g>
            <polygon class="c" points="172.092 60.547 173.744 75.765 177.816 75.765 176.068 60.547 172.092 60.547"/>
            <rect class="c" x="172.085" y="55.444" width="3.806" height="3.805"/>
            <rect class="c" x="177.106" y="55.444" width="3.805" height="3.805"/>
            <polygon class="c" points="159.753 75.765 163.827 75.765 165.768 57.438 161.792 57.438 159.753 75.765"/>
          </g>
          <g>
            <path class="c" d="M117.507,73.022V70.379h2.124v-3.12h-2.124V65.527h2.124V62.383h-2.124V60.789h2.124v-3.1h-2.124V55.663h-3.144V57.69h-4.42v3.1h4.42v1.594h-4.42v3.144h4.511v5.446c-.175-.208-.679-.86-1.09-1.474l.45-2.992h-3.028l-1.364,9.032,2.794,1.574L112.837,73a9.789,9.789,0,0,0,3.645,3.008,10.329,10.329,0,0,0,3.69.729h10.9V73.523H120.605A10.026,10.026,0,0,1,117.507,73.022Z"/>
            <path class="c" d="M120.509,65.14v7.5h10.1v-7.5Zm6.976,2.6V69.9h-3.946V67.737Z"/>
            <path class="c" d="M121.2,64.411h3l.756-5.172h2.893a6.5,6.5,0,0,1-.2,2.074c-.183.3-.411.3-.958.3h-1.321l.5,2.8h2.346c2.37,0,2.734-.775,2.8-7.974h-10.73v2.8h1.628Z"/>
          </g>
          <g>
            <polygon class="c" points="133.07 68.18 144.429 70.203 144.429 67.544 133.07 65.521 133.07 68.18"/>
            <polygon class="c" points="133.07 63.366 144.429 65.39 144.429 62.678 133.07 60.655 133.07 63.366"/>
            <polygon class="c" points="133.07 58.835 144.429 60.858 144.429 58.112 133.07 56.088 133.07 58.835"/>
          </g>
          <g>
            <rect class="c" x="145.724" y="73.032" width="12.409" height="2.734"/>
            <rect class="c" x="146.117" y="64.329" width="11.624" height="2.821"/>
          </g>
        </g>
      </g>
    </g>
  </g>
</svg>
