<?xml version="1.0" encoding="utf-8"?>
<!-- Generator: Adobe Illustrator 27.9.0, SVG Export Plug-In . SVG Version: 6.00 Build 0)  -->
<svg version="1.1" id="レイヤー_1" xmlns="http://www.w3.org/2000/svg" xmlns:xlink="http://www.w3.org/1999/xlink" x="0px"
	 y="0px" viewBox="0 0 325 98" style="enable-background:new 0 0 325 98;" xml:space="preserve">
<style type="text/css">
	.st0{display:none;}
	.st1{display:inline;fill:none;}
	.st2{fill:#BF0000;}
</style>
<g>
	<g class="st0">
		<path class="st1" d="M203.1,31.2h-81.2c-2.2,0-4,1.8-4,4V61c0,2.2,1.8,4,4,4h81.3c2.2,0,4-1.8,4-4V35.2
			C207,33,205.3,31.2,203.1,31.2z"/>
	</g>
	<g>
		<g>
			<polygon class="st2" points="125.8,62.5 122.2,59.5 147.5,59.5 			"/>
			<path class="st2" d="M130,57.2v-6.7h2.9l5,6.7h5.1l-6.1-8.1c1.9-1.4,3.2-3.6,3.2-6.1c0-4.1-3.4-7.5-7.5-7.5h-6.8v21.6H130z
				 M130,39.7h2.7c1.8,0,3.4,1.5,3.4,3.4c0,1.8-1.5,3.4-3.4,3.4H130V39.7z"/>
		</g>
		<g>
			<path class="st2" d="M162.7,38.5c-1.5-1.2-3.5-1.8-5.9-1.8H150v20.6h4.2v-6.7h2.7c2.5,0,4.4-0.6,5.9-1.8s2.2-2.9,2.2-5.1
				S164.2,39.7,162.7,38.5z M159.6,46c-0.8,0.5-1.8,0.8-3,0.8h-2.4v-6.5h2.4c1.2,0,2.2,0.3,3,0.8c0.8,0.5,1.2,1.3,1.2,2.5
				C160.7,44.7,160.3,45.6,159.6,46z"/>
			<path class="st2" d="M179.1,43.4c-0.5-1-1.1-1.7-2.1-2.3c-0.9-0.6-2-0.9-3.1-0.9c-1.4,0-2.6,0.4-3.7,1.1c-1.1,0.7-2,1.7-2.6,3.1
				c-0.7,1.3-1,2.8-1,4.5c0,1.7,0.3,3.2,1,4.5c0.7,1.3,1.5,2.3,2.6,3.1c1.1,0.7,2.3,1.1,3.7,1.1c1.2,0,2.2-0.3,3.1-0.8
				c0.9-0.6,1.6-1.3,2.1-2.2l0.3,2.7h3.5V40.6h-3.5L179.1,43.4z M177.7,52.5c-0.8,0.9-1.7,1.4-3,1.4c-1.2,0-2.1-0.5-3-1.4
				c-0.8-0.9-1.2-2.1-1.2-3.6s0.4-2.6,1.2-3.6c0.8-0.9,1.7-1.4,3-1.4c1.2,0,2.2,0.5,3,1.4c0.8,0.9,1.1,2.1,1.1,3.6
				S178.5,51.6,177.7,52.5z"/>
			<polygon class="st2" points="202.7,40.6 198.4,40.6 194.1,50.6 189.8,40.6 185.2,40.6 191.9,54.5 188.2,61.9 192.4,61.9 			"/>
		</g>
	</g>
</g>
</svg>
