<svg xmlns="http://www.w3.org/2000/svg" width="325" height="98" viewBox="0 0 325 98">
  <defs>
    <style>
      .a {
        fill: #fff;
      }

      .b {
        fill: none;
      }

      .c {
        fill: #002896;
      }
    </style>
  </defs>
  <title>logo_infoseek_01</title>
  <rect class="a" width="325" height="98"/>
  <g>
    <rect class="b" x="56.715" y="34.761" width="211.569" height="24.832"/>
    <g>
      <g>
        <path class="c" d="M170.831,56.354h-2.346V35.84h2.346Z"/>
        <path class="c" d="M175.763,41.236a6.606,6.606,0,0,1,4.509-1.7c3.518,0,5.916,2.685,5.916,6.6V56.354h-2.346V46.11c0-2.685-1.511-4.379-3.909-4.379a4.414,4.414,0,0,0-4.223,4.3V56.354h-2.346V39.933h2.086Z"/>
        <path class="c" d="M189.535,38.5c0-2.893,1.433-4.327,4.326-4.327h1.3v2.19h-1.381a1.675,1.675,0,0,0-1.9,1.9v1.669H195.4v2.189H191.88V56.354h-2.345V42.122h-2.373V39.933h2.373Z"/>
        <path class="c" d="M210.385,48.143c0,5.135-2.946,8.628-7.3,8.628s-7.3-3.493-7.3-8.628,2.971-8.6,7.324-8.6C207.413,39.541,210.385,43.06,210.385,48.143Zm-12.094,0c0,3.727,2.033,6.438,4.8,6.438s4.8-2.711,4.8-6.412c0-3.753-2.007-6.438-4.822-6.438C200.324,41.731,198.291,44.442,198.291,48.143Z"/>
        <path class="c" d="M220.273,43.347a4.375,4.375,0,0,0-3.31-1.616c-1.617,0-2.711.912-2.711,2.294a2.057,2.057,0,0,0,.912,1.876c.313.235.313.235,3.05,1.408,3.18,1.408,4.431,2.815,4.431,4.979,0,2.736-2.19,4.483-5.656,4.483a6.922,6.922,0,0,1-5.813-2.685l1.643-1.486a5.212,5.212,0,0,0,4.2,1.981c1.929,0,3.128-.86,3.128-2.268a2.983,2.983,0,0,0-1.356-2.267,15.83,15.83,0,0,0-3.415-1.668c-2.553-1.069-3.623-2.373-3.623-4.458,0-2.632,2.085-4.379,5.214-4.379a6.536,6.536,0,0,1,5,2.06Z"/>
        <path class="c" d="M237.8,53.356a7.425,7.425,0,0,1-6.594,3.415c-4.457,0-7.585-3.571-7.585-8.654,0-5.057,2.971-8.576,7.272-8.576,3.988,0,7.116,3.493,7.116,7.95a7.459,7.459,0,0,1-.1,1.278H226.122a6.44,6.44,0,0,0,1.667,4.3,4.683,4.683,0,0,0,3.415,1.59A5.005,5.005,0,0,0,235.87,51.9Zm-2.476-6.7c-.208-3.023-1.981-5-4.405-5a4.573,4.573,0,0,0-3.935,2.294,6.143,6.143,0,0,0-.835,2.71Z"/>
        <path class="c" d="M253.55,53.356a7.425,7.425,0,0,1-6.594,3.415c-4.458,0-7.585-3.571-7.585-8.654,0-5.057,2.972-8.576,7.272-8.576,3.988,0,7.116,3.493,7.116,7.95a7.459,7.459,0,0,1-.1,1.278H241.873a6.441,6.441,0,0,0,1.668,4.3,4.683,4.683,0,0,0,3.415,1.59,5,5,0,0,0,4.665-2.763Zm-2.476-6.7c-.208-3.023-1.981-5-4.405-5a4.576,4.576,0,0,0-3.936,2.294,6.168,6.168,0,0,0-.834,2.71Z"/>
        <path class="c" d="M265.027,56.354l-7.169-8.628v8.628h-2.345V34.485h2.345V46.944l6.491-7.011h2.971l-6.959,7.506,7.924,8.915Z"/>
      </g>
      <g>
        <polygon class="c" points="141.476 59.593 77.774 59.593 82.848 64.667 141.476 59.593"/>
        <path class="c" d="M83.675,39.068v.767a6.439,6.439,0,0,0-3.7-1.191c-4.463,0-7.854,4.069-7.854,9.067s3.391,9.067,7.854,9.067a6.424,6.424,0,0,0,3.7-1.191v.767H87.6V39.068Zm-3.7,13.548c-2.2,0-3.812-2.167-3.812-4.905s1.611-4.9,3.812-4.9,3.756,2.167,3.756,4.9S82.182,52.616,79.979,52.616Z"/>
        <path class="c" d="M115.1,39.068V49.222a3.227,3.227,0,1,1-6.429,0V39.068h-3.923V49.222c0,4.167,2.85,7.556,7.017,7.556a6.022,6.022,0,0,0,3.335-1.067v.643h3.923V39.068Z"/>
        <path class="c" d="M151.656,56.354V46.2a3.227,3.227,0,1,1,6.428,0V56.354h3.923V46.2c0-4.166-2.85-7.555-7.017-7.555a6.016,6.016,0,0,0-3.334,1.067v-.643h-3.924V56.354Z"/>
        <path class="c" d="M60.818,56.354v-6.7h2.9l5.024,6.7h5.137L67.81,48.273A7.443,7.443,0,0,0,63.5,34.761H56.715V56.354Zm0-17.494H63.5a3.347,3.347,0,1,1,0,6.694H60.818Z"/>
        <path class="c" d="M129.6,52.263a2.33,2.33,0,0,1-1.312.426,1.935,1.935,0,0,1-1.85-2.121v-7.4h3.355v-4.1h-3.355V34.76h-3.923v4.308h-2.075v4.1h2.075v7.457a5.9,5.9,0,0,0,5.833,6.165,8.078,8.078,0,0,0,3.837-1.088Z"/>
        <polygon class="c" points="97.351 47.171 104.08 39.068 98.581 39.068 93.874 45.09 93.874 33.333 89.835 33.333 89.835 56.354 93.874 56.354 93.874 49.253 99.661 56.354 105.157 56.354 97.351 47.171"/>
        <path class="c" d="M138.659,38.63c-4.54,0-7.8,3.99-7.8,9.081,0,5.353,4.088,9.083,8.187,9.083A8.188,8.188,0,0,0,146,52.924l-3.465-2c-2.68,3.95-7.146,1.945-7.662-2.005l11.3,0C147.137,42.713,143.123,38.63,138.659,38.63Zm3.425,6.85h-7.066C135.844,41.431,141.319,41.2,142.084,45.48Z"/>
      </g>
    </g>
  </g>
</svg>
