<svg xmlns="http://www.w3.org/2000/svg" width="325" height="98" viewBox="0 0 325 98">
  <defs>
    <style>
      .a {
        fill: #fff;
      }

      .b {
        fill: none;
      }

      .c {
        fill: #bf0000;
      }
    </style>
  </defs>
  <title>logo_datamarketing_02</title>
  <rect class="a" width="325" height="98"/>
  <g>
    <g>
      <rect class="b" x="63.56" y="20.848" width="197.881" height="53.327"/>
      <g>
        <g>
          <polygon class="c" points="148.321 45.679 84.618 45.679 89.693 50.754 148.321 45.679"/>
          <path class="c" d="M90.519,25.155v.767a6.434,6.434,0,0,0-3.7-1.191c-4.463,0-7.853,4.069-7.853,9.067s3.39,9.067,7.853,9.067a6.419,6.419,0,0,0,3.7-1.191v.767h3.923V25.155ZM86.823,38.7c-2.2,0-3.812-2.167-3.812-4.905s1.612-4.9,3.812-4.9,3.756,2.167,3.756,4.9S89.026,38.7,86.823,38.7Z"/>
          <path class="c" d="M121.945,25.155V35.309a3.227,3.227,0,1,1-6.428,0V25.155h-3.923V35.309c0,4.167,2.85,7.556,7.017,7.556a6.016,6.016,0,0,0,3.334-1.067v.643h3.924V25.155Z"/>
          <path class="c" d="M158.5,42.441V32.286a3.227,3.227,0,1,1,6.429,0V42.441h3.923V32.286c0-4.166-2.85-7.555-7.017-7.555A6.022,6.022,0,0,0,158.5,25.8v-.643h-3.923V42.441Z"/>
          <path class="c" d="M67.663,42.441v-6.7h2.9l5.024,6.7h5.136L74.654,34.36A7.443,7.443,0,0,0,70.34,20.848H63.56V42.441Zm0-17.494H70.34a3.347,3.347,0,1,1,0,6.694H67.663Z"/>
          <path class="c" d="M136.442,38.35a2.325,2.325,0,0,1-1.312.426,1.934,1.934,0,0,1-1.849-2.121v-7.4h3.355v-4.1h-3.355V20.847h-3.924v4.308h-2.076v4.1h2.076v7.457a5.9,5.9,0,0,0,5.832,6.165,8.085,8.085,0,0,0,3.838-1.088Z"/>
          <polygon class="c" points="104.196 33.258 110.925 25.155 105.426 25.155 100.719 31.177 100.719 19.42 96.679 19.42 96.679 42.441 100.719 42.441 100.719 35.34 106.505 42.441 112.002 42.441 104.196 33.258"/>
          <path class="c" d="M145.5,24.716c-4.541,0-7.8,3.991-7.8,9.082,0,5.353,4.088,9.083,8.187,9.083a8.186,8.186,0,0,0,6.948-3.87l-3.465-2c-2.68,3.95-7.146,1.945-7.661-2l11.3,0C153.982,28.8,149.968,24.716,145.5,24.716Zm3.425,6.851h-7.066C142.688,27.518,148.164,27.286,148.929,31.567Z"/>
        </g>
        <g>
          <path class="c" d="M151.247,53.662V74.175h-3.91V59.5l-5.343,7.794L136.65,59.5V74.175h-3.909V53.662h4.353l4.9,7.141,4.9-7.141Z"/>
          <path class="c" d="M164.3,72.689a5.053,5.053,0,0,1-4.04,1.9c-4.119,0-7.455-3.884-7.455-8.628s3.441-8.6,7.663-8.6a4.588,4.588,0,0,1,3.832,1.9l.521-1.512h3.389V74.175h-3.389Zm-7.585-6.725c0,2.763,1.694,4.979,3.806,4.979,2.189,0,3.779-2.059,3.779-4.953,0-2.919-1.59-4.978-3.806-4.978C158.384,61.012,156.716,63.2,156.716,65.964Z"/>
          <path class="c" d="M174.042,59.266a6.139,6.139,0,0,1,4.77-1.9v3.649a4.057,4.057,0,0,0-4.353,4.171v8.992h-3.91V57.754h3.128Z"/>
          <path class="c" d="M191.049,74.175l-6.568-6.959v6.959h-3.91V52.306h3.91V63.7l5.552-5.943h5.526l-7.715,7.715,8.731,8.706Z"/>
          <path class="c" d="M209.7,70.917c-1.85,2.528-3.936,3.675-6.673,3.675-4.718,0-8.106-3.6-8.106-8.6,0-4.9,3.31-8.653,7.585-8.653,4.223,0,7.585,3.832,7.585,8.575a9.284,9.284,0,0,1-.078,1.2H199.247a3.826,3.826,0,0,0,3.884,3.754,4.032,4.032,0,0,0,3.18-1.9Zm-4.014-7.142c-.391-1.955-1.486-2.972-3.154-2.972-1.59,0-2.789,1.1-3.206,2.972Z"/>
          <path class="c" d="M217.167,54.157v3.6h4.405V61.4h-4.405v8.341a1.1,1.1,0,0,0,1.173,1.2c.756,0,1.277-.443,1.8-1.46l3.128,1.8c-1.46,2.424-2.867,3.31-5.369,3.31a4.387,4.387,0,0,1-4.405-2.763,10.116,10.116,0,0,1-.235-2.294V61.4h-2.815V57.754h2.815v-3.6Z"/>
          <path class="c" d="M224.439,56.216v-3.91h3.91v3.91Zm0,17.959V57.754h3.91V74.175Zm0,0V57.754"/>
          <path class="c" d="M234.6,59.187a4.866,4.866,0,0,1,3.988-1.824c3.78,0,6.491,3,6.491,7.168v9.644h-3.91V64.531a3.246,3.246,0,0,0-3.154-3.519,3.518,3.518,0,0,0-3.415,3.519v9.644h-3.909V57.754h3.388Z"/>
          <path class="c" d="M261.44,70.031c0,5.317-2.841,8.549-7.48,8.549a7.954,7.954,0,0,1-6.829-3.545l2.84-2.242a4.677,4.677,0,0,0,3.754,2.138q3.363,0,3.675-4.927a4.261,4.261,0,0,1-3.91,2.164c-4.04,0-6.933-3.05-6.933-7.272,0-4.406,2.971-7.533,7.116-7.533a5.354,5.354,0,0,1,4.04,1.538l.339-1.147h3.388Zm-11-5.266a3.615,3.615,0,0,0,3.545,3.754,3.671,3.671,0,0,0,3.544-3.78,3.55,3.55,0,1,0-7.089.026Z"/>
          <path class="c" d="M70.258,53.662c5.37,0,9.253,4.3,9.253,10.243,0,6.073-3.779,10.27-9.253,10.27h-6.7V53.662ZM67.469,70.526h2.789c3.024,0,5.083-2.685,5.083-6.621,0-3.91-2.059-6.595-5.083-6.595H67.469Z"/>
          <path class="c" d="M104.369,54.157v3.6h4.405V61.4h-4.405v8.341a1.1,1.1,0,0,0,1.173,1.2c.756,0,1.277-.443,1.8-1.46l3.129,1.8c-1.46,2.424-2.868,3.31-5.369,3.31a4.389,4.389,0,0,1-4.406-2.763,10.174,10.174,0,0,1-.235-2.294V61.4H97.644V57.754h2.815v-3.6Z"/>
          <path class="c" d="M122.353,72.689a5.053,5.053,0,0,1-4.041,1.9c-4.117,0-7.454-3.884-7.454-8.628s3.441-8.6,7.663-8.6a4.589,4.589,0,0,1,3.832,1.9l.521-1.512h3.389V74.175h-3.389Zm-7.585-6.725c0,2.763,1.694,4.979,3.806,4.979,2.189,0,3.779-2.059,3.779-4.953,0-2.919-1.59-4.978-3.806-4.978C116.436,61.012,114.768,63.2,114.768,65.964Z"/>
          <path class="c" d="M92.175,72.689a5.053,5.053,0,0,1-4.04,1.9c-4.118,0-7.454-3.884-7.454-8.628s3.44-8.6,7.663-8.6a4.587,4.587,0,0,1,3.831,1.9l.521-1.512h3.389V74.175H92.7ZM84.59,65.964c0,2.763,1.694,4.979,3.806,4.979,2.189,0,3.779-2.059,3.779-4.953,0-2.919-1.59-4.978-3.8-4.978C86.258,61.012,84.59,63.2,84.59,65.964Z"/>
        </g>
      </g>
    </g>
    <path class="b" d="M138.162,36.031v-6.7h2.9l5.025,6.7h5.136l-6.071-8.081a7.443,7.443,0,0,0-4.314-13.512h-6.781V36.031Zm0-17.493h2.678a3.347,3.347,0,1,1,0,6.693h-2.678Z"/>
  </g>
</svg>
