<svg xmlns="http://www.w3.org/2000/svg" width="325" height="98" viewBox="0 0 325 98">
  <defs>
    <style>
      .a {
        fill: #fff;
      }

      .b {
        fill: none;
      }

      .c {
        fill: #bf0000;
      }
    </style>
  </defs>
  <title>logo_books_01</title>
  <rect class="a" width="325" height="98"/>
  <g>
    <g>
      <rect class="b" x="66.994" y="34.761" width="191.012" height="24.832"/>
      <g>
        <g>
          <path class="c" d="M192.85,38.248l2.976,3.408c-.768,4.247-2.712,11.206-11.567,15.238l-2.111-2.688c8.71-3.6,9.886-10.366,10.342-12.838H178.548v-3.12Zm1.536-3.144a20.028,20.028,0,0,1,2.783,4.32l-1.632,1.128a20,20,0,0,0-2.663-4.392Zm3.431-.7a20.718,20.718,0,0,1,2.664,4.391l-1.656,1.08a19.491,19.491,0,0,0-2.567-4.463Z"/>
          <path class="c" d="M201.658,41.584a36.252,36.252,0,0,1,2.855,5.087l-2.447,1.32a33.578,33.578,0,0,0-2.784-5.04Zm14.134.168c-.912,6.887-3.744,12.718-11.83,15.382l-2.136-2.28c7.631-2.256,10.246-7.007,11.062-13.654Zm-9.167-1.272a29.5,29.5,0,0,1,2.688,5.207l-2.472,1.248a29.306,29.306,0,0,0-2.639-5.183Z"/>
          <path class="c" d="M220.21,54.518c5.9-2.016,11.11-6.431,12.55-14.062h-7.367a24.382,24.382,0,0,1-5.759,6.551L217.186,44.9a22.3,22.3,0,0,0,6.191-7.487h13.366c-1.416,12.647-8.47,17.494-14.326,19.8Z"/>
          <path class="c" d="M237.273,54.038c4.823-2.16,10.367-5.735,13.366-13.27H238.952v-3.12h16.223a29.414,29.414,0,0,1-4.2,9.311,46.9,46.9,0,0,1,7.031,7.343l-2.592,2.159a43.722,43.722,0,0,0-6.407-6.958,27.671,27.671,0,0,1-9.862,7.2Z"/>
        </g>
        <g>
          <polygon class="c" points="151.755 59.593 88.053 59.593 93.127 64.667 151.755 59.593"/>
          <path class="c" d="M93.954,39.068v.767a6.44,6.44,0,0,0-3.7-1.191c-4.462,0-7.853,4.069-7.853,9.067s3.391,9.067,7.853,9.067a6.425,6.425,0,0,0,3.7-1.191v.767h3.922V39.068Zm-3.7,13.548c-2.2,0-3.811-2.167-3.811-4.905s1.611-4.9,3.811-4.9,3.757,2.167,3.757,4.9S92.461,52.616,90.257,52.616Z"/>
          <path class="c" d="M125.38,39.068V49.222a3.227,3.227,0,1,1-6.429,0V39.068h-3.923V49.222c0,4.167,2.85,7.556,7.017,7.556a6.022,6.022,0,0,0,3.335-1.067v.643H129.3V39.068Z"/>
          <path class="c" d="M161.935,56.354V46.2a3.227,3.227,0,1,1,6.428,0V56.354h3.923V46.2c0-4.166-2.85-7.555-7.017-7.555a6.016,6.016,0,0,0-3.334,1.067v-.643h-3.923V56.354Z"/>
          <path class="c" d="M71.1,56.354v-6.7H74l5.024,6.7h5.136l-6.071-8.081a7.443,7.443,0,0,0-4.314-13.512h-6.78V56.354Zm0-17.494h2.677a3.347,3.347,0,1,1,0,6.694H71.1Z"/>
          <path class="c" d="M139.876,52.263a2.324,2.324,0,0,1-1.311.426,1.935,1.935,0,0,1-1.85-2.121v-7.4h3.355v-4.1h-3.355V34.76h-3.923v4.308h-2.075v4.1h2.075v7.457a5.9,5.9,0,0,0,5.833,6.165,8.078,8.078,0,0,0,3.837-1.088Z"/>
          <polygon class="c" points="107.63 47.171 114.359 39.068 108.86 39.068 104.153 45.09 104.153 33.333 100.113 33.333 100.113 56.354 104.153 56.354 104.153 49.253 109.939 56.354 115.436 56.354 107.63 47.171"/>
          <path class="c" d="M148.938,38.63c-4.54,0-7.8,3.99-7.8,9.081,0,5.353,4.088,9.083,8.187,9.083a8.188,8.188,0,0,0,6.948-3.87l-3.465-2c-2.68,3.95-7.146,1.945-7.662-2.005l11.3,0C157.416,42.713,153.4,38.63,148.938,38.63Zm3.425,6.85H145.3C146.123,41.431,151.6,41.2,152.363,45.48Z"/>
        </g>
      </g>
    </g>
    <path class="b" d="M81.672,24.735v-6.7h2.9l5.024,6.7h5.136l-6.071-8.081A7.443,7.443,0,0,0,84.349,3.142h-6.78V24.735Zm0-17.494h2.677a3.347,3.347,0,1,1,0,6.694H81.672Z"/>
  </g>
</svg>
