<svg xmlns="http://www.w3.org/2000/svg" width="325" height="98" viewBox="0 0 325 98">
  <defs>
    <style>
      .a {
        fill: #fff;
      }

      .b {
        fill: none;
      }

      .c {
        fill: #bf0000;
      }
    </style>
  </defs>
  <title>logo_superpointscreen_02</title>
  <rect class="a" width="325" height="98"/>
  <g>
    <rect class="b" x="52.747" y="22.319" width="219.937" height="50.646"/>
    <g>
      <g>
        <path class="c" d="M63.238,55.969a5.99,5.99,0,0,0-4.145-1.746c-2.346,0-3.727,1.2-3.727,3.233,0,1.746.782,2.632,3.05,3.466,2.945,1.1,3.936,1.59,5,2.424a5.361,5.361,0,0,1,2.268,4.484c0,3.388-2.659,5.552-6.751,5.552a8.2,8.2,0,0,1-6.621-3.155l1.721-1.563a6.249,6.249,0,0,0,4.926,2.528c2.424,0,4.222-1.408,4.222-3.336,0-1.486-.756-2.555-2.554-3.572a31.386,31.386,0,0,0-3.493-1.537c-3.023-1.225-4.275-2.789-4.275-5.344,0-3.232,2.477-5.369,6.23-5.369a7.389,7.389,0,0,1,5.63,2.241Z"/>
        <path class="c" d="M77.842,71.322a5.915,5.915,0,0,1-4.509,2.034c-3.493,0-5.891-2.685-5.891-6.595V56.543h2.346V66.787c0,2.685,1.512,4.379,3.91,4.379a4.433,4.433,0,0,0,4.223-4.3V56.543h2.345V72.964H78.181Z"/>
        <path class="c" d="M85.224,58.081a5.792,5.792,0,0,1,4.613-1.929c4.328,0,7.3,3.493,7.3,8.6,0,5.135-2.945,8.628-7.273,8.628a5.761,5.761,0,0,1-4.718-2.32v6.047H82.8V56.543h2.085Zm-.156,6.673c0,3.727,2.007,6.438,4.769,6.438s4.8-2.711,4.8-6.412c0-3.727-2.034-6.438-4.822-6.438C87.075,58.342,85.068,61.053,85.068,64.754Z"/>
        <path class="c" d="M112.68,69.967a7.429,7.429,0,0,1-6.6,3.415c-4.457,0-7.585-3.571-7.585-8.654,0-5.057,2.971-8.576,7.272-8.576,3.989,0,7.116,3.493,7.116,7.95a7.44,7.44,0,0,1-.1,1.277H101a6.444,6.444,0,0,0,1.668,4.3,4.68,4.68,0,0,0,3.414,1.59,5.005,5.005,0,0,0,4.666-2.762Zm-2.476-6.7c-.209-3.024-1.981-5.005-4.406-5.005a4.576,4.576,0,0,0-3.935,2.294,6.16,6.16,0,0,0-.835,2.711Z"/>
        <path class="c" d="M116.69,58.133a7.25,7.25,0,0,1,4.665-1.981v2.19c-2.58.313-4.561,1.876-4.561,3.623v11h-2.346V56.543h2.007Z"/>
        <path class="c" d="M134.42,52.451a6.166,6.166,0,1,1,0,12.329h-4.456v8.184h-2.347V52.451Zm-.156,10.14a3.976,3.976,0,0,0,0-7.951h-4.3v7.951Z"/>
        <path class="c" d="M155.689,64.754c0,5.135-2.945,8.628-7.3,8.628s-7.3-3.493-7.3-8.628,2.972-8.6,7.325-8.6C152.717,56.152,155.689,59.671,155.689,64.754Zm-12.094,0c0,3.727,2.033,6.438,4.8,6.438s4.8-2.711,4.8-6.412c0-3.754-2.007-6.438-4.822-6.438C145.628,58.342,143.6,61.053,143.6,64.754Z"/>
        <path class="c" d="M157.164,54.51V51.8h2.71V54.51Zm.182,18.454V56.543h2.346V72.964Z"/>
        <path class="c" d="M164.624,57.846a6.614,6.614,0,0,1,4.509-1.694c3.519,0,5.917,2.685,5.917,6.595V72.964H172.7V62.721c0-2.685-1.511-4.379-3.91-4.379a4.415,4.415,0,0,0-4.223,4.3V72.964h-2.345V56.543h2.085Z"/>
        <path class="c" d="M180.8,52.946v3.6h4.118v2.19H180.8v10.9c0,1.017.573,1.564,1.668,1.564a2.032,2.032,0,0,0,1.981-1.251l1.772,1.225a4.262,4.262,0,0,1-3.988,2.216,3.3,3.3,0,0,1-3.492-2.19,5.538,5.538,0,0,1-.288-2.085V58.733h-2.814v-2.19h2.814v-3.6Z"/>
        <path class="c" d="M202.637,55.969a5.987,5.987,0,0,0-4.144-1.746c-2.346,0-3.728,1.2-3.728,3.233,0,1.746.782,2.632,3.05,3.466,2.945,1.1,3.936,1.59,5,2.424a5.361,5.361,0,0,1,2.268,4.484c0,3.388-2.658,5.552-6.751,5.552a8.2,8.2,0,0,1-6.62-3.155l1.72-1.563a6.249,6.249,0,0,0,4.926,2.528c2.425,0,4.223-1.408,4.223-3.336,0-1.486-.756-2.555-2.554-3.572a31.386,31.386,0,0,0-3.493-1.537c-3.024-1.225-4.275-2.789-4.275-5.344,0-3.232,2.476-5.369,6.23-5.369a7.391,7.391,0,0,1,5.63,2.241Z"/>
        <path class="c" d="M217.374,60.427a4.245,4.245,0,0,0-3.649-2.085c-2.737,0-4.77,2.711-4.77,6.412s2.033,6.438,4.77,6.438a4.29,4.29,0,0,0,3.727-2.241l1.85,1.668a6.644,6.644,0,0,1-5.577,2.763c-4.327,0-7.273-3.519-7.273-8.628s2.971-8.6,7.273-8.6a6.514,6.514,0,0,1,5.552,2.737Z"/>
        <path class="c" d="M223.1,58.133a7.248,7.248,0,0,1,4.665-1.981v2.19c-2.58.313-4.561,1.876-4.561,3.623v11h-2.347V56.543h2.008Z"/>
        <path class="c" d="M242.338,69.967a7.427,7.427,0,0,1-6.594,3.415c-4.457,0-7.585-3.571-7.585-8.654,0-5.057,2.971-8.576,7.272-8.576,3.988,0,7.116,3.493,7.116,7.95a7.346,7.346,0,0,1-.1,1.277H230.661a6.448,6.448,0,0,0,1.668,4.3,4.683,4.683,0,0,0,3.415,1.59,5.006,5.006,0,0,0,4.666-2.762Zm-2.476-6.7c-.208-3.024-1.981-5.005-4.405-5.005a4.578,4.578,0,0,0-3.936,2.294,6.16,6.16,0,0,0-.834,2.711Z"/>
        <path class="c" d="M258.091,69.967a7.429,7.429,0,0,1-6.594,3.415c-4.458,0-7.585-3.571-7.585-8.654,0-5.057,2.971-8.576,7.272-8.576,3.987,0,7.116,3.493,7.116,7.95a7.346,7.346,0,0,1-.105,1.277H246.414a6.444,6.444,0,0,0,1.668,4.3,4.68,4.68,0,0,0,3.415,1.59,5,5,0,0,0,4.665-2.762Zm-2.476-6.7c-.209-3.024-1.982-5.005-4.406-5.005a4.579,4.579,0,0,0-3.936,2.294,6.173,6.173,0,0,0-.833,2.711Z"/>
        <path class="c" d="M262.257,57.846a6.617,6.617,0,0,1,4.51-1.694c3.519,0,5.917,2.685,5.917,6.595V72.964h-2.346V62.721c0-2.685-1.512-4.379-3.91-4.379a4.415,4.415,0,0,0-4.223,4.3V72.964h-2.346V56.543h2.086Z"/>
      </g>
      <g>
        <polygon class="c" points="137.509 47.151 73.806 47.151 78.881 52.225 137.509 47.151"/>
        <path class="c" d="M79.707,26.626v.767a6.434,6.434,0,0,0-3.7-1.191c-4.463,0-7.853,4.069-7.853,9.067s3.39,9.067,7.853,9.067a6.419,6.419,0,0,0,3.7-1.191v.767H83.63V26.626Zm-3.7,13.548c-2.2,0-3.812-2.167-3.812-4.905s1.612-4.9,3.812-4.9,3.756,2.167,3.756,4.9S78.215,40.174,76.011,40.174Z"/>
        <path class="c" d="M111.134,26.626V36.78a3.227,3.227,0,1,1-6.429,0V26.626h-3.923V36.78c0,4.167,2.85,7.556,7.017,7.556a6.022,6.022,0,0,0,3.335-1.067v.643h3.923V26.626Z"/>
        <path class="c" d="M147.688,43.912V33.757a3.227,3.227,0,1,1,6.429,0V43.912h3.923V33.757c0-4.166-2.85-7.556-7.017-7.556a6.018,6.018,0,0,0-3.335,1.068v-.643h-3.923V43.912Z"/>
        <path class="c" d="M56.851,43.912v-6.7h2.9l5.024,6.7h5.136l-6.071-8.081a7.443,7.443,0,0,0-4.314-13.512h-6.78V43.912Zm0-17.494h2.677a3.347,3.347,0,1,1,0,6.694H56.851Z"/>
        <path class="c" d="M125.63,39.821a2.332,2.332,0,0,1-1.312.426,1.934,1.934,0,0,1-1.849-2.121v-7.4h3.355v-4.1h-3.355V22.318h-3.924v4.308H116.47v4.1h2.076v7.457a5.9,5.9,0,0,0,5.832,6.165,8.085,8.085,0,0,0,3.838-1.088Z"/>
        <polygon class="c" points="93.384 34.729 100.113 26.626 94.614 26.626 89.907 32.648 89.907 20.891 85.867 20.891 85.867 43.912 89.907 43.912 89.907 36.811 95.693 43.912 101.19 43.912 93.384 34.729"/>
        <path class="c" d="M134.692,26.187c-4.541,0-7.8,3.991-7.8,9.082,0,5.353,4.088,9.083,8.188,9.083a8.186,8.186,0,0,0,6.947-3.87l-3.465-2c-2.679,3.95-7.146,1.945-7.661-2.005l11.3,0C143.17,30.27,139.156,26.187,134.692,26.187Zm3.425,6.851h-7.066C131.877,28.989,137.352,28.757,138.117,33.038Z"/>
      </g>
    </g>
  </g>
</svg>
