<svg xmlns="http://www.w3.org/2000/svg" width="325" height="98" viewBox="0 0 325 98">
  <defs>
    <style>
      .a {
        fill: #fff;
      }

      .b {
        fill: #bf0000;
      }

      .c {
        fill: none;
      }
    </style>
  </defs>
  <title>logo_check_01</title>
  <rect class="a" width="325" height="98"/>
  <g>
    <g>
      <g>
        <path class="b" d="M193.351,43.7h6.109c.4,0,1.762,0,1.762,1.832a1.565,1.565,0,0,1-1.762,1.786h-6.2a10.767,10.767,0,0,1-2.631,6.579c-.847.963-2.984,2.96-4.418,2.96a2.094,2.094,0,0,1-2.02-2.02c0-.8.423-1.1,1.362-1.715a7.881,7.881,0,0,0,3.947-5.8h-7.353a1.569,1.569,0,0,1-1.762-1.786c0-1.832,1.385-1.832,1.762-1.832h7.471V41.418a42.262,42.262,0,0,1-5.286.7,1.811,1.811,0,0,1-1.857-1.95c0-1.387,1.034-1.5,2.115-1.621a46.489,46.489,0,0,0,8.905-1.646,10.554,10.554,0,0,1,2.655-.727,1.917,1.917,0,0,1,1.762,1.973c0,.869-.658,1.245-1.762,1.621-.728.259-1.88.588-2.8.823Z"/>
        <path class="b" d="M212.215,52.625h5.193a1.633,1.633,0,1,1,0,3.266H203.663a1.516,1.516,0,0,1-1.669-1.644,1.464,1.464,0,0,1,1.669-1.622h5.192V45.647h-3.994a1.622,1.622,0,1,1,0-3.243h11.325a1.622,1.622,0,1,1,0,3.243h-3.971Z"/>
        <path class="b" d="M221.846,41.841c.8,0,1.058.446,1.668,1.48,1.222,2.044,1.434,2.608,1.434,3.055a1.73,1.73,0,0,1-1.809,1.526c-.752,0-.894-.234-1.715-1.808-.165-.33-.894-1.5-1.176-2.021a1.862,1.862,0,0,1-.211-.728C220.037,42.264,221.329,41.841,221.846,41.841Zm10.667,10.15c-2.913,3.665-7,5.028-7.824,5.028a1.8,1.8,0,0,1-1.6-1.833c0-.846.33-1.01,1.833-1.692,2.232-.986,6.414-3.148,7.636-9.985.282-1.574.517-2.256,1.715-2.256.917,0,1.833.494,1.833,1.5A19.293,19.293,0,0,1,232.513,51.991Zm-5.944-11.278c.775,0,1.1.423,1.833,1.762a9.176,9.176,0,0,1,1.174,2.843,1.689,1.689,0,0,1-1.762,1.551c-.823,0-1.01-.353-1.715-1.856-.282-.588-.634-1.269-1.034-1.95a2.01,2.01,0,0,1-.282-.869A1.685,1.685,0,0,1,226.569,40.713Z"/>
        <path class="b" d="M253.255,39c1.269,0,2.7.329,2.7,2.185,0,1.668-1.575,6.626-4.769,10.267-3.266,3.689-7.472,5.522-8.67,5.522a2.006,2.006,0,0,1-1.927-2.045c0-.963.634-1.221,2.138-1.9,6.72-3.1,8.881-9.4,8.881-10.15,0-.306-.235-.306-.681-.306h-5.756a27.98,27.98,0,0,1-3.6,4.159c-.939.869-1.48,1.221-2.161,1.221a1.983,1.983,0,0,1-1.95-1.9c0-.611.188-.8,1.269-1.832a23,23,0,0,0,5.122-6.908,1.825,1.825,0,0,1,1.785-1.221c1.081,0,2.068.611,2.068,1.48A3.791,3.791,0,0,1,247.264,39Z"/>
      </g>
      <g>
        <polygon class="b" points="153.805 59.593 90.102 59.593 95.176 64.667 153.805 59.593"/>
        <path class="b" d="M96,39.068v.767a6.439,6.439,0,0,0-3.7-1.191c-4.463,0-7.853,4.069-7.853,9.067s3.39,9.067,7.853,9.067A6.424,6.424,0,0,0,96,55.587v.767h3.923V39.068Zm-3.7,13.548c-2.2,0-3.812-2.167-3.812-4.905s1.611-4.9,3.812-4.9,3.756,2.167,3.756,4.9S94.51,52.616,92.307,52.616Z"/>
        <path class="b" d="M127.429,39.068V49.222a3.227,3.227,0,1,1-6.428,0V39.068h-3.923V49.222c0,4.167,2.85,7.556,7.017,7.556a6.02,6.02,0,0,0,3.334-1.067v.643h3.923V39.068Z"/>
        <path class="b" d="M163.984,56.354V46.2a3.227,3.227,0,1,1,6.428,0V56.354h3.923V46.2c0-4.166-2.85-7.555-7.017-7.555a6.02,6.02,0,0,0-3.334,1.067v-.643h-3.923V56.354Z"/>
        <path class="b" d="M73.146,56.354v-6.7h2.9l5.025,6.7h5.136l-6.071-8.081a7.443,7.443,0,0,0-4.314-13.512H69.043V56.354Zm0-17.494h2.678a3.347,3.347,0,1,1,0,6.694H73.146Z"/>
        <path class="b" d="M141.926,52.264a2.334,2.334,0,0,1-1.312.425,1.934,1.934,0,0,1-1.849-2.121v-7.4h3.355v-4.1h-3.355V34.76h-3.923v4.308h-2.075v4.1h2.075v7.457a5.9,5.9,0,0,0,5.833,6.165,8.085,8.085,0,0,0,3.838-1.088Z"/>
        <polygon class="b" points="109.679 47.171 116.409 39.068 110.909 39.068 106.203 45.09 106.203 33.333 102.163 33.333 102.163 56.354 106.203 56.354 106.203 49.253 111.989 56.354 117.485 56.354 109.679 47.171"/>
        <path class="b" d="M150.988,38.63c-4.541,0-7.8,3.99-7.8,9.081,0,5.353,4.088,9.083,8.187,9.083a8.187,8.187,0,0,0,6.948-3.87l-3.465-2c-2.68,3.95-7.146,1.946-7.662-2l11.3,0C159.466,42.713,155.452,38.63,150.988,38.63Zm3.424,6.85h-7.065C148.172,41.431,153.648,41.2,154.412,45.48Z"/>
      </g>
    </g>
    <rect class="c" x="69.043" y="34.761" width="186.913" height="24.832"/>
  </g>
</svg>
