<?xml version="1.0" encoding="utf-8"?>
<!-- Generator: Adobe Illustrator 27.0.0, SVG Export Plug-In . SVG Version: 6.00 Build 0)  -->
<svg version="1.1" id="_イヤー_1" xmlns="http://www.w3.org/2000/svg" xmlns:xlink="http://www.w3.org/1999/xlink" x="0px"
	 y="0px" viewBox="0 0 325 98" style="enable-background:new 0 0 325 98;" xml:space="preserve">
<style type="text/css">
	.st0{fill:none;}
	.st1{fill:#BF0000;}
</style>
<g>
	<path class="st0" d="M55.4,86c-1.2,0-2.1-1-2.1-2.1V14.1c0-1.2,1-2.1,2.1-2.1h214.1c1.2,0,2.1,1,2.1,2.1v69.8c0,1.2-1,2.1-2.1,2.1
		H55.4z"/>
	<g>
		<rect x="64" y="22.7" class="st0" width="197" height="52.7"/>
	</g>
	<g>
		<g>
			<path class="st1" d="M64,75.3V55h7.2c2,0,3.7,0.4,5.2,1.2c1.5,0.8,2.7,2,3.6,3.5c0.9,1.5,1.3,3.3,1.3,5.4c0,2.1-0.4,3.9-1.3,5.4
				c-0.9,1.5-2,2.7-3.6,3.5c-1.5,0.8-3.3,1.2-5.2,1.2H64z M70.8,58.7h-2.8v12.9h2.8c1.9,0,3.4-0.6,4.5-1.7c1.1-1.2,1.7-2.7,1.7-4.8
				c0-2-0.6-3.5-1.7-4.7C74.3,59.3,72.8,58.7,70.8,58.7z"/>
			<path class="st1" d="M90.1,75.7c-1.4,0-2.6-0.4-3.7-1.1c-1.1-0.7-2-1.7-2.6-3c-0.6-1.3-1-2.8-1-4.5c0-1.7,0.3-3.2,1-4.5
				c0.6-1.3,1.5-2.3,2.6-3c1.1-0.7,2.3-1.1,3.7-1.1c1.1,0,2.2,0.3,3.1,0.8c0.9,0.6,1.6,1.3,2,2.3l0.3-2.7h3.4v16.4h-3.4l-0.3-2.7
				c-0.4,0.9-1.1,1.6-2,2.2C92.3,75.4,91.2,75.7,90.1,75.7z M91,72c1.2,0,2.1-0.5,2.9-1.4c0.8-0.9,1.1-2.1,1.1-3.5
				c0-1.4-0.4-2.6-1.1-3.5c-0.8-0.9-1.7-1.4-2.9-1.4c-1.2,0-2.2,0.5-2.9,1.4c-0.8,0.9-1.1,2.1-1.1,3.5c0,1.4,0.4,2.6,1.1,3.5
				C88.8,71.6,89.8,72,91,72z"/>
			<path class="st1" d="M108.8,75.7c-3.5,0-5.3-2-5.3-6.1v-7.2h-2.6V59h2.6v-4.1h4V59h5.2v3.4h-5.2v7c0,1.7,0.7,2.6,2,2.6
				c0.9,0,1.8-0.4,2.8-1.1l0.8,3.7C111.9,75.3,110.5,75.7,108.8,75.7z"/>
			<path class="st1" d="M120.9,75.7c-1.4,0-2.6-0.4-3.7-1.1c-1.1-0.7-2-1.7-2.6-3c-0.6-1.3-1-2.8-1-4.5c0-1.7,0.3-3.2,1-4.5
				c0.6-1.3,1.5-2.3,2.6-3c1.1-0.7,2.3-1.1,3.7-1.1c1.1,0,2.2,0.3,3.1,0.8c0.9,0.6,1.6,1.3,2,2.3l0.3-2.7h3.4v16.4h-3.4l-0.3-2.7
				c-0.4,0.9-1.1,1.6-2,2.2C123.1,75.4,122.1,75.7,120.9,75.7z M121.8,72c1.2,0,2.1-0.5,2.9-1.4c0.8-0.9,1.1-2.1,1.1-3.5
				c0-1.4-0.4-2.6-1.1-3.5c-0.8-0.9-1.7-1.4-2.9-1.4c-1.2,0-2.2,0.5-2.9,1.4c-0.8,0.9-1.1,2.1-1.1,3.5c0,1.4,0.4,2.6,1.1,3.5
				C119.7,71.6,120.6,72,121.8,72z"/>
			<path class="st1" d="M143.2,75.7c-1.6,0-3.1-0.3-4.4-0.9c-1.4-0.6-2.5-1.4-3.3-2.4l1.7-3.3c0.8,1,1.7,1.8,2.7,2.2
				c1,0.5,2.1,0.7,3.3,0.7c1,0,1.8-0.2,2.4-0.6c0.6-0.4,0.9-1,0.9-1.7c0-0.7-0.2-1.2-0.7-1.6c-0.5-0.4-1.3-0.8-2.4-1.2l-1.8-0.5
				c-1.8-0.6-3.1-1.3-4-2.2c-0.8-0.9-1.2-2.1-1.2-3.5c0-1.2,0.3-2.3,0.9-3.2c0.6-0.9,1.4-1.6,2.5-2.2c1.1-0.5,2.3-0.8,3.7-0.8
				c1.4,0,2.6,0.2,3.8,0.7c1.1,0.5,2.1,1.1,2.9,2l-1.7,3.3c-1.3-1.6-3-2.4-4.9-2.4c-1,0-1.7,0.2-2.3,0.6c-0.5,0.4-0.8,1-0.8,1.7
				c0,0.6,0.2,1.1,0.7,1.5c0.5,0.4,1.2,0.7,2.2,1l1.8,0.5c1.9,0.6,3.3,1.3,4.2,2.3c0.9,1,1.4,2.2,1.4,3.8c0,1.9-0.7,3.4-2,4.5
				C147.2,75.2,145.5,75.7,143.2,75.7z"/>
			<path class="st1" d="M160.2,75.8c-1.6,0-3-0.4-4.2-1.1c-1.2-0.7-2.2-1.7-2.9-3c-0.7-1.3-1.1-2.8-1.1-4.5c0-1.7,0.4-3.2,1.1-4.5
				c0.7-1.3,1.7-2.3,2.9-3.1c1.2-0.7,2.6-1.1,4.2-1.1c1.5,0,2.9,0.4,4.2,1.1c1.2,0.7,2.2,1.8,2.9,3.1c0.7,1.3,1.1,2.8,1.1,4.5
				c0,1.7-0.4,3.2-1.1,4.5c-0.7,1.3-1.7,2.3-2.9,3C163.2,75.4,161.8,75.8,160.2,75.8z M160.2,72.1c1.2,0,2.2-0.4,3-1.3
				c0.8-0.9,1.1-2.1,1.1-3.6c0-1.5-0.4-2.7-1.1-3.6c-0.8-0.9-1.7-1.4-3-1.4c-1.2,0-2.2,0.5-3,1.4c-0.8,0.9-1.2,2.1-1.2,3.6
				c0,1.5,0.4,2.7,1.2,3.6C158,71.6,159,72.1,160.2,72.1z"/>
			<path class="st1" d="M170.2,75.3V52.8h4v22.6H170.2z"/>
			<path class="st1" d="M182.4,75.7c-1.8,0-3.2-0.6-4.2-1.9c-1-1.3-1.5-3.1-1.5-5.5V59h4v8.9c0,1.3,0.3,2.3,0.8,3
				c0.5,0.7,1.3,1,2.2,1c1,0,1.8-0.4,2.5-1.3c0.7-0.9,1-1.9,1-3.2V59h4v16.4h-3.4l-0.3-2.6c-0.5,0.9-1.2,1.6-2.1,2.2
				C184.4,75.4,183.4,75.7,182.4,75.7z"/>
			<path class="st1" d="M201,75.7c-3.5,0-5.3-2-5.3-6.1v-7.2h-2.6V59h2.6v-4.1h4V59h5.2v3.4h-5.2v7c0,1.7,0.7,2.6,2,2.6
				c0.9,0,1.8-0.4,2.8-1.1l0.8,3.7C204,75.3,202.6,75.7,201,75.7z"/>
			<path class="st1" d="M209.3,57c-0.7,0-1.3-0.2-1.8-0.7c-0.5-0.5-0.7-1.1-0.7-1.7c0-0.7,0.2-1.2,0.7-1.7c0.5-0.5,1.1-0.7,1.8-0.7
				s1.3,0.2,1.8,0.7c0.5,0.5,0.7,1,0.7,1.7c0,0.7-0.2,1.3-0.7,1.7C210.6,56.8,210,57,209.3,57z M207.4,75.3V59h4v16.4H207.4z"/>
			<path class="st1" d="M221.4,75.8c-1.6,0-3-0.4-4.2-1.1c-1.2-0.7-2.2-1.7-2.9-3c-0.7-1.3-1.1-2.8-1.1-4.5c0-1.7,0.4-3.2,1.1-4.5
				c0.7-1.3,1.7-2.3,2.9-3.1c1.2-0.7,2.6-1.1,4.2-1.1c1.5,0,2.9,0.4,4.2,1.1c1.2,0.7,2.2,1.8,2.9,3.1c0.7,1.3,1.1,2.8,1.1,4.5
				c0,1.7-0.4,3.2-1.1,4.5c-0.7,1.3-1.7,2.3-2.9,3C224.3,75.4,222.9,75.8,221.4,75.8z M221.4,72.1c1.2,0,2.2-0.4,3-1.3
				c0.8-0.9,1.1-2.1,1.1-3.6c0-1.5-0.4-2.7-1.1-3.6c-0.8-0.9-1.7-1.4-3-1.4c-1.2,0-2.2,0.5-3,1.4c-0.8,0.9-1.2,2.1-1.2,3.6
				c0,1.5,0.4,2.7,1.2,3.6C219.2,71.6,220.2,72.1,221.4,72.1z"/>
			<path class="st1" d="M231.4,75.3V59h3.4l0.3,2.7c0.5-1,1.2-1.7,2.1-2.3c0.9-0.6,1.9-0.8,3.1-0.8c1.8,0,3.2,0.6,4.2,1.9
				c1,1.3,1.5,3.1,1.5,5.5v9.3h-4v-9c0-1.3-0.3-2.3-0.8-3c-0.5-0.7-1.3-1-2.2-1c-1.1,0-2,0.4-2.6,1.3c-0.7,0.9-1,1.9-1,3.1v8.6
				H231.4z"/>
			<path class="st1" d="M254.6,75.8c-1.3,0-2.6-0.2-3.8-0.7c-1.2-0.5-2.2-1.2-3-2.1l1.7-3c1.4,1.6,3,2.4,4.9,2.4
				c0.8,0,1.5-0.1,1.9-0.4c0.5-0.3,0.7-0.7,0.7-1.2c0-0.5-0.2-0.9-0.6-1.2c-0.4-0.3-1-0.6-1.9-0.8l-1.6-0.4c-3-0.7-4.5-2.3-4.5-4.7
				c0-1,0.3-1.9,0.8-2.7c0.5-0.8,1.3-1.4,2.2-1.9c0.9-0.4,2-0.7,3.3-0.7c1.1,0,2.2,0.2,3.2,0.6c1,0.4,1.8,0.9,2.5,1.6l-1.6,3
				c-1.2-1.3-2.6-1.9-4.2-1.9c-0.7,0-1.3,0.1-1.7,0.4c-0.4,0.3-0.6,0.7-0.6,1.2c0,0.4,0.2,0.8,0.5,1c0.3,0.3,0.9,0.5,1.8,0.7
				l1.5,0.4c1.5,0.4,2.7,1,3.5,1.9c0.8,0.9,1.2,1.9,1.2,3.2c0,1.5-0.6,2.8-1.8,3.7C258.1,75.3,256.5,75.8,254.6,75.8z"/>
		</g>
		<g>
			<polygon class="st1" points="147.8,47.2 84.8,47.2 89.8,52.2 			"/>
			<path class="st1" d="M90.7,26.9v0.8c-1.2-0.7-2.2-1.2-3.7-1.2c-4.4,0-7.8,4-7.8,9c0,4.9,3.4,9,7.8,9c1.4,0,2.5-0.4,3.7-1.2V44
				h3.9V26.9H90.7z M87,40.3c-2.2,0-3.8-2.1-3.8-4.9c0-2.7,1.6-4.9,3.8-4.9c2.2,0,3.7,2.1,3.7,4.9C90.7,38.2,89.2,40.3,87,40.3z"/>
			<path class="st1" d="M121.7,26.9v10c0,1.9-1.3,3.5-3.2,3.5c-1.9,0-3.2-1.6-3.2-3.5v-10h-3.9v10c0,4.1,2.8,7.5,6.9,7.5
				c1.9,0,3.3-1.1,3.3-1.1V44h3.9V26.9H121.7z"/>
			<path class="st1" d="M157.9,44V34c0-1.9,1.3-3.5,3.2-3.5c1.9,0,3.2,1.6,3.2,3.5v10h3.9V34c0-4.1-2.8-7.5-6.9-7.5
				c-1.9,0-3.3,1.1-3.3,1.1v-0.6H154V44H157.9z"/>
			<path class="st1" d="M68,44v-6.6h2.9l5,6.6H81l-6-8c1.9-1.3,3.1-3.5,3.1-6c0-4.1-3.3-7.4-7.4-7.4H64V44H68z M68,26.7h2.6
				c1.8,0,3.3,1.5,3.3,3.3c0,1.8-1.5,3.3-3.3,3.3H68V26.7z"/>
			<path class="st1" d="M136.1,40c-0.3,0.2-0.8,0.4-1.3,0.4c-0.6,0-1.8-0.5-1.8-2.1V31h3.3v-4.1H133l0-4.3h-3.9l0,4.3H127V31h2.1
				v7.4c0,3.8,2.9,6.1,5.8,6.1c1.1,0,2.6-0.4,3.8-1.1L136.1,40z"/>
			<polygon class="st1" points="104.2,34.9 110.8,26.9 105.4,26.9 100.7,32.9 100.7,21.2 96.7,21.2 96.7,44 100.7,44 100.7,37 
				106.5,44 111.9,44 			"/>
			<path class="st1" d="M145.1,26.5c-4.5,0-7.7,3.9-7.7,9c0,5.3,4,9,8.1,9c2,0,4.7-0.7,6.9-3.8l-3.4-2c-2.7,3.9-7.1,1.9-7.6-2
				l11.2,0C153.4,30.5,149.5,26.5,145.1,26.5z M148.4,33.3h-7C142.3,29.3,147.7,29,148.4,33.3z"/>
		</g>
	</g>
</g>
</svg>
