<svg xmlns="http://www.w3.org/2000/svg" width="325" height="98" viewBox="0 0 325 98">
  <defs>
    <style>
      .a {
        fill: #fff;
      }

      .b {
        fill: none;
      }

      .c {
        fill: #bf0000;
      }
    </style>
  </defs>
  <title>logo_bank_01</title>
  <rect class="a" width="325" height="98"/>
  <g>
    <path class="b" d="M70.842,43.593V37.369H73.5l4.611,6.148h5.6l-6.061-8.031a7.423,7.423,0,0,0,3.1-5.842A7.663,7.663,0,0,0,73.018,22H67V43.517h3.842Zm0-16.982h2.7a3.458,3.458,0,1,1,.049,6.916H70.842Z"/>
    <g>
      <g>
        <polygon class="c" points="144.419 59.593 80.717 59.593 85.791 64.667 144.419 59.593"/>
        <path class="c" d="M86.618,39.068v.767a6.439,6.439,0,0,0-3.7-1.191c-4.463,0-7.853,4.069-7.853,9.067s3.39,9.067,7.853,9.067a6.424,6.424,0,0,0,3.7-1.191v.767h3.923V39.068Zm-3.7,13.548c-2.2,0-3.812-2.167-3.812-4.905s1.611-4.9,3.812-4.9,3.756,2.167,3.756,4.9S85.125,52.616,82.922,52.616Z"/>
        <path class="c" d="M118.044,39.068V49.222a3.227,3.227,0,1,1-6.429,0V39.068h-3.923V49.222c0,4.167,2.851,7.556,7.018,7.556a6.02,6.02,0,0,0,3.334-1.067v.643h3.923V39.068Z"/>
        <path class="c" d="M154.6,56.354V46.2a3.227,3.227,0,1,1,6.428,0V56.354h3.923V46.2c0-4.166-2.85-7.555-7.017-7.555a6.016,6.016,0,0,0-3.334,1.067v-.643h-3.923V56.354Z"/>
        <path class="c" d="M63.761,56.354v-6.7h2.9l5.025,6.7h5.136l-6.071-8.081a7.443,7.443,0,0,0-4.314-13.512H59.658V56.354Zm0-17.494h2.678a3.347,3.347,0,1,1,0,6.694H63.761Z"/>
        <path class="c" d="M132.541,52.263a2.33,2.33,0,0,1-1.312.426,1.935,1.935,0,0,1-1.85-2.121v-7.4h3.355v-4.1h-3.355V34.76h-3.923v4.308h-2.075v4.1h2.075v7.457a5.9,5.9,0,0,0,5.833,6.165,8.078,8.078,0,0,0,3.837-1.088Z"/>
        <polygon class="c" points="100.294 47.171 107.023 39.068 101.524 39.068 96.817 45.09 96.817 33.333 92.778 33.333 92.778 56.354 96.817 56.354 96.817 49.253 102.604 56.354 108.1 56.354 100.294 47.171"/>
        <path class="c" d="M141.6,38.63c-4.54,0-7.8,3.99-7.8,9.081,0,5.353,4.088,9.083,8.187,9.083a8.187,8.187,0,0,0,6.948-3.87l-3.465-2c-2.68,3.95-7.146,1.945-7.662-2.005l11.3,0C150.08,42.713,146.066,38.63,141.6,38.63Zm3.425,6.85h-7.066C138.787,41.431,144.263,41.2,145.027,45.48Z"/>
      </g>
      <g>
        <path class="c" d="M177.41,44.227a23.93,23.93,0,0,1-5.431,2.832l-.767-2.948a20.078,20.078,0,0,0,5.409-2.576Zm3.621,2.183h-3.365V36.521h2.784a6.247,6.247,0,0,0,.535-1.485h3.133a12.464,12.464,0,0,1-.556,1.485h3.783V46.41h-3.482v1.137h9.47v2.646h-7.172a27.685,27.685,0,0,0,7.5,3.528l-1.624,2.785a28.285,28.285,0,0,1-8.171-5.268V56.9h-2.832V51.493a27.873,27.873,0,0,1-8.264,5.06L171.282,53.7a24.07,24.07,0,0,0,7.683-3.505H171.56V47.547h9.471Zm-7.892-10.493a18.953,18.953,0,0,1,4.178,2.762l-1.648,2.345a16.723,16.723,0,0,0-4.039-2.855Zm7.149,2.855v1.649h4.41V38.772Zm0,3.575v1.764h4.41V42.347Zm8.635-1.068a21.966,21.966,0,0,1,4.945,3.227l-1.811,2.623a17.833,17.833,0,0,0-4.666-3.435Zm4.434-3.62a23.647,23.647,0,0,1-3.737,3.574l-1.858-2.112a19.806,19.806,0,0,0,3.575-3.366Z"/>
        <path class="c" d="M204.663,43.369c.046-.673.069-1,.069-1.857V38.54h-9.285V35.778H217.22V38.54H207.7v2.948c0,.813-.023,1.091-.069,1.881h8.936v2.762h-8.217c1.207,3.853,5.038,6.36,9.215,7.823l-1.717,2.971c-4.689-2.043-8.055-5.176-9.424-8.658-2.09,4.8-6.291,7.265-9.587,8.681L195.1,53.954c4.225-1.207,7.683-3.483,9.029-7.823h-7.984V43.369Z"/>
        <path class="c" d="M228.665,55.254c-1.532.3-5.8,1.021-8.8,1.322l-.326-2.715c.744-.07,1.579-.117,3.877-.395V47.454h-3.784V44.9h3.784V43.207h-2.112V41.859a12.927,12.927,0,0,1-1.23,1l-.836-2.9a12,12,0,0,0,4.2-4.875h2.832a10.611,10.611,0,0,0,3.6,4.085l-1.6,2.368c-.162-.116-.232-.186-.3-.232v1.9H225.88V44.9h3.389v2.553H225.88v5.687c.51-.07,3.11-.464,3.389-.51L229.315,54c.209-.023.348-.023.742-.093V35.639h10.632V46.387h-4.132a10.966,10.966,0,0,0,.673,2.6,11.863,11.863,0,0,0,2.577-2.251l1.671,2.2a15.065,15.065,0,0,1-3.11,2.274,13,13,0,0,0,3.412,3.413l-1.787,2.507c-1.324-.952-4.875-3.483-5.943-10.747H232.8v7.079c1.717-.325,2.368-.464,3.226-.673v2.646a71.006,71.006,0,0,1-7.172,1.416Zm-6.685-6.848a26.936,26.936,0,0,1,.7,3.992l-2.135.418a17.489,17.489,0,0,0-.6-4.038Zm5.409-7.637a14.373,14.373,0,0,1-2.507-3.226,14.962,14.962,0,0,1-2.461,3.226Zm1.6,7.753a23.871,23.871,0,0,1-.7,3.644l-1.787-.348a20.293,20.293,0,0,0,.534-3.551Zm3.807-10.4v1.834h5.153V38.123Zm0,3.969V44h5.153v-1.9Z"/>
        <path class="c" d="M250.532,35.778a17.451,17.451,0,0,1-5.919,6.639l-1.486-2.832a12.727,12.727,0,0,0,4.8-4.782Zm.7,5.084a20.34,20.34,0,0,1-2.507,4.225V56.994H245.8V48.383a10.949,10.949,0,0,1-1.671,1.323l-.952-3.366a18.25,18.25,0,0,0,5.664-6.708Zm14.113,1.509v2.808h-3.389v9.657c0,1.578-.581,2.135-2.322,2.135h-4.642l-.51-3.064h3.783c.534,0,.743-.093.743-.673V45.179h-7.939V42.371Zm-.882-6.407v2.785H252.018V35.964Z"/>
      </g>
    </g>
  </g>
</svg>
