<svg xmlns="http://www.w3.org/2000/svg" width="325" height="98" viewBox="0 0 325 98">
  <defs>
    <style>
      .a {
        fill: #fff;
      }

      .b {
        fill: none;
      }

      .c {
        fill: #002896;
      }
    </style>
  </defs>
  <title>logo_communications_02</title>
  <rect class="a" width="325" height="98"/>
  <g>
    <rect class="b" x="53.858" y="24.001" width="217.716" height="51.009"/>
    <g>
      <g>
        <polygon class="c" points="138.619 48.832 74.916 48.832 79.991 53.907 138.619 48.832"/>
        <path class="c" d="M80.817,28.308v.767a6.434,6.434,0,0,0-3.7-1.191c-4.463,0-7.853,4.069-7.853,9.067s3.39,9.067,7.853,9.067a6.419,6.419,0,0,0,3.7-1.191v.767H84.74V28.308Zm-3.7,13.548c-2.2,0-3.812-2.167-3.812-4.905s1.612-4.9,3.812-4.9,3.756,2.167,3.756,4.9S79.324,41.856,77.121,41.856Z"/>
        <path class="c" d="M112.244,28.308V38.462a3.227,3.227,0,1,1-6.429,0V28.308h-3.923V38.462c0,4.167,2.85,7.556,7.017,7.556a6.022,6.022,0,0,0,3.335-1.067v.643h3.923V28.308Z"/>
        <path class="c" d="M148.8,45.594V35.439a3.227,3.227,0,1,1,6.429,0V45.594h3.923V35.439c0-4.166-2.85-7.556-7.017-7.556a6.018,6.018,0,0,0-3.335,1.068v-.643h-3.923V45.594Z"/>
        <path class="c" d="M57.961,45.594V38.9h2.9l5.024,6.7h5.136l-6.071-8.081A7.443,7.443,0,0,0,60.638,24h-6.78V45.594Zm0-17.494h2.677a3.347,3.347,0,1,1,0,6.694H57.961Z"/>
        <path class="c" d="M126.74,41.5a2.332,2.332,0,0,1-1.312.426,1.934,1.934,0,0,1-1.849-2.121v-7.4h3.355v-4.1h-3.355V24h-3.923v4.308H117.58v4.1h2.076v7.457a5.9,5.9,0,0,0,5.832,6.165,8.079,8.079,0,0,0,3.838-1.088Z"/>
        <polygon class="c" points="94.494 36.411 101.223 28.308 95.724 28.308 91.017 34.33 91.017 22.573 86.977 22.573 86.977 45.594 91.017 45.594 91.017 38.493 96.803 45.594 102.3 45.594 94.494 36.411"/>
        <path class="c" d="M135.8,27.869c-4.541,0-7.8,3.991-7.8,9.082,0,5.353,4.089,9.083,8.188,9.083a8.188,8.188,0,0,0,6.948-3.87l-3.465-2c-2.68,3.95-7.147,1.945-7.662-2l11.3,0C144.28,31.952,140.266,27.869,135.8,27.869Zm3.425,6.851h-7.066C132.987,30.671,138.462,30.439,139.227,34.72Z"/>
      </g>
      <g>
        <path class="c" d="M67.137,61.038c-.965-2.111-2.555-3.31-4.458-3.31-2.867,0-5.083,3.1-5.083,7.038s2.242,7.012,5.083,7.012c1.9,0,3.467-1.174,4.536-3.363l3.258,2.007c-1.695,3.389-4.222,5.005-7.82,5.005-5.421,0-9.227-4.405-9.227-10.661,0-6.126,3.962-10.687,9.305-10.687a8.231,8.231,0,0,1,7.742,5Z"/>
        <path class="c" d="M86.827,66.8c0,5-3.233,8.628-7.69,8.628S71.448,71.8,71.448,66.8s3.232-8.6,7.715-8.6C83.594,58.2,86.827,61.82,86.827,66.8Zm-11.5.026c0,2.685,1.615,4.692,3.805,4.692s3.806-2.007,3.806-4.718-1.616-4.718-3.832-4.718C76.947,62.081,75.332,64.114,75.332,66.825Z"/>
        <path class="c" d="M92.3,60.1a4.281,4.281,0,0,1,3.649-1.9,4.044,4.044,0,0,1,3.805,2.346,5.329,5.329,0,0,1,4.535-2.346c3.363,0,5.318,2.633,5.318,7.168V75.01h-3.91V65.365c0-2.033-.834-3.284-2.215-3.284-1.538,0-2.529,1.3-2.529,3.284V75.01h-3.91V65.365c0-2.007-.834-3.284-2.19-3.284-1.407,0-2.553,1.46-2.553,3.284V75.01h-3.91V58.589h3.127Z"/>
        <path class="c" d="M115.852,60.1a4.281,4.281,0,0,1,3.649-1.9,4.045,4.045,0,0,1,3.806,2.346,5.328,5.328,0,0,1,4.535-2.346c3.363,0,5.318,2.633,5.318,7.168V75.01h-3.911V65.365c0-2.033-.833-3.284-2.214-3.284-1.538,0-2.529,1.3-2.529,3.284V75.01H120.6V65.365c0-2.007-.834-3.284-2.19-3.284-1.407,0-2.554,1.46-2.554,3.284V75.01h-3.91V58.589h3.128Z"/>
        <path class="c" d="M145.782,73.576a4.9,4.9,0,0,1-3.988,1.825c-3.779,0-6.49-3-6.49-7.168V58.589h3.91v9.644a3.246,3.246,0,0,0,3.154,3.519,3.518,3.518,0,0,0,3.414-3.519V58.589h3.91V75.01H146.3Z"/>
        <path class="c" d="M155.941,60.022a4.864,4.864,0,0,1,3.988-1.825c3.78,0,6.491,3,6.491,7.168V75.01h-3.91V65.365a3.246,3.246,0,0,0-3.154-3.519,3.518,3.518,0,0,0-3.415,3.519V75.01h-3.91V58.589h3.389Z"/>
        <path class="c" d="M168.757,57.051V53.14h3.91v3.911Zm0,17.959V58.589h3.91V75.01Z"/>
        <path class="c" d="M184.964,63.984a3.565,3.565,0,0,0-3.023-1.9c-2.112,0-3.805,2.112-3.805,4.718s1.693,4.718,3.805,4.718a3.57,3.57,0,0,0,3.023-1.877l3.363,1.981a7.508,7.508,0,0,1-6.386,3.806c-4.275,0-7.715-3.858-7.715-8.628,0-4.744,3.466-8.6,7.715-8.6a7.5,7.5,0,0,1,6.386,3.78Z"/>
        <path class="c" d="M200.6,73.524a5.05,5.05,0,0,1-4.04,1.9c-4.118,0-7.454-3.884-7.454-8.628s3.44-8.6,7.663-8.6a4.59,4.59,0,0,1,3.831,1.9l.521-1.511h3.389V75.01h-3.389ZM193.016,66.8c0,2.763,1.694,4.979,3.806,4.979,2.189,0,3.779-2.06,3.779-4.953,0-2.92-1.59-4.979-3.805-4.979C194.684,61.846,193.016,64.036,193.016,66.8Z"/>
        <path class="c" d="M212.99,54.991v3.6H217.4v3.648H212.99v8.341a1.1,1.1,0,0,0,1.173,1.2c.756,0,1.277-.444,1.8-1.46l3.127,1.8c-1.46,2.424-2.867,3.311-5.369,3.311a4.387,4.387,0,0,1-4.405-2.763,10.116,10.116,0,0,1-.235-2.294V62.237h-2.815V58.589h2.815v-3.6Z"/>
        <path class="c" d="M220.259,57.051V53.14h3.91v3.911Zm0,17.959V58.589h3.91V75.01Z"/>
        <path class="c" d="M241.106,66.8c0,5-3.232,8.628-7.689,8.628s-7.689-3.624-7.689-8.628,3.231-8.6,7.714-8.6C237.874,58.2,241.106,61.82,241.106,66.8Zm-11.5.026c0,2.685,1.616,4.692,3.806,4.692s3.806-2.007,3.806-4.718-1.617-4.718-3.832-4.718C231.227,62.081,229.611,64.114,229.611,66.825Z"/>
        <path class="c" d="M246.575,60.022a4.864,4.864,0,0,1,3.988-1.825c3.779,0,6.49,3,6.49,7.168V75.01h-3.91V65.365a3.246,3.246,0,0,0-3.154-3.519,3.518,3.518,0,0,0-3.414,3.519V75.01h-3.91V58.589h3.388Z"/>
        <path class="c" d="M268.394,63.488a4.574,4.574,0,0,0-3.284-1.642c-1.1,0-1.825.522-1.825,1.356,0,.756.5,1.2,1.669,1.538a19.015,19.015,0,0,1,4.014,1.459,4.522,4.522,0,0,1,2.606,4.093c0,3.076-2.606,5.135-6.464,5.135a7.541,7.541,0,0,1-6.673-3.311l2.633-2.5a4.866,4.866,0,0,0,4.092,2.164c1.434,0,2.242-.522,2.242-1.46,0-.86-.6-1.277-3.05-2.112a11.1,11.1,0,0,1-3.467-1.537,3.961,3.961,0,0,1-1.772-3.467c0-2.867,2.555-5,6-5a8.367,8.367,0,0,1,5.838,2.346Z"/>
      </g>
    </g>
  </g>
</svg>
