<svg xmlns="http://www.w3.org/2000/svg" width="325" height="98" viewBox="0 0 325 98">
  <defs>
    <style>
      .a {
        fill: #fff;
      }

      .b {
        fill: none;
      }

      .c {
        fill: #bf0000;
      }
    </style>
  </defs>
  <title>logo_card_02</title>
  <rect class="a" width="325" height="98"/>
  <g>
    <rect class="b" x="110.07" y="22.728" width="105.292" height="53.554"/>
    <g>
      <g>
        <polygon class="c" points="194.831 47.56 131.129 47.56 136.203 52.635 194.831 47.56"/>
        <path class="c" d="M137.03,27.036V27.8a6.44,6.44,0,0,0-3.7-1.192c-4.463,0-7.854,4.07-7.854,9.068s3.391,9.067,7.854,9.067a6.424,6.424,0,0,0,3.7-1.191v.766h3.923V27.036Zm-3.7,13.548c-2.2,0-3.812-2.167-3.812-4.905s1.611-4.9,3.812-4.9,3.756,2.167,3.756,4.9S135.537,40.584,133.334,40.584Z"/>
        <path class="c" d="M168.456,27.036V37.19a3.227,3.227,0,1,1-6.429,0V27.036H158.1V37.19c0,4.167,2.85,7.556,7.018,7.556a6.02,6.02,0,0,0,3.334-1.067v.642h3.923V27.036Z"/>
        <path class="c" d="M205.011,44.321V34.167a3.227,3.227,0,1,1,6.428,0V44.321h3.923V34.167c0-4.166-2.85-7.556-7.017-7.556a6.017,6.017,0,0,0-3.334,1.068v-.643h-3.923V44.321Z"/>
        <path class="c" d="M114.173,44.321v-6.7h2.9l5.024,6.7h5.137l-6.071-8.08a7.444,7.444,0,0,0-4.314-13.513H110.07V44.321Zm0-17.493h2.678a3.347,3.347,0,1,1,0,6.694h-2.678Z"/>
        <path class="c" d="M182.953,40.231a2.335,2.335,0,0,1-1.312.426,1.935,1.935,0,0,1-1.85-2.121v-7.4h3.355v-4.1h-3.355V22.728h-3.923v4.308h-2.075v4.1h2.075V38.6a5.9,5.9,0,0,0,5.833,6.165,8.078,8.078,0,0,0,3.837-1.088Z"/>
        <polygon class="c" points="150.706 35.139 157.435 27.036 151.936 27.036 147.229 33.058 147.229 21.301 143.19 21.301 143.19 44.321 147.229 44.321 147.229 37.221 153.016 44.321 158.512 44.321 150.706 35.139"/>
        <path class="c" d="M192.014,26.6c-4.54,0-7.8,3.99-7.8,9.082,0,5.353,4.088,9.083,8.187,9.083a8.187,8.187,0,0,0,6.948-3.87l-3.465-2c-2.68,3.95-7.146,1.945-7.662-2l11.3,0C200.493,30.68,196.478,26.6,192.014,26.6Zm3.425,6.851h-7.066C189.2,29.4,194.675,29.167,195.439,33.448Z"/>
      </g>
      <g>
        <path class="c" d="M123.348,62.311c-.964-2.111-2.554-3.31-4.457-3.31-2.867,0-5.083,3.1-5.083,7.037s2.242,7.012,5.083,7.012c1.9,0,3.467-1.173,4.535-3.363l3.258,2.008c-1.694,3.388-4.222,5-7.819,5-5.422,0-9.227-4.405-9.227-10.661,0-6.125,3.962-10.687,9.3-10.687a8.231,8.231,0,0,1,7.741,5.005Z"/>
        <path class="c" d="M139.154,74.8a5.053,5.053,0,0,1-4.04,1.9c-4.119,0-7.455-3.884-7.455-8.628s3.44-8.6,7.663-8.6a4.589,4.589,0,0,1,3.832,1.9l.521-1.512h3.388V76.282h-3.388Zm-7.585-6.725c0,2.763,1.694,4.979,3.805,4.979,2.19,0,3.78-2.059,3.78-4.952,0-2.92-1.59-4.979-3.806-4.979C133.237,63.119,131.569,65.309,131.569,68.071Z"/>
        <path class="c" d="M148.9,61.373a6.139,6.139,0,0,1,4.77-1.9v3.649a4.058,4.058,0,0,0-4.353,4.171v8.992H145.4V59.861h3.128Z"/>
        <path class="c" d="M165.745,74.8a5.053,5.053,0,0,1-4.041,1.9c-4.118,0-7.454-3.884-7.454-8.628s3.44-8.6,7.663-8.6a4.589,4.589,0,0,1,3.832,1.9v-6.96h3.909V76.282h-3.388Zm-7.585-6.725c0,2.763,1.694,4.979,3.805,4.979,2.19,0,3.78-2.059,3.78-4.952,0-2.92-1.59-4.979-3.806-4.979C159.828,63.119,158.16,65.309,158.16,68.071Z"/>
      </g>
    </g>
  </g>
</svg>
