<svg xmlns="http://www.w3.org/2000/svg" width="325" height="98" viewBox="0 0 325 98">
  <defs>
    <style>
      .cls-1 {
        fill: #fff;
      }

      .cls-2 {
        fill: #bf0000;
      }
    </style>
  </defs>
  <g id="レイヤー_2" data-name="レイヤー 2">
    <rect class="cls-1" width="325" height="98"/>
  </g>
  <g id="レイヤー_1" data-name="レイヤー 1">
    <g>
      <g>
        <polygon class="cls-2" points="179.712 46.88 116.208 46.88 121.266 51.939 179.712 46.88"/>
        <path class="cls-2" d="M122.091,26.42v.765A6.416,6.416,0,0,0,118.406,26c-4.449,0-7.829,4.057-7.829,9.039s3.38,9.039,7.829,9.039a6.4,6.4,0,0,0,3.685-1.188v.765H126V26.42Zm-3.685,13.5c-2.194,0-3.8-2.16-3.8-4.889s1.606-4.887,3.8-4.887,3.744,2.161,3.744,4.887S120.6,39.925,118.406,39.925Z"/>
        <path class="cls-2" d="M153.419,26.42V36.543a3.217,3.217,0,1,1-6.409,0V26.42H143.1V36.543c0,4.153,2.842,7.532,7,7.532a6,6,0,0,0,3.324-1.064v.641h3.91V26.42Z"/>
        <path class="cls-2" d="M189.859,43.652V33.529a3.217,3.217,0,1,1,6.409,0V43.652h3.911V33.529c0-4.153-2.842-7.532-7-7.532a6,6,0,0,0-3.324,1.064V26.42h-3.911V43.652Z"/>
        <path class="cls-2" d="M99.305,43.652V36.976H102.2l5.009,6.676h5.12L106.275,35.6a7.42,7.42,0,0,0-4.3-13.47H95.215V43.652Zm0-17.439h2.669a3.337,3.337,0,1,1,0,6.673H99.305Z"/>
        <path class="cls-2" d="M167.87,39.574a2.328,2.328,0,0,1-1.308.424,1.927,1.927,0,0,1-1.843-2.114V30.51h3.344V26.42h-3.344V22.126h-3.911V26.42h-2.069v4.09h2.069v7.434a5.885,5.885,0,0,0,5.814,6.146,8.056,8.056,0,0,0,3.826-1.085Z"/>
        <polygon class="cls-2" points="135.724 34.497 142.433 26.42 136.95 26.42 132.258 32.423 132.258 20.703 128.231 20.703 128.231 43.652 132.258 43.652 132.258 36.573 138.026 43.652 143.506 43.652 135.724 34.497"/>
        <path class="cls-2" d="M176.9,25.983c-4.526,0-7.773,3.977-7.773,9.053,0,5.336,4.076,9.054,8.162,9.054a8.16,8.16,0,0,0,6.926-3.857l-3.454-1.995c-2.672,3.938-7.124,1.939-7.638-2l11.265,0C185.355,30.053,181.353,25.983,176.9,25.983Zm3.415,6.829h-7.044C174.1,28.776,179.555,28.544,180.318,32.812Z"/>
      </g>
      <g>
        <path class="cls-2" d="M100.769,56.341c-.8,1.4-1.545,2.582-2.221,3.547a9.409,9.409,0,0,0,.7.7c.435-.8.845-1.593,1.231-2.365l2.076.917V57.209h1.762q.29-.9.506-1.81l2.535.579c-.121.435-.266.845-.411,1.231h2.486v2.1l.556-.7a2.076,2.076,0,0,0,.41.29,30.643,30.643,0,0,0,1.858-3.5l2.269.942c-.82,1.544-1.593,2.848-2.317,3.934a4,4,0,0,0,.628.483c.627-.942,1.182-1.883,1.689-2.8L116.891,59c-.941,1.5-1.858,2.849-2.727,4.055l1.4-.675a33.759,33.759,0,0,1,1.689,4.73l-1.979.845c-.1-.435-.217-.845-.314-1.231-1.713.338-3.547.6-5.527.821v.217h-6.878v-.772l-1.618.675c-.048-.241-.1-.458-.12-.675a49.529,49.529,0,0,1-5.334,1.254L95,65.681c.386-.048.772-.1,1.135-.145q.941-1.3,1.737-2.606c-.917-.918-1.834-1.835-2.775-2.8l1.617-1.979a1.171,1.171,0,0,0,.169.169A25.3,25.3,0,0,0,98.5,55.4Zm3.572,12.84V68.143h2.824v1.038h9.051v2.244h-6.638a17.127,17.127,0,0,0,2.221,1.063,25.7,25.7,0,0,0,5.092,1.5l-1.52,2.824a25.741,25.741,0,0,1-5.551-2.51,17.93,17.93,0,0,1-2.655-1.955v4.851h-2.824V72.777a20.27,20.27,0,0,1-2.1,1.448,34.051,34.051,0,0,1-5.817,2.486L95.1,74.442a28.232,28.232,0,0,0,4.972-1.786,15.135,15.135,0,0,0,2.268-1.231H95.772V69.181ZM100.02,63.75c-.313.483-.6.942-.893,1.328.435-.073.821-.145,1.207-.217C100.237,64.474,100.117,64.088,100.02,63.75Zm2.535-4.006c-.773,1.255-1.473,2.413-2.149,3.451l1.207-.531a32.359,32.359,0,0,1,.942,3.355Zm4.417,1.689V59.551h-1.98v1.882Zm0,3.959V63.7h-1.98v1.69Zm2.8-.435c.555-.676,1.062-1.328,1.545-2l-1.883-1.521v3.548A1.49,1.49,0,0,0,109.771,64.957Zm4.1-1.5c-.313.434-.627.868-.917,1.255.483-.024.917-.073,1.352-.121C114.164,64.209,114.019,63.823,113.874,63.461Z"/>
        <path class="cls-2" d="M137.868,56.244V59h-7.747c0,2.317-.025,3.79-.049,4.417h8.737v2.752h-8.544a14.129,14.129,0,0,0,2.341,3.717,16.239,16.239,0,0,0,6.952,4.755l-1.69,2.654a20.741,20.741,0,0,1-6.01-4.006,13.756,13.756,0,0,1-2.848-3.934,10.625,10.625,0,0,1-1.713,2.8,17.654,17.654,0,0,1-7.627,4.756l-1.231-2.632a14.932,14.932,0,0,0,6.661-4.247,9.05,9.05,0,0,0,1.786-3.862h-7.892V63.412H127.2c0-.169.024-.362.024-.555.048-.1.073-1.4.073-3.862h-7.265V56.244Z"/>
        <path class="cls-2" d="M162.172,77.1h-2.631v-.676H144.263V77.1h-2.631V55.592h20.54Zm-9.606-3.21L151.335,72.1l.724-.579c-2.1.386-4.344.748-6.758,1.038l-.459-2.438c2.9-.265,5.407-.555,7.531-.845l.169,1.811a11.086,11.086,0,0,0,1.327-1.521,9.086,9.086,0,0,1-.458-1.5,25.635,25.635,0,0,1-.918-5.407h-7.747V60.3h7.6c-.049-.579-.073-1.159-.073-1.786h2.366c0,.652.024,1.255.072,1.786h1.521c-.338-.338-.7-.652-1.038-.941l1.231-1.207H144.263V73.888Zm-.386-10.572V68.8H145.3V63.316Zm-2.341,3.306V65.488h-2.173v1.134Zm9.7,7.266V71.377a3.116,3.116,0,0,1-.82,1.762,1.876,1.876,0,0,1-1.352.459,2.638,2.638,0,0,1-1.979-1.11,4.932,4.932,0,0,1-.314-.435,12.868,12.868,0,0,1-1.955,1.835Zm-.651-14.627-.845,1.038h1.207v2.365h-4.417a23.258,23.258,0,0,0,.507,3.934,1.3,1.3,0,0,0,.072.266,26.247,26.247,0,0,0,1.207-3.548l2.269.869a24.607,24.607,0,0,1-2.341,5.792.084.084,0,0,0,.024.049c.362.7.627,1.037.8,1.037.048,0,.073-.048.121-.168a13.565,13.565,0,0,0,.072-1.907l1.979.579V58.151h-2.075A13.345,13.345,0,0,1,158.89,59.261Z"/>
        <path class="cls-2" d="M176.477,56.075c-.072.169-.144.314-.217.459h3.524v1.207a13.775,13.775,0,0,0,1.955,3.33,18.177,18.177,0,0,0,1.038-2.172h-1.955V56.437h4.9v1.979a23.94,23.94,0,0,1-2.22,4.321,11.157,11.157,0,0,0,2.583,1.52l-1.207,2.558a9.991,9.991,0,0,1-2.366-1.351v.965h-7.627v-.772a20.568,20.568,0,0,1-2.461,1.448l-1.038-2.269A14.978,14.978,0,0,0,173,63.871c-.386-.362-.748-.7-1.135-1.014l1.593-1.617a15.181,15.181,0,0,1,1.4,1.062,4.169,4.169,0,0,0,.314-.338q-.651-.615-1.231-1.086l1.593-1.617a9.268,9.268,0,0,1,1.014.7,7.148,7.148,0,0,0,.483-1.062h-2.149c-.1.145-.193.266-.265.362a11.935,11.935,0,0,1-2.486,2.558l-1.327-1.4-.966,2.728a13.768,13.768,0,0,1,1.521,2.7,9.76,9.76,0,0,1,.675,3.331c-.048,2.655-1.134,3.958-3.282,3.958h-1.038l-.483-2.22v6.275h-2.727V55.785h7.917l-1.352,3.886a9.808,9.808,0,0,0,1.521-1.737,11.71,11.71,0,0,0,1.424-2.438Zm-7.771,2.341h-1.473v4.755Zm.048,11.972c.338,0,.531-.386.555-1.207a7.308,7.308,0,0,0-.483-2.486,9.506,9.506,0,0,0-1.593-2.655V70.1A5.181,5.181,0,0,0,168.754,70.388Zm7.337,1.979a13.994,13.994,0,0,1-1.979,2,15.833,15.833,0,0,1-2.341,1.5L170.347,73.5a10.587,10.587,0,0,0,2.052-1.182,11.728,11.728,0,0,0,1.81-1.545Zm8.593-4.8v2.462h-4.707v3.958c0,1.327-.241,2.2-.724,2.582a3.711,3.711,0,0,1-2.583.724A3.5,3.5,0,0,1,175.246,77l-.458-2.728a4.157,4.157,0,0,0,1.882.459c.29,0,.459-.362.459-1.134V70.026h-4.417V67.564Zm-3.79-3.476a1.8,1.8,0,0,1-.362-.386,10.355,10.355,0,0,1-1.665-2.51,10.834,10.834,0,0,1-1.762,2.51,5.235,5.235,0,0,1-.362.386Zm3.186,8.641a8.752,8.752,0,0,0,1.738,1.255l-1.786,2.269a12.844,12.844,0,0,1-1.786-1.5,16.263,16.263,0,0,1-1.907-2.293l1.979-1.592A11.837,11.837,0,0,0,184.08,72.729Z"/>
        <path class="cls-2" d="M193.9,55.978a2.245,2.245,0,0,1-.242.483,31.391,31.391,0,0,1,4.1,2.8V55.689h10.281V67.2h-4.006a11.884,11.884,0,0,0,.7,2.1,14.1,14.1,0,0,0,2.558-1.738l1.883,2.172a20.66,20.66,0,0,1-3.09,1.907,13.026,13.026,0,0,0,3.186,2.993L207.364,77a15.435,15.435,0,0,1-3.959-4.538,16.327,16.327,0,0,1-1.931-5.261h-1.086v6.806q1.666-.217,3.114-.507l.386,2.269c-1.979.531-4.2.989-6.613,1.424l-.724-2.027c-2.607.6-5.431,1.11-8.5,1.544l-.483-2.727c1.231-.1,2.389-.217,3.5-.362V67.564h-3.114V65.126h3.114V63.509h-1.81v-.99a1.215,1.215,0,0,1-.266.242l-1.979-1.979a15.089,15.089,0,0,0,2.438-2.583,16.614,16.614,0,0,0,1.786-2.993Zm-3.383,15.93-2.269.941a22.714,22.714,0,0,0-1.037-3.4l2.172-1.037A25.837,25.837,0,0,1,190.513,71.908Zm5.048-10.837a34.21,34.21,0,0,0-3.017-2.486c-.241.386-.458.724-.676,1.062a11.16,11.16,0,0,1-1.11,1.424Zm2.2,13.3V60.251l-1.328,1.665c-.145-.145-.266-.265-.362-.362v1.955H193.7v1.617h2.92v2.438H193.7v3.765a9.646,9.646,0,0,0,1.134-3.09l2.269.556a10.63,10.63,0,0,1-1.328,3.861L193.7,71.57v1.714c.965-.121,1.882-.265,2.727-.435l.29,1.642C197.057,74.442,197.419,74.418,197.758,74.37ZM205.384,60.4V58.151h-5V60.4Zm0,4.345V62.761h-5V64.74Z"/>
        <path class="cls-2" d="M216.915,56.534a17.753,17.753,0,0,1-2.172,3.017,20.383,20.383,0,0,1-3.017,2.655L209.94,59.84a20.4,20.4,0,0,0,2.606-2.244,13.073,13.073,0,0,0,1.907-2.462Zm1.593,5.189a20.212,20.212,0,0,1-2.728,3.837V77.194h-2.751V68.143c-.386.314-.724.555-1.014.748l-1.906-2.462a24.889,24.889,0,0,0,3.427-2.92,16.214,16.214,0,0,0,2.51-3.21ZM232,62.471v2.751h-4.634v8.472c0,1.4-.29,2.317-.821,2.728a4.656,4.656,0,0,1-3.041.772,16.723,16.723,0,0,1-3.21-.289l-.459-2.921a14.546,14.546,0,0,0,3.669.458c.676,0,1.038-.386,1.038-1.206V65.222h-6.227V62.471Zm-1.135-6.3V58.8H219.546v-2.63Z"/>
      </g>
    </g>
  </g>
</svg>
