<?xml version="1.0" encoding="UTF-8"?>
<svg xmlns="http://www.w3.org/2000/svg" version="1.1" viewBox="0 0 325 98">
  <defs>
    <style>
      .cls-1 {
        fill: #fff;
      }

      .cls-2 {
        fill: none;
      }

      .cls-3 {
        fill: #00b900;
      }

      .cls-4 {
        fill: #bf0000;
      }
    </style>
  </defs>
  <!-- Generator: Adobe Illustrator 28.7.1, SVG Export Plug-In . SVG Version: 1.2.0 Build 142)  -->
  <g>
    <g id="_レイヤー_1" data-name="レイヤー_1">
      <rect class="cls-1" width="325" height="98"/>
      <g>
        <rect class="cls-2" x="54.2" y="20" width="217.1" height="53.3"/>
        <g>
          <g>
            <polygon class="cls-3" points="138.9 44.8 75.2 44.8 80.3 49.9 138.9 44.8"/>
            <path class="cls-3" d="M81.1,24.3v.8c-1.2-.8-2.2-1.2-3.7-1.2-4.5,0-7.9,4.1-7.9,9.1s3.4,9.1,7.9,9.1,2.5-.4,3.7-1.2v.8h3.9v-17.3h-3.9ZM77.4,37.9c-2.2,0-3.8-2.2-3.8-4.9s1.6-4.9,3.8-4.9,3.8,2.2,3.8,4.9-1.6,4.9-3.8,4.9Z"/>
            <path class="cls-3" d="M112.6,24.3v10.2c0,1.9-1.3,3.5-3.2,3.5s-3.2-1.6-3.2-3.5v-10.2h-3.9v10.2c0,4.2,2.9,7.6,7,7.6s3.3-1.1,3.3-1.1v.6h3.9v-17.3h-3.9Z"/>
            <path class="cls-3" d="M149.1,41.6v-10.2c0-1.9,1.3-3.5,3.2-3.5s3.2,1.6,3.2,3.5v10.2h3.9v-10.2c0-4.2-2.9-7.6-7-7.6s-3.3,1.1-3.3,1.1v-.6h-3.9v17.3h3.9Z"/>
            <path class="cls-3" d="M58.3,41.6v-6.7h2.9l5,6.7h5.1l-6.1-8.1c1.9-1.4,3.1-3.6,3.1-6.1,0-4.1-3.3-7.4-7.4-7.4h-6.8v21.6h4.1ZM58.3,24.1h2.7c1.8,0,3.3,1.5,3.3,3.3s-1.5,3.3-3.3,3.3h-2.7v-6.7Z"/>
            <path class="cls-3" d="M127,37.5c-.4.2-.8.4-1.3.4s-1.8-.5-1.8-2.1v-7.4h3.4v-4.1h-3.4v-4.3h-3.9v4.3s-2.1,0-2.1,0v4.1h2.1v7.5c0,3.9,2.9,6.2,5.8,6.2s2.6-.4,3.8-1.1l-2.6-3.4Z"/>
            <polygon class="cls-3" points="94.8 32.4 101.5 24.3 96 24.3 91.3 30.3 91.3 18.6 87.3 18.6 87.3 41.6 91.3 41.6 91.3 34.5 97.1 41.6 102.6 41.6 94.8 32.4"/>
            <path class="cls-3" d="M136.1,23.9c-4.5,0-7.8,4-7.8,9.1s4.1,9.1,8.2,9.1,4.7-.7,6.9-3.9l-3.5-2c-2.7,4-7.1,1.9-7.7-2h11.3c1-6.2-3-10.3-7.5-10.3ZM139.5,30.7h-7.1c.8-4,6.3-4.3,7.1,0Z"/>
          </g>
          <g>
            <g>
              <path class="cls-3" d="M62,73.2c-.6,0-1.1-.2-1.5-.6-.4-.4-.6-.9-.6-1.5v-14.9h-4.2c-.5,0-1-.2-1.3-.6-.4-.4-.6-.8-.6-1.3s.2-1,.6-1.4c.4-.4.8-.5,1.3-.5h12.6c.5,0,1,.2,1.4.5.4.4.6.8.6,1.3s-.2,1-.6,1.4c-.4.4-.8.6-1.4.6h-4.2v14.9c0,.6-.2,1.1-.6,1.5-.4.4-.9.6-1.4.6Z"/>
              <path class="cls-3" d="M72.6,73.2c-.6,0-1-.2-1.4-.6s-.6-.9-.6-1.4v-13.2c0-.5.2-.9.5-1.3.4-.4.8-.5,1.3-.5s.9.2,1.2.5.5.7.6,1.2l.2,1.4c.4-1,1-1.8,1.8-2.3.8-.6,1.6-.9,2.6-.9s.9,0,1.4.3.8.4,1.1.7c.5.5.7,1,.7,1.6s-.2,1.1-.6,1.4c-.4.4-.8.6-1.3.6s-.6,0-1-.3c-.4-.2-.8-.3-1.2-.3-.9,0-1.7.5-2.3,1.4s-.9,2-.9,3.4v6.4c0,.6-.2,1-.6,1.4s-.9.6-1.4.6Z"/>
              <path class="cls-3" d="M89.4,73.3c-1.4,0-2.6-.4-3.7-1.1-1.1-.7-2-1.7-2.6-3-.6-1.3-1-2.8-1-4.5s.3-3.2,1-4.5c.6-1.3,1.5-2.3,2.6-3.1,1.1-.7,2.3-1.1,3.7-1.1s2.2.3,3.1.8c.9.6,1.6,1.3,2,2.2l.2-1.3c0-.5.2-.8.6-1.2.3-.3.8-.5,1.3-.5s.9.2,1.3.5c.4.4.5.8.5,1.3v13.3c0,.5-.2.9-.5,1.3-.4.4-.8.5-1.3.5s-.8-.1-1.2-.4c-.3-.3-.5-.7-.6-1.2l-.2-1.3c-.4.9-1.1,1.7-2,2.2-.9.5-1.9.8-3.1.8ZM90.2,69.6c1.2,0,2.2-.5,3-1.4.7-.9,1.1-2.1,1.1-3.6s-.4-2.7-1.1-3.6c-.8-.9-1.7-1.4-3-1.4s-2.1.5-2.9,1.4c-.8.9-1.1,2.1-1.1,3.6s.4,2.7,1.1,3.6c.7.9,1.7,1.4,2.9,1.4Z"/>
              <path class="cls-3" d="M107.8,73.2c-.7,0-1.3-.2-1.8-.6-.5-.4-.9-.9-1.2-1.6l-4.8-11.9c-.2-.4-.3-.7-.3-1,0-.6.2-1.1.6-1.5.4-.4.9-.6,1.5-.6s.8.1,1.2.4c.4.2.6.6.8,1.1l4.2,11.5,4.1-11.4c.3-1,1-1.5,1.9-1.5s1,.2,1.4.6c.4.4.6.8.6,1.4s0,.6-.2,1l-4.9,12.1c-.6,1.5-1.6,2.2-3,2.2Z"/>
              <path class="cls-3" d="M124.2,73.3c-1.7,0-3.1-.4-4.4-1.1-1.2-.7-2.2-1.7-2.9-3s-1-2.8-1-4.6.3-3.2,1-4.5c.7-1.3,1.6-2.3,2.8-3.1,1.2-.8,2.5-1.1,4.1-1.1s2.7.4,3.9,1.1,2,1.7,2.7,2.9c.7,1.2,1,2.7,1,4.3s-.1.8-.4,1.1c-.3.3-.7.5-1.1.5h-9.8c.2,1.4.6,2.4,1.4,3.1.8.7,1.8,1.1,3,1.1s1.4-.1,2-.3c.6-.2,1.1-.6,1.8-1.1.6-.4,1-.6,1.3-.6.5,0,.8.2,1.2.5.3.3.5.7.5,1.2s-.3,1.1-.8,1.6c-.7.7-1.5,1.2-2.7,1.6-1.1.4-2.2.6-3.4.6ZM123.7,59.2c-1,0-1.8.3-2.5,1s-1,1.6-1.2,2.8h7.3c-.1-1.2-.5-2.2-1.1-2.8-.6-.7-1.5-1-2.5-1Z"/>
              <path class="cls-3" d="M134.9,73.2c-.6,0-1-.2-1.4-.6s-.6-.9-.6-1.4v-19.5c0-.5.2-1,.6-1.4.4-.4.9-.6,1.4-.6s1,.2,1.4.6c.4.4.6.9.6,1.4v19.5c0,.6-.2,1-.6,1.4s-.9.6-1.4.6Z"/>
            </g>
            <g>
              <path class="cls-3" d="M177,73.3c-1.5,0-2.8-.4-3.9-1.1-1-.7-1.8-1.7-2.2-3-.4-1.3-.5-2.8-.1-4.5.3-1.7,1-3.3,1.9-4.6.9-1.3,2.1-2.4,3.4-3.1,1.3-.8,2.8-1.1,4.4-1.1s1.9.2,2.7.5c.8.3,1.5.8,2,1.3.8.8,1.1,1.6,1,2.3,0,.5-.4.9-.8,1.3-.4.4-.9.5-1.4.5s-.4,0-.6-.2c-.2-.1-.4-.3-.6-.5-.4-.5-.9-.8-1.3-1.1-.4-.3-1-.4-1.5-.4-1.2,0-2.3.5-3.2,1.4-1,.9-1.6,2.1-1.9,3.6-.3,1.5-.1,2.7.5,3.6.6.9,1.5,1.4,2.8,1.4s2.3-.5,3.3-1.4c.7-.6,1.3-.8,1.7-.8s.8.2,1.1.5c.3.4.4.8.3,1.3-.1.6-.5,1.2-1.2,1.8-.8.8-1.8,1.3-2.9,1.7-1.1.4-2.3.6-3.5.6Z"/>
              <path class="cls-3" d="M187.4,73.2c-.6,0-1-.2-1.3-.6-.3-.4-.4-.9-.3-1.4l3.8-19.5c.1-.5.4-1,.9-1.4.5-.4,1-.6,1.5-.6s1,.2,1.3.6c.3.4.4.9.3,1.4l-1.4,7.2c.7-.9,1.5-1.6,2.5-2.2,1-.5,2-.8,3-.8,1.8,0,3.1.7,3.9,2,.8,1.3.9,3.2.5,5.6l-1.5,7.6c-.1.6-.4,1-.9,1.4-.5.4-1,.6-1.5.6s-1-.2-1.3-.6c-.3-.4-.4-.9-.3-1.4l1.4-7.4c.3-1.3.2-2.3-.2-3-.4-.7-1.1-1.1-2.1-1.1s-2.1.4-2.9,1.3c-.8.9-1.4,2-1.6,3.2l-1.3,6.9c-.1.6-.4,1-.9,1.4-.5.4-1,.6-1.5.6Z"/>
              <path class="cls-3" d="M209,73.3c-1.4,0-2.5-.4-3.5-1.1-1-.7-1.6-1.7-2-3-.4-1.3-.4-2.8,0-4.5.3-1.7.9-3.2,1.8-4.5.9-1.3,2-2.3,3.2-3.1,1.2-.7,2.5-1.1,3.9-1.1s2.1.3,2.9.8c.8.6,1.3,1.3,1.6,2.2l.4-1.3c.1-.5.4-.8.8-1.2.4-.3.9-.5,1.4-.5s.9.2,1.2.5c.3.4.4.8.3,1.3l-2.6,13.3c-.1.5-.4.9-.8,1.3-.4.4-.9.5-1.4.5s-.8-.1-1.1-.4c-.3-.3-.4-.7-.4-1.2v-1.3c-.5.9-1.3,1.7-2.3,2.2-1,.5-2.1.8-3.2.8ZM210.6,69.6c1.2,0,2.3-.5,3.2-1.4.9-.9,1.5-2.1,1.8-3.6.3-1.5.1-2.7-.4-3.6-.6-.9-1.5-1.4-2.7-1.4s-2.2.5-3.2,1.4c-.9.9-1.5,2.1-1.8,3.6-.3,1.5-.1,2.7.4,3.6.6.9,1.5,1.4,2.6,1.4Z"/>
              <path class="cls-3" d="M222,73.2c-.6,0-1-.2-1.3-.6-.3-.4-.4-.9-.3-1.4l2.6-13.2c0-.5.4-.9.8-1.3.4-.4.9-.5,1.4-.5s.9.2,1.1.5c.3.3.4.7.3,1.2v1.3c.6-1,1.5-1.7,2.5-2.3,1-.5,2.1-.8,3.2-.8,1.8,0,3,.6,3.8,1.9.8,1.3.9,3.2.5,5.6l-1.5,7.7c-.1.6-.4,1-.9,1.4-.5.4-1,.6-1.5.6s-1-.2-1.3-.6c-.3-.4-.4-.9-.3-1.4l1.4-7.4c.3-1.3.2-2.3-.2-3-.4-.7-1.1-1.1-2-1.1s-2.1.4-2.9,1.3c-.8.9-1.4,1.9-1.6,3.2l-1.3,6.9c-.1.6-.4,1-.9,1.4-.5.4-1,.6-1.5.6Z"/>
              <path class="cls-3" d="M242.8,79.4c-1,0-2-.1-3.1-.4-1.1-.3-2-.8-2.8-1.4-.6-.5-.9-1.1-.8-1.7,0-.5.3-.9.7-1.3.4-.3.8-.5,1.3-.5s.9.2,1.4.5c.6.4,1.2.7,1.8.9.6.2,1.3.3,2,.3,1.4,0,2.5-.5,3.5-1.4.9-.9,1.6-2.2,2-4l.2-1c-.7.9-1.5,1.7-2.5,2.3-1,.6-2.1.9-3.3.9s-2.5-.4-3.4-1.1c-.9-.7-1.5-1.7-1.9-2.9-.4-1.2-.4-2.7,0-4.3.3-1.6.9-3,1.8-4.3s1.9-2.3,3.1-3c1.2-.7,2.5-1.1,3.9-1.1s2.1.3,2.9.9c.8.6,1.4,1.3,1.6,2.2l.4-1.2c.2-.5.4-.9.8-1.2.4-.3.8-.5,1.3-.5s.9.2,1.2.5c.3.4.4.8.3,1.3l-2.4,12.5c-.6,3-1.8,5.2-3.6,6.7-1.8,1.5-4,2.3-6.5,2.3ZM245.2,68.9c1.2,0,2.2-.4,3.1-1.3.9-.9,1.5-2,1.8-3.3.3-1.3.1-2.5-.4-3.3-.6-.9-1.4-1.3-2.6-1.3s-2.2.4-3.1,1.3c-.9.9-1.5,2-1.8,3.3-.3,1.4-.1,2.5.4,3.3.6.9,1.4,1.3,2.6,1.3Z"/>
              <path class="cls-3" d="M262.2,73.3c-1.7,0-3.1-.4-4.2-1.1-1.1-.7-1.9-1.7-2.3-3-.4-1.3-.5-2.8-.1-4.6.3-1.7,1-3.2,1.9-4.5.9-1.3,2.1-2.3,3.4-3.1,1.3-.8,2.8-1.1,4.3-1.1s2.7.4,3.7,1.1c1,.7,1.7,1.7,2.1,2.9.4,1.2.5,2.7.1,4.3,0,.4-.3.8-.7,1.1-.4.3-.8.5-1.2.5h-9.8c0,1.4.2,2.4.8,3.1.6.7,1.5,1.1,2.8,1.1s1.4-.1,2-.3c.6-.2,1.3-.6,2-1.1.6-.4,1.1-.6,1.4-.6.5,0,.8.2,1.1.5.3.3.4.7.3,1.2-.1.5-.5,1.1-1.1,1.6-.8.7-1.8,1.2-3,1.6-1.2.4-2.4.6-3.5.6ZM264.5,59.2c-1,0-1.9.3-2.7,1s-1.4,1.6-1.8,2.8h7.3c.1-1.2,0-2.2-.6-2.8-.5-.7-1.3-1-2.3-1Z"/>
            </g>
            <path class="cls-4" d="M142.6,72.9l11.2-14-5.5-13h8.8l2.6,7.6,5.8-7.6h8l-10.8,12.7,6.1,14.3h-8.8l-3-8.7-6.4,8.7h-8Z"/>
          </g>
        </g>
      </g>
    </g>
  </g>
</svg>