<svg xmlns="http://www.w3.org/2000/svg" viewBox="0 0 325 98"><defs><style>.cls-1{fill:#fff;}.cls-2{fill:none;}.cls-3{fill:#bf0000;}.cls-4{fill:#1d428a;}.cls-5{fill:#c8102e;}</style></defs><g id="レイヤー_2" data-name="レイヤー 2"><rect class="cls-1" width="325" height="98"/></g><g id="レイヤー_1" data-name="レイヤー 1"><path class="cls-2" d="M58.37,27.73V21h2.9l5,6.69h5.14l-6.07-8.08A7.44,7.44,0,0,0,61,6.14H54.26V27.73Zm0-17.49H61a3.35,3.35,0,1,1,0,6.69H58.37Z"/><path class="cls-2" d="M58.37,27.73V21h2.9l5,6.69h5.14l-6.07-8.08A7.44,7.44,0,0,0,61,6.14H54.26V27.73Zm0-17.49H61a3.35,3.35,0,1,1,0,6.69H58.37Z"/><path class="cls-2" d="M58.37,27.73V21h2.9l5,6.69h5.14l-6.07-8.08A7.44,7.44,0,0,0,61,6.14H54.26V27.73Zm0-17.49H61a3.35,3.35,0,1,1,0,6.69H58.37Z"/><rect class="cls-2" x="49.42" y="-16.32" width="226.58" height="131.27"/><rect class="cls-2" x="79.09" y="13.35" width="167.25" height="71.93"/><polygon class="cls-3" points="225.83 60.85 162.2 60.85 167.27 65.92 225.83 60.85"/><path class="cls-3" d="M168.09,40.35v.76a6.44,6.44,0,0,0-3.69-1.19c-4.45,0-7.84,4.07-7.84,9.06S160,58,164.4,58a6.44,6.44,0,0,0,3.69-1.19v.76H172V40.35ZM164.4,53.88c-2.19,0-3.8-2.17-3.8-4.9s1.61-4.9,3.8-4.9,3.75,2.17,3.75,4.9S166.6,53.88,164.4,53.88Z"/><path class="cls-3" d="M199.48,40.35V50.49a3.22,3.22,0,1,1-6.42,0V40.35h-3.92V50.49c0,4.16,2.85,7.55,7,7.55A6,6,0,0,0,199.48,57v.64h3.92V40.35Z"/><path class="cls-3" d="M236,57.61V47.47a3.23,3.23,0,1,1,6.43,0V57.61h3.91V47.47c0-4.16-2.84-7.55-7-7.55A6,6,0,0,0,236,41v-.64h-3.91V57.61Z"/><path class="cls-3" d="M145.27,57.61V50.92h2.89l5,6.69h5.13l-6.06-8.07A7.44,7.44,0,0,0,147.94,36h-6.77V57.61Zm0-17.47h2.67a3.34,3.34,0,1,1,0,6.68h-2.67Z"/><path class="cls-3" d="M214,53.53a2.3,2.3,0,0,1-1.31.42,1.93,1.93,0,0,1-1.84-2.12V44.44h3.35V40.35h-3.35V36h-3.92v4.31h-2.08v4.09h2.08v7.45a5.89,5.89,0,0,0,5.82,6.16A8.12,8.12,0,0,0,216.55,57Z"/><polygon class="cls-3" points="181.75 48.44 188.48 40.35 182.98 40.35 178.28 46.36 178.28 34.62 174.25 34.62 174.25 57.61 178.28 57.61 178.28 50.52 184.06 57.61 189.55 57.61 181.75 48.44"/><path class="cls-3" d="M223,39.91c-4.53,0-7.78,4-7.78,9.07,0,5.35,4.08,9.07,8.17,9.07a8.18,8.18,0,0,0,6.94-3.86l-3.46-2c-2.67,3.94-7.14,1.94-7.65-2h11.29C231.48,44,227.47,39.91,223,39.91Zm3.42,6.84h-7.05C220.2,42.71,225.67,42.47,226.43,46.75Z"/><path class="cls-4" d="M130.48,50.27a5.38,5.38,0,1,0-5.38,5.38A5.38,5.38,0,0,0,130.48,50.27Z"/><path class="cls-1" d="M91.05,62.5m11.73-51H85.07a7.84,7.84,0,0,0-7.83,7.83v60a7.84,7.84,0,0,0,7.83,7.83h17.7a7.85,7.85,0,0,0,7.84-7.83v-60a7.85,7.85,0,0,0-7.83-7.83"/><path class="cls-5" d="M98.39,25.37v.26c.54.31.82.57,1.36.92,1.45.91,3.22,2.52,3,8.09.41,1.21.58,3.6,1,4.36a12.47,12.47,0,0,1,1.47,3.87s.22,2.2.5,2.35c1.5.34,1.06.49,1.28.74s1.1.29,1.1,1.09a4.94,4.94,0,0,1,.68,1.25v-29a6,6,0,0,0-6-6H97.06a2.77,2.77,0,0,1,1.74,1.32c.74.07,1.61,1.72.25,4.17.6.4.13,1-.31,1.71-.12.22-.26.62-.67.59-.52,1.1-1.14,2.16-1.62,2.22a.77.77,0,0,0,0,.87,7.92,7.92,0,0,1,2,1.14"/><path class="cls-5" d="M108.75,52.23a5.34,5.34,0,1,1-6.22-7.16c-.62-1.54-1.91-4-2.3-4.86S99,34.33,98.8,33.32c0-.22-2.3,1.31-2.31,1.41s-1.69,4.21-1.76,4.43a6.34,6.34,0,0,0,0,.68s.76.1,1.21,1.44,1.77,6.22,1.77,6.22a3.24,3.24,0,0,1-.38.36c1.69,5.64,1.1,8.07,1.85,9.72.95,2.33,1.21,2,2,4,.58,1.42,1.23,7,1.45,7.29a5.23,5.23,0,0,1,1.4,2.71c0,.65-.77,2.58-.49,3.71.17.66.26,2.15.57,2.43,0,0,.28.56.14.81,0,.08-.12.21-.08.32.5,1.77,2.12,4.79-.5,6.37h0a5.93,5.93,0,0,0,5-5.91Z"/><path class="cls-4" d="M102,78.15c-1-.86-.32-1.22-.36-1.56C101,74,98.94,72.38,100,71.52c-.27-.87-.81-2-.79-2a32.75,32.75,0,0,1-6.47-5.33C92.19,63.62,91.22,63,91,62.5a51.52,51.52,0,0,1-5.49-8.13L84,54.15c-.7-2.89-3.06-5.3-3.12-8.19a16.47,16.47,0,0,1,.69-3.9,5.31,5.31,0,0,1,1.09-1.25V40c-3.38.1-2.41-.24-3-1.56-.41-.91-.12-1.11,0-1.74a38.32,38.32,0,0,1,2.58-6c.19-.66.85-2.25.85-2.25,2.52-5.13,3.46-4.76,6.46-5.05l.14-.21c3-.13,2.51-.35,2.94-3.25-.44.19-.57-.9-.57-.9-.24-1.65.45-1.33.78-1.37.07-2.7.35-3.55,2.3-4.3H85.07a6,6,0,0,0-6,6v60a6,6,0,0,0,6,6h17.71C100.75,84.19,102,82.1,102,78.15Z"/><path class="cls-1" d="M88.42,81.52V70.66h2.11c1.22,0,2,.65,2,2.18v1.61c0,1-.3,1.49-.72,1.73a1.79,1.79,0,0,1,.72,1.6v1.58c0,1.49-.8,2.16-2,2.16Zm1.45-4.72v3.35h.55c.5,0,.63-.26.63-.78V77.53c0-.53-.16-.73-.64-.73Zm0-4.77v3.59h.54c.51,0,.64-.19.64-.78V72.76c0-.5-.15-.73-.63-.73Zm6,7.28H94.59l-.18,2.21H93l1.31-10.86h2.08L97.6,81.52H96.08Zm-.65-7.43h-.07c-.09,1.3-.27,3.6-.33,4.33l-.17,1.87h1.13l-.17-1.87c-.06-.74-.27-3-.39-4.33M84.12,81.52H82.85V70.66h2l1.61,8.9c-.14-2.13-.32-4.7-.32-6.89v-2h1.26V81.52H85.58L84,72.82c.1,2,.15,3.6.15,5.28Z"/></g></svg>