<svg xmlns="http://www.w3.org/2000/svg" width="325" height="98" viewBox="0 0 325 98">
  <defs>
    <style>
      .a {
        fill: #fff;
      }

      .b {
        fill: #bf0000;
      }

      .c {
        fill: none;
      }
    </style>
  </defs>
  <title>logo_europebank_02</title>
  <rect class="a" width="325" height="98"/>
  <g>
    <g>
      <g>
        <polygon class="b" points="166.642 47.151 102.939 47.151 108.013 52.225 166.642 47.151"/>
        <path class="b" d="M108.84,26.626v.767a6.439,6.439,0,0,0-3.7-1.191c-4.463,0-7.853,4.069-7.853,9.067s3.39,9.067,7.853,9.067a6.424,6.424,0,0,0,3.7-1.191v.767h3.923V26.626Zm-3.7,13.548c-2.2,0-3.812-2.167-3.812-4.905s1.611-4.9,3.812-4.9,3.756,2.167,3.756,4.9S107.347,40.174,105.144,40.174Z"/>
        <path class="b" d="M140.266,26.626V36.78a3.227,3.227,0,1,1-6.428,0V26.626h-3.923V36.78c0,4.167,2.85,7.556,7.017,7.556a6.02,6.02,0,0,0,3.334-1.067v.643h3.923V26.626Z"/>
        <path class="b" d="M176.821,43.912V33.757a3.227,3.227,0,1,1,6.429,0V43.912h3.923V33.757c0-4.166-2.85-7.555-7.017-7.555a6.022,6.022,0,0,0-3.335,1.067v-.643H172.9V43.912Z"/>
        <path class="b" d="M85.983,43.912v-6.7h2.9l5.024,6.7h5.136l-6.071-8.081a7.443,7.443,0,0,0-4.314-13.512H81.88V43.912Zm0-17.494h2.678a3.347,3.347,0,1,1,0,6.694H85.983Z"/>
        <path class="b" d="M154.763,39.821a2.325,2.325,0,0,1-1.312.426,1.934,1.934,0,0,1-1.849-2.121v-7.4h3.355v-4.1H151.6V22.318h-3.923v4.308H145.6v4.1h2.076v7.457a5.9,5.9,0,0,0,5.832,6.165,8.085,8.085,0,0,0,3.838-1.088Z"/>
        <polygon class="b" points="122.516 34.729 129.246 26.626 123.746 26.626 119.04 32.648 119.04 20.891 115 20.891 115 43.912 119.04 43.912 119.04 36.811 124.826 43.912 130.322 43.912 122.516 34.729"/>
        <path class="b" d="M163.825,26.188c-4.541,0-7.8,3.99-7.8,9.081,0,5.353,4.088,9.083,8.187,9.083a8.186,8.186,0,0,0,6.948-3.87l-3.465-2c-2.68,3.95-7.146,1.945-7.662-2l11.3,0C172.3,30.271,168.289,26.188,163.825,26.188Zm3.424,6.85h-7.065C161.009,28.989,166.485,28.757,167.249,33.038Z"/>
      </g>
      <g>
        <path class="b" d="M184.331,52.451a5.851,5.851,0,0,1,6.126,5.761,4.341,4.341,0,0,1-3.1,4.222,4.563,4.563,0,0,1,4.119,4.64c0,3.545-2.45,5.891-6.126,5.891h-8.992V52.451ZM180.265,60.9h3.806a2.406,2.406,0,0,0-.052-4.8h-3.754Zm0,8.419h4.823a2.284,2.284,0,0,0,2.215-2.371,2.315,2.315,0,0,0-2.215-2.424h-4.823Z"/>
        <path class="b" d="M204.139,71.479a5.055,5.055,0,0,1-4.041,1.9c-4.119,0-7.455-3.884-7.455-8.628s3.441-8.6,7.664-8.6a4.59,4.59,0,0,1,3.832,1.9l.521-1.512h3.388V72.965H204.66Zm-7.586-6.725c0,2.763,1.695,4.979,3.806,4.979,2.19,0,3.78-2.06,3.78-4.953,0-2.92-1.59-4.978-3.806-4.978C198.222,59.8,196.553,61.991,196.553,64.754Z"/>
        <path class="b" d="M214.3,57.977a4.865,4.865,0,0,1,3.988-1.825c3.78,0,6.491,3,6.491,7.169v9.644h-3.91V63.321a3.246,3.246,0,0,0-3.154-3.519,3.517,3.517,0,0,0-3.415,3.519v9.644h-3.91V56.544h3.389Z"/>
        <path class="b" d="M237.593,72.965l-6.568-6.96v6.96h-3.91V51.1h3.91V62.486l5.551-5.942H242.1l-7.716,7.715,8.733,8.706Z"/>
        <path class="b" d="M85.79,56.1v4.3h7.664V64.05H85.79v5.266h8.628v3.649H81.881V52.451H94.418V56.1Z"/>
        <path class="b" d="M106.943,71.531a4.9,4.9,0,0,1-3.988,1.825c-3.78,0-6.491-3-6.491-7.168V56.544h3.91v9.644a3.247,3.247,0,0,0,3.155,3.519,3.518,3.518,0,0,0,3.414-3.519V56.544h3.909V72.965h-3.388Z"/>
        <path class="b" d="M116.684,58.055a6.138,6.138,0,0,1,4.77-1.9V59.8a4.057,4.057,0,0,0-4.353,4.17v8.993h-3.91V56.544h3.128Z"/>
        <path class="b" d="M137.222,64.754c0,5-3.231,8.628-7.689,8.628s-7.689-3.623-7.689-8.628,3.232-8.6,7.715-8.6C133.991,56.153,137.222,59.776,137.222,64.754Zm-11.494.026c0,2.685,1.615,4.692,3.8,4.692s3.806-2.007,3.806-4.718-1.616-4.718-3.832-4.718C127.343,60.036,125.728,62.069,125.728,64.78Z"/>
        <path class="b" d="M142.691,58.055a4.625,4.625,0,0,1,3.832-1.9c4.222,0,7.663,3.883,7.663,8.627,0,4.77-3.336,8.6-7.507,8.6a5.553,5.553,0,0,1-3.988-1.694v5.421h-3.91V56.544h3.389Zm0,6.7c0,2.919,1.564,4.979,3.78,4.979,2.111,0,3.805-2.216,3.805-4.953,0-2.789-1.668-4.978-3.805-4.978C144.281,59.8,142.691,61.887,142.691,64.754Z"/>
        <path class="b" d="M170.135,69.707c-1.851,2.528-3.936,3.675-6.673,3.675-4.718,0-8.107-3.6-8.107-8.6,0-4.9,3.311-8.654,7.585-8.654,4.223,0,7.585,3.832,7.585,8.576a9.464,9.464,0,0,1-.077,1.2H159.683a3.825,3.825,0,0,0,3.883,3.754,4.03,4.03,0,0,0,3.18-1.9Zm-4.015-7.142c-.39-1.955-1.485-2.972-3.153-2.972-1.59,0-2.79,1.095-3.207,2.972Z"/>
      </g>
    </g>
    <rect class="c" x="81.88" y="22.319" width="161.239" height="50.646"/>
  </g>
</svg>
