<svg xmlns="http://www.w3.org/2000/svg" width="325" height="98" viewBox="0 0 325 98">
  <defs>
    <style>
      .a {
        fill: #fff;
      }

      .b {
        fill: none;
      }

      .c {
        fill: #bf0000;
      }
    </style>
  </defs>
  <title>logo_pasha_01</title>
  <rect class="a" width="325" height="98"/>
  <g>
    <g>
      <rect class="b" x="67.415" y="34.76" width="190.17" height="24.832"/>
      <g>
        <g>
          <polygon class="c" points="152.177 59.593 88.474 59.593 93.548 64.667 152.177 59.593"/>
          <path class="c" d="M94.375,39.068v.767a6.439,6.439,0,0,0-3.7-1.191c-4.463,0-7.853,4.069-7.853,9.068s3.39,9.066,7.853,9.066a6.424,6.424,0,0,0,3.7-1.191v.766H98.3V39.068Zm-3.7,13.548c-2.2,0-3.812-2.167-3.812-4.9s1.611-4.9,3.812-4.9,3.756,2.167,3.756,4.9S92.882,52.616,90.679,52.616Z"/>
          <path class="c" d="M125.8,39.068V49.222a3.227,3.227,0,1,1-6.428,0V39.068H115.45V49.222c0,4.167,2.85,7.556,7.017,7.556a6.016,6.016,0,0,0,3.334-1.067v.642h3.924V39.068Z"/>
          <path class="c" d="M162.356,56.353V46.2a3.227,3.227,0,1,1,6.429,0V56.353h3.923V46.2c0-4.167-2.85-7.557-7.017-7.557a6.018,6.018,0,0,0-3.335,1.068v-.643h-3.923V56.353Z"/>
          <path class="c" d="M71.518,56.353v-6.7h2.9l5.024,6.7h5.137l-6.071-8.08A7.444,7.444,0,0,0,74.2,34.76H67.415V56.353Zm0-17.493H74.2a3.347,3.347,0,1,1,0,6.694H71.518Z"/>
          <path class="c" d="M140.3,52.264a2.332,2.332,0,0,1-1.312.425,1.934,1.934,0,0,1-1.849-2.121v-7.4h3.355v-4.1h-3.355V34.76h-3.924v4.308h-2.076v4.1h2.076v7.457a5.9,5.9,0,0,0,5.833,6.165,8.081,8.081,0,0,0,3.837-1.088Z"/>
          <polygon class="c" points="108.051 47.171 114.781 39.068 109.281 39.068 104.575 45.09 104.575 33.333 100.535 33.333 100.535 56.353 104.575 56.353 104.575 49.253 110.361 56.353 115.857 56.353 108.051 47.171"/>
          <path class="c" d="M149.36,38.63c-4.54,0-7.8,3.989-7.8,9.081,0,5.353,4.089,9.082,8.188,9.082a8.187,8.187,0,0,0,6.948-3.869l-3.465-2c-2.68,3.95-7.147,1.946-7.662-2.005l11.3,0C157.838,42.713,153.824,38.63,149.36,38.63Zm3.425,6.85h-7.066C146.545,41.431,152.02,41.2,152.785,45.48Z"/>
        </g>
        <g>
          <path class="c" d="M186.615,35.84a6.947,6.947,0,1,1,0,13.893H183.1V54.92a1.958,1.958,0,0,1-3.91,0V37.691a1.9,1.9,0,0,1,1.955-1.851ZM183.1,46.084h3.258a3.209,3.209,0,0,0,3.154-3.337,3.141,3.141,0,0,0-3.154-3.258H183.1Z"/>
          <path class="c" d="M207.909,39.724a1.883,1.883,0,0,1,1.955,1.851V54.712a1.884,1.884,0,0,1-1.955,1.851,2.031,2.031,0,0,1-1.955-1.7,5.052,5.052,0,0,1-4.04,1.9c-4.118,0-7.455-3.884-7.455-8.628s3.441-8.6,7.663-8.6a4.589,4.589,0,0,1,3.832,1.9s.287-1.72,1.825-1.72Zm-1.955,8.445c0-2.919-1.59-4.978-3.806-4.978-2.111,0-3.779,2.189-3.779,4.952s1.694,4.979,3.805,4.979C204.364,53.122,205.954,51.062,205.954,48.169Z"/>
          <path class="c" d="M222.941,43.738a1.814,1.814,0,0,1-2.451.391,4,4,0,0,0-2.5-.938c-1.095,0-1.824.521-1.824,1.355,0,.756.5,1.2,1.668,1.538a18.993,18.993,0,0,1,4.014,1.459,4.5,4.5,0,0,1,2.633,4.093c0,3.076-2.633,5.135-6.491,5.135a7.82,7.82,0,0,1-5.891-2.346,1.821,1.821,0,0,1,0-2.659,1.731,1.731,0,0,1,2.425-.13,4.581,4.581,0,0,0,3.518,1.486c1.434,0,2.242-.522,2.242-1.46,0-.86-.6-1.277-3.05-2.111a11.1,11.1,0,0,1-3.466-1.538,3.958,3.958,0,0,1-1.773-3.467c0-2.867,2.554-5,6-5a7.609,7.609,0,0,1,4.457,1.3A1.9,1.9,0,0,1,222.941,43.738Z"/>
          <path class="c" d="M230.045,41.366a4.865,4.865,0,0,1,3.989-1.824c3.779,0,6.489,3,6.489,7.167V54.92a1.957,1.957,0,0,1-3.909,0V46.709a3.246,3.246,0,0,0-3.154-3.518,3.518,3.518,0,0,0-3.415,3.518V54.92a1.958,1.958,0,0,1-3.91,0V35.892a1.958,1.958,0,0,1,3.91,0Z"/>
          <path class="c" d="M255.63,39.724a1.882,1.882,0,0,1,1.955,1.851V54.712a1.883,1.883,0,0,1-1.955,1.851,2.031,2.031,0,0,1-1.955-1.7,5.053,5.053,0,0,1-4.04,1.9c-4.118,0-7.455-3.884-7.455-8.628s3.441-8.6,7.663-8.6a4.589,4.589,0,0,1,3.832,1.9s.287-1.72,1.825-1.72Zm-1.955,8.445c0-2.919-1.59-4.978-3.806-4.978-2.111,0-3.779,2.189-3.779,4.952s1.694,4.979,3.806,4.979C252.085,53.122,253.675,51.062,253.675,48.169Z"/>
        </g>
      </g>
    </g>
    <path class="b" d="M118.225,92.735v-6.7h2.9l5.024,6.7h5.137l-6.071-8.081A7.443,7.443,0,0,0,120.9,71.142h-6.781V92.735Zm0-17.494H120.9a3.347,3.347,0,1,1,0,6.694h-2.678Z"/>
  </g>
</svg>
