<svg xmlns="http://www.w3.org/2000/svg" width="325" height="98" viewBox="0 0 325 98">
  <defs>
    <style>
      .a {
        fill: #fff;
      }

      .b {
        fill: none;
      }

      .c {
        fill: #bf0000;
      }
    </style>
  </defs>
  <title>logo_generalinsurance_01</title>
  <rect class="a" width="325" height="98"/>
  <g>
    <path class="b" d="M160.842,47.593V40.6h2.987l5.187,6.916H173.7l-6.061-8.031a7.423,7.423,0,0,0,3.1-5.842A7.663,7.663,0,0,0,163.018,26H157V47.517h3.842Zm0-17.751h2.7a3.458,3.458,0,1,1,.049,6.916h-2.751Z"/>
    <g>
      <rect class="b" x="59.868" y="34.761" width="205.264" height="24.832"/>
      <g>
        <g>
          <polygon class="c" points="144.629 59.593 80.926 59.593 86.001 64.667 144.629 59.593"/>
          <path class="c" d="M86.827,39.068v.767a6.436,6.436,0,0,0-3.7-1.191c-4.463,0-7.853,4.069-7.853,9.067s3.39,9.067,7.853,9.067a6.422,6.422,0,0,0,3.7-1.191v.767H90.75V39.068Zm-3.7,13.548c-2.2,0-3.812-2.167-3.812-4.905s1.612-4.9,3.812-4.9,3.756,2.167,3.756,4.9S85.334,52.616,83.131,52.616Z"/>
          <path class="c" d="M118.253,39.068V49.222a3.227,3.227,0,1,1-6.428,0V39.068H107.9V49.222c0,4.167,2.85,7.556,7.017,7.556a6.016,6.016,0,0,0,3.334-1.067v.643h3.923V39.068Z"/>
          <path class="c" d="M154.808,56.354V46.2a3.227,3.227,0,1,1,6.429,0V56.354h3.923V46.2c0-4.166-2.85-7.555-7.017-7.555a6.022,6.022,0,0,0-3.335,1.067v-.643h-3.923V56.354Z"/>
          <path class="c" d="M63.971,56.354v-6.7h2.9l5.024,6.7h5.136l-6.071-8.081a7.443,7.443,0,0,0-4.314-13.512h-6.78V56.354Zm0-17.494h2.677a3.347,3.347,0,1,1,0,6.694H63.971Z"/>
          <path class="c" d="M132.75,52.263a2.325,2.325,0,0,1-1.312.426,1.934,1.934,0,0,1-1.849-2.121v-7.4h3.355v-4.1h-3.355V34.76h-3.923v4.308H123.59v4.1h2.076v7.457a5.9,5.9,0,0,0,5.832,6.165,8.085,8.085,0,0,0,3.838-1.088Z"/>
          <polygon class="c" points="100.503 47.171 107.233 39.068 101.733 39.068 97.027 45.09 97.027 33.333 92.987 33.333 92.987 56.354 97.027 56.354 97.027 49.253 102.813 56.354 108.31 56.354 100.503 47.171"/>
          <path class="c" d="M141.812,38.63c-4.541,0-7.8,3.99-7.8,9.081,0,5.353,4.088,9.083,8.187,9.083a8.186,8.186,0,0,0,6.948-3.87l-3.465-2c-2.68,3.95-7.146,1.945-7.661-2.005l11.3,0C150.29,42.713,146.276,38.63,141.812,38.63Zm3.424,6.85h-7.065C139,41.431,144.472,41.2,145.236,45.48Z"/>
        </g>
        <g>
          <path class="c" d="M177.619,44.227a23.953,23.953,0,0,1-5.432,2.832l-.766-2.948a20.11,20.11,0,0,0,5.409-2.576Zm3.621,2.182h-3.366V36.521h2.785a6.243,6.243,0,0,0,.535-1.486h3.133a12.247,12.247,0,0,1-.557,1.486h3.784v9.888h-3.482v1.138h9.47v2.646H186.37a27.715,27.715,0,0,0,7.5,3.528l-1.625,2.786a28.331,28.331,0,0,1-8.17-5.269V56.9H181.24V51.493a27.873,27.873,0,0,1-8.264,5.06L171.491,53.7a24.07,24.07,0,0,0,7.683-3.505h-7.405V47.547h9.471Zm-7.892-10.492a18.887,18.887,0,0,1,4.178,2.763l-1.648,2.344a16.715,16.715,0,0,0-4.039-2.855Zm7.149,2.855V40.42h4.41V38.772Zm0,3.575v1.764h4.41V42.347Zm8.635-1.068a21.931,21.931,0,0,1,4.945,3.227l-1.811,2.623a17.854,17.854,0,0,0-4.666-3.436Zm4.434-3.621a23.61,23.61,0,0,1-3.737,3.575l-1.858-2.112a19.806,19.806,0,0,0,3.575-3.366Z"/>
          <path class="c" d="M204.872,43.368c.046-.672.069-1,.069-1.856V38.54h-9.285V35.778h21.773V38.54h-9.517v2.948c0,.813-.023,1.091-.069,1.88h8.936v2.763h-8.217c1.207,3.852,5.037,6.36,9.215,7.823l-1.717,2.971c-4.689-2.043-8.055-5.177-9.424-8.658-2.09,4.8-6.291,7.264-9.587,8.681l-1.741-2.994c4.225-1.208,7.683-3.483,9.029-7.823h-7.984V43.368Z"/>
          <path class="c" d="M227.018,47.5c-.906.419-1.44.651-2.113.906v6.453c0,.951-.232,2.135-2.438,2.135h-2.39l-.4-2.924h1.741c.58,0,.719-.047.719-.6V49.357c-.765.232-1.253.371-2.413.7l-.4-2.948c.743-.163,1.3-.279,2.808-.72V41.743h-2.669V39.051h2.669V35.128h2.763v3.923h2.159v2.692h-2.159v3.784a20.572,20.572,0,0,0,2-.789Zm13.253,9.68a17.318,17.318,0,0,1-5.06-2.553l1.486-1.719h-5.363l1.509,1.579a14.969,14.969,0,0,1-5.756,2.647l-1.253-2.415a14.524,14.524,0,0,0,5.292-1.811h-3.412V42.278h13v10.63h-3.854a13.434,13.434,0,0,0,4.758,1.835Zm.046-15.97H228.2V35.824h12.116Zm-2.3,2.994h-7.567v1.161h7.567Zm0,2.808h-7.567v1.162h7.567Zm0,2.832h-7.567v1.208h7.567Zm-.511-11.954H230.94v1.417h6.569Z"/>
          <path class="c" d="M244.822,46.34c-.534.649-.72.859-1.254,1.416l-1-3.877a18.56,18.56,0,0,0,3.6-8.867l2.879.325a28.742,28.742,0,0,1-1.439,5.71V56.971h-2.786Zm3.389,7.149a15.906,15.906,0,0,0,5.919-5.315h-5.153V45.551h6.5V43.624h-5.2V35.778h13.278v7.846h-5.315v1.927h6.5v2.623h-5.083a17.2,17.2,0,0,0,5.477,5.454l-1.694,2.577a19.15,19.15,0,0,1-5.2-5.78v6.546h-2.763V50.5a17.244,17.244,0,0,1-5.594,5.524Zm4.874-15.2v2.879h7.683V38.285Z"/>
        </g>
      </g>
    </g>
    <path class="b" d="M60.316,88.735v-6.7h2.9l5.024,6.7h5.137l-6.071-8.081a7.443,7.443,0,0,0-4.314-13.512H56.213V88.735Zm0-17.494h2.678a3.347,3.347,0,1,1,0,6.694H60.316Z"/>
  </g>
</svg>
