<svg xmlns="http://www.w3.org/2000/svg" width="325" height="98" viewBox="0 0 325 98">
  <defs>
    <style>
      .a {
        fill: #fff;
      }

      .b {
        fill: none;
      }

      .c {
        fill: #bf0000;
      }
    </style>
  </defs>
  <title>logo_linkshare_02</title>
  <rect class="a" width="325" height="98"/>
  <g>
    <g>
      <rect class="b" x="95.175" y="22.136" width="134.651" height="54.738"/>
      <g>
        <g>
          <g>
            <path class="c" d="M224.559,56.777v3.676h-.468V56.777h-1.17v-.416h2.808v.416Z"/>
            <path class="c" d="M229.825,56.361v4.092h-.467v-3.5l-1.222,1.991-1.222-1.991v3.5h-.468V56.361h.629l1.061,1.752,1.06-1.752Z"/>
          </g>
          <g>
            <path class="c" d="M95.175,76.874V56.361h2.346V74.685h8.236v2.189Z"/>
            <path class="c" d="M110.247,76.874H107.9V56.361h2.346Z"/>
            <path class="c" d="M115.833,56.361l8.993,15.978V56.361h2.345V76.874h-2.528l-9.149-16.317V76.874h-2.346V56.361Z"/>
            <path class="c" d="M141.568,76.874l-6.907-10.191-2.242,2.476v7.715h-2.346V56.361h2.346v9.618l8.758-9.618h2.971l-7.9,8.732,8.34,11.781Z"/>
            <path class="c" d="M155.692,59.88a5.986,5.986,0,0,0-4.145-1.747c-2.346,0-3.727,1.2-3.727,3.233,0,1.746.782,2.632,3.05,3.466,2.945,1.1,3.935,1.59,5,2.424a5.361,5.361,0,0,1,2.268,4.484c0,3.388-2.659,5.552-6.751,5.552a8.2,8.2,0,0,1-6.621-3.155l1.721-1.563a6.249,6.249,0,0,0,4.926,2.528c2.424,0,4.223-1.408,4.223-3.337,0-1.485-.756-2.554-2.555-3.571a31.6,31.6,0,0,0-3.493-1.537c-3.023-1.225-4.274-2.789-4.274-5.344,0-3.232,2.476-5.369,6.229-5.369a7.389,7.389,0,0,1,5.63,2.241Z"/>
            <path class="c" d="M171.573,76.874v-9.7h-9.331v9.7H159.9V56.361h2.346v8.628h9.331V56.361h2.346V76.874Z"/>
            <path class="c" d="M187.1,72h-7.455l-1.564,4.874h-2.606l6.7-20.513h2.4l6.7,20.513h-2.606Zm-.625-2.189-3.1-10.14-3.1,10.14Z"/>
            <path class="c" d="M192.832,76.874V56.361h5.657a6.489,6.489,0,0,1,6.829,6.542,5.737,5.737,0,0,1-3.754,5.735l5.031,8.236h-2.971l-4.171-7.4h-4.275v7.4Zm2.346-9.592h3.311a4.366,4.366,0,0,0,0-8.731h-3.311Z"/>
            <path class="c" d="M210.305,58.551v6.568h8.054v2.189h-8.054v7.377h9.1v2.189H207.959V56.361h11.208v2.19Z"/>
          </g>
        </g>
        <g>
          <polygon class="c" points="179.936 46.968 116.233 46.968 121.308 52.042 179.936 46.968"/>
          <path class="c" d="M122.134,26.444v.767a6.428,6.428,0,0,0-3.7-1.192c-4.463,0-7.853,4.07-7.853,9.068s3.39,9.067,7.853,9.067a6.427,6.427,0,0,0,3.7-1.191v.766h3.923V26.444Zm-3.7,13.547c-2.2,0-3.812-2.167-3.812-4.9s1.612-4.9,3.812-4.9,3.756,2.168,3.756,4.9S120.641,39.991,118.438,39.991Z"/>
          <path class="c" d="M153.56,26.444V36.6a3.227,3.227,0,1,1-6.428,0V26.444h-3.923V36.6c0,4.166,2.85,7.556,7.017,7.556a6.013,6.013,0,0,0,3.334-1.068v.643h3.923V26.444Z"/>
          <path class="c" d="M190.115,43.729V33.575a3.227,3.227,0,1,1,6.429,0V43.729h3.923V33.575c0-4.167-2.851-7.556-7.018-7.556a6.02,6.02,0,0,0-3.334,1.067v-.642h-3.923V43.729Z"/>
          <path class="c" d="M99.278,43.729v-6.7h2.9l5.024,6.7h5.136l-6.071-8.081a7.443,7.443,0,0,0-4.314-13.512h-6.78V43.729Zm0-17.493h2.677a3.347,3.347,0,1,1,0,6.693H99.278Z"/>
          <path class="c" d="M168.057,39.639a2.332,2.332,0,0,1-1.312.425,1.934,1.934,0,0,1-1.849-2.121v-7.4h3.355v-4.1H164.9V22.136h-3.923v4.307H158.9v4.1h2.076V38a5.9,5.9,0,0,0,5.832,6.166,8.085,8.085,0,0,0,3.838-1.088Z"/>
          <polygon class="c" points="135.81 34.546 142.54 26.444 137.04 26.444 132.334 32.465 132.334 20.708 128.294 20.708 128.294 43.729 132.334 43.729 132.334 36.629 138.12 43.729 143.617 43.729 135.81 34.546"/>
          <path class="c" d="M177.119,26.005c-4.541,0-7.8,3.99-7.8,9.081,0,5.354,4.088,9.083,8.187,9.083a8.186,8.186,0,0,0,6.948-3.869l-3.465-2c-2.68,3.95-7.146,1.945-7.661-2.005l11.3,0C185.6,30.088,181.583,26.005,177.119,26.005Zm3.424,6.85h-7.065C174.3,28.807,179.779,28.574,180.543,32.855Z"/>
        </g>
      </g>
    </g>
    <path class="b" d="M254.666,37.1v-6.7h2.9l5.024,6.7h5.136l-6.071-8.081a7.443,7.443,0,0,0-4.314-13.512h-6.78V37.1Zm0-17.494h2.677a3.347,3.347,0,1,1,0,6.694h-2.677Z"/>
  </g>
</svg>
