<svg xmlns="http://www.w3.org/2000/svg" width="325" height="98" viewBox="0 0 325 98">
  <defs>
    <style>
      .a {
        fill: #fff;
      }

      .b {
        fill: none;
      }

      .c {
        fill: #ff41be;
      }
    </style>
  </defs>
  <title>logo_raxy_01</title>
  <rect class="a" width="325" height="98"/>
  <g>
    <rect class="b" x="75.756" y="34.761" width="173.489" height="24.832"/>
    <g>
      <g>
        <polygon class="c" points="160.517 59.593 96.814 59.593 101.888 64.667 160.517 59.593"/>
        <path class="c" d="M102.715,39.068v.767a6.436,6.436,0,0,0-3.7-1.191c-4.463,0-7.853,4.069-7.853,9.067s3.39,9.067,7.853,9.067a6.422,6.422,0,0,0,3.7-1.191v.767h3.923V39.068Zm-3.7,13.548c-2.2,0-3.812-2.167-3.812-4.905s1.611-4.9,3.812-4.9,3.756,2.167,3.756,4.9S101.222,52.616,99.019,52.616Z"/>
        <path class="c" d="M134.141,39.068V49.222a3.227,3.227,0,1,1-6.428,0V39.068H123.79V49.222c0,4.167,2.85,7.556,7.017,7.556a6.016,6.016,0,0,0,3.334-1.067v.643h3.923V39.068Z"/>
        <path class="c" d="M170.7,56.354V46.2a3.227,3.227,0,1,1,6.429,0V56.354h3.923V46.2c0-4.166-2.85-7.555-7.017-7.555a6.022,6.022,0,0,0-3.335,1.067v-.643h-3.923V56.354Z"/>
        <path class="c" d="M79.859,56.354v-6.7h2.9l5.024,6.7h5.136L86.85,48.273a7.443,7.443,0,0,0-4.314-13.512h-6.78V56.354Zm0-17.494h2.677a3.347,3.347,0,1,1,0,6.694H79.859Z"/>
        <path class="c" d="M148.638,52.264a2.332,2.332,0,0,1-1.312.425,1.934,1.934,0,0,1-1.849-2.121v-7.4h3.355v-4.1h-3.355V34.76h-3.924v4.308h-2.076v4.1h2.076v7.457a5.9,5.9,0,0,0,5.832,6.165,8.085,8.085,0,0,0,3.838-1.088Z"/>
        <polygon class="c" points="116.391 47.171 123.121 39.068 117.621 39.068 112.915 45.09 112.915 33.333 108.875 33.333 108.875 56.354 112.915 56.354 112.915 49.253 118.701 56.354 124.198 56.354 116.391 47.171"/>
        <path class="c" d="M157.7,38.63c-4.541,0-7.8,3.99-7.8,9.081,0,5.353,4.088,9.083,8.188,9.083a8.186,8.186,0,0,0,6.947-3.87l-3.465-2c-2.68,3.95-7.146,1.945-7.661-2l11.3,0C166.178,42.713,162.164,38.63,157.7,38.63Zm3.425,6.85h-7.066C154.884,41.431,160.36,41.2,161.125,45.48Z"/>
      </g>
      <g>
        <path class="c" d="M212.851,46.994h-4.265a.875.875,0,0,0,0,1.749h4.265a.875.875,0,1,0,0-1.749Z"/>
        <path class="c" d="M229.179,48.175a.875.875,0,1,0-1.393,1.059l5.458,7.187a.9.9,0,0,0,1.226.167.888.888,0,0,0,.168-1.226Z"/>
        <path class="c" d="M248.85,35.981a.876.876,0,0,0-1.211.252L240.972,46.4l-1.683-2.711a.858.858,0,0,0-1.2-.282.9.9,0,0,0-.281,1.2l2.3,3.635v7.64a.884.884,0,0,0,.875.875.863.863,0,0,0,.874-.875v-7.64L249.1,37.192A.876.876,0,0,0,248.85,35.981Z"/>
        <path class="c" d="M237.79,41.268l-3.114-5.051a.782.782,0,0,0-.722-.372.876.876,0,0,0-.727.372l-5.459,7.153a.875.875,0,0,0,1.394,1.058l4.694-6.18,2.447,3.943a.875.875,0,1,0,1.487-.923Z"/>
        <path class="c" d="M218.635,36.011a.876.876,0,0,0-.179,1.224L225.2,46.3l-5.944,8.045-7.278-17.616a1.292,1.292,0,0,0-1.3-.887,1.257,1.257,0,0,0-1.276.86L202.26,54.342l-5.029-7.374h-7.923v-7.4c0-1.2-.16-2.088,1.714-2.088h3.412c1.925,0,2.752.089,3.759.824a4.458,4.458,0,0,1,1.606,3.739,4.366,4.366,0,0,1-1.207,3.472.778.778,0,0,0,.209,1.1c.427.24,1.151-.162,1.542-.725a6.468,6.468,0,0,0,1.149-3.852,5.9,5.9,0,0,0-1.955-4.723c-1.257-1.038-1.985-1.482-5.036-1.482H190.24a2.785,2.785,0,0,0-2.128.77,3.086,3.086,0,0,0-.586,2.286V55.88a.849.849,0,0,0,.891.876.833.833,0,0,0,.891-.876V48.724h7l5.076,7.339c.281.376.431.693.993.693a1.053,1.053,0,0,0,.948-.724c.206-.457,7.209-17.752,7.376-18.5.166.721,7.214,18.3,7.317,18.5a1.2,1.2,0,0,0,1.024.724c.314,0,.6-.082,1.115-.753l7.234-9.706L219.859,36.19A.876.876,0,0,0,218.635,36.011Z"/>
      </g>
    </g>
  </g>
</svg>
