<?xml version="1.0" encoding="utf-8"?>
<!-- Generator: Adobe Illustrator 28.1.0, SVG Export Plug-In . SVG Version: 6.00 Build 0)  -->
<svg version="1.1" id="レイヤー_1" xmlns="http://www.w3.org/2000/svg" xmlns:xlink="http://www.w3.org/1999/xlink" x="0px"
	 y="0px" viewBox="0 0 325 98" style="enable-background:new 0 0 325 98;" xml:space="preserve">
<style type="text/css">
	.st0{fill:#FFFFFF;}
	.st1{fill:none;}
	.st2{fill:#BF0000;}
</style>
<rect class="st0" width="325" height="98"/>
<g>
	<path class="st1" d="M54.7,72.2c-1.2,0-2.2-1-2.2-2.2V27.9c0-1.2,1-2.2,2.2-2.2h215.5c1.2,0,2.2,1,2.2,2.2v42.1
		c0,1.2-1,2.2-2.2,2.2H54.7z"/>
	<g>
		<g>
			<rect x="63.4" y="36.6" class="st1" width="198.3" height="24.8"/>
		</g>
		<g>
			<g>
				<polygon class="st2" points="148.2,61.4 84.4,61.4 89.5,66.5 				"/>
				<path class="st2" d="M90.3,40.9v0.8c-1.2-0.8-2.2-1.2-3.7-1.2c-4.5,0-7.9,4.1-7.9,9.1c0,5,3.4,9.1,7.9,9.1
					c1.5,0,2.5-0.4,3.7-1.2v0.8h3.9V40.9H90.3z M86.6,54.4c-2.2,0-3.8-2.2-3.8-4.9c0-2.7,1.6-4.9,3.8-4.9c2.2,0,3.8,2.2,3.8,4.9
					C90.4,52.3,88.8,54.4,86.6,54.4z"/>
				<path class="st2" d="M121.8,40.9V51c0,1.9-1.3,3.5-3.2,3.5c-1.9,0-3.2-1.6-3.2-3.5V40.9h-3.9V51c0,4.2,2.9,7.6,7,7.6
					c1.9,0,3.3-1.1,3.3-1.1v0.6h3.9V40.9H121.8z"/>
				<path class="st2" d="M158.3,58.2V48c0-1.9,1.3-3.5,3.2-3.5c1.9,0,3.2,1.6,3.2,3.5v10.2h3.9V48c0-4.2-2.9-7.6-7-7.6
					c-1.9,0-3.3,1.1-3.3,1.1v-0.6h-3.9v17.3H158.3z"/>
				<path class="st2" d="M67.5,58.2v-6.7h2.9l5,6.7h5.1l-6.1-8.1c1.9-1.4,3.1-3.6,3.1-6.1c0-4.1-3.3-7.4-7.5-7.4h-6.8v21.6H67.5z
					 M67.5,40.7h2.7c1.8,0,3.4,1.5,3.4,3.3c0,1.9-1.5,3.4-3.4,3.4h-2.7V40.7z"/>
				<path class="st2" d="M136.3,54.1c-0.4,0.2-0.8,0.4-1.3,0.4c-0.6,0-1.9-0.5-1.9-2.1V45h3.4v-4.1h-3.4l0-4.3h-3.9l0,4.3h-2.1V45
					h2.1v7.5c0,3.9,2.9,6.2,5.8,6.2c1.1,0,2.6-0.4,3.8-1.1L136.3,54.1z"/>
				<polygon class="st2" points="104,49 110.8,40.9 105.3,40.9 100.5,46.9 100.5,35.2 96.5,35.2 96.5,58.2 100.5,58.2 100.5,51.1 
					106.3,58.2 111.8,58.2 				"/>
				<path class="st2" d="M145.3,40.4c-4.5,0-7.8,4-7.8,9.1c0,5.4,4.1,9.1,8.2,9.1c2.1,0,4.7-0.7,7-3.9l-3.5-2c-2.7,4-7.1,1.9-7.7-2
					l11.3,0C153.8,44.5,149.8,40.4,145.3,40.4z M148.8,47.3h-7.1C142.5,43.3,148,43,148.8,47.3z"/>
			</g>
			<g>
				<path class="st2" d="M180,58.2l-5.3-20.5h4.7l3.4,15.8l3.3-15.7h4.8l3.3,15.8l3.4-15.9h4.5l-5.3,20.5h-5.1l-3.3-14.5l-3.3,14.5
					H180z"/>
				<path class="st2" d="M209.2,58.5c-1.4,0-2.6-0.4-3.7-1.1c-1.1-0.7-2-1.7-2.6-3c-0.7-1.3-1-2.8-1-4.5c0-1.7,0.3-3.2,1-4.5
					c0.6-1.3,1.5-2.3,2.6-3c1.1-0.7,2.4-1.1,3.7-1.1c1.2,0,2.2,0.3,3.1,0.9c0.9,0.6,1.6,1.3,2,2.3l0.4-2.8h3.4v16.5h-3.4l-0.3-2.7
					c-0.5,0.9-1.1,1.7-2.1,2.2C211.4,58.3,210.4,58.5,209.2,58.5z M210.1,54.8c1.2,0,2.2-0.5,2.9-1.4c0.8-0.9,1.2-2.1,1.2-3.6
					c0-1.5-0.4-2.6-1.2-3.6c-0.8-0.9-1.7-1.4-2.9-1.4c-1.2,0-2.2,0.5-2.9,1.4c-0.8,0.9-1.1,2.1-1.1,3.6c0,1.5,0.4,2.6,1.1,3.6
					C208,54.4,208.9,54.8,210.1,54.8z"/>
				<path class="st2" d="M220.8,58.2V35.3h4v22.8H220.8z"/>
				<path class="st2" d="M227.4,58.2V35.3h4v22.8H227.4z"/>
				<path class="st2" d="M241.5,58.6c-1.7,0-3.2-0.4-4.4-1.1c-1.2-0.7-2.2-1.7-2.9-3c-0.7-1.3-1-2.8-1-4.6c0-1.7,0.3-3.2,1-4.5
					c0.7-1.3,1.6-2.3,2.8-3.1c1.2-0.8,2.5-1.1,4-1.1c1.5,0,2.8,0.4,4,1.1c1.1,0.7,2,1.7,2.7,3c0.6,1.3,1,2.8,1,4.5V51h-11.3
					c0.3,2.8,1.9,4.2,4.6,4.2c1.8,0,3.4-0.8,4.8-2.4l1.7,3c-0.9,0.9-1.9,1.6-3.1,2.1C244.1,58.4,242.8,58.6,241.5,58.6z M240.9,44.4
					c-1,0-1.8,0.3-2.4,1c-0.6,0.7-1,1.6-1.2,2.8h7.3c-0.2-1.2-0.5-2.2-1.2-2.8C242.8,44.8,241.9,44.4,240.9,44.4z"/>
				<path class="st2" d="M257.4,58.5c-3.6,0-5.3-2-5.3-6.1v-7.3h-2.6v-3.5h2.6v-4.1h4v4.1h5.3v3.5h-5.3v7.1c0,1.7,0.7,2.6,2,2.6
					c0.9,0,1.9-0.4,2.8-1.1l0.8,3.7C260.5,58.2,259.1,58.5,257.4,58.5z"/>
			</g>
		</g>
	</g>
</g>
</svg>
