<?xml version="1.0" encoding="UTF-8"?><svg id="_レイヤー_1" xmlns="http://www.w3.org/2000/svg" viewBox="0 0 595.28 595.28"><defs><style>.cls-1{fill:#fff;}.cls-2{fill:#7360f2;}</style></defs><g id="color"><circle class="cls-2" cx="297.64" cy="297.64" r="297.64"/><g><path class="cls-1" d="m420.28,175.49c-8.3-7.66-41.85-32.01-116.57-32.34,0,0-88.11-5.31-131.07,34.09-23.91,23.92-32.32,58.91-33.21,102.29-.89,43.38-2.04,124.69,76.34,146.74h.08l-.05,33.64s-.5,13.62,8.47,16.4c10.85,3.37,17.21-6.98,27.57-18.14,5.68-6.13,13.53-15.12,19.45-22,53.6,4.51,94.83-5.8,99.51-7.32,10.82-3.51,72.06-11.35,82.02-92.65,10.28-83.8-4.97-136.8-32.54-160.69Zm9.08,154.68c-8.41,67.88-58.08,72.15-67.24,75.09-3.89,1.25-40.1,10.26-85.63,7.29,0,0-33.93,40.93-44.52,51.57-1.65,1.66-3.6,2.34-4.9,2.01-1.82-.45-2.33-2.61-2.31-5.76.03-4.51.29-55.9.29-55.9,0,0-.04,0,0,0-66.3-18.41-62.43-87.61-61.68-123.84.75-36.24,7.56-65.92,27.78-85.89,36.33-32.91,111.18-27.99,111.18-27.99,63.21.28,93.49,19.31,100.51,25.69,23.32,19.97,35.2,67.74,26.51,137.73v.02Z"/><path class="cls-1" d="m334.47,281.86c-2.24,0-4.1-1.76-4.22-4.02-.71-14.36-7.47-21.38-21.25-22.1-2.33-.12-4.12-2.11-4-4.44.12-2.33,2.11-4.13,4.44-4,18.21.95,28.32,11.37,29.25,30.12.12,2.33-1.68,4.31-4.01,4.43-.07,0-.14,0-.21,0Z"/><path class="cls-1" d="m356.15,289.13s-.06,0-.09,0c-2.33-.05-4.18-1.98-4.13-4.32.31-14.44-3.81-26.14-12.61-35.75-8.79-9.59-20.83-14.83-36.82-16-2.33-.17-4.08-2.2-3.91-4.52.17-2.33,2.19-4.07,4.52-3.91,17.98,1.32,32.26,7.61,42.43,18.72,10.2,11.14,15.19,25.15,14.83,41.64-.05,2.3-1.93,4.13-4.22,4.13Z"/><path class="cls-1" d="m378.35,297.81c-2.32,0-4.21-1.87-4.23-4.19-.19-25.5-7.84-45.79-22.74-60.31-14.92-14.55-33.78-22-56.05-22.16-2.33-.02-4.21-1.92-4.2-4.25.02-2.32,1.9-4.2,4.22-4.2.01,0,.02,0,.03,0,24.53.17,45.35,8.43,61.89,24.56,16.57,16.15,25.08,38.46,25.29,66.29.02,2.33-1.86,4.24-4.19,4.26-.01,0-.02,0-.03,0Z"/><path class="cls-1" d="m310.05,334.23s5.94.5,9.14-3.44l6.24-7.84c3.01-3.89,10.27-6.37,17.37-2.41,5.33,3.04,10.5,6.34,15.49,9.9,4.72,3.47,14.38,11.53,14.41,11.53,4.6,3.88,5.66,9.59,2.53,15.6,0,.04-.03.1-.03.13-3.45,5.98-7.83,11.38-12.98,15.98-.06.03-.06.06-.12.09-4.47,3.74-8.86,5.86-13.18,6.37-.64.11-1.28.15-1.92.12-1.9.02-3.8-.27-5.6-.86l-.14-.21c-6.65-1.87-17.74-6.57-36.23-16.76-10.7-5.83-20.88-12.56-30.44-20.11-4.79-3.78-9.36-7.84-13.69-12.14l-.46-.46-.46-.46h0l-.46-.47c-.16-.15-.31-.31-.46-.46-4.31-4.33-8.36-8.9-12.14-13.69-7.55-9.56-14.27-19.74-20.11-30.43-10.2-18.49-14.89-29.57-16.76-36.23l-.21-.14c-.59-1.81-.88-3.7-.86-5.6-.04-.64,0-1.29.12-1.92.54-4.3,2.67-8.7,6.38-13.18.03-.06.06-.06.09-.12,4.6-5.15,10-9.53,15.98-12.97.03,0,.09-.03.13-.03,6.02-3.13,11.72-2.07,15.6,2.51.03.03,8.08,9.69,11.53,14.41,3.56,5,6.86,10.18,9.9,15.51,3.96,7.1,1.48,14.38-2.41,17.37l-7.84,6.24c-3.96,3.2-3.44,9.14-3.44,9.14,0,0,11.62,43.98,55.03,55.06Z"/></g></g></svg>