<?xml version="1.0" encoding="utf-8"?>
<!-- Generator: Adobe Illustrator 22.0.1, SVG Export Plug-In . SVG Version: 6.00 Build 0)  -->
<svg version="1.1" id="レイヤー_1" xmlns="http://www.w3.org/2000/svg" xmlns:xlink="http://www.w3.org/1999/xlink" x="0px"
	 y="0px" viewBox="0 0 796 105.2" style="enable-background:new 0 0 796 105.2;" xml:space="preserve">
<style type="text/css">
	.st0{fill:#FFFFFF;}
	.st1{fill:#231815;}
	.st2{fill:#A8002E;}
	.st3{fill:#0D0D0D;}
	.st4{fill:#070707;}
	.st5{fill:#090909;}
	.st6{fill:#0B0B0B;}
	.st7{fill:#060606;}
</style>
<title>vsl_logo.svg</title>
<path class="st0" d="M153,7.8l-2.7,1.3c-5.6,2.7-11.9,5.7-16.5,7.4l-1.9,0.7l0.1,2.1c0.1,1.5,1.5,37.7,4.5,49
	c3.2,12,9.7,21.8,19.3,29.2c4.8,3.7,10.3,6.6,16.1,8.6l0.9,0.3l1-0.3c5.8-2,11.2-4.9,16.1-8.6c9.6-7.4,16.1-17.2,19.3-29.2
	c3-11.4,4.5-47.5,4.5-49l0.1-2.1l-1.9-0.7c-4.6-1.6-10.9-4.7-16.5-7.4l-2.7-1.3c-5.8-2.9-12.9-6.5-19.8-6.5
	C165.9,1.4,158.8,4.9,153,7.8"/>
<path class="st1" d="M153.6,8.9l-2.7,1.3c-5.6,2.7-12,5.8-16.7,7.4l-1.1,0.4l0,1.2c0.1,1.5,1.5,37.5,4.5,48.7
	c3.1,11.7,9.5,21.3,18.8,28.5c4.7,3.6,10,6.5,15.7,8.4l0.5,0.2l0,0l0.6-0.2c5.7-1.9,11-4.7,15.7-8.4c9.4-7.2,15.7-16.8,18.8-28.5
	c3-11.2,4.4-47.2,4.5-48.7l0-1.2l-1.1-0.4c-4.7-1.6-11-4.7-16.6-7.4L192,8.9c-5.6-2.8-12.6-6.3-19.2-6.3
	C166.2,2.6,159.2,6.1,153.6,8.9 M152.3,13.1l2.7-1.4c5.3-2.7,12-6,17.8-6s12.5,3.3,17.8,6l2.7,1.4c5.5,2.6,11.2,5.4,15.9,7.1
	c-0.3,6.3-1.7,37.1-4.3,46.9c-3,11-8.9,20.1-17.7,26.8c-4.3,3.3-9.2,5.9-14.4,7.7c-5.2-1.8-10-4.4-14.4-7.7
	c-8.8-6.8-14.8-15.8-17.7-26.8c-2.6-9.8-4.1-40.6-4.3-46.9C141.1,18.5,146.7,15.7,152.3,13.1"/>
<polygon class="st2" points="164.8,43.7 162,48.9 160.8,43.7 158.3,43.7 160.8,54.2 161.6,54.2 167.4,43.7 "/>
<polygon class="st2" points="167.8,43.7 167.8,46 169.4,46 168.5,51.7 166.8,51.7 166.8,54 172.3,54 172.3,51.7 170.8,51.7 
	171.7,46 173.3,46 173.3,43.7 "/>
<path class="st2" d="M177.3,43.8c-0.4,0.1-0.8,0.4-1.2,0.6c-0.8,0.5-1.3,1.4-1.4,2.3c0,0.2,0,0.4,0,0.5c0,0.3,0,0.5,0.1,0.8
	c0.1,0.4,0.3,0.7,0.6,0.9c0.5,0.4,1.2,0.8,1.8,1c0.9,0.4,1.4,0.6,1.4,1c0,0,0,0.1,0,0.1l0,0c-0.1,0.6-0.9,0.9-1.5,0.9
	c-0.4,0-0.7-0.1-1.1-0.2c-0.4-0.2-0.8-0.4-1.2-0.6l-0.4-0.2l-0.6,2.1l0.2,0.1c0.4,0.3,0.8,0.6,1.3,0.8c0.5,0.2,1,0.3,1.5,0.3
	c0.9,0,1.9-0.3,2.6-0.8c0.4-0.3,0.7-0.6,1-1.1c0.3-0.4,0.5-0.9,0.5-1.4c0-0.2,0.1-0.3,0.1-0.5c0-0.6-0.3-1.3-0.7-1.7
	c-0.5-0.4-1.1-0.8-1.8-1c-0.4-0.1-0.8-0.3-1.1-0.5c-0.2-0.1-0.3-0.3-0.3-0.5c0,0,0-0.1,0-0.1c0.1-0.2,0.2-0.4,0.4-0.5
	c0.3-0.2,0.6-0.3,1-0.3c0.3,0,0.7,0.1,1,0.2c0.3,0.1,0.6,0.3,0.9,0.5l0.3,0.2l1.1-1.9l-0.2-0.2c-0.4-0.4-0.8-0.7-1.3-0.9
	c-0.5-0.2-1-0.3-1.5-0.3C178.2,43.5,177.7,43.6,177.3,43.8 M174.7,46.7L174.7,46.7z M180.9,50.9L180.9,50.9"/>
<path class="st2" d="M185.5,43.8c-0.4,0.1-0.8,0.4-1.2,0.6c-0.8,0.5-1.3,1.4-1.4,2.3c0,0.2,0,0.4,0,0.5c0,0.3,0,0.5,0.1,0.8
	c0.1,0.4,0.3,0.7,0.6,0.9c0.5,0.4,1.1,0.8,1.8,1c0.9,0.4,1.4,0.6,1.4,1c0,0,0,0.1,0,0.1l0,0c-0.1,0.6-0.9,0.9-1.5,0.9
	c-0.4,0-0.7-0.1-1.1-0.2c-0.4-0.2-0.8-0.4-1.2-0.6l-0.4-0.2l-0.6,2.1l0.2,0.1c0.4,0.3,0.8,0.6,1.3,0.8c0.5,0.2,1,0.3,1.5,0.3
	c0.9,0,1.9-0.3,2.6-0.8c0.4-0.3,0.7-0.6,1-1.1c0.3-0.4,0.5-0.9,0.5-1.4c0-0.2,0-0.3,0-0.5c0-0.3,0-0.5-0.1-0.8
	c-0.1-0.3-0.3-0.6-0.6-0.9c-0.5-0.4-1.1-0.8-1.8-1c-0.4-0.1-0.8-0.3-1.1-0.5c-0.2-0.1-0.3-0.3-0.3-0.5c0,0,0-0.1,0-0.1
	c0.1-0.2,0.2-0.4,0.4-0.5c0.3-0.2,0.6-0.3,1-0.3c0.3,0,0.7,0.1,1,0.2c0.3,0.1,0.6,0.3,0.9,0.5l0.3,0.2l1.1-1.9l-0.2-0.2
	c-0.4-0.4-0.8-0.7-1.3-0.9c-0.5-0.2-1-0.3-1.5-0.3C186.4,43.5,185.9,43.6,185.5,43.8 M182.8,46.7L182.8,46.7z M189.1,50.9
	L189.1,50.9"/>
<polygon class="st2" points="191.8,43.7 191.8,45.6 190.5,54 196.3,54 196.3,51.7 193.2,51.7 193.5,49.5 196.8,49.5 196.8,47.2 
	193.9,47.2 194.1,46 197.3,46 197.3,43.7 "/>
<polygon class="st2" points="199.7,43.7 199.7,45.6 198.4,54 203.8,54 203.8,51.7 201.1,51.7 202.4,43.7 "/>
<polygon class="st2" points="149.3,50.5 140.3,37.7 149.3,58.3 158.3,37.7 "/>
<path class="st1" d="M145.3,19.3c-2.1,1-4.2,1.9-6.2,2.7c0.1,3,0.4,8,0.7,13.6h5.5V19.3z"/>
<path class="st1" d="M143.3,66.5c0.5,2.1,1.2,4.1,2,6.1V60.4h-3.2C142.4,62.4,142.8,64.5,143.3,66.5"/>
<path class="st1" d="M157.7,13.3l-1.5,0.8l-2.8,1.4l-2.6,1.3v18.9h6.9V13.3z"/>
<path class="st1" d="M150.8,82.4c2,2.8,4.3,5.3,6.9,7.6V60.4h-6.9V82.4z"/>
<path class="st1" d="M163.1,94.1c2.2,1.4,4.5,2.7,6.9,3.7V60.4h-6.9V94.1z"/>
<path class="st1" d="M170.1,8.6c-2.4,0.5-4.7,1.2-6.9,2.2v24.8h6.9V8.6z"/>
<path class="st1" d="M182.5,10.8c-2.2-1-4.6-1.7-6.9-2.2v27h6.9V10.8z"/>
<path class="st1" d="M175.5,97.8c2.4-1.1,4.7-2.3,6.9-3.7V60.4h-6.9V97.8z"/>
<path class="st1" d="M194.8,16.7l-2.6-1.3l-2.8-1.4l-1.6-0.8v22.3h6.9L194.8,16.7z"/>
<path class="st1" d="M187.9,90c2.6-2.2,4.9-4.8,6.9-7.5V60.4h-6.9V90z"/>
<path class="st1" d="M200.3,72.6c0.8-2,1.5-4.1,2.1-6.2c0.5-2,0.9-4,1.1-6.1h-3.2V72.6z"/>
<path class="st1" d="M206.5,22c-2-0.8-4.1-1.7-6.2-2.7v16.4h5.5C206.2,30,206.4,25,206.5,22"/>
<g>
	<path class="st3" d="M652.4,34.1c0,5,0,9.2,0,13.8c6.6,0,13,0,19.7,0c0,3.5,0,6.6,0,10.1c-6.5,0-12.8,0-19.4,0c0,5.4,0,10.3,0,15.9
		c7.2,0,14.3,0,21.6,0c0,3.7,0,6.8,0,10.1c-11.4,0-22.6,0-34.1,0c0-19.9,0-39.8,0-59.8c11.1,0,34.1,0,34.1,0l0,10
		C674.1,34.1,659.5,34.1,652.4,34.1z"/>
	<path class="st4" d="M380.3,85.1c-3.2,0.6-5.2,0.3-7.5,0.1c-12.1-1.7-16.9-7.7-15.5-19.9c3.7,0,7.5,0,11.5,0
		c0.3,1.5,0.6,2.9,0.7,4.2c0.3,3.9,2.4,6.2,6.3,6.4c3.6,0.2,6.6-0.7,7.8-4.7c1.1-3.8,0.4-7.2-3.1-9.2c-3.5-2-7.4-3.2-11.1-4.8
		c-9.9-4.3-13.7-11.6-11.3-22.1c1.6-6.9,6.2-10.7,13.1-12.1c11.3-2.3,21,2.3,23.2,11c0.5,2,0.4,4.1,0.7,6.4c-4.1,0-7.7,0-11.5,0
		c-1.2-3-0.8-7-4.6-8.2c-3.2-1-6.4-0.7-8.3,2.8c-1.9,3.5-0.8,8.2,2.8,10.2c4,2.2,8.3,3.8,12.4,5.8c9.8,4.5,12.8,10.9,10.4,21.3
		C394.4,80.9,388.2,84.1,380.3,85.1z"/>
	<path class="st5" d="M594.5,23.8c7.7,0,15.1-0.2,22.5,0.1c7.5,0.3,12,3.6,13.8,9.3c2.4,7.6,0.5,13.5-6.4,19.2
		c3.6,1.7,6.7,3.9,8.1,7.7c1.6,4.3,1.4,8.6,0.2,13c-1.9,6.9-7.7,10.8-16.7,11c-7,0.2-14,0-21.4,0C594.5,64.1,594.5,44.3,594.5,23.8z
		 M606.5,74.8c5-0.1,10.2,1.2,13-4c1.8-3.4,1.8-7.3-0.5-10.5c-3.3-4.5-8-2.7-12.5-2.8C606.5,63.4,606.5,68.8,606.5,74.8z
		 M606.5,48.3c9.7,0.4,12.9-1.7,12.7-8.1c-0.2-5.9-3.6-7.7-12.7-6.7C606.5,38.3,606.5,43.2,606.5,48.3z"/>
	<path class="st5" d="M543.2,24c-5.6,8.9-10.9,17.3-16.2,25.7c6,11.3,11.8,22.4,18,34.1c-4.8,0-9.1,0-13.9,0
		c-3.8-7.5-7.8-15.3-11.9-23.4c-3.4,3-4.6,7.9-4.6,7.9l0,15.5c0,0-7.9,0-12,0c0-19.8,0-39.6,0-59.7c3.9,0,7.6,0,11.9,0
		c0,7.3,0,14.6,0,21.8c0.3,0.1,0.7,0.2,1,0.3c4.8-7.4,9.6-14.9,14.3-22.2C534.2,24,538.3,24,543.2,24z"/>
	<path class="st4" d="M570.5,85.1c-3.1,0.3-4.6,0.3-7.5,0c-9.7-1.8-14.2-6.2-15.8-15.8c-1.7-10.3-1.7-20.7,0-31
		c1.8-10.5,8.2-15.7,19.1-15.8c11.3-0.1,17.9,5.1,19.7,15.7c1.7,10.3,1.7,20.7,0,31C584.6,78.9,580.1,83.3,570.5,85.1z M574.8,54.2
		c-0.2-5.6,0.2-11.1-1.2-16.4c-1-3.6-2.9-5.9-7-5.8c-4.1,0-6.2,2.4-6.8,6c-1.9,10.6-1.9,21.3-0.1,31.9c0.7,3.9,3,6.2,7.3,6.1
		c4.1-0.1,5.8-2.7,6.7-6.2C575,64.6,574.6,59.3,574.8,54.2z"/>
	<path class="st4" d="M336.8,85.1c-3.2,0.6-5.2,0.3-7.5,0.1c-12.1-1.7-16.9-7.7-15.5-19.9c3.7,0,7.5,0,11.5,0
		c0.3,1.5,0.6,2.9,0.7,4.2c0.3,3.9,2.4,6.2,6.3,6.4c3.6,0.2,6.6-0.7,7.8-4.7c1.1-3.8,0.4-7.2-3.1-9.2c-3.5-2-7.4-3.2-11.1-4.8
		c-9.9-4.3-13.7-11.6-11.3-22.1c1.6-6.9,6.2-10.7,13.1-12.1c11.3-2.3,21,2.3,23.2,11c0.5,2,0.4,4.1,0.7,6.4c-4.1,0-7.7,0-11.5,0
		c-1.2-3-0.8-7-4.6-8.2c-3.2-1-6.4-0.7-8.3,2.8c-1.9,3.5-0.8,8.2,2.8,10.2c4,2.2,8.3,3.8,12.4,5.8c9.8,4.5,12.8,10.9,10.4,21.3
		C350.9,80.9,344.7,84.1,336.8,85.1z"/>
	<path class="st3" d="M415.4,34.1c0,5,0,9.2,0,13.8c6.6,0,13,0,19.7,0c0,3.5,0,6.6,0,10.1c-6.5,0-12.8,0-19.4,0c0,5.4,0,10.3,0,15.9
		c7.2,0,14.3,0,21.6,0c0,3.7,0,6.8,0,10.1c-11.4,0-22.6,0-34.1,0c0-19.9,0-39.8,0-59.8c11.1,0,34.1,0,34.1,0l0,10
		C437.1,34.1,422.5,34.1,415.4,34.1z"/>
	<path class="st4" d="M276.1,84c-5.5,0-10.4,0-15.9,0c-4.5-19.8-9.1-39.5-13.8-59.8c4.5,0,8.6,0,13.2,0c2.7,13.6,5.4,27.5,8.1,41.3
		c0.3,0,0.6-0.1,0.9-0.1c2.8-13.7,5.5-27.4,8.3-41.3c4,0,7.8,0,12.8,0C285.2,44.1,280.7,63.9,276.1,84z"/>
	<path class="st6" d="M443.6,24c4.3,0,7.9,0,12,0c0,16.5,0,32.8,0,49.7c7.3,0,14.3,0,21.4,0c0,3.7,0,6.8,0,10.1
		c-11.2,0-22.2,0-33.4,0C443.6,63.9,443.6,44.1,443.6,24z"/>
	<path class="st7" d="M306.7,84c-4.2,0-7.9,0-11.9,0c0-19.8,0-60,0-60l11.9,0C306.7,24,306.7,63.8,306.7,84z"/>
</g>
</svg>
