<?xml version="1.0" encoding="utf-8"?>
<!-- Generator: Adobe Illustrator 23.0.4, SVG Export Plug-In . SVG Version: 6.00 Build 0)  -->
<svg version="1.1" id="Layer_1" xmlns="http://www.w3.org/2000/svg" xmlns:xlink="http://www.w3.org/1999/xlink" x="0px" y="0px"
	 viewBox="0 0 796 239.2" style="enable-background:new 0 0 796 239.2;" xml:space="preserve">
<style type="text/css">
	.st0{fill:#FFFFFF;}
	.st1{fill:none;}
	.st2{fill:#1D428A;}
	.st3{fill:#FFC72C;}
</style>
<g>
	<g>
		<g>
			<g>
				<g>
					<path class="st0" d="M234.6,192.4c0-6.8,3.3-11.4,10-11.4s10,4.6,10,11.4c0,6.8-3.3,11.4-10,11.4
						C237.9,203.9,234.6,199.3,234.6,192.4z M251.3,192.4c0-4.3-1.4-8.7-6.8-8.7c-5.5,0-6.8,4.4-6.8,8.7s1.3,8.7,6.8,8.7
						C250,201.2,251.3,196.7,251.3,192.4z"/>
					<path class="st0" d="M260.5,188.6h-2.7v-2.4h2.7v-4.1c0-3.1,1.4-5.3,4.8-5.3c0.9,0,1.6,0.2,1.9,0.3v2.5
						c-0.3-0.1-0.9-0.2-1.5-0.2c-1.7,0-2.2,1.1-2.2,3v3.8h3.7v2.4h-3.7v14.8h-3L260.5,188.6L260.5,188.6z"/>
					<path class="st0" d="M272.4,188.6h-2.7v-2.4h2.7v-4.1c0-3.1,1.4-5.3,4.8-5.3c0.9,0,1.6,0.2,1.9,0.3v2.5
						c-0.3-0.1-0.9-0.2-1.5-0.2c-1.7,0-2.2,1.1-2.2,3v3.8h3.7v2.4h-3.7v14.8h-3L272.4,188.6L272.4,188.6z"/>
					<path class="st0" d="M282.4,177.3h3.6v3.4h-3.6V177.3z M282.7,186.3h3v17.2h-3V186.3z"/>
					<path class="st0" d="M305.7,197.6c-0.3,4.1-3.1,6.3-7,6.3c-3.6,0-7.9-1.8-7.9-9s4.4-9,7.9-9c3.9,0,6.7,2.2,7,6.2h-2.9
						c-0.1-2-1.3-3.7-4.1-3.7c-3.2,0-4.9,2.1-4.9,6.4c0,4.3,1.7,6.4,4.9,6.4c2.7,0,4-1.7,4.1-3.7h2.9V197.6z"/>
					<path class="st0" d="M310.3,177.3h3.6v3.4h-3.6V177.3z M310.6,186.3h3v17.2h-3V186.3z"/>
					<path class="st0" d="M329.8,201.2c-0.9,1.2-3,2.6-5.9,2.6c-3.8,0-5.5-2.3-5.5-4.7c0-4.2,4.1-5.1,6.7-5.3l4.2-0.4v-0.5
						c0-3-0.4-4.6-3.6-4.6c-2.8,0-3.8,1.3-3.8,3.8H319c0-5.1,3.9-6.2,7-6.2c4.7,0,6.2,2.5,6.2,6.7v7.9c0,0.7,0.3,1.1,1,1.1
						c0.5,0,1.1-0.2,1.5-0.4v2.2c-0.5,0.3-1.4,0.6-2.4,0.6c-2.1,0-2.6-1.3-2.6-2.3L329.8,201.2L329.8,201.2z M329.3,195.4l-3.6,0.4
						c-2.6,0.3-4.2,1.2-4.2,3.2c0,1.5,1.1,2.5,3.1,2.5s3.4-0.7,4.7-1.8V195.4z"/>
					<path class="st0" d="M338.5,177.3h3v26.2h-3V177.3z"/>
					<path class="st0" d="M356.2,181.4h6.9c5.7,0,8.9,2.3,8.9,6.9c0,4.6-3.2,6.9-8.9,6.9h-3.8v8.2h-3.1V181.4z M363,192.6
						c4.4,0,5.8-1.4,5.8-4.3s-1.4-4.3-5.8-4.3h-3.7v8.6H363z"/>
					<path class="st0" d="M386,201.2c-0.9,1.2-3,2.6-5.9,2.6c-3.8,0-5.5-2.3-5.5-4.7c0-4.2,4.1-5.1,6.7-5.3l4.2-0.4v-0.5
						c0-3-0.4-4.6-3.6-4.6c-2.8,0-3.8,1.3-3.8,3.8h-2.9c0-5.1,3.9-6.2,7-6.2c4.7,0,6.2,2.5,6.2,6.7v7.9c0,0.7,0.3,1.1,1,1.1
						c0.5,0,1.1-0.2,1.5-0.4v2.2c-0.5,0.3-1.4,0.6-2.4,0.6c-2.1,0-2.6-1.3-2.6-2.3L386,201.2L386,201.2z M385.6,195.4l-3.6,0.4
						c-2.6,0.3-4.2,1.2-4.2,3.2c0,1.5,1.1,2.5,3.1,2.5s3.4-0.7,4.7-1.8V195.4z"/>
					<path class="st0" d="M394.7,186.3h2.5v2.2c0.8-1.4,2.1-2.6,4.7-2.6c1.1,0,1.8,0.2,2,0.4v2.7c-0.5-0.2-1.5-0.5-2.5-0.5
						c-2.1,0-3.2,1-3.7,1.7v13.3h-3V186.3z"/>
					<path class="st0" d="M409,188.6h-2.7v-2.4h1.5c1.2,0,1.7-0.5,1.7-1.7v-3.8h2.5v5.5h5.1v2.4H412v9.7c0,1.9,0.5,3,2.5,3
						c0.9,0,1.9-0.2,2.4-0.4v2.5c-0.4,0.2-1.5,0.5-2.8,0.5c-3.8,0-5-2.1-5-5.2v-10.1H409z"/>
					<path class="st0" d="M421.4,186.3h2.5v2.2c0.9-1.4,2.7-2.6,5.7-2.6c2.9,0,5.9,1.2,5.9,7v10.6h-3v-9.9c0-3.3-0.7-5.1-3.8-5.1
						c-2.2,0-3.6,0.9-4.3,1.7v13.3h-3L421.4,186.3L421.4,186.3z"/>
					<path class="st0" d="M454.2,197.8c-0.6,4.7-4.5,6-7.4,6c-4.1,0-7.7-2.4-7.7-9c0-6.7,4-9,7.6-9c3.5,0,7.7,2.1,7.7,8.9v0.5H442
						c0.1,4,1.7,6.1,4.9,6.1c2.5,0,4-1.3,4.4-3.6h2.9V197.8z M451.3,193.3c-0.2-3.3-1.9-5.1-4.5-5.1c-2.8,0-4.4,1.8-4.7,5.1H451.3z"
						/>
					<path class="st0" d="M458.7,186.3h2.5v2.2c0.8-1.4,2.1-2.6,4.7-2.6c1.1,0,1.8,0.2,2,0.4v2.7c-0.5-0.2-1.5-0.5-2.5-0.5
						c-2.1,0-3.2,1-3.7,1.7v13.3h-3V186.3z"/>
					<path class="st0" d="M475.2,194.8c0-7,4.2-9,7.9-9c3.7,0,7.9,2,7.9,9s-4.2,9-7.9,9C479.4,203.9,475.2,201.9,475.2,194.8z
						 M488.1,194.8c0-4.3-1.7-6.4-4.9-6.4c-3.2,0-4.9,2.1-4.9,6.4c0,4.3,1.7,6.4,4.9,6.4C486.4,201.3,488.1,199.1,488.1,194.8z"/>
					<path class="st0" d="M496.5,188.6h-2.7v-2.4h2.7v-4.1c0-3.1,1.4-5.3,4.8-5.3c0.9,0,1.6,0.2,1.9,0.3v2.5
						c-0.3-0.1-0.9-0.2-1.5-0.2c-1.7,0-2.2,1.1-2.2,3v3.8h3.7v2.4h-3.7v14.8h-3L496.5,188.6L496.5,188.6z"/>
					<path class="st0" d="M514.3,188.6h-2.7v-2.4h1.5c1.2,0,1.7-0.5,1.7-1.7v-3.8h2.5v5.5h5.1v2.4h-5.1v9.7c0,1.9,0.5,3,2.5,3
						c0.9,0,1.9-0.2,2.4-0.4v2.5c-0.4,0.2-1.5,0.5-2.8,0.5c-3.8,0-5-2.1-5-5.2v-10.1H514.3z"/>
					<path class="st0" d="M526.6,177.3h3V188c0.8-0.9,2.1-2.2,5.2-2.2c2.8,0,5.8,1.2,5.8,7v10.6h-3v-9.9c0-3.3-0.7-5.1-3.8-5.1
						c-2.2,0-3.6,0.9-4.3,1.7v13.3h-3L526.6,177.3L526.6,177.3z"/>
					<path class="st0" d="M559.8,197.8c-0.6,4.7-4.5,6-7.4,6c-4.1,0-7.8-2.4-7.8-9c0-6.7,4-9,7.6-9c3.5,0,7.7,2.1,7.7,8.9v0.5h-12.3
						c0.1,4,1.7,6.1,4.9,6.1c2.5,0,4-1.3,4.4-3.6h2.9V197.8z M556.9,193.3c-0.2-3.3-1.9-5.1-4.5-5.1c-2.8,0-4.4,1.8-4.7,5.1H556.9z"
						/>
					<path class="st0" d="M217.7,225.6c0-8.7,5.5-11.5,10.6-11.5c5,0,9.2,2.5,9.8,7.5h-5c-0.4-1.8-1.9-3.2-4.7-3.2
						c-3.6,0-5.7,2.2-5.7,7.2c0,4.8,2,7.1,5.5,7.1c3.2,0,4.9-1.7,5.2-3.6h-4.9v-3.8h9.9v11.3h-4v-2.7c-1.5,2.2-4,3.1-6.8,3.1
						C222,237,217.7,233.4,217.7,225.6z"/>
					<path class="st0" d="M242.4,227.7c0-7.2,4.7-9.2,8.9-9.2s8.9,2,8.9,9.2s-4.7,9.2-8.9,9.2C247.2,237,242.4,234.9,242.4,227.7z
						 M255.2,227.7c0-3.5-1.3-5.2-3.9-5.2s-3.9,1.7-3.9,5.2c0,3.4,1.3,5.2,3.9,5.2S255.2,231.2,255.2,227.7z"/>
					<path class="st0" d="M263.9,210.4h4.9v26.2h-4.9V210.4z"/>
					<path class="st0" d="M285.5,234.5c-0.8,1.1-2.4,2.5-5.2,2.5c-3.8,0-7.5-2.5-7.5-9.1c0-6.7,3.8-9.3,7.5-9.3
						c2.6,0,4.1,1.3,4.7,2.1v-10.2h4.9v26.2h-4.3v-2.2H285.5z M285,223.8c-0.8-0.7-1.9-1.2-3.2-1.2c-2.6,0-4,1.8-4,5.1
						s1.3,5.2,4,5.2c1.3,0,2.5-0.5,3.2-1.2V223.8z"/>
					<path class="st0" d="M310.7,230.6c-0.7,5-5.1,6.3-8.3,6.3c-4.2,0-8.6-2.3-8.6-9.2c0-7.1,4.5-9.2,8.5-9.2s8.5,2,8.5,9.2v0.7
						h-12.2c0.1,3.2,1.5,4.8,3.9,4.8c2,0,3.2-1,3.5-2.6H310.7z M305.9,225.8c-0.3-2.5-1.5-3.7-3.6-3.7s-3.4,1.2-3.6,3.7H305.9z"/>
					<path class="st0" d="M314.7,219h4.3v2.3c0.9-1.5,2.7-2.7,5.7-2.7c2.9,0,6,1.2,6,7.1v10.9h-4.9v-10c0-2.5-0.6-3.8-3-3.8
						c-1.7,0-2.8,0.7-3.4,1.3v12.5h-4.9V219H314.7z"/>
					<path class="st0" d="M347.9,229.8c0.2,2.4,2.3,3.4,4.7,3.4c2.4,0,3.7-1,3.7-2.5c0-1.2-0.8-2.1-2.9-2.6l-4.4-1.2
						c-3.7-1-5.7-3-5.7-6.2c0-4.7,4.2-6.5,8.5-6.5c4.8,0,8.5,2.3,8.8,7h-5.1c-0.2-2.3-2-3.2-4.1-3.2s-3.2,0.9-3.2,2.3
						c0,1.1,0.7,1.9,2.8,2.5l4.4,1.2c3.5,0.9,5.7,2.8,5.7,6.3c0,4.9-4.4,6.7-9,6.7c-5.5,0-9.2-2.6-9.5-7.2H347.9z"/>
					<path class="st0" d="M365.4,222.6h-2.5V219h1.6c1.5,0,2-0.6,2-2v-3.2h3.9v5.2h5.2v3.6h-5.2v7.8c0,1.7,0.5,2.6,2.5,2.6
						c0.9,0,1.9-0.2,2.4-0.4v3.7c-0.6,0.3-2.1,0.6-3.6,0.6c-4.7,0-6.2-2.5-6.2-6L365.4,222.6L365.4,222.6z"/>
					<path class="st0" d="M389.5,234.2c-0.9,1.3-3.1,2.8-6.2,2.8s-5.7-1.5-5.7-4.9c0-4.4,4.1-5.2,7.2-5.5l3.8-0.3v-0.4
						c0-2.3-0.4-3.6-2.8-3.6c-2.1,0-2.8,1-2.9,2.9h-4.6c0.1-5.3,4.3-6.5,7.9-6.5c5.5,0,7.2,2.6,7.2,6.8v6.8c0,0.7,0.2,1,0.9,1
						c0.5,0,1-0.2,1.4-0.4v3.3c-0.6,0.4-1.8,0.8-3.1,0.8c-2.6,0-3.2-1.4-3.2-2.6v-0.2H389.5z M388.7,228.9l-2.8,0.3
						c-2.2,0.2-3.3,0.9-3.3,2.5c0,1.2,0.7,1.9,2.4,1.9c1.5,0,2.7-0.6,3.8-1.4v-3.3H388.7z"/>
					<path class="st0" d="M399.1,222.6h-2.5V219h1.6c1.5,0,2-0.6,2-2v-3.2h3.9v5.2h5.2v3.6H404v7.8c0,1.7,0.5,2.6,2.5,2.6
						c0.9,0,1.9-0.2,2.4-0.4v3.7c-0.6,0.3-2.1,0.6-3.6,0.6c-4.7,0-6.2-2.5-6.2-6L399.1,222.6L399.1,222.6z"/>
					<path class="st0" d="M428.2,230.6c-0.7,5-5.1,6.3-8.3,6.3c-4.2,0-8.6-2.3-8.6-9.2c0-7.1,4.5-9.2,8.5-9.2s8.5,2,8.5,9.2v0.7H416
						c0.1,3.2,1.5,4.8,3.9,4.8c2,0,3.2-1,3.5-2.6H428.2z M423.4,225.8c-0.3-2.5-1.5-3.7-3.6-3.7s-3.4,1.2-3.6,3.7H423.4z"/>
					<path class="st0" d="M437.3,214.5h4.8l4,15.8l4.1-15.8h5l4.1,15.8l3.9-15.8h4.7l-6,22.1h-5l-4.2-16l-4.2,16h-5L437.3,214.5z"/>
					<path class="st0" d="M481,234.2c-0.9,1.3-3.1,2.8-6.2,2.8s-5.7-1.5-5.7-4.9c0-4.4,4.1-5.2,7.2-5.5l3.8-0.3v-0.4
						c0-2.3-0.4-3.6-2.8-3.6c-2.1,0-2.8,1-2.9,2.9h-4.6c0.1-5.3,4.3-6.5,7.9-6.5c5.5,0,7.2,2.6,7.2,6.8v6.8c0,0.7,0.2,1,0.9,1
						c0.5,0,1-0.2,1.4-0.4v3.3c-0.6,0.4-1.8,0.8-3.1,0.8c-2.6,0-3.2-1.4-3.2-2.6v-0.2H481z M480.1,228.9l-2.8,0.3
						c-2.2,0.2-3.3,0.9-3.3,2.5c0,1.2,0.7,1.9,2.4,1.9c1.5,0,2.7-0.6,3.8-1.4v-3.3H480.1z"/>
					<path class="st0" d="M490.3,219h4.3v2.4c0.9-1.7,2.4-2.8,4.6-2.8c1.2,0,1.9,0.3,2.1,0.4v4.2c-0.7-0.3-1.5-0.5-2.5-0.5
						c-1.7,0-2.9,0.5-3.6,1.4v12.5h-4.9V219z"/>
					<path class="st0" d="M504.2,219h4.3v2.4c0.9-1.7,2.4-2.8,4.6-2.8c1.2,0,1.9,0.3,2.1,0.4v4.2c-0.7-0.3-1.5-0.5-2.5-0.5
						c-1.7,0-2.9,0.5-3.6,1.4v12.5h-4.9L504.2,219L504.2,219z"/>
					<path class="st0" d="M518,210.4h5.1v4.3H518V210.4z M518.1,219h4.9v17.6h-4.9V219z"/>
					<path class="st0" d="M526.8,227.7c0-7.2,4.7-9.2,8.9-9.2s8.9,2,8.9,9.2s-4.7,9.2-8.9,9.2S526.8,234.9,526.8,227.7z
						 M539.6,227.7c0-3.5-1.3-5.2-3.9-5.2c-2.5,0-3.9,1.7-3.9,5.2c0,3.4,1.3,5.2,3.9,5.2C538.2,233,539.6,231.2,539.6,227.7z"/>
					<path class="st0" d="M548.3,219h4.3v2.4c0.9-1.7,2.4-2.8,4.6-2.8c1.2,0,1.9,0.3,2.1,0.4v4.2c-0.7-0.3-1.5-0.5-2.5-0.5
						c-1.7,0-2.9,0.5-3.6,1.4v12.5h-4.9L548.3,219L548.3,219z"/>
					<path class="st0" d="M565.6,230.8c0.1,1.7,1.5,2.8,3.6,2.8c1.6,0,2.8-0.7,2.8-2c0-1.7-2-1.7-5.3-2.6c-2.4-0.7-5.2-1.7-5.2-5.2
						c0-3.9,3.6-5.3,7.2-5.3c4,0,7.2,1.8,7.4,5.5h-4.8c-0.1-1.3-1.1-2.3-2.7-2.3c-1.3,0-2.3,0.6-2.3,1.7c0,1.6,2.3,1.7,5.3,2.5
						c2.6,0.7,5.2,1.9,5.2,5.3c0,4.2-3.9,5.6-7.7,5.6c-4.5,0-8-2-8.3-6.1h4.8V230.8z"/>
				</g>
				<rect x="326.4" y="4.4" class="st0" width="1.6" height="147.5"/>
				<g>
					<g>
						<g>
							<polygon class="st0" points="632.5,112.1 458.4,112.1 472.3,125.9 							"/>
							<path class="st0" d="M474.5,56v2.1c-3.2-2.1-6.1-3.3-10.1-3.3C452.3,54.8,443,66,443,79.6c0,13.7,9.3,24.8,21.5,24.8
								c4,0,6.9-1.2,10.1-3.3v2.1h10.7V56H474.5z M464.4,93c-6,0-10.4-5.9-10.4-13.4s4.4-13.4,10.4-13.4s10.3,5.9,10.3,13.4
								C474.7,87.1,470.5,93,464.4,93z"/>
							<path class="st0" d="M560.4,56v27.7c0,5.2-3.6,9.6-8.8,9.6s-8.8-4.4-8.8-9.6V56h-10.7v27.7c0,11.4,7.8,20.6,19.2,20.6
								c5.3,0,9.1-2.9,9.1-2.9v1.8h10.7V56H560.4z"/>
							<path class="st0" d="M660.3,103.2V75.5c0-5.2,3.6-9.6,8.8-9.6s8.8,4.4,8.8,9.6v27.7h10.7V75.5c0-11.4-7.8-20.6-19.2-20.6
								c-5.3,0-9.1,2.9-9.1,2.9V56h-10.7v47.2H660.3z"/>
							<path class="st0" d="M412.1,103.2V84.9h7.9l13.7,18.3h14l-16.6-22.1c5.2-3.7,8.6-9.7,8.6-16.6c0-11.2-9.1-20.3-20.3-20.3
								h-18.5v59H412.1z M412.1,55.4h7.3c5,0,9.2,4.1,9.2,9.1c0,5.1-4.1,9.1-9.2,9.1h-7.3V55.4z"/>
							<path class="st0" d="M600,92.1c-1,0.7-2.2,1.2-3.6,1.2c-1.8,0-5.1-1.3-5.1-5.8V67.2h9.2V56h-9.2V44.2h-10.7V56H575v11.2h5.7
								v20.4c0,10.5,7.9,16.8,15.9,16.8c3,0,7.1-1,10.5-3L600,92.1z"/>
							<polygon class="st0" points="511.9,78.1 530.3,56 515.3,56 502.4,72.5 502.4,40.3 491.4,40.3 491.4,103.2 502.4,103.2 
								502.4,83.8 518.2,103.2 533.2,103.2 							"/>
							<path class="st0" d="M624.8,54.8c-12.4,0-21.3,10.9-21.3,24.8c0,14.6,11.2,24.8,22.4,24.8c5.7,0,12.9-1.9,19-10.6l-9.5-5.5
								c-7.3,10.8-19.5,5.3-20.9-5.5h30.9C647.9,66,637,54.8,624.8,54.8z M634.1,73.5h-19.3C617.1,62.5,632,61.8,634.1,73.5z"/>
						</g>
					</g>
				</g>
			</g>
			<rect x="105.9" y="4.4" class="st1" width="582.6" height="232.1"/>
		</g>
		<rect x="69" y="-32.5" class="st1" width="656.4" height="305.9"/>
	</g>
	<g>
		<g>
			<g>
				<g>
					<polygon class="st2" points="144.4,114.3 147.4,114.2 147.3,101.8 144.4,101.8 					"/>
					<rect x="144.4" y="61" class="st2" width="3" height="4.3"/>
					<path class="st2" d="M144.4,138.3c1,0.6,2,1.1,3,1.7v-15.5l6.4,2.2c0.3,6.2,0.6,11.9,0.9,16.6c7.8,3,16.2,4.6,25,4.6
						c19.7,0,37.5-8.2,50.1-21.3l-85.4-3V138.3z"/>
					<rect x="144.4" y="69.3" class="st2" width="3" height="4.3"/>
					<rect x="144.4" y="89.6" class="st2" width="3" height="8.3"/>
					<rect x="144.4" y="77.6" class="st2" width="3" height="8"/>
					<path class="st2" d="M129.6,114.8l9.2-35c0.2-7.9,0.2-15.3,0.2-21.5L123.2,115L129.6,114.8z"/>
					<path class="st2" d="M111.2,91.1c0.8,4.3,2,8.6,3.6,12.6l6.9-23.1C117.4,85.7,113.8,89.1,111.2,91.1z"/>
					<path class="st2" d="M137.6,114.5c0.4-8.3,0.7-17.2,1-25.8l-6.8,26L137.6,114.5z"/>
					<path class="st2" d="M136.4,132.8c0.3-3,0.5-6.1,0.7-9.5l-10.9-0.4C129.3,126.6,132.7,129.9,136.4,132.8z"/>
					<path class="st2" d="M125.1,76.2l-9.1,30.5c1.3,2.9,2.8,5.7,4.5,8.4h0.4L137,57.5C132.9,65.2,128.8,71.3,125.1,76.2z"/>
					<rect x="144.4" y="54.4" class="st2" width="3" height="2.7"/>
					<path class="st2" d="M153.5,119.1l81.3,1.6c0.5-0.6,1-1.3,1.4-1.9l-82.8-0.5C153.5,118.5,153.5,118.8,153.5,119.1z"/>
					<path class="st2" d="M158.8,113.8l-6.5-23.4c0.3,7.8,0.6,15.9,0.9,23.6L158.8,113.8z"/>
					<path class="st2" d="M153.2,56.8l15.9,56.7l7.2-0.2l-13.1-46.7C159.7,63.4,156.3,60.2,153.2,56.8z"/>
					<path class="st2" d="M179.7,8.5c-38.5,0-69.7,31.2-69.7,69.7c0,3.2,0.2,6.4,0.7,9.5c11.5-8.2,27-34.9,28.4-37.3
						c0-2.3-0.1-4.2-0.1-5.7l1.7-1v-1.8l3.7-0.9v4.9h3v-4.7l3.5,0.8c0,0,0.1,3.1,0.2,8.2c0,0,0,0,0,0.1l0.1,0.1l0,0
						c21,25.8,64.9,47.7,92,56.3c3.9-8.7,6.1-18.4,6.1-28.5C249.3,39.7,218.1,8.5,179.7,8.5z"/>
					<path class="st2" d="M166,69l12.4,44.2l6.7-0.2l-10.4-37.1C171.8,73.7,168.9,71.4,166,69z"/>
					<path class="st2" d="M151.9,80.7l0.2,0.7c0,0.3,0,0.6,0,1l8.8,31.4l6-0.2L151.4,58v0.1l-0.2-0.5C151.4,64,151.7,72,151.9,80.7z
						"/>
					<path class="st2" d="M233.3,111.4l7.1-0.2c-2-0.7-4.7-1.7-8-3.1L233.3,111.4z"/>
					<path class="st2" d="M177.4,77.8l9.8,35l6.9-0.2L186,83.7C183.1,81.8,180.3,79.9,177.4,77.8z"/>
					<path class="st2" d="M231.2,111.4L230,107c-2.5-1.1-5.4-2.3-8.4-3.7l2.3,8.3L231.2,111.4z"/>
					<path class="st2" d="M210.5,97.9l3.9,14.1l7.3-0.2l-2.7-9.6C216.4,100.9,213.5,99.5,210.5,97.9z"/>
					<path class="st2" d="M188.6,85.4l7.6,27.2l6.6-0.2l-6.2-22C194,88.8,191.3,87.1,188.6,85.4z"/>
					<path class="st2" d="M199.3,91.8l5.7,20.5l7.3-0.2L208,96.6C205.2,95.1,202.2,93.5,199.3,91.8z"/>
				</g>
			</g>
			<g>
				<path class="st3" d="M179.7,4.5c-40.7,0-73.7,33-73.7,73.7s33,73.7,73.7,73.7s73.7-33,73.7-73.7S220.4,4.5,179.7,4.5z
					 M111.2,91.1c2.6-2.1,6.2-5.4,10.5-10.5l-6.9,23.1C113.2,99.7,112,95.5,111.2,91.1z M120.6,115.1c-1.7-2.7-3.2-5.5-4.5-8.4
					l9.1-30.5c3.7-4.9,7.7-11,12-18.7L121,115.1H120.6z M136.4,132.8c-3.7-2.9-7.1-6.2-10.1-9.9l10.9,0.4
					C136.9,126.7,136.7,129.9,136.4,132.8z M137.6,114.5l-5.8,0.2l6.8-26C138.4,97.3,138.1,106.2,137.6,114.5z M138.8,79.8l-9.2,35
					l-6.5,0.2L139,58.3C139,64.4,139,71.9,138.8,79.8z M179.7,147.9c-8.8,0-17.2-1.7-25-4.6c-0.3-4.8-0.6-10.4-0.9-16.6l-6.4-2.2
					V140c-1-0.5-2-1.1-3-1.7v-14.7l85.4,3C217.1,139.7,199.3,147.9,179.7,147.9z M147.3,61v4.3h-3V61C144.3,61,147.3,61,147.3,61z
					 M144.4,57v-2.7h3V57H144.4z M147.3,69.3v4.3h-3v-4.3H147.3z M147.3,77.6v8h-3v-8H147.3z M147.3,89.6v8.3h-3v-8.3H147.3z
					 M147.3,101.8v12.4l-3,0.1v-12.5H147.3z M151.4,58l15.6,55.6l-6,0.2l-8.8-31.4c0-0.3,0-0.6,0-1l-0.2-0.7
					c-0.3-8.7-0.5-16.7-0.7-23.2L151.4,58L151.4,58z M221.8,111.8l-7.3,0.2l-3.9-14.1c3,1.5,5.9,3,8.6,4.3L221.8,111.8z
					 M221.6,103.3c3,1.4,5.8,2.6,8.4,3.7l1.2,4.4l-7.3,0.2L221.6,103.3z M212.3,112.1l-7.3,0.2l-5.7-20.5c3,1.7,5.9,3.3,8.7,4.8
					L212.3,112.1z M202.9,112.4l-6.6,0.2l-7.6-27.2c2.7,1.7,5.4,3.4,8.1,4.9L202.9,112.4z M194.1,112.7l-6.9,0.2l-9.8-35
					c2.8,2,5.7,4,8.6,5.9L194.1,112.7z M185.1,113l-6.7,0.2L166,69c2.8,2.4,5.7,4.7,8.7,6.9L185.1,113z M176.3,113.2l-7.2,0.2
					l-15.9-56.7c3.1,3.4,6.5,6.6,10,9.7L176.3,113.2z M158.8,113.8l-5.7,0.2c-0.3-7.7-0.6-15.7-0.9-23.6L158.8,113.8z M234.9,120.7
					l-81.3-1.6c0-0.3,0-0.5,0-0.8l82.8,0.5C235.8,119.4,235.3,120,234.9,120.7z M233.3,111.4l-0.9-3.3c3.3,1.4,6.1,2.4,8,3.1
					L233.3,111.4z M151.2,50.5L151.2,50.5l-0.1-0.1c0,0,0,0,0-0.1c-0.1-5.1-0.2-8.2-0.2-8.2l-3.5-0.8V46h-3v-4.9l-3.7,0.9v1.8
					l-1.7,1c0,1.5,0.1,3.4,0.1,5.7c-1.4,2.5-16.8,29.1-28.4,37.3c-0.4-3.1-0.7-6.3-0.7-9.5c0-38.5,31.2-69.7,69.7-69.7
					s69.7,31.2,69.7,69.7c0,10.2-2.2,19.8-6.1,28.5C216.1,98.2,172.2,76.3,151.2,50.5z"/>
			</g>
		</g>
	</g>
</g>
</svg>
