<?xml version="1.0" encoding="utf-8"?>
<!-- Generator: Adobe Illustrator 27.7.0, SVG Export Plug-In . SVG Version: 6.00 Build 0)  -->
<svg version="1.1" id="レイヤー_1" xmlns="http://www.w3.org/2000/svg" xmlns:xlink="http://www.w3.org/1999/xlink" x="0px"
	 y="0px" viewBox="0 0 384.9 111.7" style="enable-background:new 0 0 384.9 111.7;" xml:space="preserve">
<style type="text/css">
	.st0{fill:#FFFFFF;}
</style>
<path class="st0" d="M268.4,62.1H117.8l12,12L268.4,62.1z"/>
<path class="st0" d="M131.8,13.6v1.8c-2.8-1.8-5.3-2.8-8.7-2.8c-10.6,0-18.6,9.6-18.6,21.4s8,21.4,18.6,21.4c3.4,0,5.9-1,8.7-2.8
	v1.8h9.3V13.6H131.8z M123,45.6c-5.2,0-9-5.1-9-11.6s3.8-11.6,9-11.6c5.2,0,8.9,5.1,8.9,11.6S128.2,45.6,123,45.6z"/>
<path class="st0" d="M206.1,13.6v24c0,4.5-3.1,8.3-7.6,8.3s-7.6-3.8-7.6-8.3v-24h-9.3v24c0,9.9,6.7,17.9,16.6,17.9
	c4.6,0,7.9-2.5,7.9-2.5v1.5h9.3V13.6H206.1L206.1,13.6z"/>
<path class="st0" d="M292.5,54.4v-24c0-4.5,3.1-8.3,7.6-8.3s7.6,3.8,7.6,8.3v24h9.3v-24c0-9.9-6.7-17.9-16.6-17.9
	c-4.6,0-7.9,2.5-7.9,2.5v-1.5h-9.3v40.9H292.5L292.5,54.4z"/>
<path class="st0" d="M77.7,54.4V38.6h6.9l11.9,15.8h12.1L94.3,35.3c4.5-3.2,7.4-8.4,7.4-14.3c0-9.7-7.9-17.6-17.6-17.6h-16v51.1
	L77.7,54.4L77.7,54.4z M77.7,13.1H84c4.4,0,7.9,3.5,7.9,7.9s-3.6,7.9-7.9,7.9h-6.3V13.1z"/>
<path class="st0" d="M240.3,44.8c-0.8,0.6-1.9,1-3.1,1c-1.5,0-4.4-1.2-4.4-5V23.3h7.9v-9.7h-7.9V3.4h-9.3v10.2h-4.9v9.7h4.9v17.6
	c0,9.1,6.9,14.6,13.8,14.6c2.6,0,6.2-0.8,9.1-2.6L240.3,44.8z"/>
<path class="st0" d="M164.1,32.7L180,13.5h-13l-11.1,14.2V0h-9.6v54.4h9.6V37.6l13.7,16.8h13L164.1,32.7z"/>
<path class="st0" d="M261.8,12.5c-10.7,0-18.4,9.4-18.4,21.5c0,12.7,9.7,21.5,19.4,21.5c4.9,0,11.2-1.7,16.4-9.1l-8.2-4.7
	c-6.3,9.3-16.9,4.6-18.1-4.7h26.6C281.8,22.2,272.3,12.5,261.8,12.5L261.8,12.5z M269.9,28.7h-16.7
	C255.1,19.1,268.1,18.6,269.9,28.7z"/>
<path class="st0" d="M120.6,84.3l3.9,17.6l3.9-17.6h11.3v5.2h-2.4v16.9h2.4v5.2h-9.9v-5.2h2.5V92.5l-5.6,19.1h-4.2l-5.7-19.1v13.9
	h2.5v5.2h-9.8v-5.2h2.4V89.5h-2.4v-5.2H120.6L120.6,84.3z"/>
<path class="st0" d="M151.4,112.4c-6.6,0-10.5-5.3-10.5-14.5c0-8.4,3.7-14.2,10.5-14.2c6.9,0,10.7,5.8,10.7,14.2
	C162,105.7,158.9,112.4,151.4,112.4z M155.7,97.9c0-5.9-1.6-8.9-4.3-8.9c-2.6,0-4.3,2.8-4.3,8.9s1.7,9.1,4.3,9.1
	C154.1,107,155.7,104,155.7,97.9z"/>
<path class="st0" d="M172.9,84.3l7.7,19.8V89.5h-3v-5.2H188v5.2h-2.4v22.2h-7.1l-8-20.2v15h3.1v5.2h-10.4v-5.2h2.3v-17h-2.3v-5.2
	H172.9z"/>
<path class="st0" d="M200.6,84.3v4.9h-1.5V96l5.6-6.8h-1.8v-4.9h9.3v5.2h-1.7l-6.1,7.4l6.9,9.5h1.6v5.2h-10v-4.9h2l-5.8-8.7v8.7h1.7
	v4.9h-9.9v-5.2h2.3V89.5h-2.3v-5.2H200.6L200.6,84.3z"/>
<path class="st0" d="M232.8,84.3v8.2h-5.3v-3h-4.4v5.1h5.4v5.4h-5.4v6.4h4.4v-3.6h5.2v8.8h-17.8v-5.2h2.3v-17h-2.3v-5.2L232.8,84.3
	L232.8,84.3z"/>
<path class="st0" d="M245,84.3v4.8h-1.6l1.3,3.1c0.5,1.2,1,2.7,1.4,4.3c0.7-2.4,1.2-3.6,1.3-4.1l1.3-3.3h-1.6v-4.8h9.5v5.2h-2.1
	l-5.4,11.2v5.8h2.3v5.2h-10.7v-5.2h2.4v-5.8l-5.5-11.2h-2.1v-5.2H245L245,84.3z"/>
<path class="st0" d="M274.5,84.2v7.5h-5.1c-0.2-1.9-1.1-2.9-2.8-2.9c-1.6,0-2.5,1.2-2.5,2.6c0,2,2,2.6,4.4,3.5c2.8,1,4.4,2,5.5,3.4
	c1,1.4,1.5,3.1,1.5,5.5c0,3.8-2.6,8.1-7.9,8.1c-2.4,0-3.9-0.8-5.2-2.8v2.1h-4.2v-8.1h5.1c0.3,2.5,1.4,3.6,3.1,3.6
	c1.7,0,2.8-1.1,2.8-2.9c0-1.7-1.4-2.5-3.8-3.3c-3.3-1.1-4.9-2-6.1-3.6c-1-1.3-1.5-3-1.5-5.2c0-4.1,3.1-8,8-8c2.1,0,3.3,0.9,4.4,2.4
	v-1.7L274.5,84.2L274.5,84.2z"/>
</svg>
