<svg xmlns="http://www.w3.org/2000/svg" viewBox="0 0 345.1 42.49"><defs><style>.cls-1{fill:#fff;}.cls-2{fill:#b51621;}</style></defs><title>phill_logo</title><g id="レイヤー_2" data-name="レイヤー 2"><g id="Logos"><path class="cls-1" d="M259.86,39H258.1c.34-2.38.67-4.69,1-7,.45-3.18.88-6.37,1.35-9.55a3.4,3.4,0,0,1,.48-.95c.26.26.62.47.78.78,2,3.63,3.9,7.27,5.86,10.9.25.48.56.92,1,1.59,2.58-4.59,5-9,7.52-13.42l.5.14L278.64,39h-2.46c-.41-4.11-.81-8.27-1.22-12.42l-.46-.1L267.93,39l-6.34-12.41-.42.08C260.73,30.77,260.3,34.84,259.86,39Z"/><path class="cls-1" d="M130.81,39.64c-4.65-.08-8-2.5-9.13-6.62a9.11,9.11,0,0,1,4.23-10.57c4.62-2.61,11.28-1.06,13.76,3.15,2.39,4.06,1.28,12.09-6.27,13.69C132.55,39.47,131.67,39.53,130.81,39.64ZM138.06,30c0-.44,0-.88,0-1.31a6.9,6.9,0,0,0-5.86-6.54,6.66,6.66,0,0,0-7.56,4.74,11.37,11.37,0,0,0-.2,6.9,6.68,6.68,0,0,0,10.4,3.64C137.29,35.59,138.09,32.94,138.06,30Z"/><path class="cls-1" d="M290.8,21.08c3.67.1,7.13,1.17,8.91,5,2.21,4.77.1,12.22-7.34,13.21-3,.4-5.92,0-8.29-2.06-3-2.68-3.66-6.17-2.54-9.89s3.93-5.63,7.71-6.17C289.68,21.12,290.12,21.12,290.8,21.08Zm7,8.5c0-.36,0-.71,0-1.07A6.76,6.76,0,0,0,292,22a6.68,6.68,0,0,0-7.46,4.2,11.32,11.32,0,0,0-.34,7.59,6.71,6.71,0,0,0,10.32,3.53C297.11,35.43,297.92,32.68,297.78,29.58Z"/><path class="cls-1" d="M79.57,39.65c-3.79-.1-7-1.43-8.57-5.18-1.42-3.44-1.26-6.93,1.23-9.89,2.83-3.36,6.62-3.88,10.66-2.87A8.27,8.27,0,0,1,89.48,31a9.09,9.09,0,0,1-8.41,8.58C80.6,39.61,80.12,39.62,79.57,39.65ZM86.89,30c-.08-.89-.11-1.49-.2-2.07a6.74,6.74,0,0,0-5.87-5.72,6.58,6.58,0,0,0-7,3.81,11.07,11.07,0,0,0-.7,7.09c.61,2.85,2.19,4.81,5.09,5.49a6.5,6.5,0,0,0,7.12-2.91A9.71,9.71,0,0,0,86.89,30Z"/><path class="cls-1" d="M181.13,39.13h-2.3V34.39c0-.39,0-.79,0-1.19,0-3,0-3-3.09-3-2.49,0-5,0-7.65,0v6.14c0,.23,0,.47,0,.71-.09,2.15.51,2.19-2.35,2V21.73h2.36c0,2,0,4.06,0,6.07,0,.85.2,1.2,1.12,1.19,2.78,0,5.56,0,8.34,0,1.06,0,1.36-.42,1.33-1.42-.06-1.94,0-3.88,0-5.9h2.28Z"/><path class="cls-1" d="M205.94,21.66h2.29V27c0,2.36,0,2,1.88,2,2.89.05,5.79,0,8.84,0V21.69h2.33v17.4H219v-4c0-1.31,0-2.62,0-3.93,0-.29-.38-.79-.58-.79-3.33-.05-6.66,0-10.13,0v8.77h-2.31Z"/><path class="cls-1" d="M245.49,39.07h-2.31V21.52c1.79,0,3.59,0,5.39,0a12.53,12.53,0,0,1,3.06.4,3.71,3.71,0,0,1,1.48,6.45,24.1,24.1,0,0,1-3.74,2.29l6.55,8.26c-2.27.51-2.72.32-4-1.43-1.59-2.08-3.22-4.13-4.87-6.16a4.18,4.18,0,0,0-1.15-.73,5.4,5.4,0,0,0-.35,1.26C245.47,34.25,245.49,36.63,245.49,39.07Zm0-13.07v.59c0,3.23.52,3.6,3.7,2.67.19-.06.38-.1.57-.18a3.6,3.6,0,0,0,2.17-3.95c-.16-1.47-1.14-2.37-2.93-2.63a13,13,0,0,0-1.66-.08c-1.85,0-1.85,0-1.85,1.79Z"/><path class="cls-1" d="M305.54,25.59V38.94l-1.51.11V21.63c.84-.48,1.31.12,1.79.64l10.41,11.31c.28.31.53.66.8,1l.36-.18V21.55H319V29c0,2.94,0,5.89,0,8.83a4.84,4.84,0,0,1-.36,1.24,4.9,4.9,0,0,1-1.14-.72c-3.67-4-7.31-8.06-11-12.1l-.62-.72Z"/><path class="cls-1" d="M95.8,29.72l4.85-5.2a24.41,24.41,0,0,0,1.72-1.81,2.37,2.37,0,0,1,2.69-1l-7.48,7.7,8.52,9.82a18.16,18.16,0,0,1-2.62,0,2.16,2.16,0,0,1-1.09-.74c-2.27-2.66-4.51-5.33-6.75-8l-.32.09v8.62H92.91V21.76h2.28v7.62Z"/><path class="cls-1" d="M153.36,39.16h-2.31c0-.37-.07-.75-.07-1.13,0-5.05,0-10.1,0-15.14,0-1.05.28-1.41,1.34-1.34,2.21.15,4.46.05,6.65.34s3.23,1.36,3.44,3.17c.26,2.22-.61,4.22-2.53,4.92a24.43,24.43,0,0,1-5.3,1.14c-.92.11-1.23.3-1.2,1.24C153.4,34.57,153.36,36.8,153.36,39.16Zm0-12.85h0c0,1,0,2,0,3,0,.28.29.74.48.76,1.85.19,3.68.13,5-1.42a4,4,0,0,0,.64-4.24c-.5-1.39-1.71-1.75-3.07-1.76-.71,0-1.42,0-2.13,0s-1,.26-1,1C153.39,24.49,153.36,25.4,153.36,26.31Z"/><path class="cls-1" d="M240.3,39.13a15.56,15.56,0,0,1-2.17,0,1.27,1.27,0,0,1-.73-.74q-1-2.53-2-5.1a1.4,1.4,0,0,0-1.57-1.09c-1.43.08-2.87.06-4.3,0a1.24,1.24,0,0,0-1.42.94c-.51,1.5-1.21,2.94-1.64,4.46-.35,1.23-.84,1.92-2.36,1.43.48-1.13,1-2.28,1.46-3.42q3-6.8,6.08-13.59a3.32,3.32,0,0,1,.74-.81c.21.21.5.39.61.64q3.63,8.37,7.2,16.74A2.31,2.31,0,0,1,240.3,39.13ZM234.51,31l-2.62-6-.31,0C230.77,27,230,29,229.08,31Z"/><path class="cls-1" d="M345.1,22.22l-.48,1.9a2.48,2.48,0,0,1-.57-.2c-4.9-3.77-10.6-1.49-11.46,4.63a9.65,9.65,0,0,0,1.2,6.78c2.08,3.24,5.89,4,9.54,1.9l1.33-.82a1.48,1.48,0,0,1-1,2c-3.67,1.35-7.32,1.56-10.56-.88s-3.78-5.95-3-9.67c.72-3.49,3.06-5.57,6.44-6.47A13,13,0,0,1,345.1,22.22Z"/><path class="cls-1" d="M114.61,30.16l3.2-5.65c.23-.41.45-.84.68-1.25,1.07-1.92.48-1.58,2.84-1.57-1,1.5-1.89,2.94-2.8,4.38-3.14,4.93-3.14,4.93-3.12,10.72v2.4H113c0-2.07.07-4.09,0-6.1a5.56,5.56,0,0,0-.7-2.43c-1.55-2.64-3.2-5.21-4.81-7.8-.21-.33-.39-.67-.67-1.18a16.4,16.4,0,0,1,2.36,0,1.55,1.55,0,0,1,.92.72c1.28,2.15,2.5,4.33,3.74,6.49C114,29.27,114.24,29.59,114.61,30.16Z"/><path class="cls-1" d="M69.05,21.79V23c-1.37,0-2.71,0-4,0-.93,0-1.23.25-1.22,1.21.06,4.56,0,9.13,0,13.69v1.38H61.5V23.11H56V21.79Z"/><path class="cls-1" d="M195.33,21.69V31c0,2,0,4,0,6,0,.79.26,1,1,1,1.94,0,3.88,0,5.92,0v1.13H193V21.69Z"/><path class="cls-1" d="M325.87,39H323.6V21.58h2.27Z"/><path class="cls-1" d="M188.22,39.14H186V21.69h2.23Z"/><path class="cls-1" d="M18.47,30.62c.18.17.34.3.47.45A1.63,1.63,0,0,1,19.09,33a4,4,0,0,1-1.35,1.43,4.47,4.47,0,0,1-3.23.78,2.27,2.27,0,0,1-1.69-1,2,2,0,0,1,0-2.11,4.91,4.91,0,0,1,1.64-1.72,13.37,13.37,0,0,1,3.34-1.61,18.53,18.53,0,0,1,6.8-1.07,9.89,9.89,0,0,1,3.35.63A4.06,4.06,0,0,1,30.08,30a3.6,3.6,0,0,1,.21,3.09,8.54,8.54,0,0,1-2,3.16,16.28,16.28,0,0,1-4.54,3.36A27.45,27.45,0,0,1,16.82,42a21.72,21.72,0,0,1-5.91.43A10.43,10.43,0,0,1,6.7,41.35a5.08,5.08,0,0,1-2.76-3.77,6.14,6.14,0,0,1,.65-3.74,13,13,0,0,1,3.18-4,27.12,27.12,0,0,1,4.81-3.36,39.37,39.37,0,0,1,5-2.36l.2-.1s0-.07,0-.1c-1-2-1.81-4.05-2.63-6.11a35.1,35.1,0,0,0-2.88-6,16.24,16.24,0,0,0-2.14-2.75A5.83,5.83,0,0,0,7.3,7.4a2.94,2.94,0,0,0-2.86.69,2,2,0,0,1-1.84.39A3.26,3.26,0,0,1,.84,3.12a4.89,4.89,0,0,1,3-1.6A5.91,5.91,0,0,1,8.33,2.65a11.72,11.72,0,0,1,2.94,3.06,32.76,32.76,0,0,1,3.6,7.17c.85,2.24,1.64,4.51,2.46,6.76a29.18,29.18,0,0,0,1.52,3.6c.18.32.18.3.53.19q2.7-.9,5.4-1.77c.8-.26,1.61-.48,2.42-.73a.54.54,0,0,0,.24-.16c1.23-1.53,2.48-3,3.68-4.59a78.36,78.36,0,0,1,5.8-6.79,46.61,46.61,0,0,1,5.19-4.74A26.37,26.37,0,0,1,48.41,1a13.74,13.74,0,0,1,3.93-1,5.7,5.7,0,0,1,3,.45,2.67,2.67,0,0,1,1.58,2.24,5.29,5.29,0,0,1-.49,2.66,16.54,16.54,0,0,1-2.77,4.28,26.77,26.77,0,0,1-6.8,5.7,39.59,39.59,0,0,1-5.67,2.76,65.39,65.39,0,0,1-8.54,2.65c-1.45.37-2.89.77-4.33,1.16a.71.71,0,0,0-.33.22c-.81.85-1.58,1.73-2.42,2.54a6.93,6.93,0,0,1-2.75,1.72,3.73,3.73,0,0,1-4-1,.38.38,0,0,0-.47-.09,37.8,37.8,0,0,0-5,2.59,15.15,15.15,0,0,0-4.22,3.67,6.88,6.88,0,0,0-1.47,3.54,3.21,3.21,0,0,0,1.57,3.2,6.77,6.77,0,0,0,2.73.93,18,18,0,0,0,7.43-.72,18.83,18.83,0,0,0,6.43-3.08,8.52,8.52,0,0,0,2.36-2.57,3.46,3.46,0,0,0,.47-1.42,2.22,2.22,0,0,0-1.4-2.18,6.58,6.58,0,0,0-3.1-.49,12.32,12.32,0,0,0-4.75,1.29C19.11,30.24,18.8,30.44,18.47,30.62ZM29.74,20.15l0,0,3.57-.92a42.49,42.49,0,0,0,7.15-2.61,35.76,35.76,0,0,0,7.28-4.47,16.83,16.83,0,0,0,3.41-3.54,6.62,6.62,0,0,0,1.29-3A1.83,1.83,0,0,0,52,4a2.14,2.14,0,0,0-1.55-.54,8,8,0,0,0-3.14.75,25.3,25.3,0,0,0-5.18,3.06,41.39,41.39,0,0,0-6.36,5.84c-1.77,2-3.48,4-5.22,6Zm-4.18,2.64c-1.87.54-3.7,1.17-5.54,1.89l.17.15a2.48,2.48,0,0,0,2.29.4A7.13,7.13,0,0,0,25.56,22.79Z"/><path class="cls-2" d="M23.18,20.47a5.32,5.32,0,1,1,5.36-5.24A5.3,5.3,0,0,1,23.18,20.47Z"/></g></g></svg>