<?xml version="1.0" encoding="UTF-8"?><svg id="Layer_1" xmlns="http://www.w3.org/2000/svg" viewBox="0 0 1024 1024"><defs><style>.cls-1{fill:#fff;}.cls-2{fill:#1877f2;}</style></defs><path class="cls-2" d="m1024,512C1024,229.23,794.77,0,512,0S0,229.23,0,512c0,255.55,187.23,467.37,432,505.78v-357.78h-130v-148h130v-112.8c0-128.32,76.44-199.2,193.39-199.2,56.02,0,114.61,10,114.61,10v126h-64.56c-63.6,0-83.44,39.47-83.44,79.96v96.04h142l-22.7,148h-119.3v357.78c244.77-38.41,432-250.22,432-505.78Z"/><path class="cls-1" d="m711.3,660l22.7-148h-142v-96.04c0-40.49,19.84-79.96,83.44-79.96h64.56v-126s-58.59-10-114.61-10c-116.95,0-193.39,70.88-193.39,199.2v112.8h-130v148h130v357.78c26.07,4.09,52.78,6.22,80,6.22s53.93-2.13,80-6.22v-357.78h119.3Z"/></svg>