<svg width="39" height="39" viewBox="0 0 39 39" fill="none" xmlns="http://www.w3.org/2000/svg">
<g clip-path="url(#clip0_447_261)">
<path d="M19.5 39C30.2696 39 39 30.2696 39 19.5C39 8.73045 30.2696 0 19.5 0C8.73045 0 0 8.73045 0 19.5C0 30.2696 8.73045 39 19.5 39Z" fill="white"/>
<path d="M21.3076 18.0452L28.3808 10H26.7046L20.563 16.9855L15.6577 10H10L17.4178 20.5634L10 29H11.6762L18.1619 21.623L23.3423 29H29L21.3072 18.0452H21.3076ZM19.0118 20.6564L18.2602 19.6046L12.2802 11.2347H14.8547L19.6807 17.9894L20.4323 19.0413L26.7054 27.8215H24.1309L19.0118 20.6568V20.6564Z" fill="black"/>
</g>
<defs>
<clipPath id="clip0_447_261">
<rect width="39" height="39" fill="white"/>
</clipPath>
</defs>
</svg>
