<svg  xmlns="http://www.w3.org/2000/svg" xmlns:xlink="http://www.w3.org/1999/xlink" viewBox="0 0 593 177">
<path fill-rule="evenodd"  fill="rgb(191, 0, 0)"
 d="M570.232,130.018 L570.232,72.931 C570.232,62.221 562.868,53.179 552.161,53.179 C541.448,53.179 534.091,62.221 534.091,72.931 L534.091,130.018 L512.033,130.018 L512.033,32.839 L534.091,32.839 L534.091,36.451 C534.091,36.451 541.989,30.452 552.838,30.452 C576.261,30.452 592.286,49.505 592.286,72.931 L592.286,130.018 L570.232,130.018 ZM439.723,88.217 C442.619,110.426 467.730,121.695 482.793,99.488 L502.275,110.739 C489.753,128.505 474.850,132.492 463.217,132.492 C440.169,132.492 417.185,111.525 417.185,81.429 C417.185,52.807 435.496,30.374 461.025,30.374 C486.121,30.374 508.688,53.328 503.251,88.230 L439.723,88.217 ZM440.553,68.884 L480.280,68.884 C475.980,44.816 445.199,46.127 440.553,68.884 ZM392.308,97.493 C392.308,106.660 399.100,109.412 402.704,109.412 C405.597,109.412 408.099,108.366 410.078,107.024 L424.615,126.370 C417.676,130.482 409.169,132.487 403.042,132.487 C386.592,132.487 370.247,119.525 370.254,97.827 L370.254,55.904 L358.582,55.904 L358.582,32.836 L370.254,32.836 L370.250,8.621 L392.308,8.621 L392.308,32.836 L411.169,32.836 L411.169,55.904 L392.308,55.904 L392.308,97.493 ZM328.578,126.407 C328.578,126.407 320.681,132.405 309.831,132.405 C286.407,132.405 270.383,113.352 270.383,89.926 L270.383,32.839 L292.439,32.839 L292.439,89.926 C292.439,100.636 299.801,109.679 310.508,109.679 C321.221,109.679 328.578,100.636 328.578,89.926 L328.578,32.839 L350.636,32.839 L350.636,130.018 L328.578,130.018 L328.578,126.407 ZM272.676,130.018 L241.775,130.018 L209.244,90.097 L209.244,130.018 L186.533,130.018 L186.533,0.596 L209.244,0.596 L209.244,66.694 L235.704,32.839 L266.624,32.839 L228.791,78.392 L272.676,130.018 ZM151.905,125.710 C145.252,129.953 139.288,132.405 131.123,132.405 C106.033,132.405 86.972,109.539 86.972,81.431 C86.972,53.330 106.033,30.450 131.123,30.450 C139.288,30.450 145.252,32.918 151.905,37.154 L151.905,32.839 L173.955,32.839 L173.955,130.018 L151.905,130.018 L151.905,125.710 ZM131.123,53.871 C118.754,53.871 109.692,66.053 109.692,81.431 C109.692,96.820 118.754,109.004 131.123,109.004 C143.511,109.004 152.239,96.820 152.239,81.431 C152.239,66.053 143.511,53.871 131.123,53.871 ZM96.842,130.018 L67.963,130.018 L39.719,92.369 L23.403,92.369 L23.403,130.018 L0.338,130.018 L0.338,8.625 L38.456,8.625 C61.550,8.625 80.333,27.381 80.333,50.476 C80.333,64.537 73.346,76.952 62.711,84.591 L96.842,130.018 ZM38.456,31.672 L23.403,31.672 L23.403,69.301 L38.456,69.301 C48.817,69.301 57.286,60.882 57.286,50.476 C57.286,40.097 48.817,31.672 38.456,31.672 ZM147.257,176.758 L118.728,148.227 L476.861,148.227 L147.257,176.758 Z"/>
</svg>