<svg  xmlns="http://www.w3.org/2000/svg" xmlns:xlink="http://www.w3.org/1999/xlink" width="208px" height="110px">
<path fill-rule="evenodd"  fill="rgb(0, 160, 240)"
 d="M200.223,96.531 L188.836,97.167 L188.836,109.463 L183.163,109.463 L183.163,97.393 C180.533,97.484 167.826,97.847 164.924,97.801 L164.698,92.583 C165.786,92.629 166.196,92.629 166.695,92.629 C168.507,92.629 177.357,92.583 179.353,92.583 C179.441,92.494 179.488,92.447 179.623,92.357 C178.943,91.858 175.497,89.271 171.004,87.230 L174.498,83.147 C175.223,83.510 175.586,83.736 176.859,84.507 C178.038,83.282 178.761,82.239 179.306,81.468 L171.049,81.468 L171.049,86.141 L165.468,86.141 L165.468,76.931 L183.163,76.931 L183.163,74.344 L166.465,74.344 L166.465,69.354 L183.163,69.354 L183.163,66.448 L188.879,66.448 L188.879,69.354 L205.533,69.354 L205.533,74.344 L188.879,74.344 L188.879,76.931 L206.576,76.931 L206.576,86.141 L200.951,86.141 L200.951,81.468 L186.113,81.468 C184.300,84.008 183.256,85.097 180.984,87.139 C182.122,87.910 182.757,88.365 183.480,88.863 C187.745,84.871 189.516,82.692 190.467,81.513 L195.235,84.372 C194.142,85.642 191.648,88.592 186.883,92.447 C189.378,92.357 191.150,92.312 195.460,92.129 C194.461,91.313 193.872,90.859 192.781,90.089 L196.820,86.414 C201.584,90.089 203.444,91.631 207.257,95.941 L203.218,100.071 C202.494,99.026 201.812,98.165 200.223,96.531 ZM199.104,25.832 C199.104,22.107 196.546,18.964 192.823,18.964 C189.096,18.964 186.537,22.107 186.537,25.832 L186.537,45.682 L178.870,45.682 L178.870,11.891 L186.537,11.891 L186.537,13.147 C186.537,13.147 189.285,11.061 193.058,11.061 C201.203,11.061 206.775,17.687 206.775,25.832 L206.775,45.682 L199.104,45.682 L199.104,25.832 ZM153.723,31.147 C154.731,38.869 163.462,42.789 168.702,35.067 L175.476,38.978 C171.122,45.155 165.937,46.543 161.894,46.543 C153.880,46.543 145.887,39.252 145.887,28.787 C145.887,18.835 152.256,11.033 161.132,11.033 C169.856,11.033 177.706,19.014 175.814,31.153 L153.723,31.147 ZM154.014,24.425 L167.826,24.425 C166.331,16.056 155.628,16.510 154.014,24.425 ZM137.236,34.371 C137.236,37.561 139.599,38.517 140.853,38.517 C141.859,38.517 142.727,38.154 143.417,37.686 L148.470,44.414 C146.059,45.844 143.101,46.540 140.969,46.540 C135.250,46.540 129.565,42.034 129.568,34.489 L129.568,19.910 L125.509,19.910 L125.509,11.891 L129.568,11.891 L129.566,3.470 L137.236,3.470 L137.236,11.891 L143.795,11.891 L143.795,19.910 L137.236,19.910 L137.236,34.371 ZM115.078,44.426 C115.078,44.426 112.331,46.512 108.558,46.512 C100.412,46.512 94.841,39.887 94.841,31.741 L94.841,11.891 L102.510,11.891 L102.510,31.741 C102.510,35.465 105.070,38.609 108.792,38.609 C112.518,38.609 115.078,35.465 115.078,31.741 L115.078,11.891 L122.746,11.891 L122.746,45.682 L115.078,45.682 L115.078,44.426 ZM95.639,45.682 L84.893,45.682 L73.581,31.802 L73.581,45.682 L65.685,45.682 L65.685,0.679 L73.581,0.679 L73.581,23.664 L82.783,11.890 L93.533,11.890 L80.378,27.730 L95.639,45.682 ZM53.642,44.184 C51.329,45.660 49.257,46.511 46.417,46.511 C37.692,46.511 31.063,38.561 31.063,28.788 C31.063,19.016 37.692,11.061 46.417,11.061 C49.257,11.061 51.329,11.917 53.642,13.391 L53.642,11.890 L61.310,11.890 L61.310,45.682 L53.642,45.682 L53.642,44.184 ZM46.417,19.203 C42.114,19.203 38.965,23.440 38.965,28.788 C38.965,34.138 42.114,38.375 46.417,38.375 C50.723,38.375 53.760,34.138 53.760,28.788 C53.760,23.440 50.723,19.203 46.417,19.203 ZM34.495,45.682 L24.455,45.682 L14.633,32.591 L8.959,32.591 L8.959,45.682 L0.939,45.682 L0.939,3.471 L14.194,3.471 C22.225,3.471 28.755,9.993 28.755,18.024 C28.755,22.912 26.326,27.231 22.627,29.885 L34.495,45.682 ZM14.194,11.485 L8.959,11.485 L8.959,24.570 L14.194,24.570 C17.796,24.570 20.742,21.642 20.742,18.024 C20.742,14.414 17.796,11.485 14.194,11.485 ZM15.528,68.596 L21.814,68.596 L21.814,75.117 L36.591,75.117 C36.543,85.203 36.355,102.607 14.822,109.503 L11.305,104.060 C26.082,99.511 29.601,90.034 29.976,81.169 L7.177,81.169 L7.177,92.052 L0.939,92.052 L0.939,75.117 L15.528,75.117 L15.528,68.596 ZM52.996,85.813 L42.017,85.813 L42.017,80.324 L69.601,80.324 L69.601,85.813 L58.624,85.813 L58.624,100.777 L71.994,100.777 L71.994,106.267 L39.625,106.267 L39.625,100.777 L52.996,100.777 L52.996,85.813 ZM107.588,79.388 C106.086,87.689 102.288,101.294 84.978,109.175 L80.850,103.919 C97.877,96.884 100.176,83.655 101.066,78.825 L73.813,78.825 L73.813,72.725 L101.771,72.725 L107.588,79.388 ZM101.819,68.643 L104.773,66.579 C107.025,69.160 108.480,71.645 110.215,75.023 L107.025,77.228 C105.384,73.711 104.069,71.505 101.819,68.643 ZM111.481,65.220 C113.639,67.892 114.905,70.146 116.689,73.805 L113.453,75.915 C111.810,72.162 110.777,70.379 108.433,67.190 L111.481,65.220 ZM42.106,52.014 L166.640,52.014 L52.026,61.935 L42.106,52.014 ZM118.459,79.835 L118.459,74.571 L124.129,74.571 L124.129,66.587 L129.393,66.587 L129.393,74.571 L132.841,74.571 L132.841,75.977 C139.511,72.711 142.189,69.535 144.321,66.587 L150.670,66.587 C154.392,71.486 156.980,73.392 162.332,76.114 L159.655,81.015 C158.523,80.379 157.388,79.743 155.664,78.519 L155.664,80.333 L149.990,80.333 L149.990,83.418 L159.883,83.418 L159.883,97.029 L151.626,97.029 C152.350,98.664 153.758,101.566 162.015,104.244 L159.655,109.416 C150.989,106.423 148.267,101.340 147.449,99.844 C143.594,106.922 137.152,108.917 135.155,109.553 L132.388,104.561 C137.425,102.883 141.370,100.841 143.232,97.029 L134.883,97.029 L134.883,89.679 L132.433,94.626 C130.709,92.402 130.256,91.496 129.393,89.725 L129.393,109.325 L124.129,109.325 L124.129,91.540 C122.314,97.076 120.953,99.071 119.683,100.888 L117.641,93.628 C120.092,90.179 122.179,86.550 123.812,79.835 L118.459,79.835 ZM154.847,92.493 L154.847,87.956 L149.990,87.956 C149.990,89.998 149.948,90.906 149.766,92.493 L154.847,92.493 ZM152.214,75.750 C149.809,73.619 148.540,72.030 147.542,70.714 C146.408,72.121 145.045,73.709 142.778,75.750 L152.214,75.750 ZM139.874,92.493 L144.455,92.493 C144.683,90.950 144.730,89.725 144.730,87.956 L139.874,87.956 L139.874,92.493 ZM129.393,81.876 C131.934,86.231 133.886,88.138 134.883,89.136 L134.883,83.418 L144.730,83.418 L144.730,80.333 L139.511,80.333 L139.511,78.473 C137.425,80.062 136.199,80.651 135.065,81.195 L132.841,76.522 L132.841,79.835 L129.393,79.835 L129.393,81.876 ZM175.223,97.756 L179.623,100.842 C175.767,105.561 169.868,108.419 167.964,109.372 L164.743,104.606 C166.014,104.063 171.412,101.795 175.223,97.756 ZM207.617,104.245 L204.398,109.099 C198.363,106.648 194.871,103.972 191.784,100.660 L195.733,97.393 C199.272,100.660 202.401,102.385 207.617,104.245 Z"/>
</svg>