<?xml version="1.0" encoding="utf-8"?>
<!-- Generator: Adobe Illustrator 27.1.1, SVG Export Plug-In . SVG Version: 6.00 Build 0)  -->
<svg version="1.1" id="_イヤー_1" xmlns="http://www.w3.org/2000/svg" xmlns:xlink="http://www.w3.org/1999/xlink" x="0px"
	 y="0px" viewBox="0 0 325 98" style="enable-background:new 0 0 325 98;" xml:space="preserve">
<style type="text/css">
	.st0{fill:#FFFFFF;}
	.st1{fill:#BF0000;}
	.st2{fill:none;}
</style>
<rect y="0" class="st0" width="325" height="98"/>
<g>
	<g>
		<g>
			<polygon class="st1" points="99.7,63.5 96.1,60.4 121.3,60.4 			"/>
			<path class="st1" d="M103.8,58.2v-6.7h2.9l5,6.7h5.1l-6.1-8.1c1.9-1.4,3.1-3.6,3.1-6.1c0-4.1-3.3-7.4-7.4-7.4h-6.8v21.6H103.8z
				 M103.8,40.7h2.7c1.8,0,3.3,1.5,3.3,3.3c0,1.9-1.5,3.3-3.3,3.3h-2.7V40.7z"/>
		</g>
		<g>
			<path class="st1" d="M152.2,40.6h-3.6l0.5,2.9l-3.2,0.1v3.4l3.7-0.1l1.9,11.8h3.7l-1.9-11.9l6.9-0.2c-0.7,1.9-2.1,3.3-4.3,4.1V54
				c4.7-1.2,8.3-4.6,8.6-10.9l-11.8,0.3L152.2,40.6z"/>
			<g>
				<path class="st1" d="M176.1,40.1c-3.1-0.6-6.9-1-10-1.2v3.7c2.9,0.2,7.1,0.7,10,1.3V40.1z"/>
				<path class="st1" d="M180.9,42.2c-0.8,9.2-6.1,11.5-14.4,12.1V58c11.1-0.3,17.6-4.7,18.5-15.9H180.9z"/>
			</g>
			<g>
				<path class="st1" d="M211,44.9c0,5.8-1.3,8-2.9,9.5v4.3c3.9-2.2,6.6-5.5,6.6-14v-6.1H211V44.9z"/>
				<path class="st1" d="M225.2,44.7c-0.2,3.8-1.5,7.8-4.5,8.7V38.5H217v19.7c7.8-0.4,11.6-5.2,11.9-13.5H225.2z"/>
			</g>
			<path class="st1" d="M197.6,52.2c2.8,0.6,6,1.6,8.8,2.6V51c-2.1-0.8-5-1.6-7.7-2.2c2.2-1.5,4.3-3.1,6-4.9v-3.4h-7.2v-2.8h-3.8
				v2.8H187V44h12.4c-1.6,1.4-3.5,2.6-5.6,3.7c-2.5,1.3-5.3,2.4-8.2,3.1v3.6c2.8-0.6,5.8-1.6,8.4-2.8v7.1h3.7V52.2z"/>
			<path class="st1" d="M137,45.5v-3.5c1.7-0.2,3.3-0.6,5-1l-1.8-3.3c-2.7,0.8-6.8,1.9-14.8,1.9l0.7,3.2c2,0,5-0.1,7-0.3v3h-9.8v3.4
				h9.6c-0.7,3.5-3,5.5-7.4,6v3.5c5.2-0.4,10.5-2.9,11.4-9.4h7v-3.4H137z"/>
		</g>
	</g>
	<path class="st2" d="M235.4,67.9H89.6c-1.2,0-2.2-1-2.2-2.2V30.1c0-1.2,1-2.2,2.2-2.2h145.8c1.2,0,2.2,1,2.2,2.2v35.6
		C237.6,66.9,236.6,67.9,235.4,67.9z"/>
</g>
</svg>
