<svg xmlns="http://www.w3.org/2000/svg" width="325" height="98" viewBox="0 0 325 98">
  <defs>
    <style>
      .a {
        fill: #fff;
      }

      .b {
        fill: #655cac;
      }

      .c {
        fill: none;
      }
    </style>
  </defs>
  <title>logo_viber_01</title>
  <rect class="a" width="325" height="98"/>
  <g>
    <g>
      <g>
        <polygon class="b" points="157.801 59.593 94.098 59.593 99.173 64.667 157.801 59.593"/>
        <path class="b" d="M100,39.068v.767a6.436,6.436,0,0,0-3.7-1.191c-4.463,0-7.853,4.069-7.853,9.067s3.39,9.067,7.853,9.067a6.422,6.422,0,0,0,3.7-1.191v.767h3.923V39.068ZM96.3,52.616c-2.2,0-3.812-2.167-3.812-4.905s1.612-4.9,3.812-4.9,3.756,2.167,3.756,4.9S98.507,52.616,96.3,52.616Z"/>
        <path class="b" d="M131.426,39.068V49.222a3.227,3.227,0,1,1-6.429,0V39.068h-3.923V49.222c0,4.167,2.85,7.556,7.017,7.556a6.022,6.022,0,0,0,3.335-1.067v.643h3.923V39.068Z"/>
        <path class="b" d="M167.981,56.354V46.2a3.227,3.227,0,1,1,6.428,0V56.354h3.923V46.2c0-4.166-2.85-7.555-7.017-7.555a6.016,6.016,0,0,0-3.334,1.067v-.643h-3.924V56.354Z"/>
        <path class="b" d="M77.143,56.354v-6.7h2.9l5.024,6.7h5.136l-6.071-8.081A7.443,7.443,0,0,0,79.82,34.761H73.04V56.354Zm0-17.494H79.82a3.347,3.347,0,1,1,0,6.694H77.143Z"/>
        <path class="b" d="M145.922,52.264a2.339,2.339,0,0,1-1.312.425,1.934,1.934,0,0,1-1.849-2.121v-7.4h3.355v-4.1h-3.355V34.76h-3.923v4.308h-2.075v4.1h2.075v7.457a5.9,5.9,0,0,0,5.832,6.165,8.079,8.079,0,0,0,3.838-1.088Z"/>
        <polygon class="b" points="113.676 47.171 120.405 39.068 114.906 39.068 110.199 45.09 110.199 33.333 106.159 33.333 106.159 56.354 110.199 56.354 110.199 49.253 115.985 56.354 121.482 56.354 113.676 47.171"/>
        <path class="b" d="M154.984,38.629c-4.54,0-7.8,3.991-7.8,9.082,0,5.353,4.089,9.083,8.188,9.083a8.187,8.187,0,0,0,6.948-3.87l-3.465-2c-2.68,3.951-7.146,1.945-7.662-2l11.3,0C163.462,42.713,159.448,38.629,154.984,38.629Zm3.425,6.851h-7.066C152.169,41.431,157.645,41.2,158.409,45.48Z"/>
      </g>
      <g>
        <path class="b" d="M190.967,54.873l-6.319-15.748a3.219,3.219,0,0,1-.2-.643,3.443,3.443,0,0,1-.071-.7,2.207,2.207,0,0,1,.7-1.668,2.437,2.437,0,0,1,1.751-.665,1.77,1.77,0,0,1,1.259.46,4.142,4.142,0,0,1,.9,1.562l4.287,11.582,4.139-11.413a4.1,4.1,0,0,1,.94-1.71,1.988,1.988,0,0,1,1.4-.481,2.344,2.344,0,0,1,1.679.58,2.077,2.077,0,0,1,.612,1.583,4.483,4.483,0,0,1-.313,1.626l-6.121,15.451a3.6,3.6,0,0,1-.967,1.5,2.18,2.18,0,0,1-1.424.453,2.087,2.087,0,0,1-1.331-.41A3.367,3.367,0,0,1,190.967,54.873Z"/>
        <path class="b" d="M207.618,53.5a4.27,4.27,0,0,1-.525,2.375,1.818,1.818,0,0,1-1.614.77,1.859,1.859,0,0,1-1.641-.777A4.187,4.187,0,0,1,203.3,53.5V44.808a4.2,4.2,0,0,1,.531-2.362,1.865,1.865,0,0,1,1.648-.769,1.817,1.817,0,0,1,1.614.769,4.241,4.241,0,0,1,.525,2.362Z"/>
        <path class="b" d="M214.159,41.8a5.227,5.227,0,0,1,1.659-.982,5.7,5.7,0,0,1,1.956-.327,6.393,6.393,0,0,1,5.018,2.355,8.668,8.668,0,0,1,2.042,5.886,8.264,8.264,0,0,1-2.092,5.686,6.436,6.436,0,0,1-4.968,2.355,5.367,5.367,0,0,1-2.092-.4,4.466,4.466,0,0,1-1.637-1.167,3.278,3.278,0,0,1-.975,1.11,2.125,2.125,0,0,1-1.217.371,1.948,1.948,0,0,1-1.729-.826,4.519,4.519,0,0,1-.562-2.519V38.8a4.551,4.551,0,0,1,.562-2.533,1.948,1.948,0,0,1,1.729-.826,1.969,1.969,0,0,1,1.737.826,4.512,4.512,0,0,1,.569,2.533Zm-.351,6.849a4.7,4.7,0,0,0,.921,3.033,3.017,3.017,0,0,0,4.745-.015,4.683,4.683,0,0,0,.929-3.018,4.834,4.834,0,0,0-.921-3.065,3,3,0,0,0-4.753-.008A4.829,4.829,0,0,0,213.808,48.647Z"/>
        <path class="b" d="M230,49.9a3.21,3.21,0,0,0,1.329,2.015,3.756,3.756,0,0,0,2.405.723,6.871,6.871,0,0,0,2.883-.745,7.457,7.457,0,0,1,1.957-.745,1.828,1.828,0,0,1,1.324.5,1.7,1.7,0,0,1,.512,1.277q0,1.476-2.064,2.661a9.577,9.577,0,0,1-4.853,1.184,7.648,7.648,0,0,1-5.68-2.312,7.938,7.938,0,0,1-2.277-5.8,8.181,8.181,0,0,1,2.213-5.846,7.279,7.279,0,0,1,5.516-2.341,7.166,7.166,0,0,1,5.338,2.2,7.408,7.408,0,0,1,2.149,5.378,1.853,1.853,0,0,1-.47,1.447,2.85,2.85,0,0,1-1.808.412Zm-.184-2.684h6.753a3.512,3.512,0,0,0-1.032-2.312,3.2,3.2,0,0,0-2.238-.858,3.461,3.461,0,0,0-2.294.811A4.25,4.25,0,0,0,229.812,47.22Z"/>
        <path class="b" d="M242.025,53.274V44.037a4.5,4.5,0,0,1,.562-2.513,1.956,1.956,0,0,1,1.73-.818,2.17,2.17,0,0,1,1.238.363,3.121,3.121,0,0,1,.954,1.1,5.2,5.2,0,0,1,1.509-1.16,3.612,3.612,0,0,1,1.608-.391,2.268,2.268,0,0,1,1.644.676,2.165,2.165,0,0,1,.69,1.6q0,1.38-2.533,2.306-.912.327-1.367.541a2.506,2.506,0,0,0-1.153.917,4.081,4.081,0,0,0-.285,1.829v4.783a4.479,4.479,0,0,1-.568,2.519,2.232,2.232,0,0,1-3.467,0A4.525,4.525,0,0,1,242.025,53.274Z"/>
        <path class="b" d="M203.159,37.836a2.3,2.3,0,0,1,.712-1.693,2.345,2.345,0,0,1,1.709-.706,2.285,2.285,0,0,1,1.683.706,2.382,2.382,0,0,1-1.683,4.079,2.357,2.357,0,0,1-1.722-.692A2.3,2.3,0,0,1,203.159,37.836Z"/>
      </g>
    </g>
    <rect class="c" x="73.04" y="34.761" width="178.92" height="24.832"/>
  </g>
</svg>
