<?xml version="1.0" encoding="UTF-8"?><svg id="_イヤー_1" xmlns="http://www.w3.org/2000/svg" viewBox="0 0 325 98"><defs><style>.cls-1{fill:#fff;}.cls-2{fill:none;}.cls-3{fill:#bf0000;}</style></defs><rect class="cls-1" y="0" width="325" height="98"/><g><rect class="cls-2" x="45.06" y="25.8" width="234.88" height="46.41" rx="2.16" ry="2.16"/><g><rect class="cls-2" x="55.85" y="36.59" width="213.3" height="24.82"/><g><g><path class="cls-3" d="M181.38,58.07h-4.26v-3.56h3.42c1.65,0,2.24-.63,2.24-2.24v-7.27h-5.69c-.5,7.39-4.69,11.71-9.52,13.28v-3.78c3.06-1.68,5.51-4.78,5.69-9.49h-5.69v-3.44h5.69v-3.51h3.87v3.51h9.58v10.99c0,3.83-1.63,5.53-5.35,5.53Z"/><path class="cls-3" d="M189.24,49v-3.6h18.66v3.6h-18.66Z"/><path class="cls-3" d="M210.44,48.66v-3.51c3.08,.09,7.21,.43,10.26,.84v3.53c-3.24-.41-7.39-.79-10.26-.86Zm.23-6.55v-3.49c3.01,.09,7.05,.41,10.26,.79v3.58c-3.1-.39-7.39-.79-10.26-.88Zm.27,15.97v-3.72c9.56-.27,14.12-3.38,14.95-12.44h3.99c-.86,11.92-7.98,16.02-18.94,16.15Z"/><path class="cls-3" d="M231.13,57.51v-3.16h6.46v-8.52h-5.42v-3.14h14.68v3.14h-5.77v8.52h6.84v3.16h-16.78Z"/><path class="cls-3" d="M258.91,51.75c-1.65,3.74-4.85,5.8-8.47,6.59v-3.58c3.83-1.43,6-4.21,6-9.49v-1.06h3.65v1.29c0,.84-.05,1.63-.14,2.38,2.88-.86,4.4-2.9,4.92-5.55h-15.11v-3.53h19.39v.75c-.14,8.02-5.26,11.35-10.24,12.21Z"/></g><g><polygon class="cls-3" points="140.58 61.41 76.9 61.41 81.98 66.48 140.58 61.41"/><path class="cls-3" d="M82.8,40.89v.77c-1.18-.75-2.24-1.19-3.69-1.19-4.46,0-7.85,4.07-7.85,9.06s3.39,9.06,7.85,9.06c1.45,0,2.51-.44,3.69-1.19v.77h3.92v-17.28h-3.92Zm-3.69,13.54c-2.2,0-3.81-2.17-3.81-4.9s1.61-4.9,3.81-4.9,3.75,2.17,3.75,4.9-1.55,4.9-3.75,4.9Z"/><path class="cls-3" d="M114.22,40.89v10.15c0,1.9-1.31,3.51-3.21,3.51s-3.21-1.61-3.21-3.51v-10.15h-3.92v10.15c0,4.16,2.85,7.55,7.01,7.55,1.93,0,3.33-1.07,3.33-1.07v.64h3.92v-17.28h-3.92Z"/><path class="cls-3" d="M150.76,58.17v-10.15c0-1.9,1.31-3.51,3.21-3.51s3.21,1.61,3.21,3.51v10.15h3.92v-10.15c0-4.16-2.85-7.55-7.01-7.55-1.93,0-3.33,1.07-3.33,1.07v-.64h-3.92v17.28h3.92Z"/><path class="cls-3" d="M59.95,58.17v-6.69h2.9l5.02,6.69h5.13l-6.07-8.08c1.89-1.36,3.13-3.57,3.13-6.07,0-4.11-3.34-7.44-7.45-7.44h-6.78v21.59h4.1Zm0-17.49h2.68c1.84,0,3.35,1.5,3.35,3.34s-1.51,3.35-3.35,3.35h-2.68v-6.69Z"/><path class="cls-3" d="M128.71,54.09c-.35,.24-.8,.42-1.31,.42-.64,0-1.85-.49-1.85-2.12v-7.39h3.35v-4.1h-3.35v-4.31h-3.92v4.31h-2.07v4.1h2.07v7.45c0,3.86,2.91,6.16,5.83,6.16,1.09,0,2.6-.36,3.84-1.09l-2.58-3.44Z"/><polygon class="cls-3" points="96.47 48.99 103.2 40.89 97.7 40.89 93 46.91 93 35.16 88.96 35.16 88.96 58.17 93 58.17 93 51.08 98.78 58.17 104.28 58.17 96.47 48.99"/><path class="cls-3" d="M137.77,40.46c-4.54,0-7.79,3.99-7.79,9.08,0,5.35,4.09,9.08,8.18,9.08,2.07,0,4.72-.71,6.95-3.87l-3.46-2c-2.68,3.95-7.14,1.94-7.66-2h11.3c.97-6.2-3.05-10.29-7.51-10.29Zm3.42,6.85h-7.06c.83-4.05,6.3-4.28,7.06,0Z"/></g></g></g></g></svg>