<svg xmlns="http://www.w3.org/2000/svg" width="325" height="98" viewBox="0 0 325 98">
  <defs>
    <style>
      .a {
        fill: #fff;
      }

      .b {
        fill: none;
      }

      .c {
        fill: #002896;
      }
    </style>
  </defs>
  <title>logo_Insight_02</title>
  <rect class="a" width="325" height="98"/>
  <g>
    <g>
      <rect class="b" x="109.854" y="20.184" width="105.292" height="54.655"/>
      <g>
        <g>
          <path class="c" d="M112.2,74.839h-2.345V54.325H112.2Z"/>
          <path class="c" d="M117.131,59.721a6.611,6.611,0,0,1,4.509-1.694c3.52,0,5.918,2.684,5.918,6.594V74.839h-2.346V64.6c0-2.685-1.512-4.379-3.91-4.379a4.415,4.415,0,0,0-4.223,4.3V74.839h-2.346V58.418h2.086Z"/>
          <path class="c" d="M138.225,61.832a4.377,4.377,0,0,0-3.311-1.616c-1.616,0-2.71.912-2.71,2.294a2.057,2.057,0,0,0,.912,1.877c.312.234.312.234,3.049,1.407,3.18,1.407,4.432,2.815,4.432,4.979,0,2.736-2.19,4.483-5.657,4.483a6.922,6.922,0,0,1-5.812-2.685l1.642-1.486a5.212,5.212,0,0,0,4.2,1.981c1.93,0,3.128-.86,3.128-2.267a2.984,2.984,0,0,0-1.355-2.268,15.83,15.83,0,0,0-3.415-1.668c-2.554-1.069-3.623-2.372-3.623-4.457,0-2.633,2.085-4.379,5.213-4.379a6.536,6.536,0,0,1,5.005,2.059Z"/>
          <path class="c" d="M142.168,56.384v-2.71h2.711v2.71Zm.183,18.455V58.418H144.7V74.839Z"/>
          <path class="c" d="M159.856,71.476c0,5-2.4,7.768-6.724,7.768a7.356,7.356,0,0,1-5.865-2.711l1.564-1.486a5.67,5.67,0,0,0,4.118,2.111c3.024,0,4.327-2.007,4.431-6.8a5.2,5.2,0,0,1-4.614,2.215c-3.648,0-6.229-2.919-6.229-7.038,0-4.378,2.685-7.506,6.412-7.506a5.808,5.808,0,0,1,4.379,1.72l.47-1.329h2.058Zm-10.869-6.047c0,2.971,1.721,5.057,4.2,5.057,2.528,0,4.248-2.059,4.248-5.057,0-3.023-1.85-5.317-4.274-5.317C150.708,60.112,148.987,62.3,148.987,65.429Z"/>
          <path class="c" d="M164.735,60.06a6.246,6.246,0,0,1,4.588-2.033c3.493,0,5.891,2.684,5.891,6.594V74.839h-2.346V64.6c0-2.685-1.512-4.379-3.91-4.379a4.415,4.415,0,0,0-4.223,4.3V74.839H162.39V52.97h2.345Z"/>
          <path class="c" d="M180.96,54.821v3.6h4.118v2.189H180.96V71.5c0,1.017.574,1.564,1.668,1.564a2.032,2.032,0,0,0,1.981-1.251l1.773,1.225a4.264,4.264,0,0,1-3.988,2.216,3.3,3.3,0,0,1-3.493-2.19,5.561,5.561,0,0,1-.287-2.085V60.607H175.8V58.418h2.815v-3.6Z"/>
        </g>
        <g>
          <polygon class="c" points="194.615 45.016 130.913 45.016 135.987 50.09 194.615 45.016"/>
          <path class="c" d="M136.814,24.492v.767a6.433,6.433,0,0,0-3.7-1.192c-4.462,0-7.853,4.07-7.853,9.068s3.391,9.067,7.853,9.067a6.432,6.432,0,0,0,3.7-1.191v.766h3.923V24.492Zm-3.7,13.547c-2.2,0-3.811-2.167-3.811-4.9s1.611-4.9,3.811-4.9,3.757,2.168,3.757,4.9S135.321,38.039,133.117,38.039Z"/>
          <path class="c" d="M168.24,24.492V34.646a3.227,3.227,0,1,1-6.429,0V24.492h-3.923V34.646c0,4.166,2.85,7.556,7.017,7.556a6.018,6.018,0,0,0,3.335-1.068v.643h3.923V24.492Z"/>
          <path class="c" d="M204.8,41.777V31.623a3.227,3.227,0,1,1,6.428,0V41.777h3.923V31.623c0-4.167-2.85-7.556-7.017-7.556a6.016,6.016,0,0,0-3.334,1.067v-.642h-3.924V41.777Z"/>
          <path class="c" d="M113.957,41.777v-6.7h2.9l5.024,6.7h5.137L120.948,33.7a7.443,7.443,0,0,0-4.313-13.512h-6.781V41.777Zm0-17.493h2.678a3.347,3.347,0,1,1,0,6.693h-2.678Z"/>
          <path class="c" d="M182.736,37.687a2.331,2.331,0,0,1-1.311.425,1.935,1.935,0,0,1-1.85-2.121v-7.4h3.355v-4.1h-3.355V20.184h-3.923v4.307h-2.075v4.1h2.075v7.457a5.9,5.9,0,0,0,5.833,6.166,8.078,8.078,0,0,0,3.837-1.088Z"/>
          <polygon class="c" points="150.49 32.594 157.219 24.492 151.72 24.492 147.013 30.513 147.013 18.756 142.974 18.756 142.974 41.777 147.013 41.777 147.013 34.677 152.799 41.777 158.296 41.777 150.49 32.594"/>
          <path class="c" d="M191.8,24.053c-4.54,0-7.8,3.99-7.8,9.081,0,5.354,4.088,9.083,8.187,9.083a8.187,8.187,0,0,0,6.948-3.869l-3.465-2c-2.68,3.95-7.146,1.945-7.662-2.005l11.3,0C200.276,28.136,196.262,24.053,191.8,24.053Zm3.425,6.85h-7.066C188.983,26.855,194.458,26.622,195.223,30.9Z"/>
        </g>
      </g>
    </g>
    <path class="b" d="M158.02,59.8V53.1h2.9l5.025,6.7h5.136l-6.071-8.081A7.444,7.444,0,0,0,160.7,38.2h-6.781V59.8Zm0-17.494H160.7a3.347,3.347,0,1,1,0,6.694H158.02Z"/>
  </g>
</svg>
