<svg xmlns="http://www.w3.org/2000/svg" width="325" height="98" viewBox="0 0 325 98">
  <defs>
    <style>
      .a {
        fill: #fff;
      }

      .b {
        fill: none;
      }

      .c {
        fill: #00b900;
      }
    </style>
  </defs>
  <title>logo_travel_01</title>
  <rect class="a" width="325" height="98"/>
  <g>
    <rect class="b" x="68.478" y="34.761" width="188.045" height="24.832"/>
    <g>
      <g>
        <path class="c" d="M189.772,39.489V54.92a1.956,1.956,0,0,1-3.909,0V39.489h-4.119a1.827,1.827,0,1,1,0-3.649h12.173a1.827,1.827,0,1,1,0,3.649Z"/>
        <path class="c" d="M199.728,41.444a5.4,5.4,0,0,1,3-1.72,1.855,1.855,0,0,1,2.32,1.746V41.5a1.84,1.84,0,0,1-1.407,1.773,4.084,4.084,0,0,0-2.815,1.72,4.288,4.288,0,0,0-.678,2.372v7.455a1.955,1.955,0,0,1-3.91,0V41.47a1.752,1.752,0,0,1,1.746-1.772C199.572,39.7,199.728,41.444,199.728,41.444Z"/>
        <path class="c" d="M218.3,39.724a1.882,1.882,0,0,1,1.955,1.851V54.712a1.883,1.883,0,0,1-1.955,1.85,2.03,2.03,0,0,1-1.955-1.694,5.055,5.055,0,0,1-4.041,1.9c-4.118,0-7.454-3.884-7.454-8.628s3.441-8.6,7.663-8.6a4.59,4.59,0,0,1,3.832,1.9s.287-1.72,1.824-1.72Zm-1.955,8.445c0-2.919-1.59-4.978-3.806-4.978-2.111,0-3.779,2.189-3.779,4.952s1.693,4.979,3.805,4.979C214.756,53.122,216.346,51.062,216.346,48.169Z"/>
        <path class="c" d="M231.5,41.027a2.086,2.086,0,1,1,3.988,1.225l-4.014,12.486a3.007,3.007,0,0,1-5.708,0l-4.04-12.486a2.086,2.086,0,1,1,3.987-1.225l2.92,9.905Z"/>
        <path class="c" d="M249.053,51.506a1.861,1.861,0,0,1,.312,3,7.257,7.257,0,0,1-5.473,2.268c-4.718,0-8.107-3.6-8.107-8.6,0-4.9,3.31-8.654,7.585-8.654,4.223,0,7.585,3.832,7.585,8.576a1.242,1.242,0,0,1-1.251,1.2h-9.592A3.825,3.825,0,0,0,244,53.043a3.549,3.549,0,0,0,2.684-1.3A1.913,1.913,0,0,1,249.053,51.506Zm-2.5-5.552c-.391-1.955-1.486-2.972-3.154-2.972-1.589,0-2.789,1.095-3.206,2.972Z"/>
        <path class="c" d="M252.612,36a1.955,1.955,0,0,1,3.91,0v18.82a1.955,1.955,0,1,1-3.91,0Z"/>
      </g>
      <g>
        <polygon class="c" points="153.239 59.593 89.536 59.593 94.61 64.667 153.239 59.593"/>
        <path class="c" d="M95.437,39.068v.767a6.436,6.436,0,0,0-3.7-1.191c-4.463,0-7.853,4.069-7.853,9.067s3.39,9.067,7.853,9.067a6.422,6.422,0,0,0,3.7-1.191v.767H99.36V39.068Zm-3.7,13.548c-2.2,0-3.812-2.167-3.812-4.905s1.611-4.9,3.812-4.9,3.756,2.167,3.756,4.9S93.944,52.616,91.741,52.616Z"/>
        <path class="c" d="M126.863,39.068V49.222a3.227,3.227,0,1,1-6.428,0V39.068h-3.923V49.222c0,4.167,2.85,7.556,7.017,7.556a6.02,6.02,0,0,0,3.334-1.067v.643h3.923V39.068Z"/>
        <path class="c" d="M163.418,56.354V46.2a3.227,3.227,0,1,1,6.428,0V56.354h3.923V46.2c0-4.166-2.85-7.555-7.017-7.555a6.02,6.02,0,0,0-3.334,1.067v-.643H159.5V56.354Z"/>
        <path class="c" d="M72.581,56.354v-6.7h2.9l5.024,6.7h5.136l-6.071-8.081a7.443,7.443,0,0,0-4.314-13.512h-6.78V56.354Zm0-17.494h2.677a3.347,3.347,0,1,1,0,6.694H72.581Z"/>
        <path class="c" d="M141.36,52.263a2.327,2.327,0,0,1-1.312.426,1.934,1.934,0,0,1-1.849-2.121v-7.4h3.355v-4.1H138.2V34.76h-3.923v4.308H132.2v4.1h2.076v7.457a5.9,5.9,0,0,0,5.832,6.165,8.078,8.078,0,0,0,3.837-1.088Z"/>
        <polygon class="c" points="109.113 47.171 115.843 39.068 110.343 39.068 105.637 45.09 105.637 33.333 101.597 33.333 101.597 56.354 105.637 56.354 105.637 49.253 111.423 56.354 116.919 56.354 109.113 47.171"/>
        <path class="c" d="M150.422,38.63c-4.541,0-7.8,3.99-7.8,9.081,0,5.353,4.088,9.083,8.187,9.083a8.187,8.187,0,0,0,6.948-3.87l-3.465-2c-2.68,3.95-7.146,1.945-7.662-2.005l11.3,0C158.9,42.713,154.885,38.63,150.422,38.63Zm3.424,6.85H146.78C147.606,41.431,153.082,41.2,153.846,45.48Z"/>
      </g>
    </g>
  </g>
</svg>
