<svg xmlns="http://www.w3.org/2000/svg" width="325" height="98" viewBox="0 0 325 98">
  <defs>
    <style>
      .a {
        fill: #fff;
      }

      .b {
        fill: none;
      }

      .c {
        fill: #f59600;
      }
    </style>
  </defs>
  <title>logo_recipe_01</title>
  <rect class="a" width="325" height="98"/>
  <g>
    <g>
      <rect class="b" x="76.302" y="34.761" width="172.396" height="24.832"/>
      <g>
        <g>
          <path class="c" d="M188.072,38.012c0-.458,0-1.685,1.755-1.685,1.805,0,1.805,1.155,1.805,1.685V51.484c0,.24,0,.674.577.674a17.431,17.431,0,0,0,8.469-4.451,13.228,13.228,0,0,0,2.526-3.633.742.742,0,0,1,.722-.481.848.848,0,0,1,.866.77A16.129,16.129,0,0,1,200.7,51.1a19.587,19.587,0,0,1-10.61,5.148,1.913,1.913,0,0,1-2.02-1.948Z"/>
          <path class="c" d="M212.333,45.693a19.4,19.4,0,0,0-3.608-2.069c-.649-.264-1.011-.408-1.011-.986,0-.192.1-.77.939-.77a24.369,24.369,0,0,1,4.113.866c1.973.649,2.935.939,2.935,2.141a1.783,1.783,0,0,1-1.66,1.757C213.632,46.632,213.512,46.535,212.333,45.693Zm-1.227,6.777c5.606-.674,10.658-3.464,14.459-9.358.842-1.275.938-1.42,1.347-1.42a.8.8,0,0,1,.818.746,22.958,22.958,0,0,1-6.255,8.949,23.3,23.3,0,0,1-10.681,4.884c-1.588,0-1.732-1.756-1.732-1.9C209.062,52.759,209.952,52.614,211.106,52.47Zm3.585-12.245a12.894,12.894,0,0,0-3.127-2.454c-.6-.337-.626-.626-.626-.818a.81.81,0,0,1,.818-.818,25.994,25.994,0,0,1,4.042,1.444c2.093.938,2.357,1.419,2.357,2.092a1.815,1.815,0,0,1-1.684,1.8C215.942,41.476,215.822,41.356,214.691,40.225Z"/>
          <path class="c" d="M246.367,53.94c-.264,0-1.491.265-1.756.289a29.084,29.084,0,0,1-4.9.289c-4.5,0-5.472,0-5.472-2.31v-6a54.02,54.02,0,0,0,8.23-1.554c3.3-.939,3.9-1.083,3.9-2.07a1.739,1.739,0,0,0-1.708-1.66c-.457,0-.7.121-1.708.65a27.078,27.078,0,0,1-8.711,2.894V38.107c0-.553,0-1.683-1.78-1.683s-1.78,1.2-1.78,1.683V51.871c0,4.162,1.66,4.162,10.586,4.162a39.918,39.918,0,0,0,4.572-.168c.6-.072,1.419-.145,1.419-.987A.914.914,0,0,0,246.367,53.94Z"/>
          <path class="c" d="M246.244,35.265a2.442,2.442,0,1,0,2.454,2.454A2.449,2.449,0,0,0,246.244,35.265Zm0,3.632a1.186,1.186,0,0,1-1.2-1.178,1.206,1.206,0,0,1,1.2-1.2,1.191,1.191,0,0,1,0,2.381Z"/>
        </g>
        <g>
          <polygon class="c" points="161.063 59.593 97.361 59.593 102.435 64.667 161.063 59.593"/>
          <path class="c" d="M103.262,39.068v.767a6.44,6.44,0,0,0-3.7-1.191c-4.462,0-7.853,4.069-7.853,9.067s3.391,9.067,7.853,9.067a6.425,6.425,0,0,0,3.7-1.191v.767h3.922V39.068Zm-3.7,13.548c-2.2,0-3.811-2.167-3.811-4.905s1.611-4.9,3.811-4.9,3.757,2.167,3.757,4.9S101.769,52.616,99.565,52.616Z"/>
          <path class="c" d="M134.688,39.068V49.222a3.227,3.227,0,1,1-6.429,0V39.068h-3.923V49.222c0,4.167,2.85,7.556,7.017,7.556a6.022,6.022,0,0,0,3.335-1.067v.643h3.923V39.068Z"/>
          <path class="c" d="M171.242,56.354V46.2a3.227,3.227,0,1,1,6.429,0V56.354h3.923V46.2c0-4.166-2.85-7.555-7.017-7.555a6.022,6.022,0,0,0-3.335,1.067v-.643h-3.923V56.354Z"/>
          <path class="c" d="M80.405,56.354v-6.7h2.9l5.024,6.7h5.136L87.4,48.273a7.443,7.443,0,0,0-4.313-13.512H76.3V56.354Zm0-17.494h2.678a3.347,3.347,0,1,1,0,6.694H80.405Z"/>
          <path class="c" d="M149.184,52.264a2.332,2.332,0,0,1-1.312.425,1.934,1.934,0,0,1-1.849-2.121v-7.4h3.355v-4.1h-3.355V34.76H142.1v4.308h-2.075v4.1H142.1v7.457a5.9,5.9,0,0,0,5.832,6.165,8.079,8.079,0,0,0,3.838-1.088Z"/>
          <polygon class="c" points="116.938 47.171 123.667 39.068 118.168 39.068 113.461 45.09 113.461 33.333 109.421 33.333 109.421 56.354 113.461 56.354 113.461 49.253 119.247 56.354 124.744 56.354 116.938 47.171"/>
          <path class="c" d="M158.246,38.63c-4.541,0-7.8,3.99-7.8,9.081,0,5.353,4.089,9.083,8.188,9.083a8.188,8.188,0,0,0,6.948-3.87l-3.465-2c-2.68,3.951-7.147,1.946-7.662-2l11.3,0C166.724,42.713,162.71,38.63,158.246,38.63Zm3.425,6.85H154.6C155.431,41.431,160.906,41.2,161.671,45.48Z"/>
        </g>
      </g>
    </g>
    <path class="b" d="M121.89,92.735v-6.7h2.9l5.024,6.7h5.137l-6.071-8.081a7.443,7.443,0,0,0-4.314-13.512h-6.781V92.735Zm0-17.494h2.678a3.347,3.347,0,1,1,0,6.694H121.89Z"/>
  </g>
</svg>
