<svg xmlns="http://www.w3.org/2000/svg" width="325" height="98" viewBox="0 0 325 98">
  <defs>
    <style>
      .a {
        fill: #fff;
      }

      .b {
        fill: none;
      }

      .c {
        fill: #bf0000;
      }
    </style>
  </defs>
  <title>logo_superlogistics_02</title>
  <rect class="a" width="325" height="98"/>
  <g>
    <rect class="b" x="56.198" y="22.136" width="213.036" height="54.738"/>
    <g>
      <g>
        <polygon class="c" points="140.959 46.968 77.256 46.968 82.331 52.042 140.959 46.968"/>
        <path class="c" d="M83.157,26.443v.768a6.428,6.428,0,0,0-3.7-1.192c-4.463,0-7.853,4.07-7.853,9.068s3.39,9.067,7.853,9.067a6.42,6.42,0,0,0,3.7-1.192v.767H87.08V26.443Zm-3.7,13.548c-2.2,0-3.812-2.167-3.812-4.9s1.612-4.9,3.812-4.9,3.756,2.167,3.756,4.9S81.664,39.991,79.461,39.991Z"/>
        <path class="c" d="M114.584,26.443V36.6a3.227,3.227,0,1,1-6.429,0V26.443h-3.923V36.6c0,4.166,2.85,7.556,7.017,7.556a6.018,6.018,0,0,0,3.335-1.068v.643h3.923V26.443Z"/>
        <path class="c" d="M151.138,43.729V33.575a3.227,3.227,0,1,1,6.429,0V43.729h3.923V33.575c0-4.167-2.85-7.556-7.017-7.556a6.022,6.022,0,0,0-3.335,1.067v-.643h-3.923V43.729Z"/>
        <path class="c" d="M60.3,43.729v-6.7h2.9l5.024,6.7h5.136l-6.071-8.081a7.443,7.443,0,0,0-4.314-13.512H56.2V43.729Zm0-17.493h2.677a3.347,3.347,0,1,1,0,6.693H60.3Z"/>
        <path class="c" d="M129.08,39.639a2.332,2.332,0,0,1-1.312.425,1.934,1.934,0,0,1-1.849-2.121v-7.4h3.355v-4.1h-3.355V22.136H122v4.307H119.92v4.1H122V38a5.9,5.9,0,0,0,5.832,6.165,8.079,8.079,0,0,0,3.838-1.088Z"/>
        <polygon class="c" points="96.834 34.546 103.563 26.443 98.064 26.443 93.357 32.465 93.357 20.708 89.317 20.708 89.317 43.729 93.357 43.729 93.357 36.628 99.143 43.729 104.64 43.729 96.834 34.546"/>
        <path class="c" d="M138.142,26.005c-4.541,0-7.8,3.99-7.8,9.081,0,5.354,4.089,9.083,8.188,9.083A8.189,8.189,0,0,0,145.48,40.3l-3.465-2c-2.68,3.95-7.147,1.945-7.662-2.005l11.3,0C146.62,30.088,142.606,26.005,138.142,26.005Zm3.425,6.85H134.5C135.327,28.806,140.8,28.574,141.567,32.855Z"/>
      </g>
      <g>
        <g>
          <path class="c" d="M142.192,76.874V56.361h3.91V73.225h7.819v3.649Z"/>
          <path class="c" d="M172.237,66.631c0,6.386-3.571,10.661-8.915,10.661s-8.914-4.275-8.914-10.661c0-6.413,3.571-10.688,8.966-10.688C168.666,55.943,172.237,60.271,172.237,66.631Zm-13.659,0c0,4.326,1.825,7.011,4.744,7.011s4.745-2.711,4.745-7.038c0-4.457-1.747-7.011-4.771-7.011C160.325,59.593,158.578,62.173,158.578,66.631Z"/>
          <path class="c" d="M190.98,74.111a10.166,10.166,0,0,1-7.611,3.181c-5.656,0-9.67-4.432-9.67-10.635,0-6,4.066-10.714,9.253-10.714a8.691,8.691,0,0,1,7.794,5.005L187.41,62.9c-.965-2.111-2.555-3.31-4.484-3.31-2.867,0-5.057,3.023-5.057,7.038,0,4.04,2.32,7.011,5.526,7.011a5.08,5.08,0,0,0,3.806-1.511V69.472h-3.988v-3.65h7.767Z"/>
          <path class="c" d="M197.21,76.874H193.3V56.361h3.91Z"/>
          <path class="c" d="M210.185,61.391a4.871,4.871,0,0,0-3.7-1.8,2.526,2.526,0,0,0-2.737,2.346,1.942,1.942,0,0,0,1.2,1.772,19.656,19.656,0,0,0,2.842,1.043c4.118,1.381,5.838,3.284,5.838,6.412,0,3.6-3.024,6.126-7.351,6.126a8.986,8.986,0,0,1-7.116-3.468l2.451-2.71a6.168,6.168,0,0,0,4.691,2.528c1.955,0,3.18-.938,3.18-2.45a2.195,2.195,0,0,0-1.251-2.163,10.785,10.785,0,0,0-2.476-.939c-4.4-1.382-6.177-3.154-6.177-6.151,0-3.441,2.945-6,6.881-6a8.627,8.627,0,0,1,6.23,2.555Z"/>
          <path class="c" d="M223.431,60.009V76.874h-3.91V60.009h-5.6V56.361h15.118v3.648Z"/>
          <path class="c" d="M234.8,76.874h-3.91V56.361h3.91Z"/>
          <path class="c" d="M250.261,62.9c-.964-2.111-2.554-3.31-4.458-3.31-2.866,0-5.082,3.1-5.082,7.038s2.241,7.011,5.082,7.011c1.9,0,3.468-1.173,4.536-3.362l3.258,2.007c-1.694,3.388-4.222,5-7.82,5-5.421,0-9.226-4.405-9.226-10.661,0-6.126,3.962-10.688,9.305-10.688a8.232,8.232,0,0,1,7.741,5.005Z"/>
          <path class="c" d="M265.793,61.391a4.871,4.871,0,0,0-3.7-1.8,2.526,2.526,0,0,0-2.737,2.346,1.943,1.943,0,0,0,1.2,1.772,19.783,19.783,0,0,0,2.842,1.043c4.118,1.381,5.839,3.284,5.839,6.412,0,3.6-3.024,6.126-7.351,6.126a8.983,8.983,0,0,1-7.116-3.468l2.45-2.71a6.168,6.168,0,0,0,4.692,2.528c1.955,0,3.18-.938,3.18-2.45a2.195,2.195,0,0,0-1.251-2.163,10.785,10.785,0,0,0-2.476-.939c-4.406-1.382-6.178-3.154-6.178-6.151,0-3.441,2.945-6,6.881-6A8.629,8.629,0,0,1,268.3,58.5Z"/>
        </g>
        <path class="c" d="M66.791,61.391a4.869,4.869,0,0,0-3.7-1.8,2.526,2.526,0,0,0-2.737,2.346,1.942,1.942,0,0,0,1.2,1.772,19.792,19.792,0,0,0,2.841,1.043c4.119,1.381,5.839,3.284,5.839,6.412,0,3.6-3.024,6.125-7.35,6.125a8.984,8.984,0,0,1-7.116-3.466l2.45-2.711a6.168,6.168,0,0,0,4.692,2.528c1.955,0,3.179-.938,3.179-2.45a2.192,2.192,0,0,0-1.251-2.163,10.785,10.785,0,0,0-2.476-.939c-4.405-1.381-6.177-3.154-6.177-6.151,0-3.441,2.945-5.995,6.881-5.995A8.622,8.622,0,0,1,69.293,58.5Z"/>
        <path class="c" d="M87.274,68.455c0,5.63-2.789,8.836-7.742,8.836s-7.741-3.18-7.741-8.836V56.361H75.7V68.429c0,3.31,1.407,5.213,3.831,5.213s3.832-1.9,3.832-5.213V56.361h3.91Z"/>
        <path class="c" d="M97.041,56.361a6.947,6.947,0,1,1,0,13.893H93.522v6.62h-3.91V56.361ZM96.78,66.6a3.208,3.208,0,0,0,3.154-3.336A3.141,3.141,0,0,0,96.78,60.01H93.522V66.6Z"/>
        <path class="c" d="M109.574,60.01v4.3h7.663V67.96h-7.663v5.265H118.2v3.649H105.664V56.361H118.2V60.01Z"/>
        <path class="c" d="M120.35,76.874V56.361h6.438a7.069,7.069,0,0,1,7.351,6.959c0,2.737-1.043,4.64-3.128,5.656l5.135,7.9h-4.927l-3.91-6.62H124.26v6.62Zm3.91-10.27h2.528a3.3,3.3,0,0,0,0-6.594H124.26Z"/>
      </g>
    </g>
  </g>
</svg>
