<?xml version="1.0" encoding="utf-8"?>
<!-- Generator: Adobe Illustrator 27.1.1, SVG Export Plug-In . SVG Version: 6.00 Build 0)  -->
<svg version="1.1" id="_イヤー_1" xmlns="http://www.w3.org/2000/svg" xmlns:xlink="http://www.w3.org/1999/xlink" x="0px"
	 y="0px" viewBox="0 0 325 98" style="enable-background:new 0 0 325 98;" xml:space="preserve">
<style type="text/css">
	.st0{fill:#FFFFFF;}
	.st1{fill:none;}
	.st2{fill:#BF0000;}
</style>
<rect y="0" class="st0" width="325" height="98"/>
<g>
	<path class="st1" d="M37.2,72.2c-1.2,0-2.2-1-2.2-2.2V28c0-1.2,1-2.2,2.2-2.2h250.5c1.2,0,2.2,1,2.2,2.2V70c0,1.2-1,2.2-2.2,2.2
		H37.2z"/>
	<g>
		<g>
			<g>
				<path class="st2" d="M157.6,57.4v-3.6h13.9V42.9h-13.9v-3.5h17.9v18H157.6z"/>
				<path class="st2" d="M180,58.1h-1.4V38.4h3.8v15.8c5.9-0.7,9.5-3.9,10.8-9.6h4C195.9,51.7,191.2,57.9,180,58.1z"/>
				<path class="st2" d="M202.1,58.2v-3.5c7.6-0.8,11.8-4.8,12.8-12.4h-8.6c-1.4,3.3-4.1,6-7.5,7.2v-3.8c2.2-1.4,3.9-3.7,4.6-6.9
					H219v0.8C218.8,51.6,212.6,57.6,202.1,58.2z"/>
				<path class="st2" d="M221.4,48.7v-3.5c3.1,0.1,7.2,0.4,10.3,0.8v3.5C228.4,49.1,224.3,48.7,221.4,48.7z M221.6,42.1v-3.5
					c3,0.1,7,0.4,10.3,0.8V43C228.8,42.6,224.5,42.2,221.6,42.1z M221.9,58.1v-3.7c9.6-0.3,14.1-3.4,14.9-12.4h4
					C240,53.8,232.9,57.9,221.9,58.1z"/>
				<path class="st2" d="M242.9,57.9v-3.2h11.6v-3.3h-11.3v-3.1h11.3v-2.9h-11.6v-3.1H258v15.6H242.9z"/>
				<path class="st2" d="M260.3,42.6v-3.7c3.1,0.2,6.9,0.7,10,1.2V44C267.5,43.4,263.3,42.8,260.3,42.6z M260.7,58v-3.7
					c8.4-0.6,13.6-3,14.4-12.1h4C278.3,53.3,271.8,57.7,260.7,58z"/>
			</g>
			<g>
				<polygon class="st2" points="130.6,61.4 66.9,61.4 72,66.5 				"/>
				<path class="st2" d="M72.8,40.9v0.8c-1.2-0.8-2.2-1.2-3.7-1.2c-4.5,0-7.9,4.1-7.9,9.1c0,5,3.4,9.1,7.9,9.1
					c1.5,0,2.5-0.4,3.7-1.2v0.8h3.9V40.9H72.8z M69.1,54.4c-2.2,0-3.8-2.2-3.8-4.9c0-2.7,1.6-4.9,3.8-4.9c2.2,0,3.8,2.2,3.8,4.9
					C72.9,52.3,71.3,54.4,69.1,54.4z"/>
				<path class="st2" d="M104.2,40.9V51c0,1.9-1.3,3.5-3.2,3.5c-1.9,0-3.2-1.6-3.2-3.5V40.9h-3.9V51c0,4.2,2.8,7.6,7,7.6
					c1.9,0,3.3-1.1,3.3-1.1v0.6h3.9V40.9H104.2z"/>
				<path class="st2" d="M140.8,58.2V48c0-1.9,1.3-3.5,3.2-3.5c1.9,0,3.2,1.6,3.2,3.5v10.2h3.9V48c0-4.2-2.8-7.6-7-7.6
					c-1.9,0-3.3,1.1-3.3,1.1v-0.6h-3.9v17.3H140.8z"/>
				<path class="st2" d="M50,58.2v-6.7h2.9l5,6.7H63L57,50.1c1.9-1.4,3.1-3.6,3.1-6.1c0-4.1-3.3-7.4-7.4-7.4h-6.8v21.6H50z M50,40.7
					h2.7c1.8,0,3.3,1.5,3.3,3.3c0,1.9-1.5,3.3-3.3,3.3H50V40.7z"/>
				<path class="st2" d="M118.7,54.1c-0.4,0.2-0.8,0.4-1.3,0.4c-0.6,0-1.8-0.5-1.8-2.1V45h3.4v-4.1h-3.4l0-4.3h-3.9l0,4.3h-2.1V45
					h2.1v7.5c0,3.9,2.9,6.2,5.8,6.2c1.1,0,2.6-0.4,3.8-1.1L118.7,54.1z"/>
				<polygon class="st2" points="86.5,49 93.2,40.9 87.7,40.9 83,46.9 83,35.2 79,35.2 79,58.2 83,58.2 83,51.1 88.8,58.2 
					94.3,58.2 				"/>
				<path class="st2" d="M127.8,40.5c-4.5,0-7.8,4-7.8,9.1c0,5.4,4.1,9.1,8.2,9.1c2.1,0,4.7-0.7,6.9-3.9l-3.5-2
					c-2.7,3.9-7.1,1.9-7.7-2l11.3,0C136.3,44.5,132.3,40.5,127.8,40.5z M131.2,47.3h-7.1C125,43.3,130.4,43,131.2,47.3z"/>
			</g>
		</g>
		<rect x="45.9" y="36.6" class="st1" width="233.3" height="24.8"/>
	</g>
</g>
</svg>
