<?xml version="1.0" encoding="utf-8"?>
<!-- Generator: Adobe Illustrator 24.2.1, SVG Export Plug-In . SVG Version: 6.00 Build 0)  -->
<svg version="1.1" id="レイヤー_1" xmlns="http://www.w3.org/2000/svg" xmlns:xlink="http://www.w3.org/1999/xlink" x="0px"
	 y="0px" viewBox="0 0 325 98" style="enable-background:new 0 0 325 98;" xml:space="preserve">
<style type="text/css">
	.st0{fill:#FFFFFF;}
	.st1{fill:none;}
	.st2{fill:#00B900;}
</style>
<rect class="st0" width="325" height="98"/>
<g>
	<g>
		<rect x="75" y="34.8" class="st1" width="179.2" height="24.8"/>
	</g>
	<g>
		<g>
			<g>
				<g>
					<g>
						<g>
							<g>
								<polygon class="st2" points="159.7,59.6 96,59.6 101.1,64.7 								"/>
								<path class="st2" d="M101.9,39.1v0.8c-1.2-0.8-2.2-1.2-3.7-1.2c-4.5,0-7.8,4.1-7.8,9.1c0,5,3.4,9.1,7.8,9.1
									c1.5,0,2.5-0.4,3.7-1.2v0.8h3.9V39.1H101.9z M98.3,52.6c-2.2,0-3.8-2.2-3.8-4.9c0-2.7,1.6-4.9,3.8-4.9
									c2.2,0,3.8,2.2,3.8,4.9C102,50.4,100.5,52.6,98.3,52.6z"/>
								<path class="st2" d="M133.4,39.1v10.1c0,1.9-1.3,3.5-3.2,3.5c-1.9,0-3.2-1.6-3.2-3.5V39.1H123v10.1c0,4.2,2.8,7.6,7,7.6
									c1.9,0,3.3-1.1,3.3-1.1v0.6h3.9V39.1H133.4z"/>
								<path class="st2" d="M169.9,56.3V46.2c0-1.9,1.3-3.5,3.2-3.5c1.9,0,3.2,1.6,3.2,3.5v10.1h3.9V46.2c0-4.2-2.8-7.6-7-7.6
									c-1.9,0-3.3,1.1-3.3,1.1v-0.6H166v17.3H169.9z"/>
								<path class="st2" d="M79.1,56.3v-6.7H82l5,6.7h5.1l-6.1-8.1c1.9-1.4,3.1-3.6,3.1-6.1c0-4.1-3.3-7.4-7.4-7.4H75v21.6H79.1z
									 M79.1,38.9h2.7c1.8,0,3.3,1.5,3.3,3.3c0,1.8-1.5,3.3-3.3,3.3h-2.7V38.9z"/>
								<path class="st2" d="M147.8,52.3c-0.4,0.2-0.8,0.4-1.3,0.4c-0.6,0-1.8-0.5-1.8-2.1v-7.4h3.4v-4.1h-3.4l0-4.3h-3.9l0,4.3
									h-2.1v4.1h2.1v7.5c0,3.9,2.9,6.2,5.8,6.2c1.1,0,2.6-0.4,3.8-1.1L147.8,52.3z"/>
								<polygon class="st2" points="115.6,47.2 122.3,39.1 116.8,39.1 112.1,45.1 112.1,33.3 108.1,33.3 108.1,56.3 112.1,56.3 
									112.1,49.3 117.9,56.3 123.4,56.3 								"/>
								<path class="st2" d="M156.9,38.6c-4.5,0-7.8,4-7.8,9.1c0,5.4,4.1,9.1,8.2,9.1c2.1,0,4.7-0.7,6.9-3.9l-3.5-2
									c-2.7,3.9-7.1,1.9-7.7-2l11.3,0C165.4,42.7,161.4,38.6,156.9,38.6z M160.3,45.5h-7.1C154.1,41.4,159.6,41.2,160.3,45.5z"/>
							</g>
						</g>
					</g>
				</g>
			</g>
		</g>
		<g>
			<g>
				<g>
					<path class="st2" d="M186.7,56.3V35.8h12.7v2.5h-10v6.5h9.1v2.5h-9.1v9H186.7z"/>
					<path class="st2" d="M207.7,56.7c-1.3,0-2.6-0.4-3.7-1.1c-1.1-0.7-2-1.7-2.6-3c-0.6-1.3-0.9-2.8-0.9-4.4c0-1.7,0.3-3.1,0.9-4.4
						c0.6-1.3,1.5-2.3,2.6-3c1.1-0.7,2.3-1.1,3.7-1.1c1.2,0,2.4,0.3,3.3,0.9c1,0.6,1.7,1.4,2.2,2.5l0.3-3.1h2.2v16.4h-2.2l-0.3-3.1
						c-0.5,1-1.2,1.9-2.2,2.5C210.1,56.4,208.9,56.7,207.7,56.7z M208.2,54.2c1,0,1.8-0.3,2.6-0.8c0.8-0.5,1.4-1.2,1.8-2.1
						c0.4-0.9,0.7-2,0.7-3.1c0-1.2-0.2-2.2-0.7-3.1c-0.4-0.9-1-1.6-1.8-2.1c-0.8-0.5-1.6-0.8-2.6-0.8c-1,0-1.8,0.3-2.6,0.8
						c-0.8,0.5-1.4,1.2-1.8,2.1c-0.4,0.9-0.7,1.9-0.7,3.1c0,1.2,0.2,2.2,0.7,3.1c0.4,0.9,1,1.6,1.8,2.1
						C206.4,53.9,207.2,54.2,208.2,54.2z"/>
					<path class="st2" d="M218.6,56.3V40h2.2l0.3,3.1c0.4-1,1-1.9,1.8-2.5c0.8-0.6,1.7-0.9,2.6-0.9c1.1,0,2,0.4,2.9,1.1l-0.9,2.6
						c-0.7-0.6-1.5-0.9-2.3-0.9c-0.8,0-1.5,0.3-2.1,0.8c-0.6,0.5-1.1,1.2-1.5,2c-0.4,0.9-0.5,1.8-0.5,2.9v8.3H218.6z"/>
					<path class="st2" d="M230.2,56.3V40h2.2l0.3,3c0.5-1,1.3-1.8,2.2-2.4c0.9-0.6,1.9-0.9,3-0.9c1.2,0,2.3,0.3,3.2,1
						c0.9,0.7,1.5,1.6,1.9,2.9c0.5-1.2,1.3-2.1,2.3-2.8c1-0.7,2.1-1.1,3.3-1.1c1.7,0,3.1,0.6,4.1,1.9c1,1.2,1.5,3,1.5,5.4v9.4h-2.6
						V47c0-1.6-0.3-2.8-1-3.6c-0.7-0.8-1.6-1.3-2.7-1.3c-0.9,0-1.7,0.3-2.3,0.8c-0.7,0.5-1.2,1.2-1.6,2c-0.4,0.8-0.6,1.7-0.6,2.7
						v8.7h-2.6V47c0-1.6-0.3-2.8-1-3.6c-0.7-0.8-1.6-1.3-2.7-1.3c-0.9,0-1.7,0.3-2.3,0.8c-0.7,0.5-1.2,1.2-1.6,2
						c-0.4,0.8-0.6,1.7-0.6,2.7v8.7H230.2z"/>
				</g>
			</g>
		</g>
	</g>
</g>
</svg>
