<svg xmlns="http://www.w3.org/2000/svg" viewBox="0 0 325 98"><defs><style>.cls-1{fill:#fff;}.cls-2{fill:none;}.cls-3{fill:#bf0000;}</style></defs><title>logo_wallet_01 のコピー</title><g id="レイヤー_2" data-name="レイヤー 2"><rect class="cls-1" width="325" height="98"/></g><g id="レイヤー_1" data-name="レイヤー 1"><path class="cls-2" d="M58.37,27.73V21h2.9l5,6.69h5.14l-6.07-8.08A7.44,7.44,0,0,0,61,6.14H54.26V27.73Zm0-17.49H61a3.35,3.35,0,1,1,0,6.69H58.37Z"/><path class="cls-2" d="M58.37,27.73V21h2.9l5,6.69h5.14l-6.07-8.08A7.44,7.44,0,0,0,61,6.14H54.26V27.73Zm0-17.49H61a3.35,3.35,0,1,1,0,6.69H58.37Z"/><path class="cls-2" d="M58.37,27.73V21h2.9l5,6.69h5.14l-6.07-8.08A7.44,7.44,0,0,0,61,6.14H54.26V27.73Zm0-17.49H61a3.35,3.35,0,1,1,0,6.69H58.37Z"/><rect class="cls-2" x="88.54" y="11.64" width="148.31" height="75.36" rx="2.12"/><polygon class="cls-3" points="182.38 46.63 119.82 46.63 124.8 51.61 182.38 46.63"/><path class="cls-3" d="M125.62,26.47v.75A6.35,6.35,0,0,0,122,26.05c-4.39,0-7.72,4-7.72,8.91s3.33,8.9,7.72,8.9a6.35,6.35,0,0,0,3.63-1.17v.75h3.85v-17ZM122,39.77c-2.17,0-3.75-2.12-3.75-4.81s1.58-4.82,3.75-4.82,3.68,2.13,3.68,4.82S124.15,39.77,122,39.77Z"/><path class="cls-3" d="M156.48,26.47v10a3.17,3.17,0,1,1-6.32,0v-10h-3.85v10c0,4.09,2.8,7.42,6.89,7.42a5.91,5.91,0,0,0,3.28-1v.63h3.85v-17Z"/><path class="cls-3" d="M192.37,43.44v-10a3.17,3.17,0,1,1,6.32,0v10h3.85v-10c0-4.09-2.8-7.42-6.89-7.42a5.91,5.91,0,0,0-3.28,1.05v-.63h-3.85v17Z"/><path class="cls-3" d="M103.17,43.44V36.87H106L111,43.44h5l-6-7.93a7.31,7.31,0,0,0-4.24-13.27H99.14v21.2Zm0-17.17h2.63a3.29,3.29,0,1,1,0,6.57h-2.63Z"/><path class="cls-3" d="M170.71,39.43a2.3,2.3,0,0,1-1.29.41,1.89,1.89,0,0,1-1.81-2.08V30.5h3.29v-4h-3.29V22.24h-3.86v4.23h-2v4h2v7.32a5.81,5.81,0,0,0,5.73,6.06,7.91,7.91,0,0,0,3.77-1.07Z"/><polygon class="cls-3" points="139.05 34.43 145.65 26.47 140.25 26.47 135.63 32.38 135.63 20.84 131.66 20.84 131.66 43.44 135.63 43.44 135.63 36.47 141.31 43.44 146.71 43.44 139.05 34.43"/><path class="cls-3" d="M179.61,26C175.15,26,172,30,172,35c0,5.25,4,8.92,8,8.92a8.06,8.06,0,0,0,6.83-3.8l-3.41-2c-2.63,3.88-7,1.91-7.52-2H187C187.94,30.05,184,26,179.61,26ZM183,32.77H176C176.85,28.79,182.22,28.56,183,32.77Z"/><path class="cls-3" d="M137.27,66.33A10.59,10.59,0,1,0,132,75.49l.72.91h5.36l-2.94-3.7A10.47,10.47,0,0,0,137.27,66.33ZM126.68,72.4A6.1,6.1,0,1,1,132.16,69l-.73-.92h-5.36l3.06,3.85A6.07,6.07,0,0,1,126.68,72.4Z"/><rect class="cls-3" x="163.73" y="56.25" width="16.26" height="4.24"/><rect class="cls-3" x="163.73" y="64.02" width="16.26" height="4.24"/><rect class="cls-3" x="163.73" y="72.16" width="16.26" height="4.24"/><polygon class="cls-3" points="224.16 56.25 216.72 62.49 209.27 56.25 207.18 56.25 207.18 76.4 211.41 76.4 211.41 63.37 216.72 67.76 222.02 63.37 222.02 76.4 226.25 76.4 226.25 56.25 224.16 56.25"/><rect class="cls-3" x="185.46" y="56.25" width="16.26" height="4.24"/><rect class="cls-3" x="185.46" y="64.02" width="16.26" height="4.24"/><rect class="cls-3" x="185.46" y="72.16" width="16.26" height="4.24"/><path class="cls-3" d="M158.77,63.32a7.08,7.08,0,0,0-7.07-7.07H141.47V76.4h4.42V60.67h5.81a2.66,2.66,0,1,1,0,5.31H146l8.2,10.42h5.42l-5.17-6.58A7.07,7.07,0,0,0,158.77,63.32Z"/><path class="cls-3" d="M105.34,59.9a2.68,2.68,0,0,1,1-.36,6,6,0,0,1,1-.09,4.9,4.9,0,0,1,2.06.5A4.66,4.66,0,0,1,111,61.13l2.89-3a9.07,9.07,0,0,0-3-1.72,10.43,10.43,0,0,0-3.49-.63,11.3,11.3,0,0,0-2.82.36,7.9,7.9,0,0,0-2.49,1.11,6,6,0,0,0-1.76,1.94A5.59,5.59,0,0,0,99.69,62a5.33,5.33,0,0,0,.43,2.28,5,5,0,0,0,1.14,1.6,6.42,6.42,0,0,0,1.63,1.08,16.8,16.8,0,0,0,1.91.74l1.81.6a7.72,7.72,0,0,1,1.37.62,3.1,3.1,0,0,1,.88.79,1.87,1.87,0,0,1,.32,1.09,2.33,2.33,0,0,1-.25,1.13,2.09,2.09,0,0,1-.68.76,3,3,0,0,1-1,.41,5.8,5.8,0,0,1-1.11.11,5.58,5.58,0,0,1-2.53-.64,6.28,6.28,0,0,1-1.91-1.44l-3,2.75A9.5,9.5,0,0,0,102,76.15a11.73,11.73,0,0,0,4.19.76,10.32,10.32,0,0,0,2.88-.4,7.39,7.39,0,0,0,2.45-1.21,5.94,5.94,0,0,0,1.7-2.07,6.48,6.48,0,0,0,.63-3,4.78,4.78,0,0,0-.58-2.47,5.69,5.69,0,0,0-1.49-1.67,8.22,8.22,0,0,0-2-1.09c-.76-.27-1.48-.53-2.17-.76l-1.31-.45a7.1,7.1,0,0,1-1-.49,2.25,2.25,0,0,1-.7-.67,2.09,2.09,0,0,1,.07-2.07A2.41,2.41,0,0,1,105.34,59.9Z"/><rect class="cls-2" x="99.14" y="22.24" width="127.11" height="54.16"/></g></svg>