<svg xmlns="http://www.w3.org/2000/svg" width="325" height="98" viewBox="0 0 325 98">
  <defs>
    <style>
      .a {
        fill: #fff;
      }

      .b {
        fill: none;
      }

      .c {
        fill: #bf0000;
      }
    </style>
  </defs>
  <title>logo_hokenhikaku_02</title>
  <rect class="a" width="325" height="98"/>
  <g>
    <path class="b" d="M102.842,55.593V48.6h2.987l5.187,6.916h5.149L110.1,47.486a7.423,7.423,0,0,0,3.1-5.842A7.662,7.662,0,0,0,105.479,34H99V55.517h3.842Zm0-17.751h2.7a3.458,3.458,0,1,1,.049,6.916h-2.751Z"/>
    <g>
      <rect class="b" x="82.916" y="21.943" width="159.599" height="55.356"/>
      <g>
        <g>
          <polygon class="c" points="167.677 46.775 103.975 46.775 109.049 51.85 167.677 46.775"/>
          <path class="c" d="M109.876,26.251v.767a6.432,6.432,0,0,0-3.7-1.192c-4.463,0-7.853,4.07-7.853,9.068s3.39,9.067,7.853,9.067a6.431,6.431,0,0,0,3.7-1.191v.766H113.8V26.251ZM106.18,39.8c-2.2,0-3.812-2.167-3.812-4.9s1.611-4.9,3.812-4.9,3.756,2.168,3.756,4.9S108.383,39.8,106.18,39.8Z"/>
          <path class="c" d="M141.3,26.251V36.405a3.227,3.227,0,1,1-6.428,0V26.251H130.95V36.405c0,4.166,2.851,7.556,7.018,7.556a6.017,6.017,0,0,0,3.334-1.068v.643h3.923V26.251Z"/>
          <path class="c" d="M177.857,43.536V33.382a3.227,3.227,0,1,1,6.428,0V43.536h3.923V33.382c0-4.166-2.85-7.556-7.017-7.556a6.016,6.016,0,0,0-3.334,1.067v-.642h-3.923V43.536Z"/>
          <path class="c" d="M86.921,43.5l.061-6.7,2.9.027,4.963,6.742,5.136.047-6-8.136A7.443,7.443,0,0,0,89.8,21.927l-6.781-.062-.2,21.592ZM87.081,26l2.677.025A3.347,3.347,0,1,1,89.7,32.72L87.02,32.7Z"/>
          <path class="c" d="M155.8,39.446a2.334,2.334,0,0,1-1.312.425,1.935,1.935,0,0,1-1.85-2.121v-7.4h3.355v-4.1h-3.355V21.943h-3.923V26.25h-2.075v4.1h2.075V37.81a5.9,5.9,0,0,0,5.833,6.166,8.078,8.078,0,0,0,3.837-1.088Z"/>
          <polygon class="c" points="123.552 34.353 130.282 26.251 124.782 26.251 120.075 32.272 120.075 20.516 116.036 20.516 116.036 43.536 120.075 43.536 120.075 36.436 125.862 43.536 131.358 43.536 123.552 34.353"/>
          <path class="c" d="M164.86,25.812c-4.54,0-7.8,3.99-7.8,9.081,0,5.354,4.088,9.083,8.187,9.083a8.186,8.186,0,0,0,6.948-3.869l-3.465-2c-2.68,3.95-7.146,1.945-7.662-2.005l11.3,0C173.338,29.9,169.324,25.812,164.86,25.812Zm3.425,6.85h-7.066C162.045,28.614,167.521,28.381,168.285,32.662Z"/>
        </g>
        <g>
          <path class="c" d="M84.736,66.668c-.534.65-.72.859-1.254,1.416l-1-3.877a18.561,18.561,0,0,0,3.6-8.866l2.879.324a28.693,28.693,0,0,1-1.44,5.71V77.3H84.736Zm3.389,7.149A15.906,15.906,0,0,0,94.044,68.5H88.891V65.879h6.5V63.952h-5.2V56.106h13.277v7.846H98.152v1.927h6.5V68.5H99.569a17.2,17.2,0,0,0,5.478,5.454l-1.695,2.577a19.15,19.15,0,0,1-5.2-5.78V77.3H95.39V70.823A17.232,17.232,0,0,1,89.8,76.347ZM93,58.613v2.878h7.683V58.613Z"/>
          <path class="c" d="M116.273,61.213a14.223,14.223,0,0,1-2.089,1.091l-.974-1.694a23.587,23.587,0,0,1-1.115,3.18,8.818,8.818,0,0,1,1.787,5.431c0,3.737-1.879,3.737-2.785,3.737h-1.045l-.44-2.785h.882c.51,0,.974-.116.974-1.439a6.71,6.71,0,0,0-1.833-4.643,29.871,29.871,0,0,0,1.694-5.431H109.38V77.3H106.8V56.153h6.963V58.66c-.139.464-.162.627-.255.975a17.476,17.476,0,0,0,5.826-4.155h3.018a17.094,17.094,0,0,0,6.174,4.247l-1.3,2.531c-.58-.3-1.091-.581-2.089-1.184v1.532h-3.2v1.439h5.385V71.31h-4.41a8.228,8.228,0,0,0,5.571,3.482l-1.207,2.692a10.673,10.673,0,0,1-6.616-5.292,10.815,10.815,0,0,1-6.8,5.2l-1.323-2.647a7.98,7.98,0,0,0,5.734-3.435h-3.877V64.045h4.968V62.606h-3.088Zm3.088,5.037h-2.484v2.739h2.3a9.416,9.416,0,0,0,.186-2.043Zm4.526-6.012a19.817,19.817,0,0,1-3.064-2.809,14.552,14.552,0,0,1-3.111,2.809Zm-1.95,6.871a9.964,9.964,0,0,1-.186,1.88h2.995V66.25h-2.809Z"/>
          <path class="c" d="M140.97,73.778c4-1.268,6.508-3.559,6.508-7.532,0-2.486-1.17-5.9-5.606-6.483-.341,2.656-1.048,8.165-3.071,12.406-.464.975-1.487,3.1-3.7,3.1-2.657,0-5.216-3.437-5.216-7.922,0-6.63,5.094-10.554,10.968-10.554,5.947,0,9.945,3.9,9.945,9.53,0,7.239-6.142,9.53-7.873,10.189Zm-8-6.362c0,2.584,1.1,4.461,2,4.461.366,0,.731-.1,1.609-2.56a45.091,45.091,0,0,0,2.12-9.408A7.47,7.47,0,0,0,132.975,67.416Z"/>
          <path class="c" d="M155.484,69.221a29.506,29.506,0,0,1-.789,6.662l-2.066-.905A23.615,23.615,0,0,0,153.4,68.9Zm.024-5.64a20.2,20.2,0,0,0-2.855-2.762l1.23-2.391a4.692,4.692,0,0,1,.65.533,20.185,20.185,0,0,0,1.625-3.5l2.483.649a34.524,34.524,0,0,1-2.506,4.457c.232.256.556.65.835.952a36.185,36.185,0,0,0,2.205-3.691l2.275.928c-.278.488-.487.836-.859,1.44A14.268,14.268,0,0,0,164.63,55.5l2.553.859a18.165,18.165,0,0,1-4.8,5.872l-1.811-2.019c-.812,1.276-2.53,3.691-3.644,5.083,1.392-.069,1.95-.093,2.3-.116-.256-.743-.372-1.021-.557-1.462l1.88-.673a20.283,20.283,0,0,1,1.6,4.41l-2.089.766c-.092-.441-.139-.6-.208-.882l-1.277.116v9.911h-2.437V67.689c-2.275.186-2.531.209-3.041.232l-.186-2.553a11.323,11.323,0,0,0,1.323,0ZM160.173,75.3a9,9,0,0,0,1-2.066l-1.695.325a37.162,37.162,0,0,0-.279-4.318l1.95-.325a23.866,23.866,0,0,1,.418,3.111,17.624,17.624,0,0,0,.441-2.02l2.089.488a16.052,16.052,0,0,1-1.485,6.128Zm5.084-8.426c-2.02.092-2.252.116-2.739.116l-.186-2.577h1.137a40.361,40.361,0,0,0,2.252-5.222l2.785.557a36.4,36.4,0,0,1-2.414,4.619c1.347-.024,2.252-.024,4.086-.14a23.9,23.9,0,0,0-1.625-2.3l2.089-1.231a21.867,21.867,0,0,1,3.992,5.571L172.2,67.759a13.354,13.354,0,0,0-.673-1.3c-2.112.255-3.087.3-4.874.371a14.521,14.521,0,0,1,3.365,1.811L168.6,70.776a15.319,15.319,0,0,0-4.34-2.3Zm1.833,3.69v3.482c0,.256,0,.557.465.557h.859c.441,0,.626,0,.743-2.251l2.483.534c-.325,2.576-.534,4.271-1.973,4.271h-3.2c-.789,0-1.9-.256-1.9-1.393v-5.2Zm6.639-8.518a15.587,15.587,0,0,1-4.805-5.711l2.437-.974a13,13,0,0,0,3.877,4.317Zm-.7,7.149a25.631,25.631,0,0,1,2.089,5.966l-2.577,1.067a24.48,24.48,0,0,0-1.833-6.081Z"/>
          <path class="c" d="M196.722,64.533a29.67,29.67,0,0,1-3.529-1.858v1.881H181.146V62.629a29.3,29.3,0,0,1-3.714,1.9L175.9,61.607a22.29,22.29,0,0,0,9.726-6.22H188.6c1.439,1.625,3.783,3.969,9.725,6.22Zm-.836,2v10.33H178.268V66.528Zm-2.994,2.647H181.216v5.06h11.676Zm-.906-7.266a23.834,23.834,0,0,1-4.921-4.155,20.818,20.818,0,0,1-4.8,4.155Z"/>
          <path class="c" d="M204.041,70.823a12.18,12.18,0,0,1-2.692,5.942l-2.182-1.811A11.288,11.288,0,0,0,201.6,70.1Zm10.585-7.312a31.77,31.77,0,0,1,5.942,4.248l-2.274,2.089c-.349-.372-.6-.65-1.463-1.462-3.621.325-5.083.394-6.731.441a13.178,13.178,0,0,1,3.273,1.9l-1.88,2.112a20.944,20.944,0,0,0-4.086-2.391l1.37-1.555c-3.877.139-4.295.163-8.334.186l-.278-2.577c.557.023,3.319.023,3.946.047a26.06,26.06,0,0,0,2.646-4.062l2.878.812a26.855,26.855,0,0,1-2.228,3.2c2.971-.046,3.343-.069,6.732-.209a22.88,22.88,0,0,0-2-1.207l2.252-1.578h-1.718c-1.044,0-1.509-.464-1.509-1.532V59.287h-2.228c-.905,2.646-3.5,4.41-7.08,5.431L200.652,62.3c1.556-.255,4.388-.975,5.572-3.017h-3.413v2.344H200V56.872h8.774V55.387h2.971v1.485h8.867v4.666H219.06c-.209,1-.581,1.973-1.788,1.973Zm-9.7,7.149h2.855v2.832c0,.789.139.859.742.859h3.6c.836,0,1,0,1.23-2.182l2.67.766c-.348,3.9-1.648,4.039-2.971,4.039h-5.9c-.743,0-2.228-.023-2.228-2.136Zm8.773-10c0,.6.047.719.79.719h1.393c.58,0,.6-.116.812-1.3l1.091.232V59.287H213.7Zm4.156,9.146a23.3,23.3,0,0,1,3.458,5.454l-2.576,1.579a25.2,25.2,0,0,0-3.18-5.664Z"/>
          <path class="c" d="M242.516,76.6h-19.29V57.035h19.29Zm-3.088-16.62H226.337V73.655h13.091Z"/>
        </g>
      </g>
    </g>
  </g>
</svg>
