<svg xmlns="http://www.w3.org/2000/svg" viewBox="0 0 325 98"><defs><style>.cls-1{fill:#bf0000;}.cls-2{fill:none;}</style></defs><title>logo_bic</title><g id="レイヤー_1" data-name="レイヤー 1"><polygon class="cls-1" points="169.63 60.19 105.87 60.19 110.95 65.27 169.63 60.19"/><path class="cls-1" d="M111.78,39.65v.77a6.42,6.42,0,0,0-3.7-1.19c-4.47,0-7.86,4.07-7.86,9.07s3.39,9.08,7.86,9.08a6.43,6.43,0,0,0,3.7-1.2V57h3.92V39.65Zm-3.7,13.56c-2.2,0-3.82-2.17-3.82-4.91s1.62-4.9,3.82-4.9,3.76,2.16,3.76,4.9S110.28,53.21,108.08,53.21Z"/><path class="cls-1" d="M143.23,39.65V49.81a3.23,3.23,0,1,1-6.43,0V39.65h-3.93V49.81c0,4.17,2.85,7.57,7,7.57a6,6,0,0,0,3.33-1.07V57h3.93V39.65Z"/><path class="cls-1" d="M179.82,57V46.79a3.23,3.23,0,1,1,6.43,0V57h3.93V46.79c0-4.17-2.85-7.56-7-7.56a6.07,6.07,0,0,0-3.34,1.06v-.64h-3.93V57Z"/><path class="cls-1" d="M88.9,57v-6.7h2.91l5,6.7H102L95.9,48.86a7.45,7.45,0,0,0-4.32-13.52H84.79V57Zm0-17.51h2.68a3.35,3.35,0,1,1,0,6.7H88.9Z"/><path class="cls-1" d="M157.74,52.86a2.32,2.32,0,0,1-1.31.42,1.93,1.93,0,0,1-1.85-2.12v-7.4h3.36V39.65h-3.36V35.34h-3.93v4.31h-2.08v4.11h2.08v7.46a5.91,5.91,0,0,0,5.84,6.17,8.12,8.12,0,0,0,3.84-1.09Z"/><polygon class="cls-1" points="125.47 47.76 132.2 39.65 126.7 39.65 121.99 45.68 121.99 33.91 117.94 33.91 117.94 56.95 121.99 56.95 121.99 49.84 127.78 56.95 133.28 56.95 125.47 47.76"/><path class="cls-1" d="M166.81,39.21c-4.54,0-7.8,4-7.8,9.09,0,5.36,4.09,9.09,8.19,9.09a8.21,8.21,0,0,0,7-3.87l-3.47-2c-2.68,3.95-7.15,1.94-7.67-2h11.31C175.3,43.3,171.28,39.21,166.81,39.21Zm3.43,6.86h-7.07C164,42,169.47,41.78,170.24,46.07Z"/><path class="cls-1" d="M209.82,45.93v-.06c2.42-.81,3.82-2.33,3.82-5,0-3.72-3-5.48-7-5.48h-9.94V57h9.1c3.87,0,8.42-1.08,8.42-6.25C214.19,48.06,212.7,46.52,209.82,45.93Zm-7.57-6.51h1.85c1.92,0,3.77.19,3.77,2.17,0,1.83-2,2.29-3.83,2.29h-1.79Zm1.88,13.44h-1.88V47.78h1.94c2,0,4.24.22,4.24,2.58C208.43,52.55,206.23,52.86,204.13,52.86Z"/><path class="cls-1" d="M217.52,35.34h4.8v4.8h-4.8Zm0,21.61h4.8V42.26h-4.8Z"/><path class="cls-1" d="M238.87,52.79a10.76,10.76,0,0,1-3.74.77c-2.94,0-4.83-1.77-4.83-4.51a4.33,4.33,0,0,1,4.49-4.65,7.82,7.82,0,0,1,3.88,1l.47.26.42-4.16-.28-.08a16.85,16.85,0,0,0-4.71-.81c-5.71,0-9.25,3.22-9.25,8.4,0,6.11,5,8.27,9.28,8.27a17.24,17.24,0,0,0,4.6-.61l.37-.09-.25-4Z"/><rect class="cls-2" x="84.79" y="35.34" width="154.78" height="24.85"/><rect class="cls-2" x="73.99" y="24.53" width="176.39" height="46.47" rx="2.16"/></g></svg>