<?xml version="1.0" encoding="UTF-8"?><svg id="_レイヤー_1" xmlns="http://www.w3.org/2000/svg" viewBox="0 0 325 98"><defs><style>.cls-1{fill:none;}.cls-2{fill:#00b900;}</style></defs><rect class="cls-1" x="78.46" y="34.76" width="168.07" height="24.83"/><polygon class="cls-2" points="163.23 59.59 99.52 59.59 104.6 64.67 163.23 59.59"/><path class="cls-2" d="M105.42,39.07v.77c-1.18-.75-2.24-1.19-3.7-1.19-4.46,0-7.85,4.07-7.85,9.07,0,5,3.39,9.07,7.85,9.07,1.45,0,2.51-.44,3.7-1.19v.77s3.92,0,3.92,0v-17.29s-3.92,0-3.92,0ZM101.73,52.62c-2.2,0-3.81-2.17-3.81-4.9,0-2.74,1.61-4.9,3.81-4.9,2.2,0,3.76,2.17,3.76,4.9,0,2.74-1.55,4.9-3.76,4.9Z"/><path class="cls-2" d="M136.85,39.07v10.15c0,1.9-1.31,3.51-3.21,3.51-1.9,0-3.21-1.61-3.21-3.51v-10.15s-3.92,0-3.92,0v10.15c0,4.17,2.85,7.56,7.02,7.56,1.93,0,3.33-1.07,3.33-1.07v.64s3.92,0,3.92,0v-17.29s-3.92,0-3.92,0Z"/><path class="cls-2" d="M173.4,56.35v-10.15c0-1.9,1.31-3.51,3.21-3.51s3.21,1.61,3.21,3.51v10.15s3.92,0,3.92,0v-10.15c0-4.17-2.85-7.56-7.02-7.56-1.93,0-3.33,1.07-3.33,1.07v-.64s-3.92,0-3.92,0v17.29s3.92,0,3.92,0Z"/><path class="cls-2" d="M82.57,56.35v-6.7s2.9,0,2.9,0l5.02,6.7h5.14s-6.07-8.08-6.07-8.08c1.89-1.36,3.13-3.57,3.13-6.07,0-4.11-3.34-7.44-7.45-7.44h-6.78s0,21.59,0,21.59h4.1ZM82.57,38.86h2.68c1.84,0,3.35,1.5,3.35,3.34,0,1.85-1.51,3.35-3.35,3.35h-2.68s0-6.69,0-6.69Z"/><path class="cls-2" d="M151.35,52.26c-.35.24-.8.43-1.31.43-.64,0-1.85-.49-1.85-2.12v-7.4s3.36,0,3.36,0v-4.1s-3.35,0-3.35,0v-4.31s-3.92,0-3.92,0v4.31s-2.08,0-2.08,0v4.1s2.08,0,2.08,0v7.46c0,3.86,2.91,6.17,5.83,6.17,1.09,0,2.6-.36,3.84-1.09l-2.59-3.44Z"/><polygon class="cls-2" points="119.1 47.17 125.83 39.07 120.33 39.07 115.62 45.09 115.62 33.33 111.58 33.33 111.58 56.35 115.62 56.35 115.62 49.25 121.41 56.35 126.91 56.35 119.1 47.17"/><path class="cls-2" d="M160.41,38.63c-4.54,0-7.8,3.99-7.8,9.08,0,5.35,4.09,9.08,8.19,9.08,2.07,0,4.72-.71,6.95-3.87l-3.47-2c-2.68,3.95-7.15,1.95-7.66-2h11.3c.97-6.21-3.05-10.29-7.51-10.29ZM163.83,45.48h-7.07c.83-4.05,6.3-4.28,7.07,0Z"/><path class="cls-2" d="M210.27,38.19c-.96,6.05-3.81,9.55-8.13,12.24,1.03,1.01,1.94,2.04,2.76,3l-3.02,2.61c-2.71-3.31-5.71-6.38-9.16-9.16l2.59-2.47c1.39,1.08,2.76,2.23,4.05,3.38,2.71-1.56,4.65-3.55,5.85-6.19h-15.19v-3.41h20.25Z"/><path class="cls-2" d="M229.29,44.38v3.57h-18.27v-3.57h18.27Z"/><path class="cls-2" d="M245.24,49.85c-2.85-1.77-6.21-3.24-8.92-4.15v10.65h-3.79v-20.56h3.79v6.07c3.69,1.2,7.39,2.76,10.22,4.39l-1.3,3.6Z"/></svg>