<svg xmlns="http://www.w3.org/2000/svg" width="325" height="98" viewBox="0 0 325 98">
  <defs>
    <style>
      .a {
        fill: #fff;
      }

      .b {
        fill: none;
      }

      .c {
        fill: #ff41be;
      }
    </style>
  </defs>
  <title>logo_beauty_01</title>
  <rect class="a" width="325" height="98"/>
  <g>
    <rect class="b" x="61.74" y="34.761" width="201.521" height="24.832"/>
    <g>
      <g>
        <path class="c" d="M178.67,35.84c4.614,0,7.3,1.877,7.3,5.109,0,2.658-1.512,4.327-4.275,4.717,3.388.731,4.978,2.32,4.978,5.006,0,3.649-2.58,5.682-7.194,5.682h-5.969V35.84ZM175.855,44.6h2.5c3.258,0,5.108-1.2,5.108-3.336,0-2.32-1.407-3.233-4.952-3.233h-2.659Zm0,9.566h3.258c3.363,0,5.057-1.225,5.057-3.676,0-2.319-2.111-3.7-5.682-3.7h-2.633Z"/>
        <path class="c" d="M190.577,38.029V44.6h8.055v2.189h-8.055v7.377h9.1v2.19H188.232V35.84H199.44v2.189Z"/>
        <path class="c" d="M212.469,51.479h-7.455l-1.564,4.875h-2.606l6.7-20.514h2.4l6.7,20.514h-2.607Zm-.625-2.19-3.1-10.139-3.1,10.139Z"/>
        <path class="c" d="M231.533,48.716c0,5.214-2.45,8.055-6.959,8.055s-6.96-2.815-6.96-8.055V35.84h2.346V48.586c0,3.805,1.694,6,4.614,6s4.613-2.19,4.613-6V35.84h2.346Z"/>
        <path class="c" d="M241.108,37.925V56.354h-2.346V37.925H232.9V35.84h14.075v2.085Z"/>
        <path class="c" d="M256.874,47.935v8.419h-2.346V47.935L248.142,35.84H250.7l5,9.722,5.005-9.722h2.554Z"/>
      </g>
      <g>
        <polygon class="c" points="146.501 59.593 82.798 59.593 87.872 64.667 146.501 59.593"/>
        <path class="c" d="M88.7,39.068v.767A6.439,6.439,0,0,0,85,38.644c-4.463,0-7.853,4.069-7.853,9.067S80.54,56.778,85,56.778a6.424,6.424,0,0,0,3.7-1.191v.767h3.923V39.068ZM85,52.616c-2.2,0-3.812-2.167-3.812-4.905s1.611-4.9,3.812-4.9,3.756,2.167,3.756,4.9S87.206,52.616,85,52.616Z"/>
        <path class="c" d="M120.125,39.068V49.222a3.227,3.227,0,1,1-6.428,0V39.068h-3.923V49.222c0,4.167,2.85,7.556,7.017,7.556a6.02,6.02,0,0,0,3.334-1.067v.643h3.923V39.068Z"/>
        <path class="c" d="M156.68,56.354V46.2a3.227,3.227,0,1,1,6.428,0V56.354h3.923V46.2c0-4.166-2.85-7.555-7.017-7.555a6.02,6.02,0,0,0-3.334,1.067v-.643h-3.923V56.354Z"/>
        <path class="c" d="M65.843,56.354v-6.7h2.9l5.024,6.7h5.136l-6.071-8.081A7.443,7.443,0,0,0,68.52,34.761H61.74V56.354Zm0-17.494H68.52a3.347,3.347,0,1,1,0,6.694H65.843Z"/>
        <path class="c" d="M134.622,52.263a2.327,2.327,0,0,1-1.312.426,1.934,1.934,0,0,1-1.849-2.121v-7.4h3.355v-4.1h-3.355V34.76h-3.923v4.308h-2.075v4.1h2.075v7.457a5.9,5.9,0,0,0,5.833,6.165,8.078,8.078,0,0,0,3.837-1.088Z"/>
        <polygon class="c" points="102.375 47.171 109.105 39.068 103.605 39.068 98.899 45.09 98.899 33.333 94.859 33.333 94.859 56.354 98.899 56.354 98.899 49.253 104.685 56.354 110.181 56.354 102.375 47.171"/>
        <path class="c" d="M143.684,38.63c-4.541,0-7.8,3.99-7.8,9.081,0,5.353,4.088,9.083,8.187,9.083a8.187,8.187,0,0,0,6.948-3.87l-3.465-2c-2.68,3.95-7.146,1.945-7.662-2.005l11.3,0C152.162,42.713,148.147,38.63,143.684,38.63Zm3.424,6.85h-7.066C140.868,41.431,146.344,41.2,147.108,45.48Z"/>
      </g>
    </g>
  </g>
</svg>
