<?xml version="1.0" encoding="UTF-8"?><svg id="_イヤー_1" xmlns="http://www.w3.org/2000/svg" viewBox="0 0 325 98"><defs><style>.cls-1{fill:#fff;}.cls-2{fill:#00b900;}.cls-3{fill:none;}</style></defs><rect class="cls-1" y="0" width="325" height="98"/><g><g><path class="cls-2" d="M73.24,76.44v-23.45h15.57v4.32h-10.67v5.13h9.55v4.32h-9.55v5.37h10.95v4.32h-15.84Z"/><path class="cls-2" d="M90.03,76.44l6.25-9.08-5.85-8.43h5.68l3.4,5.24,3.4-5.24h5.23l-5.88,8.43,6.25,9.08h-5.68l-3.81-5.88-3.81,5.88h-5.2Z"/><path class="cls-2" d="M109.7,82.89v-23.96h4.11l.34,2.69c.48-.93,1.19-1.68,2.14-2.24,.95-.57,2.02-.85,3.19-.85,1.45,0,2.76,.39,3.94,1.16,1.18,.77,2.11,1.84,2.8,3.21,.69,1.37,1.04,2.96,1.04,4.78s-.33,3.41-1,4.78c-.67,1.37-1.57,2.45-2.7,3.23-1.13,.78-2.41,1.17-3.84,1.17-1.2,0-2.26-.27-3.16-.8-.91-.53-1.61-1.24-2.11-2.12v8.97h-4.76Zm8.7-10.37c1.16,0,2.11-.45,2.86-1.34,.75-.89,1.12-2.07,1.12-3.52s-.37-2.59-1.12-3.48c-.75-.89-1.7-1.34-2.86-1.34s-2.14,.45-2.87,1.34c-.74,.9-1.1,2.06-1.1,3.48s.37,2.62,1.1,3.52c.74,.9,1.69,1.34,2.87,1.34Z"/><path class="cls-2" d="M137.57,76.91c-1.86,0-3.46-.38-4.81-1.14-1.35-.76-2.39-1.83-3.11-3.21-.73-1.38-1.09-3.01-1.09-4.9s.36-3.38,1.09-4.76c.72-1.38,1.72-2.47,2.99-3.26,1.27-.79,2.71-1.19,4.32-1.19s3.03,.38,4.25,1.14c1.22,.76,2.18,1.83,2.86,3.21,.68,1.38,1.02,2.97,1.02,4.76v1.43h-11.73c.39,2.65,1.93,3.98,4.62,3.98,1.88,0,3.57-.8,5.06-2.41l1.87,3.54c-.97,.91-2.1,1.6-3.37,2.09-1.27,.49-2.6,.73-3.98,.73Zm-.65-14.75c-.93,0-1.7,.32-2.31,.97-.61,.65-1.02,1.57-1.22,2.77h7c-.14-1.2-.5-2.12-1.1-2.77-.6-.65-1.39-.97-2.36-.97Z"/><path class="cls-2" d="M147.26,76.44v-17.51h4.11l.37,2.89c.43-1.04,1.03-1.85,1.8-2.43,.77-.58,1.64-.87,2.62-.87,1.07,0,2.01,.28,2.82,.85l-1.16,4.66c-.82-.54-1.63-.82-2.45-.82-1.02,0-1.84,.42-2.45,1.27-.61,.85-.92,1.99-.92,3.42v8.53h-4.76Z"/><path class="cls-2" d="M162.55,56.99c-.82,0-1.5-.28-2.04-.83-.54-.55-.82-1.22-.82-1.99s.27-1.43,.82-1.99c.54-.55,1.22-.83,2.04-.83s1.53,.28,2.07,.83c.54,.56,.82,1.22,.82,1.99s-.27,1.43-.82,1.99c-.54,.56-1.24,.83-2.07,.83Zm-2.38,19.44v-17.51h4.76v17.51h-4.76Z"/><path class="cls-2" d="M176.06,76.91c-1.86,0-3.46-.38-4.81-1.14-1.35-.76-2.39-1.83-3.11-3.21-.73-1.38-1.09-3.01-1.09-4.9s.36-3.38,1.09-4.76c.72-1.38,1.72-2.47,2.99-3.26,1.27-.79,2.71-1.19,4.32-1.19s3.03,.38,4.25,1.14c1.22,.76,2.18,1.83,2.86,3.21,.68,1.38,1.02,2.97,1.02,4.76v1.43h-11.73c.39,2.65,1.93,3.98,4.62,3.98,1.88,0,3.57-.8,5.06-2.41l1.87,3.54c-.97,.91-2.1,1.6-3.37,2.09-1.27,.49-2.6,.73-3.98,.73Zm-.65-14.75c-.93,0-1.7,.32-2.31,.97-.61,.65-1.02,1.57-1.22,2.77h7c-.14-1.2-.5-2.12-1.1-2.77-.6-.65-1.39-.97-2.36-.97Z"/><path class="cls-2" d="M185.76,76.44v-17.51h4.11l.34,2.75c.54-.97,1.3-1.74,2.26-2.31,.96-.57,2.05-.85,3.25-.85,1.88,0,3.37,.7,4.45,2.11,1.09,1.41,1.63,3.39,1.63,5.95v9.86h-4.76v-9.52c0-1.31-.26-2.31-.78-2.99-.52-.68-1.26-1.02-2.21-1.02-1.04,0-1.89,.43-2.55,1.27-.66,.85-.99,1.9-.99,3.14v9.11h-4.76Z"/><path class="cls-2" d="M212.37,76.91c-1.72,0-3.23-.38-4.52-1.14s-2.3-1.82-3.03-3.18c-.73-1.36-1.09-2.93-1.09-4.72s.37-3.5,1.1-4.91c.74-1.42,1.76-2.52,3.08-3.31,1.31-.79,2.83-1.19,4.56-1.19,1.4,0,2.7,.28,3.87,.83,1.18,.56,2.19,1.37,3.03,2.43l-2.52,3.67c-1.2-1.72-2.57-2.58-4.11-2.58-1.2,0-2.19,.46-2.96,1.38-.77,.92-1.16,2.1-1.16,3.55s.39,2.59,1.17,3.48c.78,.9,1.8,1.34,3.04,1.34,.82,0,1.55-.19,2.19-.58,.65-.39,1.32-1.03,2.02-1.94l2.45,3.67c-.86,1.02-1.92,1.81-3.16,2.36-1.25,.56-2.57,.83-3.98,.83Z"/><path class="cls-2" d="M228.86,76.91c-1.86,0-3.46-.38-4.81-1.14-1.35-.76-2.39-1.83-3.11-3.21-.73-1.38-1.09-3.01-1.09-4.9s.36-3.38,1.09-4.76c.72-1.38,1.72-2.47,2.99-3.26,1.27-.79,2.71-1.19,4.32-1.19s3.03,.38,4.25,1.14c1.22,.76,2.18,1.83,2.86,3.21,.68,1.38,1.02,2.97,1.02,4.76v1.43h-11.73c.39,2.65,1.93,3.98,4.62,3.98,1.88,0,3.57-.8,5.06-2.41l1.87,3.54c-.97,.91-2.1,1.6-3.37,2.09-1.27,.49-2.6,.73-3.98,.73Zm-.65-14.75c-.93,0-1.7,.32-2.31,.97-.61,.65-1.02,1.57-1.22,2.77h7c-.14-1.2-.5-2.12-1.1-2.77-.6-.65-1.39-.97-2.36-.97Z"/><path class="cls-2" d="M244.63,76.91c-1.43,0-2.78-.24-4.04-.71-1.27-.48-2.37-1.16-3.3-2.04l1.8-3.54c1.52,1.63,3.29,2.45,5.3,2.45,.82,0,1.44-.13,1.89-.39,.44-.26,.66-.63,.66-1.1s-.19-.82-.58-1.1c-.39-.28-1.04-.55-1.97-.8l-1.56-.37c-3.24-.73-4.86-2.41-4.86-5.06,0-1.13,.29-2.14,.88-3.01,.59-.87,1.41-1.55,2.46-2.04,1.05-.49,2.26-.73,3.62-.73,1.22,0,2.38,.19,3.47,.56,1.09,.37,2.01,.91,2.75,1.61l-1.7,3.54c-1.31-1.27-2.83-1.9-4.55-1.9-.68,0-1.22,.14-1.61,.41-.4,.27-.6,.64-.6,1.09,0,.41,.17,.74,.51,.99,.34,.25,.93,.48,1.77,.68l1.53,.37c1.7,.41,3,1.08,3.89,2.02s1.34,2.1,1.34,3.48c0,1.7-.65,3.06-1.94,4.08s-3.01,1.53-5.17,1.53Z"/></g><rect class="cls-3" x="73.24" y="21.51" width="178.54" height="23.58"/><g><g><path class="cls-2" d="M188.41,26v14.65c0,.99-.82,1.78-1.86,1.78s-1.86-.79-1.86-1.78v-14.65h-3.91c-1.01,0-1.83-.77-1.83-1.73s.82-1.73,1.83-1.73h11.56c1.01,0,1.83,.77,1.83,1.73s-.82,1.73-1.83,1.73h-3.94Z"/><path class="cls-2" d="M197.86,27.86c.77-.94,1.93-1.44,2.85-1.63,1.14-.22,2.2,.52,2.2,1.66v.02c0,.82-.57,1.48-1.34,1.68-.96,.25-1.93,.49-2.67,1.63-.42,.64-.64,1.41-.64,2.25v7.08c0,1.01-.84,1.86-1.86,1.86s-1.86-.84-1.86-1.86v-12.67c0-.94,.74-1.68,1.66-1.68,1.51,0,1.66,1.66,1.66,1.66Z"/><path class="cls-2" d="M215.49,26.23c1.04,0,1.86,.77,1.86,1.76v12.47c0,.97-.79,1.76-1.86,1.76-1.58,0-1.86-1.61-1.86-1.61-.99,1.19-2.28,1.81-3.84,1.81-3.91,0-7.08-3.69-7.08-8.19s3.27-8.17,7.28-8.17c1.51,0,2.7,.59,3.64,1.81,0,0,.27-1.63,1.73-1.63h.12Zm-1.86,8.02c0-2.77-1.51-4.73-3.61-4.73s-3.59,2.08-3.59,4.7,1.61,4.73,3.61,4.73,3.59-1.96,3.59-4.7Z"/><path class="cls-2" d="M228.02,27.46c.3-1.06,1.41-1.66,2.45-1.36,1.09,.32,1.68,1.46,1.34,2.52l-3.81,11.85c-.4,1.16-1.48,1.96-2.7,1.96s-2.33-.79-2.72-1.96l-3.84-11.85c-.35-1.06,.25-2.2,1.34-2.52,1.04-.3,2.15,.3,2.45,1.36l2.77,9.4,2.72-9.4Z"/><path class="cls-2" d="M244.69,37.41c1.06,.62,1.16,1.98,.3,2.85-1.39,1.36-2.92,2.15-5.2,2.15-4.48,0-7.7-3.42-7.7-8.17s3.14-8.22,7.2-8.22,7.2,3.64,7.2,8.14c0,.62-.54,1.14-1.19,1.14h-9.11c.25,2.2,1.66,3.56,3.69,3.56,.94,0,1.88-.45,2.55-1.24,.52-.62,1.53-.64,2.25-.22Zm-2.38-5.27c-.37-1.86-1.41-2.82-2.99-2.82s-2.65,1.04-3.04,2.82h6.04Z"/><path class="cls-2" d="M248.07,22.69c0-1.01,.84-1.86,1.86-1.86s1.86,.84,1.86,1.86v17.87c0,1.01-.84,1.86-1.86,1.86s-1.86-.84-1.86-1.86V22.69Z"/></g><g><polygon class="cls-2" points="153.72 45.09 93.24 45.09 98.05 49.91 153.72 45.09"/><path class="cls-2" d="M98.84,25.6v.73c-1.12-.72-2.13-1.13-3.51-1.13-4.24,0-7.46,3.86-7.46,8.61s3.22,8.61,7.46,8.61c1.38,0,2.39-.41,3.51-1.13v.73h3.72V25.6h-3.72Zm-3.51,12.86c-2.09,0-3.62-2.06-3.62-4.66s1.53-4.65,3.62-4.65,3.57,2.06,3.57,4.65-1.47,4.66-3.57,4.66Z"/><path class="cls-2" d="M128.68,25.6v9.64c0,1.81-1.24,3.34-3.05,3.34s-3.05-1.53-3.05-3.34v-9.64h-3.72v9.64c0,3.96,2.71,7.17,6.66,7.17,1.83,0,3.17-1.01,3.17-1.01v.61h3.72V25.6h-3.72Z"/><path class="cls-2" d="M163.38,42.02v-9.64c0-1.81,1.24-3.34,3.05-3.34s3.05,1.53,3.05,3.34v9.64h3.72v-9.64c0-3.96-2.71-7.17-6.66-7.17-1.83,0-3.17,1.01-3.17,1.01v-.61h-3.72v16.41h3.72Z"/><path class="cls-2" d="M77.14,42.02v-6.36h2.76l4.77,6.36h4.88l-5.76-7.67c1.8-1.29,2.98-3.39,2.98-5.76,0-3.9-3.17-7.07-7.07-7.07h-6.44v20.5h3.9Zm0-16.61h2.54c1.75,0,3.18,1.42,3.18,3.18s-1.43,3.18-3.18,3.18h-2.54v-6.36Z"/><path class="cls-2" d="M142.44,38.13c-.33,.23-.76,.4-1.25,.4-.61,0-1.76-.46-1.76-2.01v-7.02h3.19v-3.9h-3.19v-4.09h-3.73v4.09s-1.97,0-1.97,0v3.9h1.97v7.08c0,3.66,2.76,5.85,5.54,5.85,1.04,0,2.47-.34,3.64-1.03l-2.45-3.27Z"/><polygon class="cls-2" points="111.82 33.3 118.21 25.6 112.99 25.6 108.52 31.32 108.52 20.16 104.69 20.16 104.69 42.02 108.52 42.02 108.52 35.27 114.02 42.02 119.24 42.02 111.82 33.3"/><path class="cls-2" d="M151.04,25.19c-4.31,0-7.4,3.79-7.4,8.62,0,5.08,3.88,8.62,7.77,8.62,1.96,0,4.48-.67,6.6-3.67l-3.29-1.9c-2.54,3.75-6.78,1.85-7.27-1.9h10.73c.92-5.89-2.89-9.77-7.13-9.77Zm3.25,6.5h-6.71c.78-3.84,5.98-4.06,6.71,0Z"/></g></g><rect class="cls-3" x="62.98" y="11.24" width="199.04" height="75.51" rx="3.5" ry="3.5"/></g></svg>