<?xml version="1.0" encoding="UTF-8"?><svg id="_イヤー_1" xmlns="http://www.w3.org/2000/svg" viewBox="0 0 325 98"><defs><style>.cls-1{fill:#fff;}.cls-2{fill:#0c9bff;}.cls-3{fill:none;}</style></defs><g id="_イヤー_2"><rect class="cls-1" y="0" width="325" height="98"/></g><g><path class="cls-3" d="M103,10.85h119c1.16,0,2.1,.94,2.1,2.1V85.05c0,1.16-.94,2.1-2.1,2.1H103c-1.16,0-2.1-.94-2.1-2.1V12.95c0-1.16,.94-2.1,2.1-2.1Z"/><g><rect class="cls-3" x="111.39" y="21.34" width="102.22" height="55.33"/><g><g><polygon class="cls-2" points="193.68 45.44 131.83 45.44 136.76 50.37 193.68 45.44"/><path class="cls-2" d="M137.56,25.52v.74c-1.15-.73-2.18-1.16-3.59-1.16-4.33,0-7.63,3.95-7.63,8.8s3.29,8.8,7.63,8.8c1.41,0,2.44-.42,3.59-1.16v.74h3.81V25.52h-3.81Zm-3.59,13.15c-2.14,0-3.7-2.1-3.7-4.76s1.56-4.76,3.7-4.76,3.65,2.1,3.65,4.76-1.51,4.76-3.65,4.76Z"/><path class="cls-2" d="M168.07,25.52v9.86c0,1.85-1.27,3.41-3.12,3.41s-3.12-1.56-3.12-3.41v-9.86h-3.81v9.86c0,4.05,2.77,7.34,6.81,7.34,1.87,0,3.24-1.04,3.24-1.04v.62h3.81V25.52h-3.81Z"/><path class="cls-2" d="M203.56,42.3v-9.86c0-1.85,1.27-3.41,3.12-3.41s3.12,1.56,3.12,3.41v9.86h3.81v-9.86c0-4.05-2.77-7.34-6.81-7.34-1.87,0-3.24,1.04-3.24,1.04v-.62h-3.81v16.78h3.81Z"/><path class="cls-2" d="M115.37,42.3v-6.5h2.82l4.88,6.5h4.99l-5.9-7.85c1.84-1.32,3.04-3.46,3.04-5.89,0-3.99-3.24-7.23-7.23-7.23h-6.58v20.96h3.99Zm0-16.98h2.6c1.79,0,3.25,1.46,3.25,3.25s-1.46,3.25-3.25,3.25h-2.6v-6.5Z"/><path class="cls-2" d="M182.15,38.33c-.34,.23-.77,.41-1.27,.41-.62,0-1.79-.47-1.79-2.06v-7.18h3.26v-3.98h-3.26v-4.18h-3.81v4.18h-2.01v3.98h2.01v7.24c0,3.75,2.82,5.99,5.66,5.99,1.06,0,2.53-.35,3.72-1.06l-2.51-3.34h0Z"/><polygon class="cls-2" points="150.84 33.38 157.37 25.52 152.03 25.52 147.46 31.36 147.46 19.95 143.54 19.95 143.54 42.3 147.46 42.3 147.46 35.4 153.08 42.3 158.42 42.3 150.84 33.38"/><path class="cls-2" d="M190.94,25.09c-4.41,0-7.57,3.87-7.57,8.82,0,5.2,3.97,8.82,7.95,8.82,2.01,0,4.58-.69,6.75-3.76l-3.36-1.94c-2.6,3.84-6.94,1.89-7.44-1.95h10.97c.94-6.03-2.96-9.99-7.29-9.99h0Zm3.32,6.65h-6.86c.8-3.93,6.12-4.15,6.86,0Z"/></g><g><path class="cls-2" d="M129.72,57.19l-6,19.04c-.08,.26-.33,.44-.6,.44h-5.54c-.27,0-.52-.18-.6-.44l-6-19.04c-.07-.22,.09-.44,.32-.44h4.78c.26,0,.5,.18,.57,.43l3.72,13.67c.03,.12,.21,.12,.24,0l3.72-13.67c.07-.25,.3-.43,.57-.43h4.49c.23,0,.39,.22,.32,.44h0Z"/><path class="cls-2" d="M134.26,59.03c-.87,0-1.6-.29-2.18-.86-.58-.57-.87-1.28-.87-2.11s.29-1.53,.87-2.11c.58-.57,1.31-.86,2.18-.86s1.6,.29,2.18,.86c.58,.57,.87,1.28,.87,2.11s-.29,1.53-.87,2.11c-.58,.57-1.31,.86-2.18,.86Zm-2.65,17.18v-15.25c0-.25,.21-.46,.46-.46h4.38c.25,0,.46,.21,.46,.46v15.25c0,.25-.21,.46-.46,.46h-4.38c-.25,0-.46-.21-.46-.46Z"/><path class="cls-2" d="M139.42,76.2v-21.24c0-.25,.21-.46,.46-.46h4.38c.25,0,.46,.21,.46,.46v11.14c0,.15,.19,.2,.27,.08l3.56-5.31c.16-.24,.43-.38,.71-.38h5.22c.19,0,.3,.22,.18,.37l-5.18,6.73c-.16,.21-.16,.5,0,.71l6.09,7.98c.12,.15,0,.37-.18,.37h-5.6c-.28,0-.55-.14-.72-.37l-4.09-5.75c-.08-.12-.27-.06-.27,.08v5.57c0,.25-.21,.46-.46,.46h-4.38c-.25,0-.46-.21-.46-.46h0Z"/><path class="cls-2" d="M159.74,59.03c-.87,0-1.6-.29-2.18-.86-.58-.57-.87-1.28-.87-2.11s.29-1.53,.87-2.11c.58-.57,1.31-.86,2.18-.86s1.6,.29,2.18,.86c.58,.57,.87,1.28,.87,2.11s-.29,1.53-.87,2.11c-.58,.57-1.31,.86-2.18,.86Zm-2.65,17.18v-15.25c0-.25,.21-.46,.46-.46h4.38c.25,0,.46,.21,.46,.46v15.25c0,.25-.21,.46-.46,.46h-4.38c-.25,0-.46-.21-.46-.46Z"/></g></g></g></g></svg>