<svg xmlns="http://www.w3.org/2000/svg" width="325" height="98" viewBox="0 0 325 98">
  <defs>
    <style>
      .a {
        fill: #fff;
      }

      .b {
        fill: none;
      }
    </style>
  </defs>
  <title>logo_fashion_01</title>
  <rect class="a" width="325" height="98"/>
  <g>
    <rect class="b" x="67.5" y="22.333" width="190" height="52.782"/>
    <g>
      <rect x="113.446" y="51.569" width="98.109" height="0.392"/>
      <g>
        <polygon points="180.009 75.115 145.279 75.115 148.045 77.882 180.009 75.115"/>
        <path d="M148.5,63.925v.418a3.517,3.517,0,0,0-2.016-.65c-2.432,0-4.281,2.22-4.281,4.944s1.849,4.943,4.281,4.943a3.509,3.509,0,0,0,2.016-.649v.418h2.138V63.925Zm-2.016,7.386c-1.2,0-2.077-1.182-2.077-2.674s.878-2.672,2.077-2.672,2.048,1.181,2.048,2.672S147.682,71.311,146.48,71.311Z"/>
        <path d="M165.629,63.925v5.536a1.759,1.759,0,1,1-3.5,0V63.925h-2.138v5.536a3.882,3.882,0,0,0,3.825,4.119A3.281,3.281,0,0,0,165.629,73v.35h2.139V63.925Z"/>
        <path d="M185.559,73.349V67.813a1.759,1.759,0,1,1,3.5,0v5.536H191.2V67.813a3.883,3.883,0,0,0-3.826-4.12,3.282,3.282,0,0,0-1.818.582v-.35H183.42v9.424Z"/>
        <path d="M136.034,73.349V69.7h1.583l2.739,3.651h2.8l-3.31-4.405a4.058,4.058,0,0,0-2.352-7.367h-3.7V73.349Zm0-9.537h1.46a1.825,1.825,0,1,1,0,3.649h-1.46Z"/>
        <path d="M173.533,71.119a1.275,1.275,0,0,1-.715.232,1.054,1.054,0,0,1-1.008-1.157V66.162h1.829V63.925H171.81V61.576h-2.138v2.349h-1.132v2.237h1.132v4.065a3.217,3.217,0,0,0,3.179,3.361A4.4,4.4,0,0,0,174.943,73Z"/>
        <polygon points="155.952 68.343 159.621 63.925 156.623 63.925 154.057 67.208 154.057 60.798 151.854 60.798 151.854 73.349 154.057 73.349 154.057 69.478 157.211 73.349 160.208 73.349 155.952 68.343"/>
        <path d="M178.474,63.686c-2.476,0-4.252,2.175-4.252,4.951a4.76,4.76,0,0,0,4.464,4.952,4.463,4.463,0,0,0,3.788-2.11l-1.889-1.091c-1.461,2.154-3.9,1.061-4.177-1.093l6.161,0C183.1,65.912,180.907,63.686,178.474,63.686Zm1.867,3.735h-3.852A1.941,1.941,0,0,1,180.341,67.421Z"/>
      </g>
      <g>
        <path d="M156.334,26.085a5.828,5.828,0,0,0-5.475,3.568l-.184-3.261H149.23V41.956h1.691V33.59a6.845,6.845,0,0,1,.631-2.923,5.266,5.266,0,0,1,1.784-2.152,4.454,4.454,0,0,1,2.6-.8,3.735,3.735,0,0,1,3.03,1.307,5.789,5.789,0,0,1,1.091,3.8v9.136h1.692V32.82a7.67,7.67,0,0,0-1.445-4.936,4.815,4.815,0,0,0-3.968-1.8m-15.461,1.569a4.316,4.316,0,0,1,3.322,1.4,6.762,6.762,0,0,1,1.6,3.86h-9.872a6.712,6.712,0,0,1,1.614-3.86,4.366,4.366,0,0,1,3.337-1.4m6.706,6.643a10.484,10.484,0,0,0-.847-4.321,6.7,6.7,0,0,0-2.383-2.922,6.379,6.379,0,0,0-6.951,0,6.8,6.8,0,0,0-2.4,2.922,10.326,10.326,0,0,0-.861,4.321,9.664,9.664,0,0,0,.876,4.245,6.451,6.451,0,0,0,6.044,3.782,6.87,6.87,0,0,0,3.752-1.03,7.13,7.13,0,0,0,2.522-2.691l-1.2-1.2a6.307,6.307,0,0,1-2.077,2.43,5.115,5.115,0,0,1-2.936.861,4.771,4.771,0,0,1-3.783-1.661,6.9,6.9,0,0,1-1.477-4.613h11.719ZM133.815,39.4a4.7,4.7,0,0,1-1.353.939,3.761,3.761,0,0,1-1.507.292A2.311,2.311,0,0,1,129,39.772a4.03,4.03,0,0,1-.661-2.492V27.93h5.751V26.392h-5.751V22.21h-1.692v4.182H123.82V27.93h2.829v9.442a5.471,5.471,0,0,0,1.062,3.661,3.932,3.932,0,0,0,3.152,1.229,5.424,5.424,0,0,0,3.537-1.229Zm-12.523-13.01v8.366a7.089,7.089,0,0,1-.6,2.937,5.142,5.142,0,0,1-1.723,2.138,4.317,4.317,0,0,1-2.568.8,3.765,3.765,0,0,1-3.045-1.277,5.719,5.719,0,0,1-1.076-3.768v-9.2h-1.692v9.2a7.552,7.552,0,0,0,1.446,4.891A4.826,4.826,0,0,0,116,42.262a5.541,5.541,0,0,0,3.26-.968,6.031,6.031,0,0,0,2.091-2.6l.184,3.261h1.446V26.392ZM110.237,41.956l-8.98-8.428,8.243-7.136h-2.276L99.6,33.128V20.118H97.905V41.956H99.6V34.205l8.243,7.751ZM88.22,40.633a4.871,4.871,0,0,1-2.783-.816,5.294,5.294,0,0,1-1.877-2.276,8.908,8.908,0,0,1,0-6.735,5.3,5.3,0,0,1,1.877-2.275,4.879,4.879,0,0,1,2.783-.816,4.782,4.782,0,0,1,2.722.816,5.411,5.411,0,0,1,1.892,2.275,8.561,8.561,0,0,1-.016,6.706,5.512,5.512,0,0,1-1.892,2.3,4.7,4.7,0,0,1-2.706.816m5.536-14.241-.185,3.384a5.942,5.942,0,0,0-5.6-3.691,6.18,6.18,0,0,0-3.491,1.03,6.92,6.92,0,0,0-2.43,2.876,10.425,10.425,0,0,0,0,8.366,6.917,6.917,0,0,0,2.43,2.875,6.165,6.165,0,0,0,3.491,1.03,5.959,5.959,0,0,0,3.4-1,5.9,5.9,0,0,0,2.2-2.691l.185,3.384H95.2V26.392Zm-21.305,6.49h-3.2V23.87h3.2a6.158,6.158,0,0,1,3.891,1.139A3.989,3.989,0,0,1,77.8,28.361a4.047,4.047,0,0,1-1.43,3.414,6.255,6.255,0,0,1-3.922,1.107m9.75,9.074-6.274-8.151a5.991,5.991,0,0,0,2.691-2.076,5.677,5.677,0,0,0,.969-3.368,5.382,5.382,0,0,0-1.953-4.475,8.092,8.092,0,0,0-5.183-1.553H67.5V41.956h1.753V34.42h3.229A10.579,10.579,0,0,0,74.2,34.3l5.875,7.659Z"/>
        <path d="M252.087,26.085a5.828,5.828,0,0,0-5.474,3.568l-.185-3.261h-1.445V41.956h1.692V33.59a6.84,6.84,0,0,1,.63-2.922,5.253,5.253,0,0,1,1.784-2.152,4.449,4.449,0,0,1,2.6-.8,3.732,3.732,0,0,1,3.029,1.308,5.784,5.784,0,0,1,1.092,3.8v9.136H257.5V32.82a7.67,7.67,0,0,0-1.445-4.936,4.815,4.815,0,0,0-3.968-1.8M235.609,40.7a5.03,5.03,0,0,1-2.815-.815,5.617,5.617,0,0,1-1.968-2.292,8.422,8.422,0,0,1,0-6.828,5.621,5.621,0,0,1,1.968-2.291,5.03,5.03,0,0,1,2.815-.815,5.1,5.1,0,0,1,2.829.815,5.575,5.575,0,0,1,1.984,2.291,8.433,8.433,0,0,1,0,6.828,5.571,5.571,0,0,1-1.984,2.292,5.1,5.1,0,0,1-2.829.815m0,1.629a6.825,6.825,0,0,0,3.736-1.045,7.2,7.2,0,0,0,2.584-2.907,9.863,9.863,0,0,0,0-8.4,7.2,7.2,0,0,0-2.584-2.906,7.2,7.2,0,0,0-7.473,0,7.112,7.112,0,0,0-2.569,2.891,9.294,9.294,0,0,0-.922,4.213,9.3,9.3,0,0,0,.922,4.214,7.112,7.112,0,0,0,2.569,2.891,6.823,6.823,0,0,0,3.737,1.045m-10.989-.368h1.692V26.392H224.62Zm.83-18.393a1.435,1.435,0,0,0,1.061-.415,1.487,1.487,0,0,0,0-2.061,1.564,1.564,0,0,0-2.122,0,1.487,1.487,0,0,0,0,2.061,1.434,1.434,0,0,0,1.061.415m-8.965,2.522a5.761,5.761,0,0,0-3.275.954,5.876,5.876,0,0,0-2.138,2.522V20.118H209.38V41.956h1.692V33.59a6.84,6.84,0,0,1,.63-2.922,5.253,5.253,0,0,1,1.784-2.152,4.449,4.449,0,0,1,2.6-.8,3.734,3.734,0,0,1,3.03,1.308,5.79,5.79,0,0,1,1.092,3.8v9.136H221.9V32.82a7.676,7.676,0,0,0-1.445-4.936,4.817,4.817,0,0,0-3.968-1.8m-14.5,16.239a6,6,0,0,0,3.86-1.168,3.81,3.81,0,0,0,1.461-3.137,4.146,4.146,0,0,0-.984-2.784,5.823,5.823,0,0,0-2.921-1.707l-1.907-.523a5.638,5.638,0,0,1-2.338-1.106,2.284,2.284,0,0,1,.216-3.538,4.132,4.132,0,0,1,2.522-.707,4.183,4.183,0,0,1,2.183.569,5.064,5.064,0,0,1,1.691,1.8l1.17-1.23a4.975,4.975,0,0,0-2.015-2.045,6.157,6.157,0,0,0-3.029-.723,5.711,5.711,0,0,0-3.737,1.169,3.714,3.714,0,0,0-1.431,3.014q0,3.2,3.968,4.305l1.906.523a4.817,4.817,0,0,1,2.261,1.138,2.531,2.531,0,0,1,.723,1.846,2.294,2.294,0,0,1-.953,2,4.519,4.519,0,0,1-2.646.677,4.923,4.923,0,0,1-2.937-.846,6.755,6.755,0,0,1-2.014-2.445l-1.2,1.2a7.16,7.16,0,0,0,2.444,2.707,6.621,6.621,0,0,0,3.706,1.014m-14.817-1.691a4.883,4.883,0,0,1-2.784-.815,5.293,5.293,0,0,1-1.876-2.277,8.908,8.908,0,0,1,0-6.735,5.293,5.293,0,0,1,1.876-2.275,4.884,4.884,0,0,1,2.784-.816,4.779,4.779,0,0,1,2.721.816,5.4,5.4,0,0,1,1.892,2.275,8.561,8.561,0,0,1-.016,6.706,5.512,5.512,0,0,1-1.891,2.306,4.706,4.706,0,0,1-2.706.815M192.7,26.392l-.183,3.384a5.944,5.944,0,0,0-5.6-3.691,6.173,6.173,0,0,0-3.491,1.031A6.916,6.916,0,0,0,181,29.991a10.425,10.425,0,0,0,0,8.366,6.91,6.91,0,0,0,2.43,2.875,6.165,6.165,0,0,0,3.491,1.03,5.941,5.941,0,0,0,5.6-3.69l.183,3.384h1.446V26.392ZM179.323,23.9V22.333h-11.38V41.956H169.7V32.851h8.734V31.284H169.7V23.9Z"/>
      </g>
    </g>
  </g>
</svg>
