<?xml version="1.0" encoding="UTF-8"?><svg id="_イヤー_1" xmlns="http://www.w3.org/2000/svg" viewBox="0 0 325 98"><defs><style>.cls-1{fill:#7d00be;}.cls-2{fill:#fff;}.cls-3{fill:none;}</style></defs><rect class="cls-2" y="0" width="325" height="98"/><g><rect class="cls-3" x="70.6" y="25.78" width="183.81" height="46.42" rx="2.16" ry="2.16"/><g><rect class="cls-3" x="81.39" y="36.58" width="162.22" height="24.83"/><g><g><polygon class="cls-1" points="166.15 61.41 102.45 61.41 107.53 66.49 166.15 61.41"/><path class="cls-1" d="M108.35,40.89v.77c-1.18-.75-2.24-1.19-3.7-1.19-4.46,0-7.85,4.07-7.85,9.07s3.39,9.07,7.85,9.07c1.45,0,2.51-.44,3.7-1.19v.77h3.92v-17.28h-3.92Zm-3.7,13.55c-2.2,0-3.81-2.17-3.81-4.9s1.61-4.9,3.81-4.9,3.76,2.17,3.76,4.9-1.55,4.9-3.76,4.9Z"/><path class="cls-1" d="M139.78,40.89v10.15c0,1.9-1.31,3.51-3.21,3.51s-3.21-1.61-3.21-3.51v-10.15h-3.92v10.15c0,4.17,2.85,7.56,7.02,7.56,1.93,0,3.33-1.07,3.33-1.07v.64h3.92v-17.28h-3.92Z"/><path class="cls-1" d="M176.33,58.17v-10.15c0-1.9,1.31-3.51,3.21-3.51s3.21,1.61,3.21,3.51v10.15h3.92v-10.15c0-4.17-2.85-7.56-7.02-7.56-1.93,0-3.33,1.07-3.33,1.07v-.64h-3.92v17.28h3.92Z"/><path class="cls-1" d="M85.5,58.17v-6.7h2.9l5.02,6.7h5.14l-6.07-8.08c1.89-1.36,3.13-3.57,3.13-6.07,0-4.11-3.34-7.44-7.45-7.44h-6.78v21.59h4.1Zm0-17.49h2.68c1.84,0,3.35,1.5,3.35,3.34s-1.51,3.35-3.35,3.35h-2.68v-6.69Z"/><path class="cls-1" d="M154.27,54.08c-.35,.24-.8,.43-1.31,.43-.64,0-1.85-.49-1.85-2.12v-7.4h3.35v-4.1h-3.35v-4.31h-3.92v4.31s-2.08,0-2.08,0v4.1h2.08v7.46c0,3.86,2.91,6.17,5.83,6.17,1.09,0,2.6-.36,3.84-1.09l-2.59-3.44Z"/><polygon class="cls-1" points="122.03 48.99 128.76 40.89 123.26 40.89 118.55 46.91 118.55 35.15 114.51 35.15 114.51 58.17 118.55 58.17 118.55 51.07 124.34 58.17 129.83 58.17 122.03 48.99"/><path class="cls-1" d="M163.34,40.45c-4.54,0-7.8,3.99-7.8,9.08,0,5.35,4.09,9.08,8.19,9.08,2.07,0,4.72-.71,6.95-3.87l-3.46-2c-2.68,3.95-7.15,1.95-7.66-2h11.3c.97-6.21-3.05-10.29-7.51-10.29Zm3.42,6.85h-7.07c.83-4.05,6.3-4.28,7.07,0Z"/></g><g><path class="cls-1" d="M209.95,37.66h-3.96v14.15l-8.03-13.13c-1.36-2.23-4.8-1.27-4.8,1.35v18.14h3.96v-14.09l8.03,13.13c1.36,2.23,4.8,1.27,4.8-1.35v-18.2Z"/><path class="cls-1" d="M212.54,58.17v-16.19c0-2.38,1.93-4.32,4.32-4.32h8.96v3.79h-7.47c-.95,0-1.73,.77-1.73,1.73v2.97h8.2v3.7h-8.2v8.33h-4.08Z"/><path class="cls-1" d="M233.61,58.17v-16.72h-5.85v-3.79h15.85v3.79h-5.85v16.72h-4.15Z"/></g></g></g></g></svg>