<?xml version="1.0" encoding="utf-8"?>
<!-- Generator: Adobe Illustrator 26.2.1, SVG Export Plug-In . SVG Version: 6.00 Build 0)  -->
<svg version="1.1" id="Layer_2" xmlns="http://www.w3.org/2000/svg" xmlns:xlink="http://www.w3.org/1999/xlink" x="0px" y="0px"
	 viewBox="0 0 325 98" style="enable-background:new 0 0 325 98;" xml:space="preserve">
<style type="text/css">
	.st0{fill:none;}
	.st1{fill:#002896;}
</style>
<g>
	<path class="st0" d="M45.8,71.4c-1.2,0-2.2-1-2.2-2.2V26.7c0-1.2,1-2.2,2.2-2.2h241.3c1.2,0,2.2,1,2.2,2.2v42.5
		c0,1.2-1,2.2-2.2,2.2H45.8z"/>
	<g>
		<rect x="54.6" y="35.4" class="st0" width="223.9" height="25.1"/>
		<g>
			<g>
				<path class="st1" d="M169.5,57.5c-0.6,0-1.1-0.2-1.5-0.6c-0.4-0.4-0.6-0.9-0.6-1.5V38.6c0-0.6,0.2-1,0.6-1.4
					c0.4-0.4,0.9-0.6,1.5-0.6h4.7c2.4,0,4.4,0.6,5.9,1.8c1.5,1.2,2.2,2.9,2.2,5.1c0,1.3-0.3,2.5-0.9,3.5c-0.6,1-1.4,1.8-2.5,2.3
					l4.1,5.1c0.2,0.2,0.3,0.4,0.4,0.6c0.1,0.2,0.1,0.4,0.1,0.7c0,0.5-0.2,1-0.6,1.4c-0.4,0.4-0.8,0.6-1.3,0.6c-0.4,0-0.7-0.1-1-0.3
					c-0.3-0.2-0.5-0.4-0.8-0.8l-4.6-6.2c-0.4,0-0.7,0-1.1,0h-2.5v5.2c0,0.6-0.2,1.1-0.6,1.5C170.5,57.3,170.1,57.5,169.5,57.5z
					 M174.1,40.1h-2.5v6.6h2.5c1.3,0,2.2-0.3,2.9-0.8c0.7-0.5,1.1-1.4,1.1-2.5c0-1.1-0.4-1.9-1.1-2.5
					C176.3,40.4,175.4,40.1,174.1,40.1z"/>
				<path class="st1" d="M191,57.6c-1.4,0-2.6-0.4-3.7-1.1c-1.1-0.7-2-1.7-2.6-3.1c-0.6-1.3-1-2.8-1-4.6c0-1.7,0.3-3.2,1-4.5
					c0.6-1.3,1.5-2.3,2.6-3.1c1.1-0.7,2.3-1.1,3.7-1.1c1.2,0,2.2,0.3,3.1,0.8c0.9,0.6,1.6,1.3,2,2.2l0.2-1.3c0-0.5,0.2-0.8,0.6-1.2
					c0.3-0.3,0.8-0.5,1.3-0.5c0.5,0,0.9,0.2,1.3,0.5c0.4,0.4,0.5,0.8,0.5,1.3v13.5c0,0.5-0.2,1-0.5,1.3c-0.4,0.4-0.8,0.5-1.3,0.5
					c-0.5,0-0.9-0.1-1.2-0.4c-0.3-0.3-0.6-0.7-0.6-1.2l-0.2-1.3c-0.4,0.9-1.1,1.7-2,2.2C193.3,57.3,192.2,57.6,191,57.6z
					 M191.9,53.9c1.2,0,2.2-0.5,3-1.4c0.8-0.9,1.1-2.1,1.1-3.6c0-1.5-0.4-2.7-1.1-3.6c-0.8-0.9-1.8-1.4-3-1.4
					c-1.2,0-2.2,0.5-2.9,1.4c-0.8,0.9-1.1,2.1-1.1,3.6c0,1.5,0.4,2.7,1.1,3.6C189.7,53.4,190.7,53.9,191.9,53.9z"/>
				<path class="st1" d="M204.6,57.6c-0.6,0-1-0.2-1.4-0.6c-0.4-0.4-0.6-0.9-0.6-1.4V35.9c0-0.5,0.2-1,0.6-1.4
					c0.4-0.4,0.9-0.6,1.4-0.6c0.6,0,1,0.2,1.4,0.6c0.4,0.4,0.6,0.9,0.6,1.4v11.3l6.2-6.2c0.5-0.5,1-0.7,1.5-0.7
					c0.5,0,0.8,0.2,1.2,0.5c0.3,0.3,0.5,0.7,0.5,1.2c0,0.3-0.1,0.5-0.2,0.7c-0.1,0.2-0.3,0.5-0.6,0.7l-4.9,4.8l6,6.2
					c0.3,0.4,0.5,0.8,0.5,1.3c0,0.5-0.2,1-0.5,1.3s-0.8,0.6-1.3,0.6c-0.3,0-0.6-0.1-0.9-0.2c-0.2-0.1-0.6-0.4-0.9-0.8l-6.7-6.8v5.7
					c0,0.6-0.2,1-0.6,1.4C205.7,57.4,205.2,57.6,204.6,57.6z"/>
				<path class="st1" d="M224,57.6c-1.8,0-3.3-0.6-4.3-1.9c-1.1-1.3-1.6-3.2-1.6-5.6v-7.8c0-0.5,0.2-1,0.6-1.4
					c0.4-0.4,0.9-0.6,1.4-0.6c0.6,0,1,0.2,1.4,0.6c0.4,0.4,0.6,0.9,0.6,1.4v7.4c0,1.3,0.3,2.4,0.8,3.1c0.5,0.7,1.3,1.1,2.3,1.1
					c1,0,1.9-0.4,2.6-1.3c0.7-0.9,1-2,1-3.3v-7c0-0.5,0.2-1,0.6-1.4c0.4-0.4,0.9-0.6,1.4-0.6c0.6,0,1,0.2,1.4,0.6
					c0.4,0.4,0.6,0.9,0.6,1.4v13.4c0,0.5-0.2,1-0.6,1.3c-0.4,0.4-0.8,0.5-1.3,0.5c-0.5,0-0.9-0.2-1.2-0.5c-0.3-0.3-0.6-0.7-0.6-1.2
					l-0.2-1.3c-0.5,1-1.2,1.7-2.2,2.2C226,57.3,225,57.6,224,57.6z"/>
				<path class="st1" d="M237.5,57.6c-0.6,0-1-0.2-1.4-0.6c-0.4-0.4-0.6-0.9-0.6-1.4V42.1c0-0.5,0.2-0.9,0.5-1.3
					c0.4-0.4,0.8-0.5,1.3-0.5c0.5,0,0.9,0.2,1.3,0.5c0.3,0.3,0.5,0.7,0.6,1.2l0.1,1.2c0.5-1,1.2-1.7,2.1-2.2
					c0.9-0.5,1.9-0.8,2.9-0.8c1.2,0,2.2,0.3,3,0.9c0.8,0.6,1.5,1.5,1.9,2.7c0.6-1.2,1.3-2.1,2.3-2.7c1-0.6,2-0.9,3.2-0.9
					c1.8,0,3.1,0.7,4.2,2c1,1.3,1.5,3.2,1.5,5.7v7.7c0,0.6-0.2,1-0.6,1.4c-0.4,0.4-0.9,0.6-1.4,0.6c-0.6,0-1-0.2-1.4-0.6
					c-0.4-0.4-0.6-0.9-0.6-1.4V48c0-1.3-0.3-2.3-0.8-3c-0.5-0.7-1.2-1.1-2.2-1.1c-1,0-1.9,0.4-2.5,1.3c-0.6,0.9-1,2-1,3.2v7
					c0,0.6-0.2,1-0.6,1.4c-0.4,0.4-0.9,0.6-1.4,0.6c-0.6,0-1-0.2-1.4-0.6c-0.4-0.4-0.6-0.9-0.6-1.4V48c0-1.3-0.3-2.3-0.8-3
					c-0.5-0.7-1.2-1.1-2.1-1.1c-1,0-1.9,0.4-2.5,1.3c-0.6,0.9-1,2-1,3.2v7c0,0.6-0.2,1-0.6,1.4C238.5,57.4,238.1,57.6,237.5,57.6z"
					/>
				<path class="st1" d="M269.5,57.6c-1.4,0-2.6-0.4-3.7-1.1c-1.1-0.7-2-1.7-2.6-3.1c-0.6-1.3-1-2.8-1-4.6c0-1.7,0.3-3.2,1-4.5
					c0.6-1.3,1.5-2.3,2.6-3.1c1.1-0.7,2.3-1.1,3.7-1.1c1.2,0,2.2,0.3,3.1,0.8c0.9,0.6,1.6,1.3,2,2.2l0.2-1.3c0-0.5,0.2-0.8,0.6-1.2
					c0.3-0.3,0.8-0.5,1.3-0.5c0.5,0,0.9,0.2,1.3,0.5c0.4,0.4,0.5,0.8,0.5,1.3v13.5c0,0.5-0.2,1-0.5,1.3s-0.8,0.5-1.3,0.5
					c-0.5,0-0.9-0.1-1.2-0.4c-0.3-0.3-0.6-0.7-0.6-1.2l-0.2-1.3c-0.4,0.9-1.1,1.7-2,2.2C271.7,57.3,270.7,57.6,269.5,57.6z
					 M270.4,53.9c1.2,0,2.2-0.5,3-1.4c0.8-0.9,1.1-2.1,1.1-3.6c0-1.5-0.4-2.7-1.1-3.6c-0.8-0.9-1.8-1.4-3-1.4
					c-1.2,0-2.2,0.5-2.9,1.4c-0.8,0.9-1.1,2.1-1.1,3.6c0,1.5,0.4,2.7,1.1,3.6C268.2,53.4,269.2,53.9,270.4,53.9z"/>
			</g>
			<g>
				<polygon class="st1" points="140.2,60.5 75.8,60.5 81,65.6 				"/>
				<path class="st1" d="M81.8,39.8v0.8c-1.2-0.8-2.3-1.2-3.7-1.2c-4.5,0-7.9,4.1-7.9,9.2c0,5,3.4,9.2,7.9,9.2
					c1.5,0,2.5-0.4,3.7-1.2v0.8h4V39.8H81.8z M78.1,53.5c-2.2,0-3.8-2.2-3.8-5c0-2.8,1.6-5,3.8-5c2.2,0,3.8,2.2,3.8,5
					C81.9,51.3,80.3,53.5,78.1,53.5z"/>
				<path class="st1" d="M113.5,39.8V50c0,1.9-1.3,3.5-3.2,3.5c-1.9,0-3.2-1.6-3.2-3.5V39.8h-4V50c0,4.2,2.9,7.6,7.1,7.6
					c1.9,0,3.4-1.1,3.4-1.1v0.6h4V39.8H113.5z"/>
				<path class="st1" d="M150.4,57.2V47c0-1.9,1.3-3.5,3.2-3.5c1.9,0,3.2,1.6,3.2,3.5v10.3h4V47c0-4.2-2.9-7.6-7.1-7.6
					c-1.9,0-3.4,1.1-3.4,1.1v-0.6h-4v17.5H150.4z"/>
				<path class="st1" d="M58.7,57.2v-6.8h2.9l5.1,6.8h5.2l-6.1-8.2c1.9-1.4,3.2-3.6,3.2-6.1c0-4.1-3.4-7.5-7.5-7.5h-6.8v21.8H58.7z
					 M58.7,39.6h2.7c1.9,0,3.4,1.5,3.4,3.4c0,1.9-1.5,3.4-3.4,3.4h-2.7V39.6z"/>
				<path class="st1" d="M128.2,53.1c-0.4,0.2-0.8,0.4-1.3,0.4c-0.6,0-1.9-0.5-1.9-2.1v-7.5h3.4v-4.1H125l0-4.4h-4l0,4.4h-2.1v4.1
					h2.1v7.5c0,3.9,2.9,6.2,5.9,6.2c1.1,0,2.6-0.4,3.9-1.1L128.2,53.1z"/>
				<polygon class="st1" points="95.6,48 102.4,39.8 96.8,39.8 92.1,45.9 92.1,34 88,34 88,57.2 92.1,57.2 92.1,50.1 97.9,57.2 
					103.5,57.2 				"/>
				<path class="st1" d="M137.3,39.3c-4.6,0-7.9,4-7.9,9.2c0,5.4,4.1,9.2,8.3,9.2c2.1,0,4.8-0.7,7-3.9l-3.5-2c-2.7,4-7.2,2-7.7-2
					l11.4,0C145.9,43.5,141.8,39.3,137.3,39.3z M140.8,46.3h-7.1C134.5,42.2,140,41.9,140.8,46.3z"/>
			</g>
		</g>
	</g>
</g>
</svg>
