<svg xmlns="http://www.w3.org/2000/svg" width="325" height="98" viewBox="0 0 325 98">
  <defs>
    <style>
      .a {
        fill: #fff;
      }

      .b {
        fill: none;
      }

      .c {
        fill: #0e0046;
      }

      .d {
        fill: #bf0000;
      }
    </style>
  </defs>
  <title>logo_edy_01</title>
  <rect class="a" width="325" height="98"/>
  <g>
    <path class="b" d="M81.179,45.593V38.976h2.865L89,45.593h5.49L88.3,37.5a7.354,7.354,0,0,0,1.781-10.377A7.621,7.621,0,0,0,83.913,24H77V45.593Zm0-17.414h2.653a3.311,3.311,0,0,1,.213,6.618q-.106,0-.213,0H81.179Z"/>
    <g>
      <g>
        <path class="c" d="M178.709,61.816l-4.066,11.878a3.331,3.331,0,0,1-5.761,1.159l1.623-1.712a1,1,0,0,0,.82.428.84.84,0,0,0,.785-.678l.071-.231L168.24,61.816h2.8l2.426,7.08,2.443-7.08Z"/>
        <path class="c" d="M163.523,72.035a3.456,3.456,0,0,1-2.764,1.3c-2.818,0-5.1-2.657-5.1-5.9s2.354-5.886,5.243-5.886a3.141,3.141,0,0,1,2.622,1.3V58.089H166.2V73.052H163.88Zm-5.19-4.6c0,1.89,1.159,3.406,2.6,3.406,1.5,0,2.586-1.409,2.586-3.389,0-2-1.088-3.406-2.6-3.406C159.474,64.045,158.333,65.543,158.333,67.434Z"/>
        <path class="c" d="M147.855,61.513v2.942H153.1v2.5h-5.243v3.6h5.9v2.5H145.18V59.016h8.578v2.5Z"/>
      </g>
      <g>
        <polygon class="d" points="151.661 56.882 146.977 52.952 179.82 52.952 151.661 56.882"/>
        <path class="d" d="M157,50.005V41.3h3.772l6.532,8.706h6.677L166.084,39.5a9.676,9.676,0,0,0-5.608-17.566h-8.815V50.005Zm0-22.741h3.481a4.351,4.351,0,1,1,0,8.7H157Z"/>
      </g>
    </g>
    <path class="b" d="M212.474,54.863V46.157h3.772l6.532,8.706h6.677l-7.893-10.505a9.676,9.676,0,0,0-5.608-17.566H207.14V54.863Zm0-22.741h3.48a4.351,4.351,0,1,1,0,8.7h-3.48Z"/>
  </g>
</svg>
