<svg xmlns="http://www.w3.org/2000/svg" width="325" height="98" viewBox="0 0 325 98">
  <defs>
    <style>
      .a {
        fill: #fff;
      }

      .b {
        fill: none;
      }

      .c {
        fill: #bf0000;
      }
    </style>
  </defs>
  <title>logo_petInsurance_02</title>
  <rect class="a" width="325" height="98"/>
  <g>
    <rect class="b" x="85.706" y="8.112" width="154.237" height="55.348"/>
    <g>
      <g>
        <polygon class="c" points="170.251 46.744 106.548 46.744 111.622 51.819 170.251 46.744"/>
        <path class="c" d="M112.449,26.22v.767a6.437,6.437,0,0,0-3.7-1.192c-4.463,0-7.853,4.07-7.853,9.068s3.39,9.067,7.853,9.067a6.429,6.429,0,0,0,3.7-1.191v.766h3.923V26.22Zm-3.7,13.547c-2.2,0-3.812-2.167-3.812-4.9s1.611-4.9,3.812-4.9,3.756,2.168,3.756,4.9S110.956,39.767,108.753,39.767Z"/>
        <path class="c" d="M143.875,26.22V36.374a3.227,3.227,0,1,1-6.428,0V26.22h-3.923V36.374c0,4.166,2.85,7.556,7.017,7.556a6.016,6.016,0,0,0,3.334-1.067v.642H147.8V26.22Z"/>
        <path class="c" d="M180.43,43.505V33.351a3.227,3.227,0,1,1,6.428,0V43.505h3.924V33.351c0-4.166-2.851-7.556-7.018-7.556a6.02,6.02,0,0,0-3.334,1.067V26.22h-3.923V43.505Z"/>
        <path class="c" d="M89.593,43.505v-6.7h2.9l5.024,6.7h5.136l-6.071-8.08A7.443,7.443,0,0,0,92.27,21.912H85.49V43.505Zm0-17.493H92.27a3.347,3.347,0,1,1,0,6.694H89.593Z"/>
        <path class="c" d="M158.372,39.415a2.334,2.334,0,0,1-1.312.425,1.933,1.933,0,0,1-1.849-2.121v-7.4h3.355v-4.1h-3.355V21.912h-3.923V26.22h-2.076v4.1h2.076v7.457a5.9,5.9,0,0,0,5.832,6.166,8.085,8.085,0,0,0,3.838-1.088Z"/>
        <polygon class="c" points="126.125 34.322 132.855 26.22 127.355 26.22 122.649 32.241 122.649 20.485 118.609 20.485 118.609 43.505 122.649 43.505 122.649 36.405 128.435 43.505 133.932 43.505 126.125 34.322"/>
        <path class="c" d="M167.434,25.781c-4.541,0-7.8,3.99-7.8,9.081,0,5.354,4.088,9.083,8.187,9.083a8.186,8.186,0,0,0,6.948-3.869l-3.465-2c-2.68,3.95-7.146,1.945-7.662-2.005l11.3,0C175.912,29.864,171.9,25.781,167.434,25.781Zm3.424,6.85h-7.065C164.618,28.583,170.094,28.351,170.858,32.631Z"/>
      </g>
      <g>
        <path class="c" d="M91.472,64.586a23.953,23.953,0,0,1-5.432,2.832l-.766-2.948a20.112,20.112,0,0,0,5.408-2.576Zm3.621,2.182H91.727V56.88h2.785a6.34,6.34,0,0,0,.535-1.486H98.18a12.247,12.247,0,0,1-.557,1.486h3.783v9.888H97.925v1.138h9.47v2.646h-7.172a27.715,27.715,0,0,0,7.5,3.528L106.1,76.866a28.317,28.317,0,0,1-8.17-5.269V77.26H95.093V71.852a27.873,27.873,0,0,1-8.264,5.06l-1.485-2.855a24.07,24.07,0,0,0,7.683-3.5H85.622V67.906h9.471ZM87.2,56.277a18.882,18.882,0,0,1,4.178,2.762l-1.648,2.344a16.687,16.687,0,0,0-4.039-2.855Zm7.149,2.854V60.78h4.41V59.131Zm0,3.575V64.47h4.41V62.706Zm8.635-1.068a21.906,21.906,0,0,1,4.944,3.227l-1.811,2.623a17.824,17.824,0,0,0-4.665-3.435Zm4.433-3.621a23.48,23.48,0,0,1-3.737,3.575l-1.857-2.112a19.883,19.883,0,0,0,3.575-3.366Z"/>
        <path class="c" d="M118.724,63.728c.046-.674.069-1,.069-1.858V58.9h-9.284V56.137h21.773V58.9h-9.517v2.948c0,.813-.024,1.091-.07,1.881h8.936V66.49h-8.217c1.208,3.853,5.038,6.36,9.216,7.822l-1.718,2.971c-4.689-2.042-8.054-5.176-9.424-8.658-2.089,4.805-6.29,7.266-9.587,8.682l-1.74-3c4.224-1.207,7.683-3.482,9.029-7.822h-7.985V63.728Z"/>
        <path class="c" d="M153.045,76.2c-4.51-5.386-7.678-9.945-9.97-13.211-.463-.682-.658-.9-1-.9-.292,0-.463.17-.975.877-3.339,4.631-3.729,5.167-5.679,7.7l-2.632-2.437c1.291-1.511,2.754-3.218,6.117-7.849.927-1.243,1.682-2.315,3.169-2.315,1.438,0,1.779.512,3.924,3.461,4.363,6.021,6.923,8.994,9.336,11.821Zm2.607-15.94a3.522,3.522,0,1,1-3.509-3.535A3.526,3.526,0,0,1,155.652,60.257Zm-5.362,0a1.853,1.853,0,1,0,1.853-1.853A1.868,1.868,0,0,0,150.29,60.257Z"/>
        <path class="c" d="M159.952,61.329a36.747,36.747,0,0,1,2.9,5.167l-2.486,1.341a34.108,34.108,0,0,0-2.828-5.119Zm14.356.171c-.926,7-3.8,12.918-12.016,15.623l-2.17-2.315c7.751-2.291,10.408-7.117,11.237-13.869ZM165,60.208a29.953,29.953,0,0,1,2.73,5.289l-2.51,1.268a29.73,29.73,0,0,0-2.682-5.265Z"/>
        <path class="c" d="M189.854,71.054a45.494,45.494,0,0,0-8.652-5.435V77.026h-3.364v-21.3H181.2v6.313a57.107,57.107,0,0,1,10.529,6.142Z"/>
        <path class="c" d="M195.807,66.7c-.534.65-.719.859-1.253,1.416l-1-3.877a18.581,18.581,0,0,0,3.6-8.867l2.878.325a28.67,28.67,0,0,1-1.439,5.71V77.33h-2.786Zm3.389,7.149a15.9,15.9,0,0,0,5.919-5.316h-5.153V65.909h6.5V63.983h-5.2V56.137h13.277v7.846h-5.315v1.926h6.5v2.623H210.64a17.2,17.2,0,0,0,5.478,5.455l-1.695,2.577a19.137,19.137,0,0,1-5.2-5.78V77.33h-2.762V70.854a17.242,17.242,0,0,1-5.594,5.524Zm4.875-15.2v2.878h7.683V58.644Z"/>
        <path class="c" d="M227.47,61.244a14.425,14.425,0,0,1-2.089,1.091l-.975-1.7a23.413,23.413,0,0,1-1.114,3.181,8.818,8.818,0,0,1,1.787,5.431c0,3.737-1.88,3.737-2.785,3.737h-1.045l-.441-2.785h.882c.511,0,.975-.116.975-1.439a6.707,6.707,0,0,0-1.834-4.643,29.8,29.8,0,0,0,1.7-5.431h-1.95V77.33H218V56.184h6.963v2.507c-.139.464-.162.626-.255.975a17.486,17.486,0,0,0,5.826-4.155h3.018a17.12,17.12,0,0,0,6.174,4.247l-1.3,2.531c-.58-.3-1.091-.581-2.089-1.184v1.532h-3.2v1.439h5.385v7.265h-4.41a8.228,8.228,0,0,0,5.571,3.482l-1.207,2.692a10.67,10.67,0,0,1-6.616-5.292,10.817,10.817,0,0,1-6.8,5.2l-1.323-2.647a7.978,7.978,0,0,0,5.733-3.435H225.59V64.076h4.967V62.637H227.47Zm3.087,5.037h-2.483V69.02h2.3a9.432,9.432,0,0,0,.185-2.043Zm4.527-6.012a19.817,19.817,0,0,1-3.064-2.809,14.6,14.6,0,0,1-3.111,2.809Zm-1.95,6.871a9.964,9.964,0,0,1-.186,1.88h3V66.281h-2.809Z"/>
      </g>
    </g>
  </g>
</svg>
