<svg xmlns="http://www.w3.org/2000/svg" width="325" height="98" viewBox="0 0 325 98">
  <defs>
    <style>
      .a {
        fill: #fff;
      }

      .b {
        fill: none;
      }

      .c {
        fill: #bf0000;
      }
    </style>
  </defs>
  <title>logo_mobile_01</title>
  <rect class="a" width="325" height="98"/>
  <g>
    <g>
      <rect class="b" x="68.191" y="34.761" width="188.618" height="24.832"/>
      <g>
        <g>
          <path class="c" d="M256.6,53.356a7.425,7.425,0,0,1-6.594,3.415c-4.457,0-7.585-3.571-7.585-8.654,0-5.057,2.971-8.575,7.272-8.575,3.988,0,7.116,3.492,7.116,7.949a7.467,7.467,0,0,1-.1,1.278H244.923a6.446,6.446,0,0,0,1.668,4.3,4.683,4.683,0,0,0,3.415,1.59,5.006,5.006,0,0,0,4.666-2.762Zm-2.476-6.7c-.208-3.023-1.981-5-4.405-5a4.576,4.576,0,0,0-3.936,2.293,6.164,6.164,0,0,0-.834,2.711Z"/>
          <path class="c" d="M237.836,56.354V34.485h2.346V56.354Z"/>
          <path class="c" d="M232.373,37.9V35.189h2.71V37.9Zm.182,18.454V39.932H234.9V56.354Z"/>
          <path class="c" d="M218.325,41.94a5.507,5.507,0,0,1,4.718-2.4c4.3,0,7.272,3.492,7.272,8.6,0,5.135-2.945,8.628-7.272,8.628a5.652,5.652,0,0,1-4.614-2.216l-.365,1.8h-2.085V34.485h2.346Zm-.078,6.2c0,3.728,2.007,6.438,4.77,6.438s4.8-2.71,4.8-6.412c0-3.727-2.033-6.438-4.822-6.438C220.254,41.731,218.247,44.442,218.247,48.143Z"/>
          <path class="c" d="M213.739,48.143c0,5.135-2.945,8.628-7.3,8.628s-7.3-3.493-7.3-8.628,2.971-8.6,7.324-8.6C210.768,39.542,213.739,43.06,213.739,48.143Zm-12.094,0c0,3.728,2.033,6.438,4.8,6.438s4.8-2.71,4.8-6.412c0-3.753-2.007-6.438-4.822-6.438C203.678,41.731,201.645,44.442,201.645,48.143Z"/>
          <path class="c" d="M196.9,35.84V56.354h-2.346V38.786l-6.126,9.983-6.125-9.983V56.354h-2.346V35.84h3.154l5.317,8.784,5.318-8.784Z"/>
        </g>
        <g>
          <polygon class="c" points="152.952 59.593 89.25 59.593 94.324 64.667 152.952 59.593"/>
          <path class="c" d="M163.132,56.354V46.2a3.227,3.227,0,1,1,6.428,0V56.354h3.923V46.2c0-4.166-2.85-7.555-7.017-7.555a6.02,6.02,0,0,0-3.334,1.067v-.643h-3.923V56.354Z"/>
          <path class="c" d="M150.135,38.63c-4.54,0-7.8,3.99-7.8,9.081,0,5.353,4.088,9.083,8.187,9.083a8.187,8.187,0,0,0,6.948-3.87l-3.465-2c-2.68,3.95-7.146,1.945-7.662-2l11.3,0C158.614,42.713,154.6,38.63,150.135,38.63Zm3.425,6.85h-7.066C147.32,41.431,152.8,41.2,153.56,45.48Z"/>
          <path class="c" d="M141.074,52.263a2.33,2.33,0,0,1-1.312.426,1.935,1.935,0,0,1-1.85-2.121v-7.4h3.355v-4.1h-3.355V34.76h-3.923v4.308h-2.075v4.1h2.075v7.457a5.9,5.9,0,0,0,5.833,6.165,8.078,8.078,0,0,0,3.837-1.088Z"/>
          <path class="c" d="M126.577,39.068V49.222a3.227,3.227,0,1,1-6.429,0V39.068h-3.923V49.222c0,4.167,2.85,7.556,7.017,7.556a6.022,6.022,0,0,0,3.335-1.067v.643H130.5V39.068Z"/>
          <polygon class="c" points="108.827 47.171 115.556 39.068 110.057 39.068 105.35 45.09 105.35 33.333 101.311 33.333 101.311 56.354 105.35 56.354 105.35 49.253 111.137 56.354 116.633 56.354 108.827 47.171"/>
          <path class="c" d="M95.151,39.068v.767a6.44,6.44,0,0,0-3.7-1.191c-4.462,0-7.853,4.069-7.853,9.067s3.391,9.067,7.853,9.067a6.425,6.425,0,0,0,3.7-1.191v.767h3.923V39.068Zm-3.7,13.548c-2.2,0-3.811-2.167-3.811-4.905s1.611-4.9,3.811-4.9,3.757,2.167,3.757,4.9S93.658,52.616,91.454,52.616Z"/>
          <path class="c" d="M72.294,56.354v-6.7h2.9l5.024,6.7h5.136l-6.071-8.081a7.443,7.443,0,0,0-4.313-13.512H68.191V56.354Zm0-17.494h2.678a3.347,3.347,0,1,1,0,6.694H72.294Z"/>
        </g>
      </g>
    </g>
    <path class="b" d="M158.02,59.8V53.1h2.9l5.024,6.7h5.137l-6.071-8.081A7.444,7.444,0,0,0,160.7,38.2h-6.781V59.8Zm0-17.494H160.7a3.347,3.347,0,1,1,0,6.694H158.02Z"/>
  </g>
</svg>
