<svg xmlns="http://www.w3.org/2000/svg" width="325" height="98" viewBox="0 0 325 98">
  <defs>
    <style>
      .a {
        fill: #fff;
      }

      .b {
        fill: #bf0000;
      }

      .c {
        fill: none;
      }
    </style>
  </defs>
  <title>logo_point_01</title>
  <rect class="a" width="325" height="98"/>
  <g>
    <g>
      <g>
        <path d="M183.447,64.046V74.431H181.04V64.046h-3.451V61.8h9.31v2.247Z"/>
        <path d="M168.93,61.8l4.5,7.737V61.8h2.407V74.431h-2.407l-4.5-8.106v8.106h-2.407V61.8Z"/>
        <path d="M163.744,74.431h-2.407V61.8h2.407Z"/>
        <path d="M159.266,68.122c0,3.932-2.2,6.565-5.49,6.565s-5.491-2.633-5.491-6.565c0-3.949,2.2-6.58,5.522-6.58C157.066,61.542,159.266,64.206,159.266,68.122Zm-8.413,0c0,2.664,1.125,4.318,2.923,4.318s2.921-1.669,2.921-4.334c0-2.744-1.076-4.318-2.938-4.318C151.93,63.788,150.853,65.377,150.853,68.122Z"/>
        <path d="M142.676,61.8a4.278,4.278,0,1,1,0,8.555H140.51v4.077H138.1V61.8Zm-.16,6.308a1.976,1.976,0,0,0,1.942-2.055,1.934,1.934,0,0,0-1.942-2.006H140.51v4.061Z"/>
      </g>
      <g>
        <polygon class="b" points="151.961 58.261 147.278 54.331 180.121 54.331 151.961 58.261"/>
        <path class="b" d="M157.295,51.384V42.678h3.773l6.531,8.706h6.677l-7.892-10.505a9.676,9.676,0,0,0-5.608-17.566h-8.815V51.384Zm0-22.741h3.481a4.351,4.351,0,1,1,0,8.7h-3.481Z"/>
      </g>
    </g>
    <path class="c" d="M155.674,47.431v-8.7h3.773l6.531,8.7h6.677l-7.892-10.5a9.676,9.676,0,0,0-5.608-17.566H150.34v28.07Zm0-22.741h3.481a4.351,4.351,0,1,1,0,8.7h-3.481Z"/>
  </g>
</svg>
