<svg xmlns="http://www.w3.org/2000/svg" width="325" height="98" viewBox="0 0 325 98">
  <defs>
    <style>
      .a {
        fill: #fff;
      }

      .b {
        fill: none;
      }

      .c {
        fill: #bf0000;
      }
    </style>
  </defs>
  <title>logo_lifeInsurance_01</title>
  <rect class="a" width="325" height="98"/>
  <g>
    <path class="b" d="M169.466,52.25V46.924h2.275l3.952,5.268h3.961l-4.617-6.117a5.656,5.656,0,0,0,2.364-4.451,5.837,5.837,0,0,0-5.887-5.822h-4.975v16.39h2.927Zm0-13.521h2.058A2.634,2.634,0,1,1,171.562,44h-2.1Z"/>
    <g>
      <rect class="b" x="59.937" y="34.761" width="205.125" height="24.832"/>
      <g>
        <g>
          <polygon class="c" points="144.698 59.593 80.996 59.593 86.07 64.667 144.698 59.593"/>
          <path class="c" d="M86.9,39.068v.767a6.439,6.439,0,0,0-3.7-1.191c-4.463,0-7.853,4.069-7.853,9.067s3.39,9.067,7.853,9.067a6.424,6.424,0,0,0,3.7-1.191v.767H90.82V39.068ZM83.2,52.616c-2.2,0-3.812-2.167-3.812-4.905s1.611-4.9,3.812-4.9,3.756,2.167,3.756,4.9S85.4,52.616,83.2,52.616Z"/>
          <path class="c" d="M118.323,39.068V49.222a3.227,3.227,0,1,1-6.428,0V39.068h-3.924V49.222c0,4.167,2.851,7.556,7.018,7.556a6.02,6.02,0,0,0,3.334-1.067v.643h3.923V39.068Z"/>
          <path class="c" d="M154.878,56.354V46.2a3.227,3.227,0,1,1,6.428,0V56.354h3.923V46.2c0-4.166-2.85-7.555-7.017-7.555a6.016,6.016,0,0,0-3.334,1.067v-.643h-3.923V56.354Z"/>
          <path class="c" d="M64.04,56.354v-6.7h2.9l5.025,6.7H77.1l-6.071-8.081a7.443,7.443,0,0,0-4.314-13.512H59.937V56.354Zm0-17.494h2.678a3.347,3.347,0,1,1,0,6.694H64.04Z"/>
          <path class="c" d="M132.82,52.263a2.33,2.33,0,0,1-1.312.426,1.935,1.935,0,0,1-1.85-2.121v-7.4h3.355v-4.1h-3.355V34.76h-3.923v4.308H123.66v4.1h2.075v7.457a5.9,5.9,0,0,0,5.833,6.165,8.078,8.078,0,0,0,3.837-1.088Z"/>
          <polygon class="c" points="100.573 47.171 107.303 39.068 101.803 39.068 97.096 45.09 97.096 33.333 93.057 33.333 93.057 56.354 97.096 56.354 97.096 49.253 102.883 56.354 108.379 56.354 100.573 47.171"/>
          <path class="c" d="M141.881,38.63c-4.54,0-7.8,3.99-7.8,9.081,0,5.353,4.088,9.083,8.187,9.083a8.187,8.187,0,0,0,6.948-3.87l-3.465-2c-2.68,3.95-7.146,1.945-7.662-2.005l11.3,0C150.359,42.713,146.345,38.63,141.881,38.63Zm3.425,6.85H138.24C139.066,41.431,144.542,41.2,145.306,45.48Z"/>
        </g>
        <g>
          <path class="c" d="M177.688,44.228a23.994,23.994,0,0,1-5.431,2.832l-.766-2.948a20.1,20.1,0,0,0,5.408-2.577Zm3.622,2.182h-3.366V36.521h2.785a6.261,6.261,0,0,0,.534-1.486H184.4a12.352,12.352,0,0,1-.557,1.486h3.783V46.41h-3.481v1.137h9.47v2.647h-7.173a27.754,27.754,0,0,0,7.5,3.528l-1.625,2.785a28.3,28.3,0,0,1-8.17-5.269V56.9H181.31V51.493a27.9,27.9,0,0,1-8.264,5.061L171.56,53.7a24.088,24.088,0,0,0,7.683-3.5h-7.4V47.547h9.471Zm-7.892-10.492A18.853,18.853,0,0,1,177.6,38.68l-1.648,2.344a16.678,16.678,0,0,0-4.038-2.854Zm7.149,2.855v1.648h4.41V38.773Zm0,3.574v1.765h4.41V42.347ZM189.2,41.28a21.871,21.871,0,0,1,4.944,3.227l-1.811,2.623a17.781,17.781,0,0,0-4.665-3.436Zm4.433-3.621a23.569,23.569,0,0,1-3.737,3.575l-1.857-2.113a19.922,19.922,0,0,0,3.575-3.366Z"/>
          <path class="c" d="M204.941,43.369c.047-.674.07-1,.07-1.857V38.541h-9.286V35.779H217.5v2.762h-9.517v2.948c0,.812-.023,1.09-.07,1.88h8.937v2.762h-8.217c1.207,3.853,5.037,6.36,9.215,7.823l-1.718,2.971c-4.689-2.043-8.054-5.177-9.424-8.658-2.089,4.805-6.29,7.265-9.587,8.681l-1.741-2.994c4.225-1.208,7.684-3.482,9.03-7.823h-7.985V43.369Z"/>
          <path class="c" d="M224.186,42.231a14.363,14.363,0,0,1-2.647,3.714l-2.2-2.135c.789-.836,2.808-3,4.178-8.426l2.925.464a29.625,29.625,0,0,1-1.068,3.6h3.784V35.082h2.971v4.364h8.263v2.785h-8.263V46.2h7.729v2.763h-7.729v4.411h9.285v2.832H219.682V53.374h9.471V48.963h-7.869V46.2h7.869V42.231Z"/>
          <path class="c" d="M259.12,43.322H248.211V41.675a33.013,33.013,0,0,1-4.527,2.158l-1.416-2.855c6.848-2.251,8.821-4.619,9.889-5.873h3.134a21.161,21.161,0,0,0,9.772,5.873l-1.509,2.878a24.651,24.651,0,0,1-4.434-2.181Zm-6.708,11.513h-8.24V44.646h8.24ZM249.766,47.2h-2.9v5.036h2.9Zm7.916-6.43a21.986,21.986,0,0,1-3.993-3.319,22.442,22.442,0,0,1-4.039,3.319Zm-.72,16.225h-2.716V44.646h8.774V52.7c0,.674,0,2.367-1.949,2.367h-2.786l-.534-2.878h1.811c.394,0,.765-.093.765-.58V47.222h-3.365Z"/>
        </g>
      </g>
    </g>
  </g>
</svg>
