<svg xmlns="http://www.w3.org/2000/svg" width="325" height="98" viewBox="0 0 325 98">
  <defs>
    <style>
      .a {
        fill: #fff;
      }

      .b {
        fill: none;
      }

      .c {
        fill: #bf0000;
      }
    </style>
  </defs>
  <title>logo_stay_01</title>
  <rect class="a" width="325" height="98"/>
  <g>
    <rect class="b" x="79.584" y="34.761" width="165.831" height="24.832"/>
    <g>
      <g>
        <path class="c" d="M202.8,38.733a1.3,1.3,0,0,1-1.642.183,5.7,5.7,0,0,0-3.571-1.3c-2.346,0-3.728,1.2-3.728,3.232,0,1.746.782,2.658,3.05,3.492,2.945,1.095,3.936,1.59,5,2.425a5.358,5.358,0,0,1,2.267,4.483c0,3.388-2.658,5.552-6.751,5.552a8.349,8.349,0,0,1-6.177-2.659,1.147,1.147,0,0,1,0-1.616,1.187,1.187,0,0,1,1.668.026,6.224,6.224,0,0,0,4.535,2.059c2.424,0,4.223-1.407,4.223-3.336,0-1.486-.756-2.554-2.554-3.571a31.492,31.492,0,0,0-3.493-1.538c-3.024-1.225-4.275-2.789-4.275-5.369,0-3.232,2.476-5.37,6.23-5.37a7.778,7.778,0,0,1,5.082,1.7A1.085,1.085,0,0,1,202.8,38.733Z"/>
        <path class="c" d="M212.925,37.925V55.676a1.157,1.157,0,0,1-1.173,1.121,1.141,1.141,0,0,1-1.173-1.121V37.925h-5.03a1.057,1.057,0,0,1-1.095-1.042,1.074,1.074,0,0,1,1.095-1.043h12.407a1.075,1.075,0,0,1,1.095,1.043,1.058,1.058,0,0,1-1.095,1.042Z"/>
        <path class="c" d="M232.46,55.233a1.167,1.167,0,0,1-.808,1.486,1.268,1.268,0,0,1-1.564-.783l-1.329-4.457H221.1l-1.33,4.457a1.279,1.279,0,0,1-1.564.783,1.168,1.168,0,0,1-.808-1.486l5.969-18.689a1.63,1.63,0,0,1,3.1-.052Zm-7.533-16.525-3.18,10.582h6.334Z"/>
        <path class="c" d="M243.261,36.049a1.136,1.136,0,0,1,1.511-.5,1.053,1.053,0,0,1,.521,1.46l-5.786,10.948v7.715a1.174,1.174,0,0,1-2.346,0V47.961l-5.787-10.948a1.055,1.055,0,0,1,.521-1.46,1.137,1.137,0,0,1,1.512.5l4.927,9.54Z"/>
      </g>
      <g>
        <polygon class="c" points="164.345 59.593 100.643 59.593 105.717 64.667 164.345 59.593"/>
        <path class="c" d="M106.544,39.068v.767a6.439,6.439,0,0,0-3.7-1.191c-4.463,0-7.853,4.069-7.853,9.067s3.39,9.067,7.853,9.067a6.424,6.424,0,0,0,3.7-1.191v.767h3.923V39.068Zm-3.7,13.548c-2.2,0-3.812-2.167-3.812-4.905s1.611-4.9,3.812-4.9,3.756,2.167,3.756,4.9S105.051,52.616,102.848,52.616Z"/>
        <path class="c" d="M137.97,39.068V49.222a3.227,3.227,0,1,1-6.429,0V39.068h-3.923V49.222c0,4.167,2.851,7.556,7.018,7.556a6.02,6.02,0,0,0,3.334-1.067v.643h3.923V39.068Z"/>
        <path class="c" d="M174.525,56.354V46.2a3.227,3.227,0,1,1,6.428,0V56.354h3.923V46.2c0-4.166-2.85-7.555-7.017-7.555a6.016,6.016,0,0,0-3.334,1.067v-.643H170.6V56.354Z"/>
        <path class="c" d="M83.687,56.354v-6.7h2.9l5.025,6.7H96.75l-6.071-8.081a7.443,7.443,0,0,0-4.314-13.512H79.584V56.354Zm0-17.494h2.678a3.347,3.347,0,1,1,0,6.694H83.687Z"/>
        <path class="c" d="M152.467,52.263a2.33,2.33,0,0,1-1.312.426,1.935,1.935,0,0,1-1.85-2.121v-7.4h3.355v-4.1h-3.355V34.76h-3.923v4.308h-2.075v4.1h2.075v7.457a5.9,5.9,0,0,0,5.833,6.165,8.078,8.078,0,0,0,3.837-1.088Z"/>
        <polygon class="c" points="120.22 47.171 126.949 39.068 121.45 39.068 116.743 45.09 116.743 33.333 112.704 33.333 112.704 56.354 116.743 56.354 116.743 49.253 122.53 56.354 128.026 56.354 120.22 47.171"/>
        <path class="c" d="M161.528,38.63c-4.54,0-7.8,3.99-7.8,9.081,0,5.353,4.088,9.083,8.187,9.083a8.187,8.187,0,0,0,6.948-3.87l-3.465-2c-2.68,3.95-7.146,1.945-7.662-2.005l11.3,0C170.006,42.713,165.992,38.63,161.528,38.63Zm3.425,6.85h-7.066C158.713,41.431,164.189,41.2,164.953,45.48Z"/>
      </g>
    </g>
  </g>
</svg>
