<svg xmlns="http://www.w3.org/2000/svg" viewBox="0 0 325 98"><defs><style>.cls-1{fill:none;}.cls-2{fill:#871e8c;}</style></defs><g id="レイヤー_1" data-name="レイヤー 1"><rect class="cls-1" x="86.27" y="10" width="168.06" height="77" rx="2.15"/><rect class="cls-1" x="97.04" y="20.77" width="146.53" height="55.46"/><polygon class="cls-2" points="181.57 45.53 118.04 45.53 123.1 50.59 181.57 45.53"/><path class="cls-2" d="M123.92,25.06v.77a6.38,6.38,0,0,0-3.68-1.19c-4.45,0-7.83,4.06-7.83,9s3.38,9,7.83,9a6.38,6.38,0,0,0,3.68-1.19v.76h3.92V25.06Zm-3.68,13.51c-2.2,0-3.8-2.16-3.8-4.89s1.6-4.89,3.8-4.89S124,31,124,33.68,122.44,38.57,120.24,38.57Z"/><path class="cls-2" d="M155.27,25.06V35.19a3.22,3.22,0,1,1-6.41,0V25.06h-3.92V35.19c0,4.16,2.85,7.54,7,7.54a6,6,0,0,0,3.33-1.07v.64h3.91V25.06Z"/><path class="cls-2" d="M191.72,42.3V32.18a3.22,3.22,0,1,1,6.41,0V42.3h3.92V32.18c0-4.16-2.84-7.54-7-7.54a6,6,0,0,0-3.33,1.06v-.64h-3.91V42.3Z"/><path class="cls-2" d="M101.13,42.3V35.62H104l5,6.68h5.13l-6.06-8.06a7.42,7.42,0,0,0-4.3-13.47H97V42.3Zm0-17.44h2.67a3.34,3.34,0,1,1,0,6.67h-2.67Z"/><path class="cls-2" d="M169.72,38.22a2.3,2.3,0,0,1-1.3.43,1.93,1.93,0,0,1-1.85-2.12V29.16h3.35v-4.1h-3.35V20.77h-3.91v4.29h-2.07v4.1h2.07v7.43a5.89,5.89,0,0,0,5.82,6.15,8,8,0,0,0,3.82-1.08Z"/><polygon class="cls-2" points="137.56 33.14 144.28 25.06 138.79 25.06 134.1 31.07 134.1 19.34 130.07 19.34 130.07 42.3 134.1 42.3 134.1 35.22 139.87 42.3 145.35 42.3 137.56 33.14"/><path class="cls-2" d="M178.76,24.63c-4.53,0-7.77,4-7.77,9.05,0,5.34,4.07,9.06,8.16,9.06a8.17,8.17,0,0,0,6.93-3.86l-3.46-2c-2.67,3.94-7.12,1.94-7.64-2h11.27C187.22,28.7,183.21,24.63,178.76,24.63Zm3.42,6.83h-7.05C176,27.42,181.42,27.19,182.18,31.46Z"/><path class="cls-2" d="M96.61,76.23l7.6-20.46h3.07l7.6,20.46h-2.79l-1.82-5.1h-9.21l-1.79,5.1Zm5.32-7.53h7.47l-3.75-10.49Z"/><path class="cls-2" d="M121.94,76.55a6.43,6.43,0,0,1-3.66-1.09,7.47,7.47,0,0,1-2.58-3,10.77,10.77,0,0,1,0-8.8,7.51,7.51,0,0,1,2.58-3,6.43,6.43,0,0,1,3.66-1.09,6,6,0,0,1,3.3.91,5.83,5.83,0,0,1,2.18,2.46V53.47H130V76.23h-2.21l-.29-3.08a5.81,5.81,0,0,1-2.22,2.47A6.1,6.1,0,0,1,121.94,76.55Zm.48-2.5A4.59,4.59,0,0,0,125,73.3a5.15,5.15,0,0,0,1.8-2.12,7.78,7.78,0,0,0,0-6.27,5.22,5.22,0,0,0-1.8-2.1,4.81,4.81,0,0,0-5.16,0,5.22,5.22,0,0,0-1.8,2.1,7.89,7.89,0,0,0,0,6.27,5.15,5.15,0,0,0,1.8,2.12A4.59,4.59,0,0,0,122.42,74.05Z"/><path class="cls-2" d="M137.94,76.23l-6.28-16.35h2.88l5,13.53,5-13.53h2.7l-6.29,16.35Z"/><path class="cls-2" d="M154.65,76.62a7.58,7.58,0,0,1-4.08-1.08,7.12,7.12,0,0,1-2.67-3,10.94,10.94,0,0,1,0-8.92,7.61,7.61,0,0,1,2.59-3,6.68,6.68,0,0,1,3.8-1.11,6.58,6.58,0,0,1,3.79,1.11,7.54,7.54,0,0,1,2.56,3,10.13,10.13,0,0,1,.93,4.46v.64h-12a6.07,6.07,0,0,0,1.57,4.09,5,5,0,0,0,3.69,1.39,5.73,5.73,0,0,0,4.87-2.92l1.67,1.86a7.76,7.76,0,0,1-2.9,2.55A8.29,8.29,0,0,1,154.65,76.62Zm-.36-14.72a4.2,4.2,0,0,0-3.11,1.23,6.07,6.07,0,0,0-1.54,3.45h9.27a6.06,6.06,0,0,0-1.52-3.45A4.14,4.14,0,0,0,154.29,61.9Z"/><path class="cls-2" d="M163.59,76.23V59.88h2.21l.29,3.11a6,6,0,0,1,1.83-2.5,4.17,4.17,0,0,1,2.63-.93,4.37,4.37,0,0,1,2.88,1.06l-.89,2.56a3.49,3.49,0,0,0-2.28-.93,3.16,3.16,0,0,0-2.08.76,5.12,5.12,0,0,0-1.48,2,7.41,7.41,0,0,0-.54,2.89v8.3Z"/><path class="cls-2" d="M182.44,76.55c-3.16,0-4.74-1.83-4.74-5.51V62.25h-2.86V59.88h2.86V55.65h2.56v4.23H186v2.37h-5.71v8.66c0,2.1.81,3.14,2.41,3.14a3.59,3.59,0,0,0,1.39-.27,6.8,6.8,0,0,0,1.46-.88l.74,2.5A6.27,6.27,0,0,1,182.44,76.55Z"/><path class="cls-2" d="M189.85,57.41a1.77,1.77,0,0,1-1.33-.56,1.86,1.86,0,0,1,0-2.6,1.86,1.86,0,0,1,2.66,0,1.86,1.86,0,0,1,0,2.6A1.75,1.75,0,0,1,189.85,57.41Zm-1.28,18.82V59.88h2.56V76.23Z"/><path class="cls-2" d="M199.5,76.62a8.08,8.08,0,0,1-3.72-.87,7.83,7.83,0,0,1-2.85-2.5l1.67-1.89a5.56,5.56,0,0,0,4.87,2.85,4.33,4.33,0,0,0,2.44-.59,1.92,1.92,0,0,0,.86-1.68c0-1.29-.94-2.16-2.82-2.63l-1.89-.48A6.35,6.35,0,0,1,195,67.11a4.05,4.05,0,0,1-1.12-2.87,4.28,4.28,0,0,1,.72-2.45,4.93,4.93,0,0,1,2-1.69,6.48,6.48,0,0,1,2.82-.61,7.35,7.35,0,0,1,3.23.72,5.69,5.69,0,0,1,2.32,2l-1.6,1.93a5.85,5.85,0,0,0-1.78-1.75,4.18,4.18,0,0,0-2.17-.53,3.45,3.45,0,0,0-2.11.61,1.88,1.88,0,0,0-.84,1.6,1.81,1.81,0,0,0,.64,1.44,5.79,5.79,0,0,0,2.19,1L201,67a6.67,6.67,0,0,1,3.22,1.81,4.21,4.21,0,0,1,1.14,3,4.34,4.34,0,0,1-1.6,3.49A6.41,6.41,0,0,1,199.5,76.62Z"/><path class="cls-2" d="M208.71,57.41a1.75,1.75,0,0,1-1.33-.56,1.86,1.86,0,0,1,0-2.6,1.75,1.75,0,0,1,1.33-.56,1.78,1.78,0,0,1,1.33.56,1.86,1.86,0,0,1,0,2.6A1.78,1.78,0,0,1,208.71,57.41Zm-1.29,18.82V59.88H210V76.23Z"/><path class="cls-2" d="M212.81,76.23V59.88H215l.29,3a6.22,6.22,0,0,1,2.2-2.47,5.69,5.69,0,0,1,3.16-.9,5.26,5.26,0,0,1,4.23,1.86,8.12,8.12,0,0,1,1.57,5.39v9.42h-2.56v-9.3a5.54,5.54,0,0,0-1-3.62,3.5,3.5,0,0,0-2.81-1.25,4.13,4.13,0,0,0-2.44.75,5.19,5.19,0,0,0-1.65,2,6.19,6.19,0,0,0-.59,2.72v8.69Z"/><path class="cls-2" d="M235.87,82.71A11.11,11.11,0,0,1,232,82a8.58,8.58,0,0,1-3.11-1.93l1-2.34a8.49,8.49,0,0,0,2.74,1.81,8.29,8.29,0,0,0,3.19.63Q241,80.21,241,74V72.8a6.58,6.58,0,0,1-2.2,2.41,5.62,5.62,0,0,1-3.22,1A6.38,6.38,0,0,1,232,75.11a7.19,7.19,0,0,1-2.53-2.93,9.32,9.32,0,0,1-.94-4.25,9.74,9.74,0,0,1,.92-4.3,7.45,7.45,0,0,1,2.52-3,6.28,6.28,0,0,1,3.65-1.09,6,6,0,0,1,3.26.93,6.29,6.29,0,0,1,2.22,2.37l.26-3h2.21V74q0,4.29-2,6.51A7.29,7.29,0,0,1,235.87,82.71Zm.19-9a4.59,4.59,0,0,0,2.6-.75,5.25,5.25,0,0,0,1.76-2.07,7.49,7.49,0,0,0,0-6.06,5.08,5.08,0,0,0-1.76-2.06,4.65,4.65,0,0,0-2.6-.73,4.51,4.51,0,0,0-2.55.73,5.14,5.14,0,0,0-1.75,2.06,7.56,7.56,0,0,0,0,6.09,5,5,0,0,0,1.75,2A4.52,4.52,0,0,0,236.06,73.7Z"/></g></svg>