<svg xmlns="http://www.w3.org/2000/svg" width="325" height="98" viewBox="0 0 325 98">
  <defs>
    <style>
      .a {
        fill: #fff;
      }

      .b {
        fill: none;
      }

      .c {
        fill: #bf0000;
      }
    </style>
  </defs>
  <title>logo_rebates_01</title>
  <rect class="a" width="325" height="98"/>
  <g>
    <rect class="b" x="57.25" y="34.761" width="210.499" height="24.832"/>
    <g>
      <g>
        <path class="c" d="M169.02,56.354V35.84h5.656a6.489,6.489,0,0,1,6.829,6.543,5.735,5.735,0,0,1-3.753,5.734l5.03,8.237h-2.971l-4.17-7.4h-4.275v7.4Zm2.346-9.592h3.31a4.366,4.366,0,0,0,0-8.732h-3.31Z"/>
        <path class="c" d="M196.572,53.356a7.425,7.425,0,0,1-6.595,3.415c-4.457,0-7.585-3.571-7.585-8.654,0-5.057,2.972-8.575,7.273-8.575,3.988,0,7.116,3.492,7.116,7.949a7.467,7.467,0,0,1-.1,1.278H184.9a6.441,6.441,0,0,0,1.669,4.3,4.676,4.676,0,0,0,3.413,1.59,5,5,0,0,0,4.666-2.763Zm-2.476-6.7c-.209-3.023-1.981-5-4.405-5a4.576,4.576,0,0,0-3.936,2.294,6.168,6.168,0,0,0-.834,2.71Z"/>
        <path class="c" d="M200.88,41.94a5.507,5.507,0,0,1,4.718-2.4c4.3,0,7.273,3.492,7.273,8.6,0,5.135-2.946,8.628-7.273,8.628a5.653,5.653,0,0,1-4.614-2.216l-.364,1.8h-2.085V34.485h2.345Zm-.078,6.2c0,3.727,2.008,6.438,4.77,6.438s4.8-2.711,4.8-6.412c0-3.727-2.033-6.438-4.822-6.438C202.81,41.731,200.8,44.442,200.8,48.143Z"/>
        <path class="c" d="M226.121,54.555a5.7,5.7,0,0,1-4.64,2.216c-4.3,0-7.246-3.519-7.246-8.628s2.971-8.6,7.3-8.6a5.832,5.832,0,0,1,4.614,1.928l.338-1.537h2.086V56.354h-2.086Zm-9.384-6.412c0,3.727,2.033,6.438,4.8,6.438s4.77-2.685,4.77-6.412c0-3.753-2.007-6.438-4.8-6.438C218.77,41.731,216.737,44.468,216.737,48.143Z"/>
        <path class="c" d="M235.485,36.336v3.6H239.6v2.189h-4.119v10.9c0,1.017.574,1.564,1.669,1.564a2.032,2.032,0,0,0,1.981-1.251l1.772,1.225a4.262,4.262,0,0,1-3.988,2.216,3.3,3.3,0,0,1-3.492-2.19,5.521,5.521,0,0,1-.287-2.085V42.122h-2.815V39.933h2.815v-3.6Z"/>
        <path class="c" d="M255.282,53.356a7.426,7.426,0,0,1-6.595,3.415c-4.457,0-7.585-3.571-7.585-8.654,0-5.057,2.972-8.575,7.273-8.575,3.988,0,7.115,3.492,7.115,7.949a7.467,7.467,0,0,1-.1,1.278H243.6a6.446,6.446,0,0,0,1.669,4.3,4.68,4.68,0,0,0,3.414,1.59,5,5,0,0,0,4.666-2.763Zm-2.477-6.7c-.208-3.023-1.98-5-4.4-5a4.573,4.573,0,0,0-3.936,2.294,6.169,6.169,0,0,0-.835,2.71Z"/>
        <path class="c" d="M265.378,43.347a4.376,4.376,0,0,0-3.311-1.616c-1.616,0-2.71.912-2.71,2.294a2.055,2.055,0,0,0,.912,1.876c.312.235.312.235,3.05,1.408,3.18,1.407,4.431,2.815,4.431,4.978,0,2.737-2.19,4.484-5.657,4.484a6.922,6.922,0,0,1-5.812-2.685l1.642-1.486a5.213,5.213,0,0,0,4.2,1.981c1.929,0,3.128-.86,3.128-2.267a2.981,2.981,0,0,0-1.355-2.268,15.83,15.83,0,0,0-3.415-1.668c-2.554-1.069-3.622-2.372-3.622-4.457,0-2.633,2.084-4.379,5.212-4.379a6.533,6.533,0,0,1,5,2.059Z"/>
      </g>
      <g>
        <polygon class="c" points="142.011 59.593 78.309 59.593 83.383 64.667 142.011 59.593"/>
        <path class="c" d="M84.21,39.068v.767a6.439,6.439,0,0,0-3.7-1.191c-4.463,0-7.853,4.069-7.853,9.067s3.39,9.067,7.853,9.067a6.424,6.424,0,0,0,3.7-1.191v.767h3.923V39.068Zm-3.7,13.548c-2.2,0-3.812-2.167-3.812-4.905s1.611-4.9,3.812-4.9,3.756,2.167,3.756,4.9S82.717,52.616,80.514,52.616Z"/>
        <path class="c" d="M115.636,39.068V49.222a3.227,3.227,0,1,1-6.429,0V39.068h-3.923V49.222c0,4.167,2.851,7.556,7.018,7.556a6.02,6.02,0,0,0,3.334-1.067v.643h3.923V39.068Z"/>
        <path class="c" d="M152.191,56.354V46.2a3.227,3.227,0,1,1,6.428,0V56.354h3.923V46.2c0-4.166-2.85-7.555-7.017-7.555a6.016,6.016,0,0,0-3.334,1.067v-.643h-3.923V56.354Z"/>
        <path class="c" d="M61.353,56.354v-6.7h2.9l5.025,6.7h5.136l-6.071-8.081a7.443,7.443,0,0,0-4.314-13.512H57.25V56.354Zm0-17.494h2.678a3.347,3.347,0,1,1,0,6.694H61.353Z"/>
        <path class="c" d="M130.133,52.263a2.327,2.327,0,0,1-1.312.426,1.935,1.935,0,0,1-1.85-2.121v-7.4h3.355v-4.1h-3.355V34.76h-3.923v4.308h-2.075v4.1h2.075v7.457a5.9,5.9,0,0,0,5.833,6.165,8.078,8.078,0,0,0,3.837-1.088Z"/>
        <polygon class="c" points="97.886 47.171 104.615 39.068 99.116 39.068 94.409 45.09 94.409 33.333 90.37 33.333 90.37 56.354 94.409 56.354 94.409 49.253 100.196 56.354 105.692 56.354 97.886 47.171"/>
        <path class="c" d="M139.194,38.63c-4.54,0-7.8,3.99-7.8,9.081,0,5.353,4.088,9.083,8.187,9.083a8.187,8.187,0,0,0,6.948-3.87l-3.465-2c-2.68,3.95-7.146,1.945-7.662-2.005l11.3,0C147.673,42.713,143.658,38.63,139.194,38.63Zm3.425,6.85h-7.066C136.379,41.431,141.855,41.2,142.619,45.48Z"/>
      </g>
    </g>
  </g>
</svg>
