<svg xmlns="http://www.w3.org/2000/svg" viewBox="0 0 325 98"><defs><style>.cls-1{fill:none;}.cls-2{fill:#bf0000;}</style></defs><title>logo_24</title><g id="レイヤー_1" data-name="レイヤー 1"><path class="cls-1" d="M82.16,74A2.17,2.17,0,0,1,80,71.83V29.53a2.17,2.17,0,0,1,2.16-2.17H240.84A2.17,2.17,0,0,1,243,29.53v42.3A2.17,2.17,0,0,1,240.84,74Z"/><rect class="cls-1" x="90.78" y="38.2" width="141.44" height="24.95"/><polygon class="cls-2" points="175.4 63.15 111.8 63.15 116.87 68.25 175.4 63.15"/><path class="cls-2" d="M117.69,42.53v.77A6.44,6.44,0,0,0,114,42.11c-4.45,0-7.84,4.08-7.84,9.11s3.39,9.11,7.84,9.11a6.38,6.38,0,0,0,3.69-1.2v.77h3.92V42.53ZM114,56.14c-2.19,0-3.8-2.17-3.8-4.92s1.61-4.93,3.8-4.93,3.75,2.18,3.75,4.93S116.2,56.14,114,56.14Z"/><path class="cls-2" d="M149.07,42.53v10.2a3.22,3.22,0,1,1-6.42,0V42.53h-3.92v10.2c0,4.19,2.85,7.6,7,7.6a6,6,0,0,0,3.33-1.08v.65H153V42.53Z"/><path class="cls-2" d="M185.56,59.9V49.7a3.22,3.22,0,1,1,6.42,0V59.9h3.91V49.7c0-4.19-2.84-7.59-7-7.59a6,6,0,0,0-3.33,1.07v-.65h-3.92V59.9Z"/><path class="cls-2" d="M94.88,59.9V53.17h2.89l5,6.73h5.13l-6.07-8.12a7.49,7.49,0,0,0-4.3-13.58H90.78V59.9Zm0-17.58h2.67a3.37,3.37,0,0,1,0,6.73H94.88Z"/><path class="cls-2" d="M163.54,55.79a2.33,2.33,0,0,1-1.31.43,1.94,1.94,0,0,1-1.85-2.13V46.65h3.35V42.53h-3.35V38.2h-3.91v4.33h-2.08v4.12h2.08v7.5a5.91,5.91,0,0,0,5.82,6.19,8.06,8.06,0,0,0,3.83-1.09Z"/><polygon class="cls-2" points="131.35 50.67 138.06 42.53 132.57 42.53 127.88 48.58 127.88 36.77 123.84 36.77 123.84 59.9 127.88 59.9 127.88 52.77 133.65 59.9 139.14 59.9 131.35 50.67"/><path class="cls-2" d="M172.59,42.09c-4.54,0-7.79,4-7.79,9.13,0,5.37,4.08,9.12,8.17,9.12a8.15,8.15,0,0,0,6.94-3.89l-3.46-2c-2.67,4-7.13,2-7.65-2h11.28C181.05,46.19,177,42.09,172.59,42.09ZM176,49H169C169.77,44.91,175.24,44.67,176,49Z"/><path class="cls-2" d="M202.38,56.42A16.3,16.3,0,0,1,207,50.08l1.36-1.18c2.31-2,3-2.91,3-4.06a2.42,2.42,0,0,0-2.7-2.3A3.76,3.76,0,0,0,205.06,45l-2.91-2.17a7,7,0,0,1,6.45-4c4.06,0,6.89,2.41,6.89,5.81,0,2-1,3.51-4.39,6.52l-1.2,1.08a13.29,13.29,0,0,0-3.17,3.95h8.92V59.9H202.38Z"/><path class="cls-2" d="M229.78,55.66V59.9h-3.91V55.66h-8.66V52.07l7.1-12.78h5.47V52.07h2.44v3.59Zm-8.31-3.59h4.4V43.71Z"/></g></svg>