<?xml version="1.0" encoding="UTF-8"?>
<svg xmlns="http://www.w3.org/2000/svg" version="1.1" viewBox="0 0 325 98">
  <defs>
    <style>
      .cls-1 {
        fill: #fff;
      }

      .cls-2 {
        fill: none;
      }

      .cls-3 {
        fill: #8529cd;
      }
    </style>
  </defs>
  <!-- Generator: Adobe Illustrator 28.7.1, SVG Export Plug-In . SVG Version: 1.2.0 Build 142)  -->
  <g>
    <g id="_レイヤー_1" data-name="レイヤー_1">
      <rect class="cls-1" width="325" height="98"/>
      <g>
        <g id="RGB-logo-purple-clearspace">
          <path class="cls-3" d="M130.9,59.6h63.7l-58.6,5.1-5.1-5.1ZM133.1,56.8c-4.5,0-7.9-4.1-7.9-9.1s3.4-9.1,7.9-9.1,2.5.4,3.7,1.2v-.8h3.9v17.3h-3.9v-.8c-1.1.8-2.4,1.2-3.7,1.2ZM133.1,52.6c2.2,0,3.8-2.2,3.8-4.9s-1.6-4.9-3.8-4.9-3.8,2.2-3.8,4.9c0,2.7,1.6,4.9,3.8,4.9h0ZM164.9,56.8c1.2,0,2.4-.4,3.3-1.1v.6h3.9v-17.3h-3.9v10.2c0,1.9-1.3,3.5-3.2,3.5s-3.2-1.6-3.2-3.5v-10.2h-3.9v10.2c0,4.2,2.9,7.6,7,7.6ZM208.1,38.6c-1.2,0-2.4.4-3.3,1.1v-.6h-3.9v17.3h3.9v-10.2c0-1.9,1.3-3.5,3.2-3.5s3.2,1.6,3.2,3.5v10.2h3.9v-10.2c0-4.2-2.9-7.6-7-7.6ZM120.9,48.3l6.1,8.1h-5.1l-5-6.7h-2.9v6.7h-4.1v-21.7h6.8c4.1,0,7.5,3.4,7.4,7.5,0,2.4-1.2,4.7-3.1,6.1ZM120,42.2c0-1.9-1.5-3.4-3.3-3.4h-2.7v6.7h2.7c1.9,0,3.4-1.5,3.3-3.4ZM175.7,50.6c0,3.9,2.9,6.2,5.8,6.2,1.4,0,2.7-.4,3.8-1.1l-2.6-3.5c-.4.3-.8.4-1.3.4-.6,0-1.8-.5-1.8-2.1v-7.4h3.4v-4.1h-3.4v-4.3h-3.9v4.3s-2.1,0-2.1,0v4.1h2.1v7.5ZM147,49.3l5.8,7.1h5.5l-7.8-9.2,6.7-8.1h-5.5l-4.7,6v-11.8h-4v23.1h4v-7.1ZM199.3,48.9h-11.3c.5,4,5,6,7.7,2l3.5,2c-2.2,3.2-4.9,3.9-6.9,3.9-4.1,0-8.2-3.7-8.2-9.1s3.3-9.1,7.8-9.1c4.5,0,8.5,4.1,7.5,10.3h0ZM195.2,45.5c-.8-4.3-6.2-4.1-7.1,0h7.1Z"/>
        </g>
        <rect class="cls-2" x="94.1" y="17.6" width="136.7" height="62.9"/>
      </g>
    </g>
  </g>
</svg>