<svg xmlns="http://www.w3.org/2000/svg" width="325" height="98" viewBox="0 0 325 98">
  <defs>
    <style>
      .a {
        fill: #fff;
      }

      .b {
        fill: #ff41be;
      }

      .c {
        fill: none;
      }
    </style>
  </defs>
  <title>logo_drone_01</title>
  <rect class="a" width="325" height="98"/>
  <g>
    <g>
      <g>
        <g>
          <path class="b" d="M187.779,35.84c5.37,0,9.254,4.3,9.254,10.244,0,6.073-3.78,10.27-9.254,10.27h-6.7V35.84ZM184.99,52.7h2.789c3.024,0,5.083-2.684,5.083-6.62,0-3.91-2.059-6.6-5.083-6.6H184.99Z"/>
          <path class="b" d="M202.279,41.446a6.139,6.139,0,0,1,4.77-1.9v3.649a4.058,4.058,0,0,0-4.353,4.171v8.992h-3.909V39.934h3.127Z"/>
          <path class="b" d="M223.013,48.145c0,5-3.232,8.627-7.689,8.627s-7.69-3.623-7.69-8.627,3.232-8.6,7.715-8.6C219.781,39.543,223.013,43.166,223.013,48.145Zm-11.5.026c0,2.685,1.616,4.692,3.806,4.692s3.8-2.007,3.8-4.718-1.616-4.718-3.831-4.718C213.134,43.427,211.518,45.46,211.518,48.171Z"/>
          <path class="b" d="M228.482,41.368a4.864,4.864,0,0,1,3.988-1.825c3.779,0,6.49,3,6.49,7.168v9.644h-3.91V46.711a3.246,3.246,0,0,0-3.154-3.519,3.518,3.518,0,0,0-3.414,3.519v9.644h-3.91V39.934h3.388Z"/>
          <path class="b" d="M255.3,53.1c-1.85,2.529-3.936,3.675-6.673,3.675-4.718,0-8.106-3.6-8.106-8.6,0-4.9,3.31-8.654,7.585-8.654,4.223,0,7.585,3.832,7.585,8.576a9.3,9.3,0,0,1-.078,1.2H244.846a3.825,3.825,0,0,0,3.884,3.753,4.033,4.033,0,0,0,3.18-1.9Zm-4.014-7.142c-.391-1.955-1.486-2.971-3.154-2.971-1.59,0-2.789,1.095-3.206,2.971Z"/>
        </g>
        <g>
          <polygon class="b" points="154.072 59.593 90.369 59.593 95.444 64.667 154.072 59.593"/>
          <path class="b" d="M96.271,39.068v.767a6.44,6.44,0,0,0-3.7-1.191c-4.463,0-7.853,4.069-7.853,9.067s3.39,9.067,7.853,9.067a6.425,6.425,0,0,0,3.7-1.191v.767h3.922V39.068Zm-3.7,13.548c-2.2,0-3.812-2.167-3.812-4.905s1.612-4.9,3.812-4.9,3.756,2.167,3.756,4.9S94.778,52.616,92.574,52.616Z"/>
          <path class="b" d="M127.7,39.068V49.222a3.227,3.227,0,1,1-6.429,0V39.068h-3.923V49.222c0,4.167,2.85,7.556,7.017,7.556a6.022,6.022,0,0,0,3.335-1.067v.643h3.923V39.068Z"/>
          <path class="b" d="M164.251,56.354V46.2a3.227,3.227,0,1,1,6.429,0V56.354H174.6V46.2c0-4.166-2.85-7.555-7.017-7.555a6.022,6.022,0,0,0-3.335,1.067v-.643h-3.923V56.354Z"/>
          <path class="b" d="M73.414,56.354v-6.7h2.9l5.024,6.7h5.136l-6.071-8.081a7.443,7.443,0,0,0-4.314-13.512h-6.78V56.354Zm0-17.494h2.677a3.347,3.347,0,1,1,0,6.694H73.414Z"/>
          <path class="b" d="M142.193,52.264a2.332,2.332,0,0,1-1.312.425,1.934,1.934,0,0,1-1.849-2.121v-7.4h3.355v-4.1h-3.355V34.76h-3.923v4.308h-2.076v4.1h2.076v7.457a5.9,5.9,0,0,0,5.832,6.165,8.085,8.085,0,0,0,3.838-1.088Z"/>
          <polygon class="b" points="109.947 47.171 116.676 39.068 111.177 39.068 106.47 45.09 106.47 33.333 102.43 33.333 102.43 56.354 106.47 56.354 106.47 49.253 112.256 56.354 117.753 56.354 109.947 47.171"/>
          <path class="b" d="M151.255,38.63c-4.541,0-7.8,3.99-7.8,9.081,0,5.353,4.088,9.083,8.188,9.083a8.186,8.186,0,0,0,6.947-3.87l-3.465-2c-2.679,3.951-7.146,1.946-7.661-2l11.3,0C159.733,42.713,155.719,38.63,151.255,38.63Zm3.425,6.85h-7.066C148.44,41.431,153.915,41.2,154.68,45.48Z"/>
        </g>
      </g>
      <rect class="c" x="69.311" y="34.761" width="186.378" height="24.832"/>
    </g>
    <path class="c" d="M55.713,30.735v-6.7h2.9l5.024,6.7h5.136L62.7,22.654A7.443,7.443,0,0,0,58.39,9.142H51.61V30.735Zm0-17.494H58.39a3.347,3.347,0,1,1,0,6.694H55.713Z"/>
  </g>
</svg>
