<svg xmlns="http://www.w3.org/2000/svg" width="325" height="98" viewBox="0 0 325 98">
  <defs>
    <style>
      .a {
        fill: #fff;
      }

      .b {
        fill: #bf0000;
      }

      .c {
        fill: none;
      }
    </style>
  </defs>
  <title>logo_ichiba_tw_01</title>
  <rect class="a" width="325" height="98"/>
  <g>
    <g>
      <g>
        <path class="b" d="M193.962,54.179a25.861,25.861,0,0,1-7.9-3.783h7.794c.566,0,.759-.55.759-1.118s-.193-1.118-.759-1.118H184.77v-.9a.582.582,0,0,0-.346-.576h1.314a1.168,1.168,0,0,0,.556-.124,1.31,1.31,0,0,0,.182.493.825.825,0,0,0,.645.277q2.952-.318,5.3-.645c.046.215.1.449.1.449a.917.917,0,0,0,1.189.659.943.943,0,0,0,.731-1.273c-.028-.089-.791-2.667-.992-3.225a.976.976,0,0,0-1.1-.765.944.944,0,0,0-.81,1.239c.075.231.257.764.349,1.071q-.807.046-2.006.092a29.847,29.847,0,0,0,4.006-6.2.893.893,0,0,0-.432-1.244,1.08,1.08,0,0,0-1.545.3c-.483,1.024-1,1.988-1.545,2.9q-.414-.414-1.06-.968a11.65,11.65,0,0,0,1.175-1.568,5.5,5.5,0,0,0,.692-1.5c.189-.742,0-1.172-.484-1.359a.938.938,0,0,0-1.29.432,13.82,13.82,0,0,1-1.776,2.657l-.023.023a.809.809,0,0,0-.784.092v-.115c0-.769-.355-1.245-1.084-1.245h-1.129l.276-.853a.8.8,0,0,0-.269-.872,1.749,1.749,0,0,0-1-.327.738.738,0,0,0-.725.462l-.566,1.59h-.783a.966.966,0,0,0-1.023.744c-.084-.217-.247-.38-.709-.495a.976.976,0,0,0-1.128.3c-.176.341-1.26,2.464-1.475,2.767a12.3,12.3,0,0,0-.876-.9,6.031,6.031,0,0,0,.968-1.383,5.175,5.175,0,0,0,.692-1.5,3.317,3.317,0,0,0,.069-.646.793.793,0,0,0-.553-.715c-.706-.256-1.1,0-1.285.4a10.594,10.594,0,0,1-1.528,2.416,1.262,1.262,0,0,0-.346-.161c-.337-.086-.779.227-1.058.568a1.159,1.159,0,0,0-.273,1.054,9.785,9.785,0,0,0,1.128,1,22.338,22.338,0,0,1,1.886,1.826,27.023,27.023,0,0,1-1.752,2.375q-.3.023-.645.023-.831.047-.83.691a2.5,2.5,0,0,0,.253,1.361.782.782,0,0,0,.669.277q2.673-.3,4.842-.6c.06.231.095.382.127.516a1,1,0,0,0,1.923-.543c-.2-.643-.929-3.17-1.175-3.569a1.09,1.09,0,0,0-.922-.392.341.341,0,0,0-.092.023,35.973,35.973,0,0,0,2.029-3.482V45.44c0,.768.355,1.245,1.084,1.245h1.313a.582.582,0,0,0-.346.576v.9H173.8c-.567,0-.76.55-.76,1.118s.193,1.118.76,1.118h7.24c-1.537,1.322-3.871,2.464-7.468,3.717-.7.245-.725,1.039-.546,1.7.283,1.045.958,1,1.493.793a27.309,27.309,0,0,0,8-4.5v3.975c0,.567.561.8,1.129.8s1.131-.231,1.131-.8V52.033a18.8,18.8,0,0,0,2.866,2.115,39.427,39.427,0,0,0,5.334,2.472,1.236,1.236,0,0,0,1.42-.658C194.619,55.467,194.759,54.428,193.962,54.179Zm-7.14-13.627c.03.031,1.736,1.376,2.4,2.006A26.715,26.715,0,0,1,187.375,45h-.346a1.021,1.021,0,0,0-.207.024Zm-10.006,4.173q.415-.485.853-1.084a9.663,9.663,0,0,0,.323,1.037C177.654,44.694,177.261,44.709,176.816,44.725Zm5.569-5.349q0-.416.437-.415h1.638q.436,0,.437.415v1.383h-2.512Zm.437,5.464q-.436,0-.437-.415V42.6H184.9v1.821q0,.416-.437.415Z"/>
        <path class="b" d="M217.314,54.229A23.449,23.449,0,0,1,211.471,50a12.267,12.267,0,0,1-2.581-3.8h8.074c.667,0,.893-.646.893-1.315s-.227-1.314-.893-1.314h-8.743a2.856,2.856,0,0,1-.023-.369V39.076h7.652c.689,0,.924-.668.924-1.359s-.235-1.361-.924-1.361H198.287c-.69,0-.924.669-.924,1.36s.234,1.36.924,1.36h7.282v4.1a3.842,3.842,0,0,1-.023.392H196.94c-.667,0-.894.646-.894,1.314s.227,1.315.894,1.315h8.145a10.343,10.343,0,0,1-2.674,4.218,20.094,20.094,0,0,1-6.026,4.019c-.452.216-.555.884-.384,1.5a1.19,1.19,0,0,0,1.315.979q1.66-.024,5.718-3.136a11.341,11.341,0,0,0,3.942-4.818,20.276,20.276,0,0,0,4.311,4.772,17.383,17.383,0,0,0,4.856,3.053,1.214,1.214,0,0,0,1.533-.526A1.533,1.533,0,0,0,217.314,54.229Z"/>
        <path class="b" d="M220.2,54.636c0,.689.668.924,1.36.924s1.36-.235,1.36-.924V44.863a.49.49,0,0,1,.471-.438h5.085V56.3c0,.672.652.9,1.326.9s1.326-.229,1.326-.9V44.425h5.5a.49.49,0,0,1,.47.438V50.9q0,1.8-.715,1.8a6.78,6.78,0,0,1-2.457-.823,1.085,1.085,0,0,0-1.257.655c-.223.615-.36,1.251.165,1.723A7.1,7.1,0,0,0,236.5,55.33a3.335,3.335,0,0,0,2.419-.687c.558-.465.832-1.442.832-3.394V43.18a1.178,1.178,0,0,0-1.313-1.268h-7.309V39.975h9.013c.654,0,.877-.634.877-1.29s-.223-1.291-.877-1.291h-9.013V35.758c0-.672-.652-.9-1.325-.9s-1.327.229-1.327.9v1.635h-8.736c-.654,0-.877.634-.877,1.291s.223,1.29.877,1.29h8.736v1.937h-6.962A1.179,1.179,0,0,0,220.2,43.18Z"/>
        <g>
          <path class="b" d="M249.573,50.37a1.116,1.116,0,0,0-1.211-.55c-.175.079-.579.246-1.143.553V41.889h1.929c.607,0,.814-.589.814-1.2s-.207-1.2-.815-1.2h-1.928V35.91c0-.613-.595-.822-1.21-.822s-1.21.209-1.21.822v3.581H243.08c-.607,0-.814.589-.814,1.2s.207,1.2.814,1.2H244.8l.023,9.729c-.784.354-1.142.521-1.774.794a1.331,1.331,0,0,0-.625,1.849,1.093,1.093,0,0,0,1.524.613,29.546,29.546,0,0,0,2.927-1.411,12.194,12.194,0,0,0,2.6-1.631A1.246,1.246,0,0,0,249.573,50.37Z"/>
          <path class="b" d="M263.013,46.915c.549,0,.736-.533.736-1.084s-.187-1.083-.736-1.083H249.638c-.549,0-.736.533-.736,1.083s.187,1.084.736,1.084h3.137a10.373,10.373,0,0,1-2.582,1.906c-.481.277-.528.942-.332,1.6.154.513.539.72,1.17.6a3.078,3.078,0,0,0,1.421-.85h1.729a13.806,13.806,0,0,1-4.219,2.58c-.3.133-.673.546-.372,1.518.292.947,1.135.732,1.645.477,2.935-1.467,4.545-2.853,5.62-4.575h1.338c-.646,1.691-2.169,3.031-4.888,4.22a1.116,1.116,0,0,0-.4,1.591,1.159,1.159,0,0,0,1.473.63,10.775,10.775,0,0,0,1.921-1.07,8.467,8.467,0,0,0,4.042-5.371h.553c.169,0,.253.147.253.439a14.136,14.136,0,0,1-.307,3.342c-.149.434-.405.715-.776.715-.5,0-.67-.232-1.077-.325a.834.834,0,0,0-1.007.76,1.269,1.269,0,0,0,.563,1.456,5.278,5.278,0,0,0,2,.253,2.586,2.586,0,0,0,1.979-.837c.1-.136.833-1.025.88-6.286.01-1.138-.4-1.707-1.2-1.707H254.55a7.188,7.188,0,0,0,.623-1.06Z"/>
          <path class="b" d="M252.452,43.78h9.038q1.383,0,1.429-1.269V36.679q-.045-1.269-1.429-1.268h-9.038q-1.383,0-1.429,1.268v5.832Q251.068,43.78,252.452,43.78Zm.83-5.937a.343.343,0,0,1,.369-.368h6.663a.342.342,0,0,1,.368.368v.83h-7.4Zm0,2.675h7.4v.83a.344.344,0,0,1-.368.369h-6.663a.344.344,0,0,1-.369-.369Z"/>
        </g>
      </g>
      <g>
        <polygon class="b" points="146.012 59.593 82.309 59.593 87.384 64.667 146.012 59.593"/>
        <path class="b" d="M88.21,39.068v.767a6.434,6.434,0,0,0-3.7-1.191c-4.463,0-7.853,4.069-7.853,9.067s3.39,9.067,7.853,9.067a6.419,6.419,0,0,0,3.7-1.191v.767h3.923V39.068Zm-3.7,13.548c-2.2,0-3.812-2.167-3.812-4.905s1.612-4.9,3.812-4.9,3.756,2.167,3.756,4.9S86.717,52.616,84.514,52.616Z"/>
        <path class="b" d="M119.636,39.068V49.222a3.227,3.227,0,1,1-6.428,0V39.068h-3.923V49.222c0,4.167,2.85,7.556,7.017,7.556a6.016,6.016,0,0,0,3.334-1.067v.643h3.924V39.068Z"/>
        <path class="b" d="M156.191,56.354V46.2a3.227,3.227,0,1,1,6.429,0V56.354h3.923V46.2c0-4.166-2.85-7.555-7.017-7.555a6.022,6.022,0,0,0-3.335,1.067v-.643h-3.923V56.354Z"/>
        <path class="b" d="M65.354,56.354v-6.7h2.9l5.024,6.7h5.136l-6.071-8.081a7.443,7.443,0,0,0-4.314-13.512h-6.78V56.354Zm0-17.494h2.677a3.347,3.347,0,1,1,0,6.694H65.354Z"/>
        <path class="b" d="M134.133,52.264a2.332,2.332,0,0,1-1.312.425,1.934,1.934,0,0,1-1.849-2.121v-7.4h3.355v-4.1h-3.355V34.76h-3.924v4.308h-2.076v4.1h2.076v7.457a5.9,5.9,0,0,0,5.832,6.165,8.085,8.085,0,0,0,3.838-1.088Z"/>
        <polygon class="b" points="101.887 47.171 108.616 39.068 103.117 39.068 98.41 45.09 98.41 33.333 94.37 33.333 94.37 56.354 98.41 56.354 98.41 49.253 104.196 56.354 109.693 56.354 101.887 47.171"/>
        <path class="b" d="M143.2,38.63c-4.541,0-7.8,3.99-7.8,9.081,0,5.353,4.088,9.083,8.188,9.083a8.186,8.186,0,0,0,6.947-3.87l-3.465-2c-2.68,3.951-7.146,1.946-7.661-2l11.3,0C151.673,42.713,147.659,38.63,143.2,38.63Zm3.425,6.85h-7.066C140.379,41.431,145.855,41.2,146.62,45.48Z"/>
      </g>
    </g>
    <rect class="c" x="61.251" y="34.761" width="202.498" height="24.832"/>
  </g>
</svg>
