<?xml version="1.0" encoding="UTF-8"?><svg id="_レイヤー_1" xmlns="http://www.w3.org/2000/svg" xmlns:xlink="http://www.w3.org/1999/xlink" viewBox="0 0 325 98"><defs><style>.cls-1{fill:none;}.cls-2{fill:#00b900;}.cls-3{clip-path:url(#clippath);}</style><clipPath id="clippath"><rect class="cls-1" x="51.03" y="23.96" width="222.93" height="46.43"/></clipPath></defs><g class="cls-3"><path class="cls-2" d="M146.61,59.6h-63.71s5.08,5.08,5.08,5.08l58.64-5.08Z"/><path class="cls-2" d="M88.79,39.07v.77c-1.18-.75-2.24-1.19-3.7-1.19-4.46,0-7.85,4.07-7.85,9.07s3.39,9.07,7.85,9.07c1.45,0,2.51-.44,3.7-1.19v.77h3.92v-17.29s-3.92,0-3.92,0ZM85.1,52.62c-2.2,0-3.81-2.17-3.81-4.91s1.61-4.9,3.81-4.9c2.2,0,3.76,2.17,3.76,4.9s-1.55,4.91-3.76,4.91Z"/><path class="cls-2" d="M120.23,39.07v10.16c0,1.9-1.31,3.51-3.22,3.51s-3.21-1.61-3.21-3.51v-10.16h-3.92v10.16c0,4.17,2.85,7.56,7.02,7.56,1.93,0,3.33-1.07,3.33-1.07v.64h3.92v-17.29s-3.92,0-3.92,0Z"/><path class="cls-2" d="M156.79,56.36v-10.16c0-1.9,1.31-3.51,3.21-3.51s3.22,1.61,3.22,3.51v10.16h3.92v-10.16c0-4.17-2.85-7.56-7.02-7.56-1.93,0-3.33,1.07-3.33,1.07v-.64h-3.92s0,17.29,0,17.29h3.92Z"/><path class="cls-2" d="M65.93,56.36v-6.7h2.9l5.02,6.7h5.14l-6.07-8.08c1.89-1.36,3.14-3.57,3.14-6.07,0-4.11-3.34-7.45-7.45-7.45h-6.78v21.6s4.1,0,4.1,0ZM65.93,38.86h2.68c1.84,0,3.35,1.5,3.35,3.35s-1.51,3.35-3.35,3.35h-2.68v-6.69Z"/><path class="cls-2" d="M134.73,52.27c-.35.24-.8.43-1.31.43-.64,0-1.85-.49-1.85-2.12v-7.4h3.36s0-4.1,0-4.1h-3.36s0-4.31,0-4.31h-3.92v4.31s-2.08,0-2.08,0v4.1h2.08v7.46c0,3.86,2.91,6.17,5.83,6.17,1.09,0,2.6-.36,3.84-1.09l-2.59-3.44Z"/><path class="cls-2" d="M102.47,47.17l6.73-8.1h-5.5l-4.71,6.02v-11.76s-4.04,0-4.04,0v23.02s4.04,0,4.04,0v-7.1l5.79,7.1h5.5s-7.81-9.18-7.81-9.18Z"/><path class="cls-2" d="M143.79,38.63c-4.54,0-7.8,3.99-7.8,9.08,0,5.35,4.09,9.08,8.19,9.08,2.07,0,4.72-.71,6.95-3.87l-3.47-2c-2.68,3.95-7.15,1.95-7.66-2.01h11.3c.97-6.21-3.05-10.29-7.51-10.29ZM147.21,45.48h-7.07c.83-4.05,6.3-4.28,7.07,0Z"/><path class="cls-2" d="M183.03,56.74c-1.93,0-3.63-.45-5.11-1.35-1.48-.9-2.64-2.15-3.47-3.76-.84-1.61-1.25-3.45-1.25-5.53s.42-3.96,1.25-5.56c.84-1.61,1.99-2.86,3.47-3.76,1.48-.9,3.18-1.35,5.11-1.35s3.63.46,5.11,1.37c1.48.91,2.64,2.17,3.47,3.76.84,1.6,1.25,3.45,1.25,5.55s-.42,3.92-1.25,5.53c-.84,1.61-1.99,2.86-3.47,3.76-1.48.9-3.18,1.35-5.11,1.35ZM183.03,52.95c1.11,0,2.08-.28,2.91-.85.83-.57,1.47-1.37,1.95-2.4.47-1.03.71-2.23.71-3.6,0-2.06-.51-3.72-1.53-4.98-1.02-1.26-2.36-1.9-4.04-1.9s-3.02.63-4.04,1.9c-1.02,1.26-1.53,2.93-1.53,4.98s.51,3.71,1.53,4.97c1.02,1.25,2.36,1.88,4.04,1.88Z"/><path class="cls-2" d="M198.82,61.92c-.51,0-1.07-.17-1.43-.54-.35-.37-.56-.84-.56-1.33,0-.34.03-.67.45-1.45.42-.78,2.68-5.08,2.68-5.08l-5.56-10.97c-.09-.19-.15-.38-.19-.56-.04-.18-.06-.33-.06-.43,0-.56.2-1.04.6-1.45.4-.41.88-.61,1.46-.61.43,0,.81.12,1.14.37.33.25.57.53.72.85l4.04,8.7,4.42-8.77c.15-.34.38-.62.69-.84.31-.21.66-.32,1.05-.32.51,0,.95.19,1.32.56.36.38.55.81.55,1.3,0,.19-.04.4-.11.61-.08.21-.24.56-.5,1.03,0,0-8.54,17-9.02,17.82s-1.04,1.09-1.67,1.09Z"/><path class="cls-2" d="M217.51,56.71c-1.37,0-2.6-.36-3.7-1.08-1.09-.72-1.96-1.72-2.6-3.02-.64-1.3-.96-2.8-.96-4.52s.32-3.19.96-4.49c.64-1.3,1.51-2.32,2.6-3.05,1.09-.74,2.33-1.11,3.7-1.11,1.16,0,2.19.28,3.09.84.9.56,1.56,1.3,1.99,2.22l.16-1.25c.04-.45.23-.84.56-1.16.33-.32.76-.48,1.27-.48s.92.18,1.27.53c.35.35.53.79.53,1.3v13.35c0,.51-.18.95-.53,1.3-.35.35-.79.53-1.3.53-.45,0-.85-.15-1.19-.43-.34-.29-.55-.69-.61-1.21l-.16-1.29c-.43.92-1.09,1.66-1.99,2.2-.9.55-1.93.82-3.09.82ZM218.34,53.01c1.22,0,2.21-.45,2.96-1.35.75-.9,1.13-2.09,1.13-3.57s-.38-2.67-1.13-3.57c-.75-.9-1.74-1.35-2.96-1.35s-2.14.46-2.89,1.37c-.75.91-1.13,2.1-1.13,3.55s.37,2.67,1.13,3.57c.75.9,1.71,1.35,2.89,1.35Z"/><path class="cls-2" d="M235.66,56.71c-1.37,0-2.61-.36-3.71-1.09-1.1-.73-1.98-1.74-2.64-3.04-.65-1.3-.98-2.79-.98-4.49s.32-3.19.95-4.49c.63-1.3,1.48-2.32,2.56-3.05,1.07-.74,2.28-1.11,3.63-1.11,1.16,0,2.18.27,3.07.8.89.54,1.57,1.24,2.04,2.12v-7.17c0-.54.2-1,.6-1.4.4-.4.87-.6,1.43-.6s1.03.2,1.42.6c.39.4.58.86.58,1.4v19.58c0,.51-.18.95-.53,1.3-.35.35-.78.53-1.27.53s-.91-.16-1.24-.47c-.33-.31-.53-.72-.6-1.24l-.16-1.22c-.45.92-1.14,1.66-2.06,2.2-.92.55-1.95.82-3.09.82ZM236.56,53.01c1.18,0,2.15-.46,2.93-1.37.77-.91,1.16-2.1,1.16-3.55s-.39-2.65-1.16-3.57c-.77-.92-1.75-1.38-2.93-1.38s-2.18.46-2.94,1.38c-.76.92-1.14,2.11-1.14,3.57s.38,2.64,1.14,3.55c.76.91,1.74,1.37,2.94,1.37Z"/><path class="cls-2" d="M254.87,56.77c-1.59,0-3.01-.37-4.26-1.11-1.25-.74-2.25-1.76-2.97-3.07-.73-1.31-1.09-2.81-1.09-4.5s.36-3.19,1.09-4.5c.73-1.31,1.72-2.34,2.97-3.09,1.25-.75,2.67-1.13,4.26-1.13s2.97.38,4.23,1.13c1.25.75,2.25,1.78,2.98,3.09.73,1.31,1.09,2.81,1.09,4.5s-.36,3.19-1.09,4.5c-.73,1.31-1.72,2.33-2.98,3.07-1.25.74-2.66,1.11-4.23,1.11ZM254.87,53.04c1.22,0,2.22-.45,2.99-1.35.77-.9,1.16-2.1,1.16-3.6s-.39-2.71-1.16-3.62c-.77-.91-1.77-1.37-2.99-1.37s-2.22.46-3.01,1.37c-.78.91-1.17,2.12-1.17,3.62s.39,2.7,1.17,3.6c.78.9,1.79,1.35,3.01,1.35Z"/></g></svg>