<svg xmlns="http://www.w3.org/2000/svg" viewBox="0 0 325 98"><defs><style>.cls-1{fill:none;}.cls-2{fill:#bf0000;}</style></defs><title>logo_car</title><g id="レイヤー_1" data-name="レイヤー 1"><rect class="cls-1" x="97.57" y="11.93" width="128.43" height="73.49" rx="2.19"/><rect class="cls-1" x="108.5" y="22.85" width="106.57" height="51.64"/><polygon class="cls-2" points="194.29 47.99 129.81 47.99 134.95 53.12 194.29 47.99"/><path class="cls-2" d="M135.79,27.21V28a6.54,6.54,0,0,0-3.74-1.21c-4.52,0-8,4.12-8,9.18s3.43,9.18,8,9.18a6.47,6.47,0,0,0,3.74-1.21v.78h4V27.21Zm-3.74,13.72c-2.23,0-3.86-2.2-3.86-5s1.63-5,3.86-5,3.8,2.19,3.8,5S134.28,40.93,132.05,40.93Z"/><path class="cls-2" d="M167.6,27.21V37.49a3.27,3.27,0,1,1-6.51,0V27.21h-4V37.49c0,4.22,2.88,7.65,7.1,7.65a6.13,6.13,0,0,0,3.38-1.08v.65h4V27.21Z"/><path class="cls-2" d="M204.59,44.71V34.43a3.27,3.27,0,1,1,6.51,0V44.71h4V34.43c0-4.22-2.88-7.65-7.1-7.65a6.13,6.13,0,0,0-3.38,1.08v-.65h-4v17.5Z"/><path class="cls-2" d="M112.65,44.71V37.93h2.94l5.08,6.78h5.2l-6.14-8.18a7.54,7.54,0,0,0-4.37-13.68H108.5V44.71Zm0-17.71h2.71a3.39,3.39,0,0,1,0,6.78h-2.71Z"/><path class="cls-2" d="M182.27,40.57a2.39,2.39,0,0,1-1.33.43,2,2,0,0,1-1.87-2.15V31.37h3.39V27.21h-3.39V22.85h-4v4.36H173v4.16h2.1v7.54a6,6,0,0,0,5.9,6.24,8.21,8.21,0,0,0,3.89-1.1Z"/><polygon class="cls-2" points="149.63 35.41 156.44 27.21 150.87 27.21 146.11 33.31 146.11 21.41 142.02 21.41 142.02 44.71 146.11 44.71 146.11 37.52 151.97 44.71 157.53 44.71 149.63 35.41"/><path class="cls-2" d="M191.44,26.77c-4.6,0-7.89,4-7.89,9.19,0,5.42,4.14,9.19,8.28,9.19a8.28,8.28,0,0,0,7-3.91l-3.51-2c-2.71,4-7.23,2-7.76-2H199C200,30.9,196,26.77,191.44,26.77Zm3.47,6.93h-7.16C188.59,29.61,194.13,29.37,194.91,33.7Z"/><path class="cls-2" d="M122.83,60.35c-.6-2.14-2-3.35-3.92-3.35-2.9,0-5.7,3.14-6.4,7.12s1,7.1,3.89,7.1c1.93,0,3.72-1.19,5.19-3.4l2.94,2c-2.32,3.43-5.16,5.07-8.8,5.07-5.49,0-8.56-4.46-7.44-10.8s5.92-10.81,11.32-10.81a6.74,6.74,0,0,1,7,5.06Z"/><path class="cls-2" d="M136.77,73a6.15,6.15,0,0,1-4.43,1.92c-4.17,0-6.85-3.93-6-8.73s5-8.71,9.29-8.71a3.83,3.83,0,0,1,3.54,1.93l.79-1.53h3.43l-2.93,16.62H137Zm-6.48-6.81c-.49,2.8.83,5,3,5s4.19-2.08,4.71-5-.72-5-3-5S130.79,63.38,130.29,66.18Z"/><path class="cls-2" d="M149.06,59.4a7.39,7.39,0,0,1,5.17-1.93l-.65,3.7a5.21,5.21,0,0,0-4,1.82,5.1,5.1,0,0,0-1.11,2.4l-1.61,9.1h-3.95l2.93-16.62H149Z"/></g></svg>