<svg xmlns="http://www.w3.org/2000/svg" width="325" height="98" viewBox="0 0 325 98">
  <defs>
    <style>
      .a {
        fill: #fff;
      }

      .b {
        fill: none;
      }

      .c {
        fill: #bf0000;
      }
    </style>
  </defs>
  <title>logo_securities_01</title>
  <rect class="a" width="325" height="98"/>
  <g>
    <rect class="b" x="59.763" y="34.761" width="205.474" height="24.832"/>
    <g>
      <g>
        <polygon class="c" points="144.524 59.593 80.822 59.593 85.896 64.667 144.524 59.593"/>
        <path class="c" d="M86.723,39.068v.767a6.439,6.439,0,0,0-3.7-1.191c-4.463,0-7.854,4.069-7.854,9.067s3.391,9.067,7.854,9.067a6.424,6.424,0,0,0,3.7-1.191v.767h3.923V39.068Zm-3.7,13.548c-2.2,0-3.812-2.167-3.812-4.905s1.611-4.9,3.812-4.9,3.756,2.167,3.756,4.9S85.23,52.616,83.027,52.616Z"/>
        <path class="c" d="M118.149,39.068V49.222a3.227,3.227,0,1,1-6.429,0V39.068H107.8V49.222c0,4.167,2.85,7.556,7.017,7.556a6.022,6.022,0,0,0,3.335-1.067v.643h3.923V39.068Z"/>
        <path class="c" d="M154.7,56.354V46.2a3.227,3.227,0,1,1,6.428,0V56.354h3.923V46.2c0-4.166-2.85-7.555-7.017-7.555a6.016,6.016,0,0,0-3.334,1.067v-.643H150.78V56.354Z"/>
        <path class="c" d="M63.866,56.354v-6.7h2.9l5.024,6.7h5.137l-6.071-8.081a7.443,7.443,0,0,0-4.314-13.512H59.763V56.354Zm0-17.494h2.678a3.347,3.347,0,1,1,0,6.694H63.866Z"/>
        <path class="c" d="M132.645,52.263a2.324,2.324,0,0,1-1.311.426,1.935,1.935,0,0,1-1.85-2.121v-7.4h3.355v-4.1h-3.355V34.76h-3.923v4.308h-2.075v4.1h2.075v7.457a5.9,5.9,0,0,0,5.833,6.165,8.078,8.078,0,0,0,3.837-1.088Z"/>
        <polygon class="c" points="100.399 47.171 107.128 39.068 101.629 39.068 96.922 45.09 96.922 33.333 92.883 33.333 92.883 56.354 96.922 56.354 96.922 49.253 102.709 56.354 108.205 56.354 100.399 47.171"/>
        <path class="c" d="M141.707,38.63c-4.54,0-7.8,3.99-7.8,9.081,0,5.353,4.088,9.083,8.187,9.083a8.188,8.188,0,0,0,6.948-3.87l-3.465-2c-2.68,3.95-7.146,1.945-7.662-2.005l11.3,0C150.185,42.713,146.171,38.63,141.707,38.63Zm3.425,6.85h-7.066C138.892,41.431,144.367,41.2,145.132,45.48Z"/>
      </g>
      <g>
        <path class="c" d="M177.514,44.228a23.974,23.974,0,0,1-5.431,2.832l-.766-2.948a20.071,20.071,0,0,0,5.408-2.577Zm3.622,2.182H177.77V36.521h2.785a6.264,6.264,0,0,0,.534-1.485h3.134a12.231,12.231,0,0,1-.557,1.485h3.783V46.41h-3.481v1.137h9.47v2.647h-7.173a27.754,27.754,0,0,0,7.5,3.528l-1.625,2.785a28.3,28.3,0,0,1-8.17-5.269V56.9h-2.832V51.493a27.88,27.88,0,0,1-8.264,5.061L171.386,53.7a24.065,24.065,0,0,0,7.683-3.5h-7.4V47.547h9.471Zm-7.892-10.492a18.888,18.888,0,0,1,4.177,2.762l-1.648,2.345a16.682,16.682,0,0,0-4.038-2.855Zm7.149,2.855v1.649h4.41V38.773Zm0,3.574v1.765h4.41V42.347Zm8.635-1.067a21.906,21.906,0,0,1,4.944,3.227l-1.811,2.623a17.781,17.781,0,0,0-4.665-3.436Zm4.433-3.621a23.569,23.569,0,0,1-3.737,3.575l-1.857-2.113a19.884,19.884,0,0,0,3.575-3.366Z"/>
        <path class="c" d="M204.767,43.37c.047-.674.07-1,.07-1.858V38.541h-9.285V35.779h21.773v2.762h-9.517v2.948c0,.812-.023,1.09-.07,1.881h8.937v2.761h-8.217c1.207,3.854,5.037,6.361,9.215,7.823l-1.718,2.971c-4.689-2.043-8.054-5.176-9.424-8.658-2.089,4.805-6.29,7.266-9.587,8.681L195.2,53.954c4.225-1.207,7.684-3.482,9.03-7.823h-7.985V43.37Z"/>
        <path class="c" d="M228.468,39.1v2.368H219.3V39.1Zm-.743-3.3v2.275h-7.753V35.8Zm0,6.708v2.321h-7.753V42.51Zm0,3.459V48.29h-7.753V45.969Zm0,3.413V56.53h-7.753V49.382Zm-2.577,2.251h-2.483v2.622h2.483Zm7.173-10.26V53.536h2.159V38.518h-5.617V35.8H241v2.716h-3.668v5.5h3.2v2.693h-3.2v6.824h3.992v2.716H228.445V53.536h1.091V41.373Z"/>
        <path class="c" d="M264.912,42.812v2.553h-4.225a14.053,14.053,0,0,0,4.55,2.925l-1.509,2.716a18.181,18.181,0,0,1-2.855-1.741c-.418,6.917-1.392,7.706-3.6,7.706h-3.249l-.628-2.809h2.879c.836,0,1.091-.278,1.207-.626a19.538,19.538,0,0,0,.465-3.574h-4.341c-.882,5.013-4.248,6.638-9.077,7.172l-1.113-2.6c5.338-.3,6.824-2.367,7.242-4.572h-2.948V49.01a19.571,19.571,0,0,1-3.32,2.019l-1.625-2.577a14.3,14.3,0,0,0,4.945-3.087h-4.736V42.812h6.778a13.916,13.916,0,0,0,1.068-2.089h-6.917V38.239h3.458a15.594,15.594,0,0,0-1.392-2.3l2.669-.974a15.965,15.965,0,0,1,1.95,3.272h1.068a24.167,24.167,0,0,0,.6-3.3l3.017.186a25.947,25.947,0,0,1-.72,3.11h2.693a24.194,24.194,0,0,0,1.81-3.272l2.832,1.02a23.136,23.136,0,0,1-1.3,2.252h3.39v2.484h-6.523a8.231,8.231,0,0,0,1.021,2.089Zm-6.151,4.619a17.514,17.514,0,0,1-1.787-2.066H251.31a15.513,15.513,0,0,1-1.788,2.066ZM255.4,42.812a18.9,18.9,0,0,1-.882-2.089h-.789a22.373,22.373,0,0,1-.882,2.089Z"/>
      </g>
    </g>
  </g>
</svg>
