<svg xmlns="http://www.w3.org/2000/svg" width="325" height="98" viewBox="0 0 325 98">
  <defs>
    <style>
      .a {
        fill: #fff;
      }

      .b {
        fill: none;
      }

      .c {
        fill: #bf0000;
      }
    </style>
  </defs>
  <title>logo_music_01</title>
  <rect class="a" width="325" height="98"/>
  <g>
    <rect class="b" x="73.436" y="34.761" width="178.129" height="24.832"/>
    <g>
      <g>
        <path class="c" d="M187.5,41.392a4.8,4.8,0,0,1,3.858-1.85,4.087,4.087,0,0,1,3.831,2.815,5.273,5.273,0,0,1,4.692-2.815c3.023,0,4.978,2.528,4.978,6.385V56.354h-2.345V45.927c0-2.554-1.147-4.2-2.972-4.2-1.877,0-3.336,1.851-3.336,4.2V56.354h-2.346V45.927c0-2.528-1.173-4.2-2.945-4.2-1.747,0-3.363,2.007-3.363,4.2V56.354h-2.346V39.932h1.955Z"/>
        <path class="c" d="M217.4,54.712a5.914,5.914,0,0,1-4.509,2.032C209.4,56.744,207,54.06,207,50.15V39.932h2.346V50.176c0,2.685,1.512,4.379,3.91,4.379a4.433,4.433,0,0,0,4.222-4.3V39.932h2.346V56.354h-2.085Z"/>
        <path class="c" d="M230.488,43.347a4.375,4.375,0,0,0-3.31-1.616c-1.616,0-2.711.912-2.711,2.294a2.059,2.059,0,0,0,.913,1.877c.313.234.313.234,3.049,1.407,3.18,1.407,4.431,2.815,4.431,4.979,0,2.736-2.189,4.482-5.656,4.482a6.919,6.919,0,0,1-5.812-2.684l1.642-1.486a5.215,5.215,0,0,0,4.2,1.981c1.929,0,3.128-.86,3.128-2.268A2.983,2.983,0,0,0,229,50.046a15.867,15.867,0,0,0-3.415-1.669c-2.554-1.068-3.623-2.371-3.623-4.456,0-2.633,2.085-4.379,5.213-4.379a6.536,6.536,0,0,1,5,2.059Z"/>
        <path class="c" d="M234.432,37.9V35.188h2.711V37.9Zm.182,18.455V39.932h2.346V56.354Z"/>
        <path class="c" d="M249.636,43.816a4.247,4.247,0,0,0-3.649-2.085c-2.737,0-4.77,2.711-4.77,6.412s2.033,6.438,4.77,6.438a4.29,4.29,0,0,0,3.727-2.242l1.85,1.668a6.644,6.644,0,0,1-5.577,2.763c-4.327,0-7.272-3.518-7.272-8.627s2.971-8.6,7.272-8.6a6.507,6.507,0,0,1,5.551,2.737Z"/>
      </g>
      <g>
        <polygon class="c" points="158.197 59.593 94.494 59.593 99.568 64.667 158.197 59.593"/>
        <path class="c" d="M100.4,39.068v.767a6.439,6.439,0,0,0-3.7-1.191c-4.463,0-7.853,4.069-7.853,9.067s3.39,9.067,7.853,9.067a6.424,6.424,0,0,0,3.7-1.191v.767h3.923V39.068ZM96.7,52.616c-2.2,0-3.812-2.167-3.812-4.905s1.611-4.9,3.812-4.9,3.756,2.167,3.756,4.9S98.9,52.616,96.7,52.616Z"/>
        <path class="c" d="M131.821,39.068V49.222a3.227,3.227,0,1,1-6.428,0V39.068H121.47V49.222c0,4.167,2.85,7.556,7.017,7.556a6.02,6.02,0,0,0,3.334-1.067v.643h3.923V39.068Z"/>
        <path class="c" d="M168.376,56.354V46.2a3.227,3.227,0,1,1,6.428,0V56.354h3.923V46.2c0-4.166-2.85-7.555-7.017-7.555a6.02,6.02,0,0,0-3.334,1.067v-.643h-3.923V56.354Z"/>
        <path class="c" d="M77.539,56.354v-6.7h2.9l5.024,6.7H90.6L84.53,48.273a7.443,7.443,0,0,0-4.314-13.512h-6.78V56.354Zm0-17.494h2.677a3.347,3.347,0,1,1,0,6.694H77.539Z"/>
        <path class="c" d="M146.318,52.263a2.327,2.327,0,0,1-1.312.426,1.934,1.934,0,0,1-1.849-2.121v-7.4h3.355v-4.1h-3.355V34.76h-3.923v4.308h-2.075v4.1h2.075v7.457a5.9,5.9,0,0,0,5.833,6.165,8.078,8.078,0,0,0,3.837-1.088Z"/>
        <polygon class="c" points="114.071 47.171 120.801 39.068 115.301 39.068 110.595 45.09 110.595 33.333 106.555 33.333 106.555 56.354 110.595 56.354 110.595 49.253 116.381 56.354 121.877 56.354 114.071 47.171"/>
        <path class="c" d="M155.379,38.63c-4.54,0-7.8,3.99-7.8,9.081,0,5.353,4.088,9.083,8.187,9.083a8.187,8.187,0,0,0,6.948-3.87l-3.465-2c-2.68,3.95-7.146,1.945-7.662-2.005l11.3,0C163.858,42.713,159.843,38.63,155.379,38.63Zm3.425,6.85h-7.066C152.564,41.431,158.04,41.2,158.8,45.48Z"/>
      </g>
    </g>
  </g>
</svg>
