<svg xmlns="http://www.w3.org/2000/svg" width="325" height="98" viewBox="0 0 325 98">
  <defs>
    <style>
      .a {
        fill: #fff;
      }

      .b {
        fill: none;
      }

      .c {
        fill: #bf0000;
      }
    </style>
  </defs>
  <title>logo_capital_01</title>
  <rect class="a" width="325" height="98"/>
  <g>
    <rect class="b" x="60.239" y="34.761" width="204.521" height="24.832"/>
    <g>
      <g>
        <path class="c" d="M185.288,42.382c-.964-2.111-2.554-3.31-4.457-3.31-2.867,0-5.083,3.1-5.083,7.038s2.242,7.012,5.083,7.012c1.9,0,3.467-1.173,4.535-3.363l3.258,2.007c-1.694,3.389-4.222,5.005-7.819,5.005-5.422,0-9.227-4.405-9.227-10.661,0-6.125,3.962-10.687,9.305-10.687a8.229,8.229,0,0,1,7.741,5Z"/>
        <path class="c" d="M201.094,54.868a5.053,5.053,0,0,1-4.04,1.9c-4.119,0-7.455-3.884-7.455-8.628s3.441-8.6,7.663-8.6a4.59,4.59,0,0,1,3.832,1.9l.521-1.511H205V56.354h-3.389Zm-7.585-6.725c0,2.763,1.694,4.979,3.805,4.979,2.19,0,3.78-2.06,3.78-4.953,0-2.919-1.59-4.978-3.806-4.978C195.177,43.191,193.509,45.38,193.509,48.143Z"/>
        <path class="c" d="M211.252,41.444a4.623,4.623,0,0,1,3.832-1.9c4.222,0,7.663,3.883,7.663,8.627,0,4.77-3.337,8.6-7.507,8.6a5.551,5.551,0,0,1-3.988-1.694V60.5h-3.91V39.933h3.389Zm0,6.7c0,2.919,1.564,4.979,3.78,4.979,2.111,0,3.8-2.216,3.8-4.953,0-2.789-1.668-4.978-3.8-4.978C212.842,43.191,211.252,45.276,211.252,48.143Z"/>
        <path class="c" d="M224.306,38.4v-3.91h3.91V38.4Zm0,17.959V39.933h3.91V56.354Z"/>
        <path class="c" d="M236.5,36.335v3.6h4.405v3.648H236.5v8.341a1.1,1.1,0,0,0,1.173,1.2c.756,0,1.277-.444,1.8-1.46l3.128,1.8c-1.459,2.424-2.867,3.311-5.369,3.311a4.388,4.388,0,0,1-4.405-2.763,10.181,10.181,0,0,1-.235-2.294V43.581h-2.815V39.933h2.815v-3.6Z"/>
        <path class="c" d="M254.289,54.868a5.052,5.052,0,0,1-4.04,1.9c-4.118,0-7.455-3.884-7.455-8.628s3.441-8.6,7.664-8.6a4.587,4.587,0,0,1,3.831,1.9l.522-1.511H258.2V56.354h-3.388ZM246.7,48.143c0,2.763,1.694,4.979,3.806,4.979,2.189,0,3.779-2.06,3.779-4.953,0-2.919-1.59-4.978-3.8-4.978C248.373,43.191,246.7,45.38,246.7,48.143Z"/>
        <path class="c" d="M260.538,56.354V34.485h4.223V56.354Z"/>
      </g>
      <g>
        <polygon class="c" points="145.001 59.593 81.298 59.593 86.372 64.667 145.001 59.593"/>
        <path class="c" d="M87.2,39.068v.767a6.439,6.439,0,0,0-3.7-1.191c-4.463,0-7.853,4.069-7.853,9.067s3.39,9.067,7.853,9.067a6.424,6.424,0,0,0,3.7-1.191v.767h3.923V39.068ZM83.5,52.616c-2.2,0-3.812-2.167-3.812-4.905s1.611-4.9,3.812-4.9,3.756,2.167,3.756,4.9S85.706,52.616,83.5,52.616Z"/>
        <path class="c" d="M118.625,39.068V49.222a3.227,3.227,0,1,1-6.428,0V39.068h-3.923V49.222c0,4.167,2.85,7.556,7.017,7.556a6.02,6.02,0,0,0,3.334-1.067v.643h3.923V39.068Z"/>
        <path class="c" d="M155.18,56.354V46.2a3.227,3.227,0,1,1,6.429,0V56.354h3.923V46.2c0-4.166-2.85-7.555-7.017-7.555a6.022,6.022,0,0,0-3.335,1.067v-.643h-3.923V56.354Z"/>
        <path class="c" d="M64.342,56.354v-6.7h2.9l5.025,6.7h5.136l-6.071-8.081A7.443,7.443,0,0,0,67.02,34.761H60.239V56.354Zm0-17.494H67.02a3.347,3.347,0,1,1,0,6.694H64.342Z"/>
        <path class="c" d="M133.122,52.263a2.325,2.325,0,0,1-1.312.426,1.934,1.934,0,0,1-1.849-2.121v-7.4h3.355v-4.1h-3.355V34.76h-3.923v4.308h-2.076v4.1h2.076v7.457a5.9,5.9,0,0,0,5.832,6.165,8.085,8.085,0,0,0,3.838-1.088Z"/>
        <polygon class="c" points="100.875 47.171 107.605 39.068 102.105 39.068 97.399 45.09 97.399 33.333 93.359 33.333 93.359 56.354 97.399 56.354 97.399 49.253 103.185 56.354 108.682 56.354 100.875 47.171"/>
        <path class="c" d="M142.184,38.63c-4.541,0-7.8,3.99-7.8,9.081,0,5.353,4.088,9.083,8.187,9.083a8.186,8.186,0,0,0,6.948-3.87l-3.465-2c-2.68,3.95-7.146,1.945-7.661-2.005l11.3,0C150.662,42.713,146.648,38.63,142.184,38.63Zm3.424,6.85h-7.065C139.368,41.431,144.844,41.2,145.608,45.48Z"/>
      </g>
    </g>
  </g>
</svg>
