<?xml version="1.0" encoding="utf-8"?>
<!-- Generator: Adobe Illustrator 28.0.0, SVG Export Plug-In . SVG Version: 6.00 Build 0)  -->
<svg version="1.1" id="_イヤー_1" xmlns="http://www.w3.org/2000/svg" xmlns:xlink="http://www.w3.org/1999/xlink" x="0px"
	 y="0px" viewBox="0 0 325 98" style="enable-background:new 0 0 325 98;" xml:space="preserve">
<style type="text/css">
	.st0{fill:#BF0000;}
</style>
<g id="Layer_2">
	<g id="Layer_1-2">
		<path class="st0" d="M126.8,55.3v1.2h6.3V28.9h-6.3v1.2c-1.9-1.2-3.6-1.9-5.9-1.9c-7.1,0-12.6,6.5-12.6,14.5s5.4,14.5,12.6,14.5
			C123.2,57.2,124.9,56.5,126.8,55.3 M114.8,42.7c0-4.4,2.6-7.8,6.1-7.8c3.5,0,6,3.5,6,7.8s-2.5,7.8-6,7.8
			C117.4,50.6,114.8,47.1,114.8,42.7"/>
		<path class="st0" d="M228.9,55.3v1.2h6.3V28.9h-6.3v1.2c-1.9-1.2-3.6-1.9-5.9-1.9c-7.1,0-12.6,6.5-12.6,14.5s5.4,14.5,12.6,14.5
			C225.4,57.2,227,56.5,228.9,55.3 M216.9,42.7c0-4.4,2.6-7.8,6.1-7.8c3.5,0,6,3.5,6,7.8s-2.5,7.8-6,7.8
			C219.5,50.6,216.9,47.1,216.9,42.7"/>
		<path class="st0" d="M156.2,47.4c0,6.2,4.6,9.9,9.3,9.9c2.2-0.1,4.3-0.7,6.1-1.7l-4.1-5.5c-0.6,0.4-1.3,0.7-2.1,0.7
			c-1,0-3-0.8-3-3.4V35.4h5.4v-6.6h-5.4V22h-6.3v6.9h-3.3v6.6h3.3L156.2,47.4z"/>
		<path class="st0" d="M182,28.2c-7.3,0-12.5,6.4-12.5,14.5c0,8.6,6.5,14.5,13.1,14.5c3.3,0,7.5-1.1,11.1-6.2l-5.5-3.2
			c-4.3,6.3-11.4,3.1-12.3-3.2H194C195.6,34.7,189.2,28.2,182,28.2 M176.2,39.1c1.3-6.5,10.1-6.8,11.3,0H176.2z"/>
		<path class="st0" d="M101.7,33c-1.6-3.6-4.3-5.6-7.5-5.6c-4.8,0-8.6,5.2-8.6,11.9S89.4,51,94.2,51c3.2,0,5.9-2,7.7-5.7l5.5,3.4
			c-2.9,5.7-7.1,8.5-13.2,8.5c-9.1,0-15.6-7.4-15.6-18c0-10.3,6.7-18,15.7-18c5.8,0,10.3,2.9,13.1,8.4L101.7,33z"/>
		<path class="st0" d="M142.9,31.7v-2.8h-6.3v27.7h6.6V42.5c0-1.4,0.4-2.8,1.1-4c1.3-1.9,3.1-2.8,6.2-3v-6.6
			C147.5,28.9,144.7,29.9,142.9,31.7"/>
		<path class="st0" d="M202.8,31.7v-2.8h-6.3v27.7h6.6V42.5c0-1.4,0.4-2.8,1.1-4c1.3-1.9,3.1-2.8,6.2-3v-6.6
			C207.3,28.9,204.6,29.9,202.8,31.7"/>
		<polygon class="st0" points="134.3,76.8 161.7,74.4 131.9,74.4 		"/>
		<path class="st0" d="M134.7,72.6v0.3h1.8v-8.1h-1.8v0.4c-0.5-0.4-1.1-0.6-1.7-0.6c-2.1,0-3.7,1.9-3.7,4.2c0,2.3,1.6,4.2,3.7,4.2
			C133.6,73.1,134.2,72.9,134.7,72.6 M131.2,68.9c0-1.3,0.8-2.3,1.8-2.3s1.8,1,1.8,2.3s-0.7,2.3-1.8,2.3S131.2,70.2,131.2,68.9"/>
		<path class="st0" d="M147.8,73.1c0.6,0,1.1-0.2,1.6-0.5v0.3h1.8v-8.1h-1.8v4.7c0.1,0.8-0.5,1.6-1.4,1.6c-0.8,0.1-1.6-0.5-1.6-1.4
			c0-0.1,0-0.2,0-0.3v-4.7h-1.8v4.7C144.5,71.5,145.9,73.1,147.8,73.1"/>
		<path class="st0" d="M168,64.6c-0.6,0-1.1,0.2-1.6,0.5v-0.3h-1.8v8.1h1.8v-4.7c-0.1-0.8,0.5-1.6,1.3-1.7c0.8-0.1,1.6,0.5,1.7,1.3
			c0,0.1,0,0.2,0,0.3v4.7h1.8v-4.7C171.3,66.2,170,64.6,168,64.6"/>
		<path class="st0" d="M128.7,66.3c0-1.9-1.6-3.5-3.5-3.5h-3.2v10.1h1.9v-3.1h1.4l2.4,3.1h2.4l-2.8-3.8
			C128.2,68.5,128.7,67.4,128.7,66.3 M125.3,67.9H124v-3.1h1.3c0.9,0,1.6,0.7,1.6,1.6C126.8,67.2,126.1,67.9,125.3,67.9"/>
		<path class="st0" d="M152.8,70.2c-0.1,1.5,1.1,2.8,2.6,2.9c0,0,0.1,0,0.1,0c0.6,0,1.2-0.2,1.8-0.5l-1.2-1.6
			c-0.2,0.1-0.4,0.2-0.6,0.2c-0.5,0-0.9-0.4-0.9-0.9c0,0,0,0,0,0v-3.5h1.6v-1.9h-1.6v-2h-1.8v2h-1v1.9h1V70.2z"/>
		<polygon class="st0" points="139.5,69.6 142.2,72.9 144.7,72.9 141.1,68.6 144.2,64.8 141.7,64.8 139.5,67.7 139.5,62.2 
			137.6,62.2 137.6,72.9 139.5,72.9 		"/>
		<path class="st0" d="M160.4,64.6c-2.1,0-3.6,1.9-3.6,4.2c0,2.5,1.9,4.2,3.8,4.2c1,0,2.2-0.3,3.2-1.8l-1.6-0.9
			c-1.2,1.8-3.3,0.9-3.6-0.9h5.3C164.4,66.5,162.5,64.6,160.4,64.6 M158.7,67.8c0.4-1.9,2.9-2,3.3,0H158.7z"/>
		<path class="st0" d="M114.8,70.9h-3.7l-0.6,2h-2.1l3.3-10.1h2.5l3.3,10.1h-2.1L114.8,70.9z M114.2,69.1l-1.3-4.4l-1.3,4.4
			L114.2,69.1z"/>
		<path class="st0" d="M218.1,72.6v0.3h1.8v-8.1h-1.8v0.4c-0.5-0.4-1.1-0.6-1.7-0.6c-2.1,0-3.7,1.9-3.7,4.2c0,2.3,1.6,4.2,3.7,4.2
			C217,73.1,217.6,72.9,218.1,72.6 M214.6,68.9c0-1.3,0.8-2.3,1.8-2.3s1.8,1,1.8,2.3s-0.7,2.3-1.8,2.3S214.6,70.2,214.6,68.9"/>
		<path class="st0" d="M224.4,64.6c-0.6,0-1.1,0.2-1.6,0.5v-0.3H221v8.1h1.8v-4.7c-0.1-0.8,0.5-1.6,1.4-1.6c0.8-0.1,1.6,0.5,1.6,1.4
			c0,0.1,0,0.2,0,0.3v4.7h1.8v-4.7C227.7,66.2,226.3,64.6,224.4,64.6"/>
		<path class="st0" d="M192,68.9c0,2.5-1.5,4.2-3.6,4.2c-2.1,0-3.6-1.8-3.6-4.2c0-2.5,1.5-4.2,3.6-4.2C190.5,64.7,192,66.5,192,68.9
			 M186.6,68.9c0,1.3,0.8,2.3,1.8,2.3s1.8-1,1.8-2.3c0-1.3-0.8-2.3-1.8-2.3C187.3,66.6,186.6,67.6,186.6,68.9"/>
		<path class="st0" d="M233.3,64.9l-1.7,5.1l-1.6-5.1h-1.9l2.7,7.8l-0.1,0.2c0,0.3-0.3,0.5-0.5,0.5c-0.2,0-0.4-0.1-0.6-0.3l-1,1.3
			c0.4,0.5,1,0.8,1.7,0.8c1,0,1.9-0.7,2.1-1.7l2.7-8.5H233.3z"/>
		<path class="st0" d="M182.8,66.1c-0.5-1-1.3-1.6-2.2-1.6c-1.4,0-2.5,1.5-2.5,3.5s1.1,3.5,2.5,3.5c0.9,0,1.7-0.6,2.2-1.7l1.6,1
			c-0.8,1.7-2.1,2.5-3.9,2.5c-2.7,0-4.5-2.2-4.5-5.3c0-3,2-5.3,4.6-5.3c1.7,0,3,0.8,3.8,2.5L182.8,66.1z"/>
		<path class="st0" d="M200.7,64.7c-0.9,0-1.7,0.4-2.2,1.2c-0.3-0.7-1.1-1.2-1.9-1.2c-0.7,0-1.4,0.3-1.8,0.9v-0.7h-1.9v8.1h1.9v-4.7
			c0-0.9,0.6-1.6,1.3-1.6c0.7,0,1.1,0.6,1.1,1.6v4.7h1.9v-4.7c0-1,0.5-1.6,1.2-1.6c0.7,0,1.1,0.6,1.1,1.6v4.7h1.9v-4.7
			C203.3,66,202.4,64.7,200.7,64.7"/>
		<path class="st0" d="M208.2,64.7c-0.7,0-1.4,0.3-1.9,0.9v-0.7h-1.9V75h1.9v-2.7c0.5,0.5,1.2,0.8,2,0.8c2.1,0,3.7-1.9,3.7-4.2
			C212,66.6,210.3,64.7,208.2,64.7 M208.2,71.3c-1.1,0-1.9-1-1.9-2.5s0.8-2.4,1.9-2.4c1.1,0,1.9,1.1,1.9,2.5S209.2,71.3,208.2,71.3"
			/>
		<path class="st0" d="M240.3,29.8v3.8h-1v-3.8h-1.2v-0.9h3.5v0.9H240.3z M246.5,28.9v4.7h-1v-3.1l-1.1,1.6l-1.1-1.6v3.1h-1v-4.7
			h1.1l1.1,1.6l1.1-1.6H246.5z"/>
	</g>
</g>
</svg>
