<?xml version="1.0" encoding="utf-8"?>
<!-- Generator: Adobe Illustrator 22.1.0, SVG Export Plug-In . SVG Version: 6.00 Build 0)  -->
<svg version="1.1" id="Logos" xmlns="http://www.w3.org/2000/svg" xmlns:xlink="http://www.w3.org/1999/xlink" x="0px" y="0px"
	 viewBox="0 0 358.1 78.4" style="enable-background:new 0 0 358.1 78.4;" xml:space="preserve">
<style type="text/css">
	.st0{fill:#BF0000;}
</style>
<path class="st0" d="M3.1,72.6H0V45.7h3.1V72.6z"/>
<path class="st0" d="M9.6,52.8c1.3-1.3,3.7-2.2,5.9-2.2c4.6,0,7.8,3.5,7.8,8.7v13.4h-3.1V59.2c0-3.5-2-5.7-5.1-5.7
	c-2.9,0-5.5,2.7-5.5,5.6v13.6H6.4V51.1h2.7L9.6,52.8z"/>
<path class="st0" d="M37.2,55.5c-1.1-1.3-2.7-2.1-4.3-2.1c-2.1,0-3.6,1.2-3.6,3c0,1.1,0.4,1.9,1.2,2.5c0.4,0.3,0.4,0.3,4,1.8
	c4.2,1.8,5.8,3.7,5.8,6.5c0,3.6-2.9,5.9-7.4,5.9c-3.3,0-5.8-1.2-7.6-3.5l2.2-2c1.7,1.8,3.3,2.6,5.5,2.6c2.5,0,4.1-1.1,4.1-3
	c0-1-0.6-2.1-1.8-3c-0.8-0.6-1.7-1.1-4.5-2.2c-3.4-1.4-4.8-3.1-4.8-5.9c0-3.5,2.7-5.7,6.8-5.7c2.7,0,4.7,0.8,6.6,2.7L37.2,55.5z"/>
<path class="st0" d="M48.2,46.3v4.7h5.4v2.9h-5.4v14.3c0,1.3,0.8,2.1,2.2,2.1c1.2,0,1.9-0.4,2.6-1.6l2.3,1.6
	c-1.5,2.2-2.9,2.9-5.2,2.9c-2.4,0-3.9-0.9-4.6-2.9c-0.3-0.7-0.4-1.5-0.4-2.7V53.9h-3.7v-2.9h3.7v-4.7H48.2z"/>
<path class="st0" d="M57.3,48.4v-3.6h3.6v3.6H57.3z M57.6,72.6V51.1h3.1v21.6H57.6z"/>
<path class="st0" d="M70,46.3v4.7h5.4v2.9H70v14.3c0,1.3,0.8,2.1,2.2,2.1c1.2,0,1.9-0.4,2.6-1.6l2.3,1.6c-1.5,2.2-2.9,2.9-5.2,2.9
	c-2.4,0-3.9-0.9-4.6-2.9c-0.3-0.7-0.4-1.5-0.4-2.7V53.9h-3.7v-2.9h3.7v-4.7H70z"/>
<path class="st0" d="M92.1,70.5c-1.5,1.7-3.6,2.7-5.9,2.7c-4.6,0-7.7-3.5-7.7-8.7V51.1h3.1v13.4c0,3.5,2,5.7,5.1,5.7
	c2.9,0,5.5-2.7,5.5-5.6V51.1h3.1v21.6h-2.7L92.1,70.5z"/>
<path class="st0" d="M104.4,46.3v4.7h5.4v2.9h-5.4v14.3c0,1.3,0.8,2.1,2.2,2.1c1.2,0,1.9-0.4,2.6-1.6l2.3,1.6
	c-1.5,2.2-2.9,2.9-5.2,2.9c-2.4,0-3.9-0.9-4.6-2.9c-0.3-0.7-0.4-1.5-0.4-2.7V53.9h-3.7v-2.9h3.7v-4.7H104.4z"/>
<path class="st0" d="M130.4,68.7c-1.8,2.9-4.9,4.5-8.7,4.5c-5.9,0-10-4.7-10-11.4c0-6.6,3.9-11.3,9.5-11.3c5.2,0,9.3,4.6,9.3,10.4
	c0,0.6,0,1-0.1,1.7H115c0.2,2.5,0.8,4.2,2.2,5.6c1.2,1.3,2.8,2.1,4.5,2.1c2.7,0,5-1.3,6.1-3.6L130.4,68.7z M127.1,59.9
	c-0.3-4-2.6-6.6-5.8-6.6c-2.1,0-4,1.1-5.2,3c-0.6,1.1-0.9,2-1.1,3.6H127.1z"/>
<path class="st0" d="M157.2,61.8c0,6.7-3.9,11.3-9.6,11.3c-5.7,0-9.6-4.6-9.6-11.3c0-6.7,3.9-11.3,9.6-11.3
	C153.3,50.5,157.2,55.2,157.2,61.8z M141.3,61.8c0,4.9,2.7,8.5,6.3,8.5c3.6,0,6.3-3.6,6.3-8.4c0-4.9-2.6-8.5-6.3-8.5
	C144,53.4,141.3,57,141.3,61.8z"/>
<path class="st0" d="M161.1,49.2c0-3.8,1.9-5.7,5.7-5.7h1.7v2.9h-1.8c-1.7,0-2.5,0.8-2.5,2.5v2.2h4.6v2.9h-4.6v18.7h-3.1V53.9h-3.1
	v-2.9h3.1V49.2z"/>
<path class="st0" d="M187.5,48.4v24.2h-3.1V48.4h-7.7v-2.7h18.5v2.7H187.5z"/>
<path class="st0" d="M212.2,68.7c-1.8,2.9-4.9,4.5-8.7,4.5c-5.9,0-10-4.7-10-11.4c0-6.6,3.9-11.3,9.5-11.3c5.2,0,9.3,4.6,9.3,10.4
	c0,0.6,0,1-0.1,1.7h-15.5c0.2,2.5,0.8,4.2,2.2,5.6c1.2,1.3,2.8,2.1,4.5,2.1c2.7,0,5-1.3,6.1-3.6L212.2,68.7z M209,59.9
	c-0.3-4-2.6-6.6-5.8-6.6c-2.1,0-4,1.1-5.2,3c-0.6,1.1-0.9,2-1.1,3.6H209z"/>
<path class="st0" d="M228.9,56.2c-1-1.7-2.8-2.7-4.8-2.7c-3.6,0-6.3,3.6-6.3,8.4c0,4.9,2.7,8.5,6.3,8.5c2,0,3.8-1.1,4.9-2.9l2.4,2.2
	c-1.6,2.3-4.3,3.6-7.3,3.6c-5.7,0-9.5-4.6-9.5-11.3c0-6.7,3.9-11.3,9.5-11.3c3.1,0,5.7,1.3,7.3,3.6L228.9,56.2z"/>
<path class="st0" d="M236.9,53.2c1.6-1.7,3.7-2.7,6-2.7c4.6,0,7.7,3.5,7.7,8.7v13.4h-3.1V59.2c0-3.5-2-5.7-5.1-5.7
	c-2.9,0-5.5,2.7-5.5,5.6v13.6h-3.1V43.9h3.1V53.2z"/>
<path class="st0" d="M257.2,52.8c1.3-1.3,3.7-2.2,5.9-2.2c4.6,0,7.8,3.5,7.8,8.7v13.4h-3.1V59.2c0-3.5-2-5.7-5.1-5.7
	c-2.9,0-5.5,2.7-5.5,5.6v13.6H254V51.1h2.7L257.2,52.8z"/>
<path class="st0" d="M292.2,61.8c0,6.7-3.9,11.3-9.6,11.3s-9.6-4.6-9.6-11.3c0-6.7,3.9-11.3,9.6-11.3
	C288.3,50.5,292.2,55.2,292.2,61.8z M276.3,61.8c0,4.9,2.7,8.5,6.3,8.5c3.6,0,6.3-3.6,6.3-8.4c0-4.9-2.6-8.5-6.3-8.5
	C279,53.4,276.3,57,276.3,61.8z"/>
<path class="st0" d="M294.5,72.6V43.9h3.1v28.7H294.5z"/>
<path class="st0" d="M319,61.8c0,6.7-3.9,11.3-9.6,11.3c-5.7,0-9.6-4.6-9.6-11.3c0-6.7,3.9-11.3,9.6-11.3
	C315.1,50.5,319,55.2,319,61.8z M303.2,61.8c0,4.9,2.7,8.5,6.3,8.5c3.6,0,6.3-3.6,6.3-8.4c0-4.9-2.6-8.5-6.3-8.5
	C305.8,53.4,303.2,57,303.2,61.8z"/>
<path class="st0" d="M338.3,68.2c0,6.6-3.1,10.2-8.8,10.2c-3.1,0-5.7-1.2-7.7-3.6l2.1-2c1.4,1.7,3.5,2.8,5.4,2.8
	c4,0,5.7-2.6,5.8-8.9c-1.2,1.9-3.3,2.9-6.1,2.9c-4.8,0-8.2-3.8-8.2-9.2c0-5.7,3.5-9.9,8.4-9.9c2.4,0,4.3,0.8,5.7,2.3l0.6-1.7h2.7
	V68.2z M324.1,60.3c0,3.9,2.3,6.6,5.5,6.6c3.3,0,5.6-2.7,5.6-6.6c0-4-2.4-7-5.6-7C326.3,53.3,324.1,56.2,324.1,60.3z"/>
<path class="st0" d="M358.1,51.1l-7.7,23.4c-0.8,2.5-2.6,3.9-5,3.9c-1.5,0-2.8-0.5-3.8-1.5l1.4-2.2c0.7,0.6,1.3,0.9,2.2,0.9
	c1.2,0,1.8-0.5,2.4-2.1l0.5-1.3l-7.5-21h3.2l5.7,16.7l5.4-16.7H358.1z"/>
<polygon class="st0" points="111.3,34.5 27.6,34.5 34.3,41.1 "/>
<path class="st0" d="M35.4,7.5v1c-1.6-1-2.9-1.6-4.9-1.6c-5.9,0-10.3,5.3-10.3,11.9c0,6.6,4.5,11.9,10.3,11.9c1.9,0,3.3-0.6,4.9-1.6
	v1h5.1V7.5H35.4z M30.5,25.3c-2.9,0-5-2.8-5-6.4c0-3.6,2.1-6.4,5-6.4c2.9,0,4.9,2.8,4.9,6.4C35.5,22.5,33.4,25.3,30.5,25.3z"/>
<path class="st0" d="M76.6,7.5v13.3c0,2.5-1.7,4.6-4.2,4.6c-2.5,0-4.2-2.1-4.2-4.6V7.5h-5.1v13.3c0,5.5,3.7,9.9,9.2,9.9
	c2.5,0,4.4-1.4,4.4-1.4v0.8h5.2V7.5H76.6z"/>
<path class="st0" d="M124.6,30.2V16.9c0-2.5,1.7-4.6,4.2-4.6c2.5,0,4.2,2.1,4.2,4.6v13.3h5.1V16.9c0-5.5-3.7-9.9-9.2-9.9
	c-2.5,0-4.4,1.4-4.4,1.4V7.5h-5.2v22.7H124.6z"/>
<path class="st0" d="M5.4,30.2v-8.8h3.8l6.6,8.8h6.7l-8-10.6c2.5-1.8,4.1-4.7,4.1-8c0-5.4-4.4-9.8-9.8-9.8H0v28.3H5.4z M5.4,7.3h3.5
	c2.4,0,4.4,2,4.4,4.4c0,2.4-2,4.4-4.4,4.4H5.4V7.3z"/>
<path class="st0" d="M95.7,24.9c-0.5,0.3-1,0.6-1.7,0.6c-0.8,0-2.4-0.6-2.4-2.8v-9.7h4.4V7.5h-4.4l0-5.7h-5.2l0,5.7h-2.7v5.4h2.7
	v9.8c0,5.1,3.8,8.1,7.7,8.1c1.4,0,3.4-0.5,5-1.4L95.7,24.9z"/>
<polygon class="st0" points="53.3,18.2 62.2,7.5 55,7.5 48.8,15.4 48.8,0 43.5,0 43.5,30.2 48.8,30.2 48.8,20.9 56.4,30.2 
	63.6,30.2 "/>
<path class="st0" d="M107.6,7c-6,0-10.2,5.2-10.2,11.9c0,7,5.4,11.9,10.7,11.9c2.7,0,6.2-0.9,9.1-5.1l-4.5-2.6
	c-3.5,5.2-9.4,2.6-10.1-2.6l14.8,0C118.7,12.3,113.4,7,107.6,7z M112.1,15.9h-9.3C103.9,10.6,111.1,10.3,112.1,15.9z"/>
</svg>
