<svg width="200" height="50" viewBox="0 0 200 50" fill="none" xmlns="http://www.w3.org/2000/svg">
<rect x="0.25" y="0.25" width="199.5" height="49.5" rx="24.75" fill="black" fill-opacity="0.8" stroke="white" stroke-width="0.5"/>
<path fill-rule="evenodd" clip-rule="evenodd" d="M44 25C44 34.9411 35.9411 43 26 43C16.0589 43 8 34.9411 8 25C8 15.0589 16.0589 7 26 7C35.9411 7 44 15.0589 44 25ZM21.8293 32.3846L34.3415 24.7805L21.8293 17.1764L21.8293 32.3846Z" fill="white"/>
<path d="M85.465 30H87.241V26.844H88.429C90.337 26.844 91.861 25.932 91.861 23.904C91.861 21.804 90.349 21.108 88.381 21.108H85.465V30ZM87.241 25.44V22.524H88.249C89.473 22.524 90.121 22.872 90.121 23.904C90.121 24.924 89.533 25.44 88.309 25.44H87.241ZM94.981 30.168C95.401 30.168 95.689 30.096 95.893 30.012L95.677 28.704C95.557 28.728 95.509 28.728 95.437 28.728C95.269 28.728 95.089 28.596 95.089 28.188V20.424H93.325V28.116C93.325 29.364 93.757 30.168 94.981 30.168ZM98.7661 30.168C99.5341 30.168 100.206 29.784 100.794 29.28H100.842L100.962 30H102.402V26.076C102.402 24.132 101.526 23.112 99.8221 23.112C98.7661 23.112 97.8061 23.508 97.0141 24L97.6501 25.164C98.2741 24.804 98.8741 24.528 99.4981 24.528C100.326 24.528 100.614 25.032 100.65 25.692C97.9381 25.98 96.7741 26.736 96.7741 28.176C96.7741 29.316 97.5661 30.168 98.7661 30.168ZM99.3421 28.788C98.8261 28.788 98.4541 28.56 98.4541 28.032C98.4541 27.432 99.0061 26.976 100.65 26.772V28.128C100.218 28.548 99.8461 28.788 99.3421 28.788ZM104.788 32.7C106.288 32.7 107.008 31.788 107.596 30.204L109.984 23.28H108.292L107.368 26.4C107.212 27.024 107.044 27.672 106.888 28.296H106.828C106.636 27.648 106.468 27 106.264 26.4L105.196 23.28H103.42L106.036 29.88L105.916 30.276C105.724 30.864 105.34 31.296 104.656 31.296C104.5 31.296 104.308 31.248 104.188 31.212L103.864 32.568C104.128 32.652 104.392 32.7 104.788 32.7ZM115.321 30H117.361L119.605 23.28H117.913L116.929 26.628C116.749 27.288 116.569 27.984 116.389 28.668H116.329C116.149 27.984 115.969 27.288 115.789 26.628L114.805 23.28H113.029L115.321 30ZM120.723 30H122.487V23.28H120.723V30ZM121.611 22.2C122.211 22.2 122.631 21.816 122.631 21.228C122.631 20.652 122.211 20.268 121.611 20.268C120.999 20.268 120.579 20.652 120.579 21.228C120.579 21.816 120.999 22.2 121.611 22.2ZM126.732 30.168C127.428 30.168 128.1 29.784 128.592 29.304H128.64L128.772 30H130.2V20.424H128.448V22.788L128.508 23.844C128.028 23.4 127.56 23.112 126.804 23.112C125.352 23.112 123.984 24.456 123.984 26.64C123.984 28.848 125.064 30.168 126.732 30.168ZM127.188 28.716C126.3 28.716 125.796 28.02 125.796 26.628C125.796 25.284 126.432 24.564 127.188 24.564C127.608 24.564 128.04 24.696 128.448 25.068V28.02C128.052 28.524 127.656 28.716 127.188 28.716ZM135.019 30.168C135.847 30.168 136.699 29.88 137.359 29.424L136.759 28.344C136.279 28.644 135.799 28.812 135.247 28.812C134.251 28.812 133.531 28.236 133.387 27.132H137.527C137.575 26.976 137.611 26.652 137.611 26.316C137.611 24.468 136.651 23.112 134.803 23.112C133.207 23.112 131.671 24.468 131.671 26.64C131.671 28.86 133.135 30.168 135.019 30.168ZM133.363 25.956C133.495 24.984 134.119 24.48 134.827 24.48C135.691 24.48 136.099 25.056 136.099 25.956H133.363ZM141.871 30.168C143.551 30.168 145.099 28.872 145.099 26.64C145.099 24.408 143.551 23.112 141.871 23.112C140.191 23.112 138.643 24.408 138.643 26.64C138.643 28.872 140.191 30.168 141.871 30.168ZM141.871 28.728C140.959 28.728 140.443 27.912 140.443 26.64C140.443 25.38 140.959 24.552 141.871 24.552C142.783 24.552 143.299 25.38 143.299 26.64C143.299 27.912 142.783 28.728 141.871 28.728Z" fill="white"/>
</svg>
