<svg  xmlns="http://www.w3.org/2000/svg" xmlns:xlink="http://www.w3.org/1999/xlink" width="207px" height="110px">
<path fill-rule="evenodd"  fill="rgb(125, 0, 190)"
 d="M199.223,45.116 L199.223,25.266 C199.223,21.541 196.665,18.398 192.942,18.398 C189.215,18.398 186.656,21.541 186.656,25.266 L186.656,45.116 L178.989,45.116 L178.989,11.324 L186.656,11.324 L186.656,12.581 C186.656,12.581 189.404,10.495 193.176,10.495 C201.322,10.495 206.894,17.120 206.894,25.266 L206.894,45.116 L199.223,45.116 ZM153.842,30.582 C154.851,38.304 163.581,42.223 168.821,34.500 L175.595,38.412 C171.240,44.589 166.056,45.977 162.013,45.977 C153.999,45.977 146.006,38.686 146.006,28.221 C146.006,18.268 152.374,10.466 161.251,10.466 C169.975,10.466 177.825,18.449 175.933,30.587 L153.842,30.582 ZM154.133,23.859 L167.947,23.859 C166.450,15.489 155.747,15.946 154.133,23.859 ZM137.355,33.806 C137.355,36.994 139.718,37.952 140.972,37.952 C141.978,37.952 142.846,37.587 143.535,37.121 L148.589,43.849 C146.178,45.278 143.220,45.975 141.088,45.975 C135.369,45.975 129.684,41.468 129.687,33.924 L129.687,19.345 L125.628,19.345 L125.628,11.324 L129.687,11.324 L129.685,2.903 L137.355,2.903 L137.355,11.324 L143.914,11.324 L143.914,19.345 L137.355,19.345 L137.355,33.806 ZM115.197,43.860 C115.197,43.860 112.449,45.947 108.677,45.947 C100.530,45.947 94.960,39.320 94.960,31.175 L94.960,11.324 L102.629,11.324 L102.629,31.175 C102.629,34.899 105.188,38.043 108.911,38.043 C112.637,38.043 115.197,34.899 115.197,31.175 L115.197,11.324 L122.865,11.324 L122.865,45.116 L115.197,45.116 L115.197,43.860 ZM95.758,45.116 L85.012,45.116 L73.700,31.235 L73.700,45.116 L65.804,45.116 L65.804,0.112 L73.700,0.112 L73.700,23.097 L82.902,11.324 L93.652,11.324 L80.497,27.164 L95.758,45.116 ZM53.762,43.617 C51.449,45.093 49.375,45.946 46.535,45.946 C37.811,45.946 31.183,37.996 31.183,28.222 C31.183,18.450 37.811,10.496 46.535,10.496 C49.375,10.496 51.449,11.351 53.762,12.825 L53.762,11.324 L61.429,11.324 L61.429,45.117 L53.762,45.117 L53.762,43.617 ZM46.535,18.636 C42.232,18.636 39.083,22.875 39.083,28.222 C39.083,33.573 42.232,37.809 46.535,37.809 C50.843,37.809 53.878,33.573 53.878,28.222 C53.878,22.875 50.843,18.636 46.535,18.636 ZM34.614,45.116 L24.573,45.116 L14.752,32.024 L9.078,32.024 L9.078,45.116 L1.058,45.116 L1.058,2.904 L14.313,2.904 C22.344,2.904 28.874,9.427 28.874,17.458 C28.874,22.348 26.445,26.665 22.746,29.319 L34.614,45.116 ZM14.313,10.919 L9.078,10.919 L9.078,24.004 L14.313,24.004 C17.915,24.004 20.861,21.076 20.861,17.458 C20.861,13.849 17.915,10.919 14.313,10.919 ZM3.658,83.564 L18.264,83.564 L18.264,79.109 C15.004,79.659 10.364,80.487 7.930,80.487 C5.036,80.487 4.300,78.099 4.300,76.673 C4.300,73.965 6.323,73.734 8.436,73.506 C15.509,72.725 20.837,71.852 25.842,70.289 C29.884,69.003 30.344,68.866 31.033,68.866 C33.330,68.866 34.478,71.162 34.478,72.725 C34.478,74.423 33.191,75.159 31.033,75.893 C29.610,76.398 27.358,77.043 25.567,77.502 L25.567,83.564 L37.510,83.564 C38.290,83.564 40.954,83.564 40.954,87.146 C40.954,90.178 39.026,90.637 37.510,90.637 L25.382,90.637 C24.970,94.954 24.006,99.179 20.238,103.499 C18.586,105.381 14.405,109.286 11.603,109.286 C9.216,109.286 7.655,107.080 7.655,105.335 C7.655,103.773 8.480,103.176 10.318,101.983 C13.440,99.915 17.162,96.930 18.033,90.637 L3.658,90.637 C2.050,90.637 0.214,90.086 0.214,87.146 C0.214,83.564 2.922,83.564 3.658,83.564 ZM52.145,61.369 L42.224,51.448 L166.759,51.448 L52.145,61.369 ZM53.860,71.163 C54.319,70.061 54.871,68.589 57.030,68.589 C57.627,68.589 61.118,68.865 61.118,71.714 C61.118,73.091 59.831,75.894 59.190,77.362 L80.316,77.362 C83.348,77.362 83.900,79.431 83.900,80.900 C83.900,82.370 83.302,84.436 80.316,84.436 L72.002,84.436 C71.821,93.945 69.247,99.179 66.261,102.947 C64.379,105.381 59.970,109.699 57.215,109.699 C55.146,109.699 53.264,107.861 53.264,105.704 C53.264,104.463 53.769,103.866 55.699,102.396 C61.532,97.987 64.240,92.936 64.425,84.436 L55.514,84.436 C52.667,89.120 50.325,92.979 47.751,92.979 C45.776,92.979 43.848,91.372 43.848,89.349 C43.848,88.249 44.215,87.745 45.776,85.676 C49.496,80.808 51.748,76.537 53.860,71.163 ZM90.551,79.935 C92.114,79.935 92.619,80.808 93.813,82.829 C96.202,86.825 96.616,87.928 96.616,88.800 C96.616,90.636 94.687,91.786 93.079,91.786 C91.609,91.786 91.332,91.326 89.727,88.249 C89.403,87.606 87.980,85.310 87.429,84.299 C87.153,83.748 87.015,83.197 87.015,82.875 C87.015,80.762 89.542,79.935 90.551,79.935 ZM98.865,86.136 C98.315,84.988 97.626,83.655 96.845,82.324 C96.616,81.912 96.294,81.221 96.294,80.623 C96.294,78.786 98.222,77.730 99.784,77.730 C101.300,77.730 101.944,78.557 103.368,81.176 C104.194,82.644 105.664,85.491 105.664,86.733 C105.664,88.846 103.550,89.765 102.219,89.765 C100.611,89.765 100.243,89.076 98.865,86.136 ZM96.569,102.718 C100.933,100.789 109.108,96.562 111.497,83.197 C112.048,80.120 112.506,78.786 114.850,78.786 C116.642,78.786 118.432,79.751 118.432,81.727 C118.432,83.840 116.549,93.254 111.404,99.779 C105.709,106.943 97.717,109.608 96.111,109.608 C94.456,109.608 92.987,107.861 92.987,106.024 C92.987,104.371 93.630,104.048 96.569,102.718 ZM127.577,68.270 C131.298,68.270 131.344,70.840 131.344,71.990 L131.344,80.945 C136.948,83.426 142.506,85.998 147.603,89.397 C149.258,90.498 150.269,91.463 150.269,92.935 C150.269,94.956 148.707,97.113 146.594,97.113 C145.400,97.113 144.572,96.608 142.093,94.956 C138.923,92.888 134.375,90.454 131.344,89.121 L131.344,106.254 C131.344,107.309 131.298,109.974 127.577,109.974 C123.950,109.974 123.767,107.677 123.767,106.254 L123.767,71.990 C123.767,70.886 123.767,68.270 127.577,68.270 Z"/>
</svg>