<svg  xmlns="http://www.w3.org/2000/svg" xmlns:xlink="http://www.w3.org/1999/xlink" width="208px" height="110px">
<path fill-rule="evenodd"  fill="rgb(191, 0, 0)"
 d="M199.393,45.970 L199.393,26.119 C199.393,22.395 196.834,19.251 193.111,19.251 C189.385,19.251 186.825,22.395 186.825,26.119 L186.825,45.970 L179.157,45.970 L179.157,12.179 L186.825,12.179 L186.825,13.434 C186.825,13.434 189.572,11.348 193.345,11.348 C201.492,11.348 207.063,17.975 207.063,26.119 L207.063,45.970 L199.393,45.970 ZM154.012,31.435 C155.020,39.156 163.751,43.077 168.990,35.354 L175.764,39.265 C171.410,45.443 166.226,46.830 162.182,46.830 C154.169,46.830 146.176,39.539 146.176,29.074 C146.176,19.121 152.544,11.321 161.420,11.321 C170.145,11.321 177.994,19.303 176.103,31.439 L154.012,31.435 ZM154.303,24.713 L168.115,24.713 C166.620,16.343 155.917,16.798 154.303,24.713 ZM137.525,34.659 C137.525,37.848 139.888,38.805 141.140,38.805 C142.147,38.805 143.016,38.440 143.705,37.974 L148.761,44.702 C146.346,46.132 143.389,46.828 141.258,46.828 C135.538,46.828 129.854,42.321 129.855,34.777 L129.855,20.198 L125.799,20.198 L125.799,12.177 L129.855,12.177 L129.855,3.756 L137.525,3.756 L137.525,12.177 L144.084,12.177 L144.084,20.198 L137.525,20.198 L137.525,34.659 ZM115.365,44.714 C115.365,44.714 112.619,46.800 108.847,46.800 C100.700,46.800 95.129,40.173 95.129,32.029 L95.129,12.179 L102.798,12.179 L102.798,32.029 C102.798,35.752 105.358,38.897 109.081,38.897 C112.808,38.897 115.365,35.752 115.365,32.029 L115.365,12.179 L123.035,12.179 L123.035,45.969 L115.365,45.969 L115.365,44.714 ZM95.927,45.970 L85.181,45.970 L73.870,32.089 L73.870,45.970 L65.973,45.970 L65.973,0.966 L73.870,0.966 L73.870,23.951 L83.071,12.179 L93.821,12.179 L80.666,28.018 L95.927,45.970 ZM53.930,44.470 C51.617,45.946 49.545,46.799 46.705,46.799 C37.980,46.799 31.351,38.849 31.351,29.075 C31.351,19.304 37.980,11.349 46.705,11.349 C49.545,11.349 51.617,12.205 53.930,13.678 L53.930,12.178 L61.599,12.178 L61.599,45.970 L53.930,45.970 L53.930,44.470 ZM46.705,19.490 C42.402,19.490 39.253,23.728 39.253,29.075 C39.253,34.426 42.402,38.663 46.705,38.663 C51.011,38.663 54.048,34.426 54.048,29.075 C54.048,23.728 51.011,19.490 46.705,19.490 ZM34.784,45.969 L24.743,45.969 L14.921,32.878 L9.248,32.878 L9.248,45.969 L1.227,45.969 L1.227,3.758 L14.482,3.758 C22.513,3.758 29.043,10.280 29.043,18.311 C29.043,23.201 26.614,27.519 22.916,30.172 L34.784,45.969 ZM14.482,11.772 L9.248,11.772 L9.248,24.857 L14.482,24.857 C18.084,24.857 21.030,21.929 21.030,18.311 C21.030,14.703 18.084,11.772 14.482,11.772 ZM18.572,67.532 C25.351,67.532 30.546,70.895 33.706,77.316 L27.184,81.137 C25.298,77.011 22.190,74.666 18.470,74.666 C12.865,74.666 8.535,80.730 8.535,88.424 C8.535,96.118 12.916,102.131 18.470,102.131 C22.190,102.131 25.248,99.838 27.337,95.558 L33.706,99.482 C30.395,106.106 25.452,109.266 18.420,109.266 C7.822,109.266 0.380,100.652 0.380,88.424 C0.380,76.449 8.127,67.532 18.572,67.532 ZM50.591,75.583 C53.700,75.583 56.147,76.805 58.084,79.304 L59.102,76.348 L65.726,76.348 L65.726,108.449 L59.102,108.449 L58.084,105.546 C56.045,107.991 53.394,109.266 50.183,109.266 C42.133,109.266 35.611,101.672 35.611,92.398 C35.611,83.125 42.337,75.583 50.591,75.583 ZM50.695,102.131 C54.974,102.131 58.084,98.106 58.084,92.450 C58.084,86.742 54.974,82.717 50.642,82.717 C46.516,82.717 43.255,86.997 43.255,92.398 C43.255,97.799 46.567,102.131 50.695,102.131 ZM77.126,79.303 C79.164,76.909 82.527,75.583 86.451,75.583 L86.451,82.716 C82.833,82.971 80.795,83.991 79.265,86.232 C78.399,87.557 77.940,89.137 77.940,90.869 L77.940,108.448 L70.298,108.448 L70.298,76.347 L76.412,76.347 L77.126,79.303 ZM42.394,52.301 L166.927,52.301 L52.315,62.222 L42.394,52.301 ZM102.575,75.583 C105.683,75.583 108.129,76.805 110.064,79.304 L110.064,65.697 L117.708,65.697 L117.708,108.449 L111.085,108.449 L110.064,105.546 C108.027,107.991 105.377,109.266 102.166,109.266 C94.116,109.266 87.594,101.672 87.594,92.398 C87.594,83.125 94.320,75.583 102.575,75.583 ZM102.677,102.131 C106.957,102.131 110.064,98.106 110.064,92.450 C110.064,86.742 106.957,82.717 102.625,82.717 C98.497,82.717 95.237,86.997 95.237,92.398 C95.237,97.799 98.550,102.131 102.677,102.131 Z"/>
</svg>