<svg  xmlns="http://www.w3.org/2000/svg" xmlns:xlink="http://www.w3.org/1999/xlink" width="208px" height="106px">
<path fill-rule="evenodd"  fill="rgb(0, 185, 0)"
 d="M199.730,44.997 L199.730,25.147 C199.730,21.422 197.172,18.279 193.450,18.279 C189.722,18.279 187.163,21.422 187.163,25.147 L187.163,44.997 L179.496,44.997 L179.496,11.205 L187.163,11.205 L187.163,12.462 C187.163,12.462 189.911,10.376 193.684,10.376 C201.829,10.376 207.402,17.002 207.402,25.147 L207.402,44.997 L199.730,44.997 ZM154.349,30.462 C155.357,38.185 164.088,42.104 169.328,34.381 L176.102,38.293 C171.748,44.470 166.563,45.858 162.520,45.858 C154.506,45.858 146.513,38.567 146.513,28.102 C146.513,18.148 152.882,10.347 161.758,10.347 C170.483,10.347 178.333,18.330 176.441,30.468 L154.349,30.462 ZM154.640,23.740 L168.452,23.740 C166.957,15.371 156.254,15.825 154.640,23.740 ZM137.862,33.685 C137.862,36.875 140.227,37.833 141.479,37.833 C142.485,37.833 143.354,37.468 144.043,37.002 L149.096,43.730 C146.685,45.159 143.727,45.856 141.595,45.856 C135.876,45.856 130.191,41.348 130.194,33.805 L130.194,19.226 L126.135,19.226 L126.135,11.205 L130.194,11.205 L130.193,2.784 L137.862,2.784 L137.862,11.205 L144.421,11.205 L144.421,19.226 L137.862,19.226 L137.862,33.685 ZM115.704,43.741 C115.704,43.741 112.957,45.828 109.184,45.828 C101.038,45.828 95.467,39.201 95.467,31.056 L95.467,11.205 L103.136,11.205 L103.136,31.056 C103.136,34.780 105.696,37.924 109.419,37.924 C113.144,37.924 115.704,34.780 115.704,31.056 L115.704,11.205 L123.372,11.205 L123.372,44.997 L115.704,44.997 L115.704,43.741 ZM96.265,44.997 L85.519,44.997 L74.207,31.116 L74.207,44.997 L66.311,44.997 L66.311,-0.007 L74.207,-0.007 L74.207,22.978 L83.409,11.205 L94.159,11.205 L81.004,27.045 L96.265,44.997 ZM54.268,43.498 C51.955,44.974 49.883,45.827 47.043,45.827 C38.318,45.827 31.689,37.876 31.689,28.103 C31.689,18.331 38.318,10.377 47.043,10.377 C49.883,10.377 51.955,11.232 54.268,12.705 L54.268,11.205 L61.936,11.205 L61.936,44.997 L54.268,44.997 L54.268,43.498 ZM47.043,18.518 C42.740,18.518 39.591,22.755 39.591,28.103 C39.591,33.453 42.740,37.690 47.043,37.690 C51.349,37.690 54.386,33.453 54.386,28.103 C54.386,22.755 51.349,18.518 47.043,18.518 ZM35.122,44.996 L25.081,44.996 L15.259,31.905 L9.586,31.905 L9.586,44.996 L1.565,44.996 L1.565,2.785 L14.820,2.785 C22.851,2.785 29.381,9.308 29.381,17.339 C29.381,22.229 26.952,26.546 23.253,29.200 L35.122,44.996 ZM14.820,10.800 L9.586,10.800 L9.586,23.885 L14.820,23.885 C18.422,23.885 21.368,20.957 21.368,17.339 C21.368,13.729 18.422,10.800 14.820,10.800 ZM4.068,64.291 L27.864,64.291 C29.955,64.291 31.636,65.872 31.636,67.858 C31.636,69.845 29.955,71.425 27.864,71.425 L19.763,71.425 L19.763,101.590 C19.763,103.629 18.082,105.259 15.942,105.259 C13.853,105.259 12.120,103.629 12.120,101.590 L12.120,71.425 L4.068,71.425 C1.980,71.425 0.299,69.845 0.299,67.858 C0.299,65.872 1.980,64.291 4.068,64.291 ZM35.811,71.833 C38.920,71.833 39.225,75.247 39.225,75.247 C40.806,73.311 43.200,72.291 45.085,71.883 C47.430,71.425 49.620,72.954 49.620,75.298 L49.620,75.348 C49.620,77.029 48.448,78.406 46.868,78.814 C44.881,79.323 42.894,79.834 41.365,82.176 C40.500,83.501 40.040,85.082 40.040,86.814 L40.040,101.386 C40.040,103.475 38.308,105.209 36.219,105.209 C34.130,105.209 32.398,103.475 32.398,101.386 L32.398,75.298 C32.398,73.360 33.926,71.833 35.811,71.833 ZM64.222,71.527 C67.330,71.527 69.775,72.750 71.712,75.247 C71.712,75.247 72.272,71.883 75.279,71.883 L75.533,71.883 C77.673,71.883 79.354,73.464 79.354,75.502 L79.354,101.182 C79.354,103.170 77.724,104.801 75.533,104.801 C72.272,104.801 71.712,101.489 71.712,101.489 C69.672,103.934 67.023,105.209 63.813,105.209 C55.762,105.209 49.239,97.616 49.239,88.341 C49.239,79.068 55.966,71.527 64.222,71.527 ZM64.323,98.075 C68.603,98.075 71.712,94.049 71.712,88.394 C71.712,82.686 68.603,78.660 64.272,78.660 C60.144,78.660 56.883,82.940 56.883,88.341 C56.883,93.745 60.195,98.075 64.323,98.075 ZM84.976,71.629 C87.116,71.018 89.409,72.240 90.020,74.431 L95.727,93.793 L101.333,74.431 C101.944,72.240 104.237,71.018 106.376,71.629 C108.620,72.291 109.843,74.636 109.129,76.826 L101.281,101.235 C100.466,103.629 98.225,105.260 95.727,105.260 C93.180,105.260 90.937,103.629 90.123,101.235 L82.224,76.826 C81.511,74.636 82.733,72.291 84.976,71.629 ZM124.541,71.476 C132.797,71.476 139.370,78.966 139.370,88.241 C139.370,89.514 138.249,90.584 136.923,90.584 L118.172,90.584 C118.682,95.119 121.586,97.922 125.764,97.922 C127.701,97.922 129.638,97.004 131.013,95.374 C132.083,94.101 134.173,94.050 135.650,94.917 C137.840,96.190 138.047,98.991 136.262,100.775 C133.408,103.577 130.249,105.210 125.561,105.210 C116.338,105.210 109.714,98.176 109.714,88.394 C109.714,78.814 116.184,71.476 124.541,71.476 ZM130.758,84.062 C129.995,80.241 127.854,78.253 124.594,78.253 C121.486,78.253 119.140,80.393 118.326,84.062 L130.758,84.062 ZM42.732,51.329 L167.266,51.329 L52.653,61.250 L42.732,51.329 ZM146.431,60.776 C148.519,60.776 150.252,62.508 150.252,64.597 L150.252,101.387 C150.252,103.475 148.519,105.209 146.431,105.209 C144.342,105.209 142.609,103.475 142.609,101.387 L142.609,64.597 C142.609,62.508 144.342,60.776 146.431,60.776 Z"/>
</svg>