<svg width="708" height="47" viewBox="0 0 708 47" fill="none" xmlns="http://www.w3.org/2000/svg">
<g clip-path="url(#clip0_2_246)">
<path d="M6.41694 47L0 41.7126H45L6.41694 47Z" fill="#BF0000"/>
<path d="M13.7293 37.7572V26.0504H18.8981L27.852 37.7572H36.9958L26.1833 23.6265C29.5478 21.2559 31.7591 17.3936 31.7591 13.0119C31.7591 5.83338 25.8034 0 18.4911 0H6.41693V37.7572H13.7293ZM13.7293 7.1652H18.4911C21.7742 7.1652 24.4603 9.78889 24.4603 13.0119C24.4603 16.2349 21.7742 18.8719 18.4911 18.8719H13.7293V7.1652Z" fill="#BF0000"/>
</g>
<g clip-path="url(#clip1_2_246)">
<path d="M101.417 47L95 41.7126H140L101.417 47Z" fill="#F59600"/>
<path d="M108.729 37.7572V26.0504H113.898L122.852 37.7572H131.996L121.183 23.6265C124.548 21.2559 126.759 17.3936 126.759 13.0119C126.759 5.83338 120.803 0 113.491 0H101.417V37.7572H108.729ZM108.729 7.1652H113.491C116.774 7.1652 119.46 9.78889 119.46 13.0119C119.46 16.2349 116.774 18.8719 113.491 18.8719H108.729V7.1652Z" fill="#F59600"/>
</g>
<g clip-path="url(#clip2_2_246)">
<path d="M196.274 47L190 41.7126H234L196.274 47Z" fill="#00B900"/>
<path d="M203.424 37.7572V26.0504H208.478L217.233 37.7572H226.174L215.601 23.6265C218.891 21.2559 221.053 17.3936 221.053 13.0119C221.053 5.83338 215.23 0 208.08 0H196.274V37.7572H203.424ZM203.424 7.1652H208.08C211.29 7.1652 213.917 9.78889 213.917 13.0119C213.917 16.2349 211.29 18.8719 208.08 18.8719H203.424V7.1652Z" fill="#00B900"/>
</g>
<g clip-path="url(#clip3_2_246)">
<path d="M290.417 47L284 41.7126H329L290.417 47Z" fill="#00A0F0"/>
<path d="M297.729 37.7572V26.0504H302.898L311.852 37.7572H320.996L310.183 23.6265C313.548 21.2559 315.759 17.3936 315.759 13.0119C315.759 5.83338 309.803 0 302.491 0H290.417V37.7572H297.729ZM297.729 7.1652H302.491C305.774 7.1652 308.46 9.78889 308.46 13.0119C308.46 16.2349 305.774 18.8719 302.491 18.8719H297.729V7.1652Z" fill="#00A0F0"/>
</g>
<g clip-path="url(#clip4_2_246)">
<path d="M385.417 47L379 41.7126H424L385.417 47Z" fill="#002896"/>
<path d="M392.729 37.7572V26.0504H397.898L406.852 37.7572H415.996L405.183 23.6265C408.548 21.2559 410.759 17.3936 410.759 13.0119C410.759 5.83338 404.803 0 397.491 0H385.417V37.7572H392.729ZM392.729 7.1652H397.491C400.774 7.1652 403.46 9.78889 403.46 13.0119C403.46 16.2349 400.774 18.8719 397.491 18.8719H392.729V7.1652Z" fill="#002896"/>
</g>
<g clip-path="url(#clip5_2_246)">
<path d="M480.274 47L474 41.7126H518L480.274 47Z" fill="#7D00BE"/>
<path d="M487.424 37.7572V26.0504H492.478L501.233 37.7572H510.174L499.601 23.6265C502.891 21.2559 505.053 17.3936 505.053 13.0119C505.053 5.83338 499.23 0 492.08 0H480.274V37.7572H487.424ZM487.424 7.1652H492.08C495.29 7.1652 497.917 9.78889 497.917 13.0119C497.917 16.2349 495.29 18.8719 492.08 18.8719H487.424V7.1652Z" fill="#7D00BE"/>
</g>
<g clip-path="url(#clip6_2_246)">
<path d="M574.417 47L568 41.7126H613L574.417 47Z" fill="#FF41BE"/>
<path d="M581.729 37.7572V26.0504H586.898L595.852 37.7572H604.996L594.183 23.6265C597.548 21.2559 599.759 17.3936 599.759 13.0119C599.759 5.83338 593.803 0 586.491 0H574.417V37.7572H581.729ZM581.729 7.1652H586.491C589.774 7.1652 592.46 9.78889 592.46 13.0119C592.46 16.2349 589.774 18.8719 586.491 18.8719H581.729V7.1652Z" fill="#FF41BE"/>
</g>
<g clip-path="url(#clip7_2_246)">
<path d="M669.417 47L663 41.7126H708L669.417 47Z" fill="black"/>
<path d="M676.729 37.7572V26.0504H681.898L690.852 37.7572H699.996L689.183 23.6265C692.548 21.2559 694.759 17.3936 694.759 13.0119C694.759 5.83338 688.803 0 681.491 0H669.417V37.7572H676.729ZM676.729 7.1652H681.491C684.774 7.1652 687.46 9.78889 687.46 13.0119C687.46 16.2349 684.774 18.8719 681.491 18.8719H676.729V7.1652Z" fill="black"/>
</g>
<defs>
<clipPath id="clip0_2_246">
<rect width="45" height="47" fill="white"/>
</clipPath>
<clipPath id="clip1_2_246">
<rect width="45" height="47" fill="white" transform="translate(95)"/>
</clipPath>
<clipPath id="clip2_2_246">
<rect width="44" height="47" fill="white" transform="translate(190)"/>
</clipPath>
<clipPath id="clip3_2_246">
<rect width="45" height="47" fill="white" transform="translate(284)"/>
</clipPath>
<clipPath id="clip4_2_246">
<rect width="45" height="47" fill="white" transform="translate(379)"/>
</clipPath>
<clipPath id="clip5_2_246">
<rect width="44" height="47" fill="white" transform="translate(474)"/>
</clipPath>
<clipPath id="clip6_2_246">
<rect width="45" height="47" fill="white" transform="translate(568)"/>
</clipPath>
<clipPath id="clip7_2_246">
<rect width="45" height="47" fill="white" transform="translate(663)"/>
</clipPath>
</defs>
</svg>
