<svg width="44" height="44" viewBox="0 0 44 44" fill="none" xmlns="http://www.w3.org/2000/svg">
<g clip-path="url(#clip0_195_86)">
<path d="M32 13.3H12V41.3H32V13.3Z" fill="black"/>
<path d="M17 16.3H15V19.3H17V16.3Z" fill="white"/>
<path d="M23 16.3H21V19.3H23V16.3Z" fill="white"/>
<path d="M29 16.3H27V19.3H29V16.3Z" fill="white"/>
<path d="M17 22.3H15V25.3H17V22.3Z" fill="white"/>
<path d="M23 22.3H21V25.3H23V22.3Z" fill="white"/>
<path d="M29 22.3H27V25.3H29V22.3Z" fill="white"/>
<path d="M17 28.3H15V31.3H17V28.3Z" fill="white"/>
<path d="M23 28.3H21V31.3H23V28.3Z" fill="white"/>
<path d="M29 28.3H27V31.3H29V28.3Z" fill="white"/>
<path d="M24 34.3H20V41.3H24V34.3Z" fill="white"/>
<path d="M15.02 3.16998H16.59V6.51998H20.15V3.16998H21.72V11.45H20.15V7.95998H16.59V11.45H15.02V3.16998Z" fill="black"/>
<path d="M23.22 7.31001C23.22 6.47001 23.39 5.73001 23.72 5.08001C24.05 4.43001 24.51 3.92001 25.11 3.56001C25.7 3.19001 26.39 3.01001 27.16 3.01001C27.93 3.01001 28.62 3.19001 29.21 3.56001C29.8 3.93001 30.27 4.44001 30.6 5.08001C30.94 5.73001 31.1 6.47001 31.1 7.31001C31.1 7.83001 31.03 8.32001 30.9 8.77001C30.77 9.22001 30.58 9.62001 30.33 9.98001L31.4 11.05L30.4 12.05L29.33 10.98C29.03 11.18 28.69 11.34 28.32 11.45C27.95 11.56 27.56 11.62 27.14 11.62C26.36 11.62 25.68 11.44 25.09 11.07C24.5 10.7 24.04 10.2 23.7 9.55001C23.37 8.91001 23.2 8.16001 23.2 7.32001L23.22 7.31001ZM24.82 7.31001C24.82 7.88001 24.92 8.38001 25.11 8.82001C25.3 9.26001 25.57 9.59001 25.93 9.83001C26.28 10.07 26.69 10.19 27.17 10.19C27.6 10.19 27.99 10.09 28.32 9.89001L27.28 8.83001L28.2 7.92001L29.18 8.90001C29.4 8.44001 29.52 7.91001 29.52 7.30001C29.52 6.73001 29.42 6.23001 29.23 5.80001C29.04 5.37001 28.77 5.03001 28.41 4.79001C28.06 4.55001 27.65 4.42001 27.17 4.42001C26.69 4.42001 26.27 4.54001 25.92 4.79001C25.57 5.03001 25.3 5.37001 25.1 5.80001C24.91 6.23001 24.81 6.73001 24.81 7.30001L24.82 7.31001Z" fill="black"/>
<path d="M34 39.3H10V41.3H34V39.3Z" fill="black"/>
</g>
<defs>
<clipPath id="clip0_195_86">
<rect width="24" height="38.3" fill="white" transform="translate(10 3)"/>
</clipPath>
</defs>
</svg>
