<?xml version="1.0" encoding="utf-8"?>
<!-- Generator: Adobe Illustrator 22.1.0, SVG Export Plug-In . SVG Version: 6.00 Build 0)  -->
<svg version="1.1" id="logo" xmlns="http://www.w3.org/2000/svg" xmlns:xlink="http://www.w3.org/1999/xlink" x="0px" y="0px"
	 viewBox="0 0 138.8 72.7" style="enable-background:new 0 0 138.8 72.7;" xml:space="preserve">
<style type="text/css">
	.st0{fill:#BF0000;}
</style>
<polygon class="st0" points="111.8,34.5 28.2,34.5 34.9,41.1 "/>
<path class="st0" d="M36,7.5v1C34.4,7.5,33,7,31.1,7c-5.9,0-10.3,5.3-10.3,11.9c0,6.6,4.5,11.9,10.3,11.9c1.9,0,3.3-0.6,4.9-1.6v1
	h5.1V7.5H36z M31.1,25.3c-2.9,0-5-2.8-5-6.4c0-3.6,2.1-6.4,5-6.4c2.9,0,4.9,2.8,4.9,6.4C36,22.5,34,25.3,31.1,25.3z"/>
<path class="st0" d="M77.2,7.5v13.3c0,2.5-1.7,4.6-4.2,4.6c-2.5,0-4.2-2.1-4.2-4.6V7.5h-5.2v13.3c0,5.5,3.7,9.9,9.2,9.9
	c2.5,0,4.4-1.4,4.4-1.4v0.8h5.2V7.5H77.2z"/>
<path class="st0" d="M125.2,30.2V16.9c0-2.5,1.7-4.6,4.2-4.6c2.5,0,4.2,2.1,4.2,4.6v13.3h5.2V16.9c0-5.5-3.7-9.9-9.2-9.9
	c-2.5,0-4.4,1.4-4.4,1.4V7.5h-5.2v22.7H125.2z"/>
<path class="st0" d="M6,30.2v-8.8h3.8l6.6,8.8h6.7l-8-10.6c2.5-1.8,4.1-4.7,4.1-8c0-5.4-4.4-9.8-9.8-9.8H0.6v28.3H6z M6,7.3h3.5
	c2.4,0,4.4,2,4.4,4.4c0,2.4-2,4.4-4.4,4.4H6V7.3z"/>
<path class="st0" d="M96.2,24.9c-0.5,0.3-1,0.6-1.7,0.6c-0.8,0-2.4-0.6-2.4-2.8v-9.7h4.4V7.5h-4.4l0-5.7h-5.2l0,5.7h-2.7v5.4h2.7
	v9.8c0,5.1,3.8,8.1,7.7,8.1c1.4,0,3.4-0.5,5-1.4L96.2,24.9z"/>
<polygon class="st0" points="53.9,18.2 62.7,7.5 55.5,7.5 49.3,15.4 49.3,0 44,0 44,30.2 49.3,30.2 49.3,20.9 56.9,30.2 64.2,30.2 
	"/>
<path class="st0" d="M108.1,7c-6,0-10.2,5.2-10.2,11.9c0,7,5.4,11.9,10.7,11.9c2.7,0,6.2-0.9,9.1-5.1l-4.5-2.6
	c-3.5,5.2-9.4,2.6-10.1-2.6l14.8,0C119.3,12.3,114,7,108.1,7z M112.6,15.9h-9.3C104.4,10.6,111.6,10.3,112.6,15.9z"/>
<path class="st0" d="M18,53.8c-1.3-2.8-3.4-4.3-5.9-4.3c-3.8,0-6.7,4.1-6.7,9.2c0,5.2,2.9,9.2,6.7,9.2c2.5,0,4.6-1.5,6-4.4l4.3,2.6
	c-2.2,4.4-5.5,6.6-10.3,6.6C5,72.7,0,66.9,0,58.7c0-8,5.2-14,12.2-14c4.6,0,8,2.3,10.2,6.6L18,53.8z"/>
<path class="st0" d="M38.7,70.2c-1.4,1.6-3.1,2.5-5.3,2.5c-5.4,0-9.8-5.1-9.8-11.3c0-6.2,4.5-11.3,10.1-11.3c2.1,0,3.7,0.8,5,2.5
	l0.7-2h4.4v21.6h-4.4L38.7,70.2z M28.8,61.4c0,3.6,2.2,6.5,5,6.5c2.9,0,5-2.7,5-6.5c0-3.8-2.1-6.5-5-6.5
	C31,54.9,28.8,57.8,28.8,61.4z"/>
<path class="st0" d="M51.5,52.6c1.4-1.6,3.6-2.5,6.3-2.5v4.8c-2.4,0.2-3.8,0.9-4.8,2.4c-0.6,0.9-0.9,2-0.9,3.1v11.8H47V50.6h4.1
	L51.5,52.6z"/>
<path class="st0" d="M73.7,70.2c-1.4,1.6-3.1,2.5-5.3,2.5c-5.4,0-9.8-5.1-9.8-11.3c0-6.2,4.5-11.3,10.1-11.3c2.1,0,3.7,0.8,5,2.5
	v-9.1h5.1v28.7h-4.4L73.7,70.2z M63.7,61.4c0,3.6,2.2,6.5,5,6.5c2.9,0,5-2.7,5-6.5c0-3.8-2.1-6.5-5-6.5
	C65.9,54.9,63.7,57.8,63.7,61.4z"/>
</svg>
