<?xml version="1.0" encoding="utf-8"?>
<!-- Generator: Adobe Illustrator 22.1.0, SVG Export Plug-In . SVG Version: 6.00 Build 0)  -->
<svg version="1.1" id="Logos" xmlns="http://www.w3.org/2000/svg" xmlns:xlink="http://www.w3.org/1999/xlink" x="0px" y="0px"
	 viewBox="0 0 247.1897888 41.134201" style="enable-background:new 0 0 247.1897888 41.134201;" xml:space="preserve">
<style type="text/css">
	.st0{fill:#002896;}
</style>
<path class="st0" d="M149.8058929,30.2206001h-3.0786896v-26.9291h3.0786896V30.2206001z"/>
<path class="st0" d="M156.2801971,10.3745003c1.3000946-1.3341999,3.6609039-2.2241001,5.9192047-2.2241001
	c4.6200867,0,7.7681885,3.5243998,7.7681885,8.6571007v13.4130993h-3.0796967v-13.4473
	c0-3.5243998-1.9848022-5.7484999-5.1329041-5.7484999c-2.9077911,0-5.5430908,2.6687994-5.5430908,5.6458998v13.5499001h-3.0798035
	v-21.5569h2.7378998L156.2801971,10.3745003z"/>
<path class="st0" d="M183.9709015,13.1461c-1.0608063-1.3001003-2.7037048-2.1212997-4.3457031-2.1212997
	c-2.1214905,0-3.5583038,1.1974993-3.5583038,3.0110998c0,1.1290998,0.3760071,1.9161997,1.1974945,2.4636993
	c0.410202,0.3079014,0.410202,0.3079014,4.0028076,1.8477001c4.1746979,1.8476009,5.8175964,3.6954002,5.8175964,6.5356007
	c0,3.5925007-2.8746033,5.8852005-7.4253998,5.8852005c-3.2848053,0-5.7823944-1.1633015-7.6304932-3.5244007l2.1558075-1.9503002
	c1.6770935,1.8477001,3.28479,2.6002998,5.5088806,2.6002998c2.5328064,0,4.106308-1.1290989,4.106308-2.9765987
	c0-1.0266018-0.6163025-2.0874004-1.7796021-2.9770012c-0.7863007-0.5818996-1.7444916-1.0606995-4.4823914-2.1898994
	c-3.3531952-1.4029007-4.7559052-3.1137009-4.7559052-5.8509998c0-3.4561005,2.7368927-5.7488003,6.8432007-5.7488003
	c2.7026978,0,4.6875153,0.8214998,6.5697021,2.7031994L183.9709015,13.1461z"/>
<path class="st0" d="M189.1481018,5.9947V2.4363h3.5583954V5.9947H189.1481018z M189.3873901,30.2206001v-21.5569h3.0798035v21.5569
	H189.3873901z"/>
<path class="st0" d="M212.3683929,25.8066006c0,6.5697994-3.1481018,10.1966991-8.8280029,10.1966991
	c-3.1138916,0-5.7139893-1.1974983-7.6987915-3.5586014l2.0531158-1.9502983
	c1.3684845,1.6766014,3.5241852,2.7714996,5.4063873,2.7714996c3.9686127,0,5.6798859-2.6348,5.8166046-8.9305
	c-1.2317047,1.8817005-3.3190002,2.9083004-6.0569153,2.9083004c-4.7899933,0-8.1773987-3.8323002-8.1773987-9.2387009
	c0-5.7482996,3.5241089-9.854599,8.4177094-9.854599c2.394989,0,4.277298,0.7529001,5.748291,2.2582998l0.6163177-1.7449999
	h2.7026825V25.8066006z M198.0997925,17.8682003c0,3.9006996,2.2583008,6.6380997,5.5090027,6.6380997
	c3.3190002,0,5.577301-2.7031994,5.577301-6.6380997c0-3.9689999-2.4291992-6.9804001-5.611496-6.9804001
	C200.3580933,10.8878002,198.0997925,13.7622004,198.0997925,17.8682003z"/>
<path class="st0" d="M218.772995,10.8193998c1.6087952-1.7108002,3.7303009-2.6689997,6.0227966-2.6689997
	c4.5849152,0,7.7330017,3.5243998,7.7330017,8.6571007v13.4130993h-3.0796967v-13.4473
	c0-3.5243998-1.9848022-5.7484999-5.1320038-5.7484999c-2.9087982,0-5.5440979,2.6687994-5.5440979,5.6458998v13.5499001h-3.0787048
	V1.5123h3.0787048V10.8193998z"/>
<path class="st0" d="M240.0720978,3.9418001v4.7219h5.4064026v2.8744001h-5.4064026v14.3026991
	c0,1.3345013,0.7530975,2.0529003,2.1900024,2.0529003c1.1974945,0,1.8821869-0.4104004,2.6010895-1.6423988l2.3265991,1.6082993
	c-1.5402985,2.1898994-2.874588,2.9085007-5.2353973,2.9085007c-2.3609009,0-3.8670044-0.9238014-4.5849915-2.8744011
	c-0.2734985-0.718399-0.3769989-1.471199-0.3769989-2.737299V11.5381002h-3.6951141V8.6637001h3.6951141v-4.7219H240.0720978z"/>
<polygon class="st0" points="111.2714005,34.4726982 27.6448002,34.4726982 34.3062973,41.134201 "/>
<path class="st0" d="M35.3915977,7.5289001v1.007c-1.5527992-0.9889002-2.9454002-1.5643001-4.8522987-1.5643001
	c-5.8585911,0-10.3092995,5.3425002-10.3092995,11.9039001c0,6.5632,4.4507084,11.9025993,10.3092995,11.9025993
	c1.9068985,0,3.2994995-0.573,4.8522987-1.5635986v1.0061989h5.1497002V7.5289001H35.3915977z M30.539299,25.3136997
	c-2.8887997,0-5.0039997-2.8446999-5.0039997-6.4382c0-3.5908995,2.1152-6.4359999,5.0039997-6.4359999
	c2.8924103,0,4.9309998,2.8451004,4.9309998,6.4359999C35.4702988,22.4689999,33.4317093,25.3136997,30.539299,25.3136997z"/>
<path class="st0" d="M76.6465988,7.5289001v13.3300991c0,2.5004005-1.7176971,4.6122017-4.2198944,4.6122017
	c-2.5,0-4.2192078-2.1118011-4.2192078-4.6122017V7.5289001h-5.1500969v13.3300991
	c0,5.4695015,3.7415962,9.9190998,9.211895,9.9190998c2.5332031,0,4.3773041-1.4010983,4.3773041-1.4010983v0.8436985h5.1501083
	V7.5289001H76.6465988z"/>
<path class="st0" d="M124.6343994,30.2206993V16.8906002c0-2.5004005,1.7176971-4.6121998,4.2198029-4.6121998
	c2.5000916,0,4.2191925,2.1117992,4.2191925,4.6121998v13.3300991h5.1501007V16.8906002
	c0-5.4695005-3.7415009-9.9190998-9.211792-9.9190998c-2.5332031,0-4.3773041,1.4010997-4.3773041,1.4010997V7.5289001h-5.1501007
	v22.6917992H124.6343994z"/>
<path class="st0" d="M5.3863001,30.2206993v-8.7912998h3.8097l6.595499,8.7912998h6.7426004l-7.9698-10.6079998
	c2.4837008-1.7827988,4.1148996-4.6817999,4.1148996-7.9655991c0-5.3928003-4.3851995-9.7729006-9.7779999-9.7729006H0v28.3464985
	H5.3863001z M5.3863001,7.2561998h3.5148993c2.4187002,0,4.3968,1.9675999,4.3968,4.3909006
	c0,2.4298992-1.9780998,4.3960991-4.3968,4.3960991H5.3863001V7.2561998z"/>
<path class="st0" d="M95.6772995,24.8512993c-0.4625931,0.3138008-1.046402,0.5581017-1.7221985,0.5581017
	c-0.8413925,0-2.4277039-0.6429005-2.4277039-2.7841015v-9.7105999h4.4043121V7.5286002h-4.4043121l-0.0003967-5.6547003h-5.1501999
	l0.0003967,5.6547003H83.65271v5.3860993h2.7244873v9.7893009c-0.0013962,5.0669994,3.8161011,8.0935993,7.6567001,8.0935993
	c1.4310989,0,3.4172974-0.4685993,5.0378113-1.428299L95.6772995,24.8512993z"/>
<polygon class="st0" points="53.3451996,18.1655006 62.1792984,7.5289001 54.9598999,7.5289001 48.7812004,15.4338999 48.7812004,0 
	43.4780006,0 43.4780006,30.2206993 48.7812004,30.2206993 48.7812004,20.8992996 56.3770981,30.2206993 63.5928001,30.2206993 "/>
<path class="st0" d="M107.5731964,6.9531002c-5.960701,0-10.2363968,5.2379999-10.2363968,11.9216995
	c0,7.0275993,5.3667984,11.9235001,10.7480011,11.9235001c2.7162933,0,6.196907-0.9312992,9.120903-5.0795994l-4.5488052-2.6268997
	c-3.5179977,5.1857986-9.3811035,2.5536995-10.0579987-2.6317005l14.8348999,0.0032997
	C118.7029953,12.3132,113.4332962,6.9531002,107.5731964,6.9531002z M112.0690994,15.9457998h-9.2757034
	C103.8772964,10.6309996,111.0654984,10.3261003,112.0690994,15.9457998z"/>
</svg>
