<?xml version="1.0" encoding="utf-8"?>
<!-- Generator: Adobe Illustrator 22.1.0, SVG Export Plug-In . SVG Version: 6.00 Build 0)  -->
<svg version="1.1" id="logo" xmlns="http://www.w3.org/2000/svg" xmlns:xlink="http://www.w3.org/1999/xlink" x="0px" y="0px"
	 viewBox="0 0 211.7 73.8" style="enable-background:new 0 0 211.7 73.8;" xml:space="preserve">
<style type="text/css">
	.st0{fill:#BF0000;}
</style>
<polygon class="st0" points="111.3,34.5 27.6,34.5 34.3,41.1 "/>
<path class="st0" d="M35.4,7.5v1c-1.6-1-2.9-1.6-4.9-1.6c-5.9,0-10.3,5.3-10.3,11.9c0,6.6,4.5,11.9,10.3,11.9c1.9,0,3.3-0.6,4.9-1.6
	v1h5.1V7.5H35.4z M30.5,25.3c-2.9,0-5-2.8-5-6.4c0-3.6,2.1-6.4,5-6.4c2.9,0,4.9,2.8,4.9,6.4C35.5,22.5,33.4,25.3,30.5,25.3z"/>
<path class="st0" d="M76.6,7.5v13.3c0,2.5-1.7,4.6-4.2,4.6c-2.5,0-4.2-2.1-4.2-4.6V7.5h-5.1v13.3c0,5.5,3.7,9.9,9.2,9.9
	c2.5,0,4.4-1.4,4.4-1.4v0.8h5.2V7.5H76.6z"/>
<path class="st0" d="M124.6,30.2V16.9c0-2.5,1.7-4.6,4.2-4.6c2.5,0,4.2,2.1,4.2,4.6v13.3h5.1V16.9c0-5.5-3.7-9.9-9.2-9.9
	c-2.5,0-4.4,1.4-4.4,1.4V7.5h-5.2v22.7H124.6z"/>
<path class="st0" d="M5.4,30.2v-8.8h3.8l6.6,8.8h6.7l-8-10.6c2.5-1.8,4.1-4.7,4.1-8c0-5.4-4.4-9.8-9.8-9.8H0v28.3H5.4z M5.4,7.3h3.5
	c2.4,0,4.4,2,4.4,4.4c0,2.4-2,4.4-4.4,4.4H5.4V7.3z"/>
<path class="st0" d="M95.7,24.9c-0.5,0.3-1,0.6-1.7,0.6c-0.8,0-2.4-0.6-2.4-2.8v-9.7h4.4V7.5h-4.4l0-5.7h-5.2l0,5.7h-2.7v5.4h2.7
	v9.8c0,5.1,3.8,8.1,7.7,8.1c1.4,0,3.4-0.5,5-1.4L95.7,24.9z"/>
<polygon class="st0" points="53.3,18.2 62.2,7.5 55,7.5 48.8,15.4 48.8,0 43.5,0 43.5,30.2 48.8,30.2 48.8,20.9 56.4,30.2 
	63.6,30.2 "/>
<path class="st0" d="M107.6,7c-6,0-10.2,5.2-10.2,11.9c0,7,5.4,11.9,10.7,11.9c2.7,0,6.2-0.9,9.1-5.1l-4.5-2.6
	c-3.5,5.2-9.4,2.6-10.1-2.6l14.8,0C118.7,12.3,113.4,7,107.6,7z M112.1,15.9h-9.3C103.9,10.6,111.1,10.3,112.1,15.9z"/>
<path class="st0" d="M134.5,41.4c4.6,0,8,3.3,8,7.6c0,2.6-1.6,4.8-4.1,5.5c3.4,0.6,5.4,2.9,5.4,6.1c0,4.7-3.2,7.7-8,7.7H124V41.4
	H134.5z M129.2,52.5h5c1.6,0,2.9-1.4,2.9-3.2c0-1.7-1.3-3.1-2.9-3.1h-4.9V52.5z M129.2,63.6h6.3c1.6,0,2.9-1.4,2.9-3.1
	c0-1.8-1.3-3.2-2.9-3.2h-6.3V63.6z"/>
<path class="st0" d="M160.5,66.4c-1.4,1.6-3.1,2.5-5.3,2.5c-5.4,0-9.8-5.1-9.8-11.3c0-6.2,4.5-11.3,10.1-11.3c2.1,0,3.7,0.8,5,2.5
	l0.7-2h4.4v21.6h-4.4L160.5,66.4z M150.5,57.6c0,3.6,2.2,6.5,5,6.5c2.9,0,5-2.7,5-6.5c0-3.8-2.1-6.5-5-6.5
	C152.7,51.1,150.5,54,150.5,57.6z"/>
<path class="st0" d="M173.8,48.7c1.1-1.5,3-2.4,5.2-2.4c5,0,8.5,3.9,8.5,9.4v12.7h-5.1V55.7c0-2.7-1.7-4.6-4.1-4.6
	c-2.4,0-4.5,2.1-4.5,4.6v12.7h-5.1V46.8h4.4L173.8,48.7z"/>
<path class="st0" d="M204.4,68.4l-8.6-9.1v9.1h-5.1V39.7h5.1v15l7.3-7.8h7.3l-10.1,10.1l11.5,11.4H204.4z"/>
<path class="st0" d="M5.1,46.2v5.6h10.1v4.8H5.1v6.9h11.3v4.8H0V41.4h16.5v4.8H5.1z"/>
<path class="st0" d="M32.9,66.5c-1.1,1.5-3,2.4-5.2,2.4c-5,0-8.5-3.9-8.5-9.4V46.8h5.1v12.7c0,2.7,1.7,4.6,4.1,4.6
	c2.4,0,4.5-2.1,4.5-4.6V46.8H38v21.6h-4.4L32.9,66.5z"/>
<path class="st0" d="M45.7,48.8c1.4-1.6,3.6-2.5,6.3-2.5v4.8c-2.4,0.2-3.8,0.9-4.8,2.4c-0.6,0.9-0.9,2-0.9,3.1v11.8h-5.1V46.8h4.1
	L45.7,48.8z"/>
<path class="st0" d="M72.7,57.6c0,6.6-4.2,11.3-10.1,11.3c-5.9,0-10.1-4.8-10.1-11.3s4.2-11.3,10.1-11.3
	C68.4,46.3,72.7,51,72.7,57.6z M57.6,57.6c0,3.5,2.1,6.2,5,6.2c2.9,0,5-2.6,5-6.2c0-3.6-2.1-6.2-5-6.2
	C59.7,51.4,57.6,54.1,57.6,57.6z"/>
<path class="st0" d="M79.8,48.8c1.3-1.6,2.9-2.5,5-2.5c5.5,0,10.1,5.1,10.1,11.3c0,6.3-4.4,11.3-9.9,11.3c-2,0-3.7-0.8-5.2-2.2v7.1
	h-5.1v-27h4.4L79.8,48.8z M79.8,57.6c0,3.8,2.1,6.5,5,6.5c2.8,0,5-2.9,5-6.5c0-3.7-2.2-6.5-5-6.5C81.9,51.1,79.8,53.8,79.8,57.6z"/>
<path class="st0" d="M115.9,64.1c-2.4,3.3-5.2,4.8-8.8,4.8c-6.2,0-10.6-4.7-10.6-11.3c0-6.4,4.3-11.4,10-11.4c5.5,0,10,5,10,11.3
	c0,0.5,0,1-0.1,1.6h-14.1c0.3,3,2.3,4.9,5.1,4.9c1.5,0,2.9-0.9,4.2-2.5L115.9,64.1z M110.6,54.7c-0.5-2.6-2-3.9-4.1-3.9
	c-2.1,0-3.7,1.4-4.2,3.9H110.6z"/>
</svg>
